<?xml version="1.0" encoding="utf-8"?>
<!-- Generator: Adobe Illustrator 18.1.0, SVG Export Plug-In . SVG Version: 6.00 Build 0)  -->
<svg version="1.1" id="Layer_1" xmlns="http://www.w3.org/2000/svg" xmlns:xlink="http://www.w3.org/1999/xlink" x="0px" y="0px"
	 viewBox="0 0 360 360" enable-background="new 0 0 360 360" xml:space="preserve">
<g>
	<g id="XMLID_1_">
		<g>
			<path fill="#898989" d="M112.5,285.7c-2.8,8.5-5.6,10.5-12.1,8.9c-1.9-0.4-4.8,0.2-4.5-3.4c0.3-3.2,1.4-6.2,5-6.4
				C104.7,284.7,108.6,285.4,112.5,285.7z"/>
			<path d="M241.9,101.4c1.1,2.1,2.6,4.1,3.1,6.3c2.8,14.1,3.5,28.4,2,42.7c-0.2,1.9-1.2,3.7-2,5.7c-5.7-2.4-7.3-6.8-7.4-11.5
				c-0.3-11.8-0.3-23.7-0.1-35.5c0-2.6,1.5-5.1,2.3-7.6C240.5,101.5,241.2,101.4,241.9,101.4z M241.7,114.6
				c0.3,9.6-1.8,19.4,1.5,28.8C243.6,133.8,247,123.9,241.7,114.6z"/>
			<path fill="#898989" d="M213.9,342.1c4.1,0.3,4.3,3,4.6,5.8c0.3,3.4-2.5,3.1-4.6,3c-20.9-0.8-41.8-1.6-62.7-2.6
				c-40.5-2-80.1-10.4-119.8-17.6c-4.2-0.8-8.3-2.7-12.3-4.5c-1.7-0.7-2.9-2.5-4.3-3.8c0.3-0.6,0.5-1.1,0.8-1.7
				c2.8,0.4,5.7,0.6,8.5,1.2c34.5,7.8,69.6,11.2,104.8,13.7C157.3,337.7,185.6,340.1,213.9,342.1z"/>
			<path d="M252.8,323.6c0.1-7.5,6.6-12.9,12-10C261.2,317.5,258.8,322.5,252.8,323.6z"/>
			<path fill="#898989" d="M133,228.3c-1.6,7.8-9.8,12.9-17.5,10.7C119.4,232.4,126.5,228.2,133,228.3z"/>
			<path fill="#89BDD3" d="M199.6,142c-1.9-9.9-2.5-19.7-1.2-29.5c0.4,0,0.8,0,1.2,0C199.6,122.3,199.6,132.2,199.6,142z"/>
			<path fill="#898989" d="M187.9,234.4c2.1-0.3,4.9,0.7,6.6,2.1c0.6,0.4-0.4,4-1.5,5.5c-2.8,3.8-6.3,1.5-10.1,0.6
				C183.3,238.7,183.7,235,187.9,234.4z"/>
			<path fill="#898989" d="M225.7,247.6c3.5-10.7,10.9-8.2,18.1-8.3c-2.5,4.5-3.4,10-8.6,11.1C232.5,251.1,229,248.7,225.7,247.6z"
				/>
			<path fill="#898989" d="M155.4,256.3c2.1-8.5,2.6-8.9,10.1-8.9c6.2,0,12.4,0,19.1,0c-1.9,9.3-4.9,11.6-13.6,10.8
				C165.9,257.7,160.7,257,155.4,256.3z"/>
			<path fill="#4D4D4D" d="M131.1,325.4c9.9,0.9,19.6-0.6,26.6-8.6c4.5-5,9.4-5.5,15.5-4.8c18.1,2,36.2,3.6,54.3,5.2
				c5.4,0.5,9.7-1.9,13.3-5.7c13.1-14,26.2-28.1,39.3-42.1c3.2-3.4,6.7-6.6,9.4-10.4c5.4-7.6,1.4-16.4-7.8-17.7
				c-16.6-2.4-33.2-4.9-49.9-7.2c-17.3-2.4-34.5-4.7-51.8-6.8c-13.9-1.7-27.8-3-41.8-4.6c-7.1-0.8-13.5,0.1-18.6,6
				c-3.8,4.3-8.5,7.8-12.8,11.7c-16.9,15.5-33.7,31.1-50.5,46.7c-1,1-2.2,2.7-2,3.8c0.2,0.9,2.2,1.8,3.6,2.1
				c7.1,1.6,14.3,3,21.5,4.5c5.9,1.2,11.8,2.5,18.5,3.9c-2.6,4.2-4.6,7.4-6.4,10.6c-2.8,5.3-1.6,8,4.3,8.8
				C107.6,322.7,119.3,324.4,131.1,325.4z M132.2,217.6c3.5-1.1,4.9-2.6,6.7-6.2c5-10.1,3.7-20.5,3-30.7c-0.5-6.2-1.4-12.3-2.4-18.5
				l2.4-0.4c2.3,14.2,4.7,28.4,7.2,42.6c1.3,7.8,6.3,12.8,14.1,13.5c15,1.3,30.1,1.9,45.2,2.7c16.3,0.8,32.7,1.3,49,2.1
				c7.8,0.4,15.5,1.2,23.3,1.4c14.8,0.3,29.6,0.4,44.3,0.5c4.6,0,5.8-3.1,5.5-7c-0.3-3.4-0.9-6.8-1.2-10.2
				c-1.4-12.8-2.9-25.6-4.2-38.5c-0.9-9-1-18.1-2.4-27c-2.3-14.8-5.3-29.4-7.9-44.1c-1-5.7-2.9-8.5-8.4-9.1l0.3-2.2
				c0.3,0,0.7,0.1,1,0.1c7.5,0.9,9.1,2.8,10.1,10.3c2.6,19.3,5.6,38.5,8.2,57.8c2.4,17.3,4.5,34.6,6.8,51.8
				c0.7,4.9,1.6,9.8,2.2,14.8c1.1,7.8-2.1,14-7.8,19.1c-27.2,24.5-54.3,48.9-81.5,73.3c-5.7,5.1-11.8,9.8-17.2,15.2
				c-7.3,7.2-16.2,8-25.6,7.2c-5.1-0.4-10.2-1.3-15.3-1.7c-23.6-1.9-47.2-3.4-70.8-5.7c-25.4-2.5-50.7-5.6-76.1-8.6
				c-6-0.7-12-1.8-18-2.8c-1.5-0.3-2.9-1-5.3-1.9c17-15.6,32.9-30.6,49.2-45.1c18.1-16,36.6-31.7,55.1-47.3
				C124.5,220.6,128.4,218.9,132.2,217.6z M326.3,231c-20.7-2.2-41.4-3.6-62.1-5c-20.8-1.5-41.7-2.3-62.5-3.4
				c-20.7-1.1-41.3-3-62-1.7C150.7,225.5,321.5,235.3,326.3,231z M300.1,243.7c0.5,1.9,2.8,4.1,4.7,4.6c3.3,0.8,9.4-4.4,8.6-7
				c-0.7-2.1-2.9-3.6-3.7-4.6C303.7,236.8,299.2,240.4,300.1,243.7z"/>
			<path fill="#898989" d="M155.4,260.4c1.5,0.3,3.5,1.7,3.7,2.8c0.2,1.2-1.2,3.4-2.5,4c-3.2,1.6-6.8,2.5-8.8,3.2
				c-5.5-0.7-9.3-0.8-12.8-1.8c-1.9-0.5-5.1-3.1-4.8-3.9c0.7-2.2,2.5-5,4.5-5.8c2.5-1.1,5.8-0.7,8.7-0.4
				C147.4,258.8,151.4,259.5,155.4,260.4z"/>
			<path d="M141.9,14.1h-2.2c0-3.3,0.1-6.6,0.3-10c2,1.7,3.8,5.2,5.2,9.7l-2.1,0.3c0-0.1,0-0.1,0-0.2
				C142.7,14,142.3,14.1,141.9,14.1z"/>
			<path fill="#898989" d="M118.7,244.4c-1.9,7-5.6,8.5-12.3,4.9C107.9,242.7,112.1,241,118.7,244.4z"/>
			<path d="M313.3,241.3c0.8,2.6-5.3,7.8-8.6,7c-1.9-0.5-4.2-2.7-4.7-4.6c-0.8-3.3,3.6-6.8,9.6-6.9
				C310.5,237.7,312.7,239.2,313.3,241.3z"/>
			<path fill="#898989" d="M267.6,271.7c-3.9,9.2-8.6,11.9-17,10.6c-6.4-1-12.9-1.8-19.3-3.3c-2.2-0.5-3.8-3-5.7-4.5
				c1.9-1.8,3.8-5.2,5.6-5.2C243.1,269.8,255.1,270.9,267.6,271.7z"/>
			<path d="M132.5,238.3c9.6,1.9,12.9,0.4,13.7-5.8C138.9,229.9,135.1,231.4,132.5,238.3z M168.3,278.3c-3.7-3.2-5.8-3.8-15-4
				c-7.1-0.2-9.5,1.8-11.2,10c6,0.3,11.8,0.6,17.6,0.7C164.3,285.2,167.1,283,168.3,278.3z M271.7,242.3c-4.1-0.1-5.8,2.3-6.8,5.5
				c-1,3.2,0.6,5,3.5,6c2.2,0.8,4.4,1.6,6.5,2.7c4,2.2,7.2,0.6,10.2-1.9c3.3-2.8,2.9-6.4-1-8.1C280.1,244.7,275.8,243.7,271.7,242.3
				z M157.8,231.2c-4.7-0.4-6.3,1.1-7.4,7.2C154.8,239,156.6,237.3,157.8,231.2z M106.4,249.3c6.8,3.6,10.4,2.1,12.3-4.9
				C112.1,241,107.9,242.7,106.4,249.3z M220.1,249.1c0.6-0.3,1.2-0.6,1.8-0.8c0.3-3,1.8-6.6,0.6-8.8c-0.8-1.5-5.3-2-7.9-1.5
				c-1.4,0.3-3.5,4.9-3.1,5.3C214,245.5,217.1,247.2,220.1,249.1z M100.4,294.7c6.5,1.5,9.2-0.5,12.1-8.9c-4-0.3-7.8-1-11.6-0.8
				c-3.5,0.2-4.7,3.2-5,6.4C95.6,294.8,98.6,294.2,100.4,294.7z M209.1,276.9c12.8,1.1,9,3.4,15.2-9.2c-6.9-1.2-13.3-2.3-19.7-3.4
				c-8-1.3-8.2-1.1-11.7,6.1c-1.5,3.1-0.7,4.7,2.7,5.1C200.1,276,204.6,276.5,209.1,276.9z M182.9,242.6c3.8,0.9,7.3,3.2,10.1-0.6
				c1.1-1.5,2.1-5.1,1.5-5.5c-1.8-1.3-4.5-2.4-6.6-2.1C183.7,235,183.3,238.7,182.9,242.6z M250.5,282.4c8.4,1.3,13.1-1.4,17-10.6
				c-12.5-0.9-24.5-2-36.5-2.3c-1.8-0.1-3.7,3.4-5.6,5.2c1.9,1.5,3.6,4,5.7,4.5C237.6,280.6,244.1,281.4,250.5,282.4z M193.9,250.1
				c-4.5,0.1-7.2,2.5-8.3,8.6c7.6,0.8,14.8,2,22,1.9c2.2,0,4.3-3.6,6.5-5.6c-2.1-1.5-4-3.9-6.3-4.3
				C203.3,249.9,198.6,250,193.9,250.1z M243.3,249.3c3.7,0.7,7.4,1.1,11,2.1c4,1.1,6.4,0,7.3-4c0.9-3.8-1.4-6.9-5.6-7.5
				C249.9,238.9,245.5,242.1,243.3,249.3z M229.2,282.9c-6.3-0.8-12.1-2-17.9-2c-2.2,0-4.9,2-6.6,3.8c-3.4,3.7-2.5,7.2,2.4,8.4
				C222.6,297,223.6,298.6,229.2,282.9z M206.5,310.9c5,1,10.2,2.3,15.2,1.8c4-0.3,8.2-2.5,11.5-4.9c2.9-2,1.7-5.3-1.8-6
				c-7.6-1.5-15.3-2.7-22.9-4.1c-4.6,0-6.5,1.6-7.2,6.2C200.6,308.1,203,310.2,206.5,310.9z M225.7,247.6c3.3,1.1,6.7,3.4,9.6,2.8
				c5.2-1.1,6.1-6.6,8.6-11.1C236.6,239.4,229.2,237,225.7,247.6z M232.8,298c8.1,2.2,16.3-2.5,20-12c-3.6-0.6-6.8-1.2-10-1.7
				c-7.9-1.2-9.5-0.1-13,7.1C228,295.2,229.2,297,232.8,298z M130.9,282.1c5.5,0.3,8.5-1.9,10.2-7.6c-2.2-0.8-4.5-2.1-6.7-2.2
				c-8.5-0.3-17.1-0.4-25.7-0.3c-5.2,0.1-7.4,3.2-6.5,9.9C111.6,281.9,121.3,281.6,130.9,282.1z M171,258.2
				c8.6,0.8,11.7-1.5,13.6-10.8c-6.6,0-12.8,0-19.1,0c-7.5,0-8,0.4-10.1,8.9C160.7,257,165.9,257.7,171,258.2z M218.1,257.3
				c-0.4,3.7,1.8,5.4,5.3,5.6c7,0.5,13.9,1.1,20.9,1.4c5.8,0.3,6.9-0.9,7.2-7.3c-3-0.5-6-1.1-9.1-1.6c-6-0.9-12-1.7-18-2.6
				C221,252.5,218.5,253.7,218.1,257.3z M77.4,277.3c13,4,20.8,2,22.7-5.7C90.7,266.3,80.8,268.8,77.4,277.3z M133,228.3
				c-6.5-0.1-13.7,4.1-17.5,10.7C123.2,241.2,131.4,236.1,133,228.3z M134.7,258.9c-2,0.8-3.8,3.5-4.5,5.8c-0.2,0.8,2.9,3.4,4.8,3.9
				c3.6,1,7.4,1.1,12.8,1.8c2-0.7,5.6-1.6,8.8-3.2c1.3-0.6,2.7-2.8,2.5-4c-0.2-1.1-2.3-2.5-3.7-2.8c-3.9-0.9-8-1.5-12-1.9
				C140.5,258.2,137.2,257.9,134.7,258.9z M202.6,245.6c1.6-1.5,3.9-3.3,5.8-5.5c1.8-2.2,0.7-4-1.8-4.9c-3.5-1.3-6.9,1-8.5,5.7
				C196.9,244,198.6,245,202.6,245.6z M170.6,241.1c1.4,0.8,3.6,1.6,5,1.1c4.2-1.4,4.2-5.2,4-8.7c-0.4-0.5-0.9-1-1.3-1.5
				c-2.3,1.7-4.9,3.2-7,5.1C170.5,237.9,170.2,240.9,170.6,241.1z M119.7,228.8c5.2-5.9,11.5-6.8,18.6-6c13.9,1.6,27.9,2.9,41.8,4.6
				c17.3,2.1,34.6,4.4,51.8,6.8c16.6,2.3,33.2,4.8,49.9,7.2c9.1,1.3,13.2,10.1,7.8,17.7c-2.7,3.8-6.2,7-9.4,10.4
				c-13.1,14-26.2,28-39.3,42.1c-3.6,3.9-7.9,6.2-13.3,5.7c-18.1-1.6-36.3-3.2-54.3-5.2c-6.1-0.7-11.1-0.2-15.5,4.8
				c-7,7.9-16.7,9.4-26.6,8.6c-11.8-1.1-23.5-2.8-35.2-4.5c-5.8-0.8-7.1-3.6-4.3-8.8c1.8-3.3,3.8-6.4,6.4-10.6
				c-6.8-1.4-12.6-2.7-18.5-3.9c-7.2-1.5-14.3-2.9-21.5-4.5c-1.4-0.3-3.4-1.2-3.6-2.1c-0.2-1.1,1-2.8,2-3.8
				c16.8-15.6,33.6-31.1,50.5-46.7C111.2,236.6,115.9,233.2,119.7,228.8z M165,264.2c-1.1,0.5-1.7,2.9-1.6,4.4
				c0,0.8,1.9,1.8,3.1,2.1c4.7,0.9,9.5,1.6,14.2,2.4l0-0.2c0.5,0,0.9,0,1.4,0.1c4.1,0.9,5.5-2.2,5.9-4.9c0.2-1.1-2.5-3.4-4.3-4
				c-3.4-1.1-7-2-10.5-2C170.5,262,167.6,263,165,264.2z M129,243.2c-3.6-0.1-6.4,2.3-7.7,5.9c-1,2.8-0.2,4.6,3,4.9
				c6.4,0.4,12.7,0.9,19.1,1.1c6.5,0.1,8.9-2.3,9.6-9.9C145,244.5,137,243.5,129,243.2z M114.8,267.6c7.9,0.8,10-0.5,12.6-9.3
				c-7.7-1.3-15.3-3.1-22.9-3.7c-7.1-0.6-10.6,3-11.8,10.8C100,266.2,107.4,266.9,114.8,267.6z M192.5,308.9
				c4.6,0.6,4.6-4.3,5.5-7.4c1-3.4-1.9-3.9-4.1-4.3c-6.2-1.2-12.5-2.3-18.8-3.3c-6.5-1-10.8,1.7-13.6,9.1
				C172.2,305.1,182.3,307.5,192.5,308.9z M86,293c3.5,0.6,5.8-0.3,6.5-4.1c0.7-3.8-2-5-4.8-5.6c-3.6-0.8-7.4-1-11-1.5
				c-5.5-0.7-9,2.6-13.6,6.5c2.7,0.9,4.3,1.7,6,2C74.6,291.3,80.3,292,86,293z M131.2,316.9c9.4,1.5,15.9-1.7,21.1-9.3
				c3.7-5.5,7.9-10.6,12.4-16.6c-6.8-0.8-12.3-1.4-17.9-2c-5.5-0.6-11.1-1-16.7-1.6c-1.6,4.6-0.9,9.8-6.4,12.1
				c-4.3,1.8-8.1,5.2-13.6,4.9c2.9-4.2,5.2-7.5,7.6-10.9c-0.3-0.9-0.7-2.1-1.2-4c-5.4,8.1-12.2,14.8-15.8,24.2
				C111.4,314.8,121.4,315.3,131.2,316.9z M163.2,241.7c2.4-2.1,4.5-4.4,6.7-6.7c-0.3-0.7-0.7-1.5-1-2.2c-1.9-0.2-4.7-1.3-5.7-0.5
				c-1.7,1.7-2.6,4.4-3.3,6.8C159.9,239.7,163,241.9,163.2,241.7z M171.6,282.6c-0.6,3.1,0.8,4.7,3.6,5.5c2.7,0.8,5.3,1.8,8,2.5
				c10.5,2.7,13.5,1.1,18-10.5c-8.4-1.2-16.2-2.5-24-3.2C173.7,276.6,172.3,279.4,171.6,282.6z M270.1,268.4
				c4.3,0.7,7.2-0.9,9.1-4.6c-3.1-2.9-17.9-5.7-21.2-3.6c-1.3,0.8-2.1,2.9-2.3,4.5c-0.1,0.6,2,2,3.3,2.2
				C262.7,267.7,266.4,267.8,270.1,268.4z"/>
			<path d="M222.7,338.6c-2.7,2.4-2.3,6.6,0.6,9.9c2.6,3,4.5,0.4,6.4-1c9.5-6.9,19.4-13.3,28.2-20.9c21.7-19,43.2-38.3,64.3-58
				c6.9-6.4,12.8-14,18.7-21.4c3.2-4,2.1-7.8-2.1-11.5c-1.8,2-3.2,3.9-4.8,5.5c-30.7,31-64,59-98,86.2
				C231.5,331.1,227,334.8,222.7,338.6z M233,69.4c24.3,1.4,53,2.9,81.6,4.7c6.5,0.4,10.6,4.5,11.8,10.8
				c4.9,26.9,10.3,53.6,14.4,80.6c2.2,14.7,2.1,29.9,3,44.8c0.2,3.7,0.1,7.5-0.2,11.2c-0.4,6.1-0.9,11.9,3.2,17.4
				c3.3,4.6,1.8,10.6-3.1,15.2c-13.7,12.8-27.6,25.4-41.4,38.1c-16.4,15.1-32.7,30.4-49.4,45.3c-5.9,5.3-12.2,10.4-19,14.4
				c-4.2,2.5-9.8,4.4-14.5,4c-40.4-3.8-81.2-3.2-121.3-10c-25.5-4.3-50.9-9.3-76.4-14c-5-0.9-8.9-3-10-8.4c-1.2-5.5,1.1-9.9,5-13.4
				C28.1,300,39.5,290,50.8,280c20.8-18.4,41.5-36.9,62.4-55.2c5.4-4.7,11.3-8.9,16.9-13.3c5.2-4.1,7.6-9.1,6.8-15.9
				c-3.6-29.9-7.2-59.8-10.6-89.7c-0.7-6.5-1.1-13.1-1.1-19.6c0-6.6,4.9-11.7,11.9-13.1c17.9-3.5,36-3.9,54.1-3.7
				C203.7,69.5,216.2,69.4,233,69.4z M17.3,315.5c2.5,0.9,3.8,1.6,5.3,1.9c6,1,12,2.1,18,2.8c25.3,3,50.7,6.1,76.1,8.6
				c23.6,2.3,47.2,3.8,70.8,5.7c5.1,0.4,10.2,1.3,15.3,1.7c9.4,0.8,18.3,0,25.6-7.2c5.5-5.4,11.5-10.1,17.2-15.2
				c27.2-24.4,54.3-48.9,81.5-73.3c5.7-5.1,8.8-11.2,7.8-19.1c-0.7-4.9-1.6-9.8-2.2-14.8c-2.3-17.3-4.4-34.6-6.8-51.8
				c-2.6-19.3-5.6-38.5-8.2-57.8c-1-7.5-2.6-9.4-10.1-10.3c-0.3,0-0.7-0.1-1-0.1c-9.2-1.1-18.5-2.6-27.7-3.3
				c-12.6-1-25.2-2-37.8-2.1l0-2.3c2.4,0,4.8,0,7.2,0c22.3,0,44.6,1.8,66.6,5.7c3.8,0.7,6,2.2,6.8,6c0,0.3,0.1,0.5,0.1,0.8
				c4,33.3,8.2,66.6,12.4,99.9c1.2,9.9,2.6,19.7,3.9,29.6c0.4,0,0.7-0.1,1.1-0.1c0-11.8,1.3-23.7-0.3-35.3
				c-4.3-31.9-9.6-63.6-14.8-95.3c-0.2-1.2-0.4-2.4-0.6-3.6c-0.3-1.9-2.3-4.6-4-5.1c-7.1-2.2-14.4-4.1-21.7-5.2
				c-7.4-1.1-14.9-1-22.4-1.4c-40.4-2.3-80.8-2.7-121.2,0.5c-5.4,0.4-10.8,1.8-16.2,2.8c0,0.5,0.1,1,0.1,1.4c1.6,0,3.2,0,4.9,0
				c30.7-0.2,61.5-0.6,92.2-0.7l0.2,2.4c-10.3,0.2-20.6,0.9-30.9,1.3c-2.4,0.1-4.8,0.2-7.2,0.2c-20.8,0.3-41.5,0.1-62.3,0.2
				c-5.8,0-7.4,1.8-6.6,7.3c2.6,17.9,5.3,35.7,8.1,53.5c0.9,6.2,2.1,12.3,3.1,18.4c1,6.2,1.9,12.3,2.4,18.5
				c0.7,10.2,2.1,20.6-3,30.7c-1.8,3.6-3.2,5.1-6.7,6.2c-3.7,1.2-7.6,2.9-10.6,5.5c-18.5,15.6-37,31.3-55.1,47.3
				C50.1,284.9,34.3,299.9,17.3,315.5z M218.5,347.9c-0.2-2.8-0.5-5.5-4.6-5.8c-28.3-2-56.6-4.4-85-6.4
				c-35.2-2.5-70.3-5.9-104.8-13.7c-2.8-0.6-5.7-0.8-8.5-1.2c-0.3,0.6-0.5,1.1-0.8,1.7c1.4,1.3,2.6,3.1,4.3,3.8
				c4,1.8,8,3.7,12.3,4.5c39.7,7.2,79.3,15.7,119.8,17.6c20.9,1,41.8,1.8,62.7,2.6C216,351,218.7,351.2,218.5,347.9z"/>
			<path fill="#898989" d="M239.2,337.4c3.4-2.5,6.7-4.8,9.8-7.2c2.1-1.6,1.6-2.9-0.7-4c-3.8-1.8-5.8,0.7-7.8,3.1
				C238.7,331.5,235.4,333.4,239.2,337.4z M264.7,313.6c-5.4-2.8-11.9,2.6-12,10C258.8,322.5,261.2,317.5,264.7,313.6z M338.8,235.8
				c4.2,3.7,5.3,7.5,2.1,11.5c-5.9,7.4-11.8,15-18.7,21.4c-21.1,19.6-42.5,39-64.3,58c-8.8,7.7-18.7,14.1-28.2,20.9
				c-1.9,1.4-3.8,3.9-6.4,1c-2.9-3.3-3.3-7.5-0.6-9.9c4.3-3.8,8.8-7.5,13.3-11.1c34-27.2,67.3-55.2,98-86.2
				C335.6,239.7,337,237.8,338.8,235.8z"/>
			<path d="M145.2,13.8c2.2,7,3.5,16.2,3.3,24l-1.8,0c-1.2-7.9-2.4-15.8-3.6-23.7L145.2,13.8z"/>
			<path fill="#898989" d="M164.8,291c-4.5,6-8.7,11.1-12.4,16.6c-5.2,7.6-11.8,10.8-21.1,9.3c-9.8-1.6-19.8-2.1-30.4-3.2
				c3.6-9.4,10.4-16.1,15.8-24.2c0.6,1.9,1,3.2,1.2,4c-2.4,3.4-4.7,6.8-7.6,10.9c5.5,0.3,9.3-3.1,13.6-4.9c5.5-2.3,4.9-7.5,6.4-12.1
				c5.6,0.5,11.1,1,16.7,1.6C152.5,289.6,158,290.3,164.8,291z"/>
			<path fill="#898989" d="M251.5,257.1c-0.3,6.4-1.4,7.6-7.2,7.3c-7-0.3-14-0.9-20.9-1.4c-3.5-0.2-5.7-1.9-5.3-5.6
				c0.4-3.6,2.9-4.9,6.4-4.4c6,0.9,12,1.7,18,2.6C245.5,256,248.5,256.6,251.5,257.1z"/>
			<path fill="#898989" d="M224.3,267.7c-6.2,12.6-2.4,10.3-15.2,9.2c-4.5-0.4-9-0.9-13.5-1.4c-3.4-0.4-4.2-2-2.7-5.1
				c3.5-7.2,3.7-7.4,11.7-6.1C211.1,265.4,217.5,266.5,224.3,267.7z"/>
			<path fill="#898989" d="M243.3,249.3c2.2-7.1,6.6-10.3,12.6-9.4c4.2,0.6,6.5,3.7,5.6,7.5c-0.9,4-3.3,5.2-7.3,4
				C250.7,250.4,247,250,243.3,249.3z"/>
			<path fill="#4D4D4D" d="M138.7,142.3c1.1,6.5,2.1,13,3.2,19.5l-2.4,0.4c-1-6.1-2.2-12.3-3.1-18.4c-2.7-17.8-5.5-35.7-8.1-53.5
				c-0.8-5.6,0.8-7.3,6.6-7.3c20.8-0.1,41.6,0.1,62.3-0.2c2.4,0,4.8-0.1,7.2-0.2l0.1,1.6c-22.3,0.9-44.5,1.7-66.8,2.7
				c-5.5,0.3-7,2.7-6.2,8C133.9,110.6,136.2,126.5,138.7,142.3z"/>
			<path fill="#898989" d="M146.2,232.5c-0.8,6.2-4.1,7.7-13.7,5.8C135.1,231.4,138.9,229.9,146.2,232.5z"/>
			<path fill="#898989" d="M229.8,291.5c3.5-7.3,5.2-8.3,13-7.1c3.2,0.5,6.4,1.1,10,1.7c-3.8,9.5-11.9,14.2-20,12
				C229.2,297,228,295.2,229.8,291.5z"/>
			<path fill="#898989" d="M201.2,280.1c-4.5,11.6-7.5,13.2-18,10.5c-2.7-0.7-5.3-1.7-8-2.5c-2.8-0.8-4.2-2.4-3.6-5.5
				c0.6-3.3,2.1-6,5.6-5.7C185,277.6,192.8,279,201.2,280.1z"/>
			<path fill="#89BDD3" d="M241.7,114.6c5.3,9.3,1.9,19.2,1.5,28.8C239.9,134,242,124.2,241.7,114.6z"/>
			<path fill="#898989" d="M163.3,232.4c0.9-0.9,3.7,0.2,5.7,0.5c0.3,0.7,0.7,1.5,1,2.2c-2.2,2.3-4.3,4.7-6.7,6.7
				c-0.2,0.2-3.3-2-3.2-2.6C160.7,236.7,161.6,234,163.3,232.4z"/>
			<path d="M264.2,226c20.7,1.5,41.4,2.8,62.1,5c-4.8,4.3-175.6-5.5-186.7-10.1c20.7-1.4,41.3,0.6,62,1.7
				C222.5,223.7,243.3,224.5,264.2,226z"/>
			<path d="M89.1,95.3c-11.8-2.3-23.5-4.8-35.2-7.2c-0.7-0.2-1.3-0.8-2-1.2c8-5.1,32.3-0.8,41.6,7.5C91.7,94.8,90.3,95.6,89.1,95.3z
				"/>
			<path fill="#898989" d="M157.8,231.2c-1.2,6.1-2.9,7.7-7.4,7.2C151.5,232.4,153.1,230.8,157.8,231.2z"/>
			<path fill="#4D4D4D" d="M241.1,81.1c12.6,0,25.2,1,37.8,2.1c9.3,0.8,18.5,2.2,27.7,3.3l-0.3,2.2c-0.2,0-0.4,0-0.5-0.1
				c-17.8-1.5-35.7-2.8-53.6-3.4c-15.9-0.6-31.8-0.1-47.8-0.1c0-0.3,0-0.7,0-1l-0.1-1.6c10.3-0.4,20.6-1.1,30.9-1.3
				C237.2,81.1,239.1,81.1,241.1,81.1z"/>
			<path fill="#898989" d="M207.9,250.7c2.3,0.4,4.2,2.8,6.3,4.3c-2.2,2-4.3,5.6-6.5,5.6c-7.2,0.1-14.4-1.2-22-1.9
				c1.1-6.1,3.8-8.5,8.3-8.6C198.6,250,203.3,249.9,207.9,250.7z"/>
			<path fill="#898989" d="M206.5,235.1c2.5,0.9,3.6,2.7,1.8,4.9c-1.8,2.3-4.2,4.1-5.8,5.5c-4-0.6-5.7-1.5-4.5-4.8
				C199.7,236.1,203,233.8,206.5,235.1z"/>
			<path fill="#89BDD3" d="M143.1,14.1c1.2,7.9,2.4,15.8,3.6,23.7c-0.5,0.1-0.9,0.1-1.3,0.2c-1.2-8-2.3-15.9-3.5-23.9
				c0.4-0.1,0.8-0.1,1.2-0.2C143.1,14,143.1,14.1,143.1,14.1z"/>
			<path fill="#898989" d="M231.4,301.8c3.5,0.7,4.7,3.9,1.8,6c-3.4,2.4-7.5,4.6-11.5,4.9c-5,0.4-10.2-0.9-15.2-1.8
				c-3.6-0.7-5.9-2.8-5.3-6.9c0.7-4.6,2.6-6.2,7.2-6.2C216.1,299.1,223.8,300.4,231.4,301.8z"/>
			<path fill="#898989" d="M134.3,272.3c2.3,0.1,4.5,1.4,6.7,2.2c-1.7,5.7-4.7,7.8-10.2,7.6c-9.6-0.5-19.2-0.1-28.7-0.1
				c-0.9-6.7,1.3-9.8,6.5-9.9C117.2,271.9,125.8,272,134.3,272.3z"/>
			<path fill="#898989" d="M188,268c-0.4,2.7-1.8,5.8-5.9,4.9c-0.5-0.1-0.9,0-1.4-0.1l0,0.2c-4.7-0.8-9.5-1.4-14.2-2.4
				c-1.2-0.2-3.1-1.3-3.1-2.1c-0.1-1.5,0.6-3.8,1.6-4.4c2.5-1.2,5.5-2.2,8.3-2.2c3.5,0,7.1,0.8,10.5,2
				C185.5,264.6,188.2,266.9,188,268z"/>
			<path fill="#898989" d="M153.4,274.3c9.2,0.2,11.3,0.8,15,4c-1.2,4.7-4.1,6.9-8.5,6.8c-5.8-0.2-11.6-0.5-17.6-0.7
				C143.9,276.1,146.3,274.2,153.4,274.3z"/>
			<path d="M146.6,48.9c-4.9-11.7-6.9-23-7-34.7h2.2c1.2,8,2.3,15.9,3.5,23.9c0.4-0.1,0.9-0.1,1.3-0.2l1.8,0
				C148.4,42.2,147.8,46.1,146.6,48.9z"/>
			<path fill="#898989" d="M87.7,283.4c2.7,0.6,5.5,1.8,4.8,5.6c-0.7,3.8-3,4.6-6.5,4.1c-5.7-1-11.4-1.7-17-2.6
				c-1.7-0.3-3.3-1.1-6-2c4.6-3.9,8.1-7.2,13.6-6.5C80.3,282.3,84,282.6,87.7,283.4z"/>
			<path d="M169.2,159.8c1.6,2.2,2.7,3.5,3.5,5c2.7,5.1,5.1,10.4,7.9,15.4c12.4,22.4,31.2,31.8,56.6,28.3c5.1-0.7,10.2-1.6,15.2-2.4
				c19.1-3.2,28-18.4,29-33.6c0.3-4.4,0.5-8.7,1-13.1c0.2-2.1,1.2-4,1.8-6c0.5,0.2,1,0.3,1.5,0.5c4.6,17.4,0.4,44.3-22.3,54.1
				c-8.4,3.6-18.5,3.6-27.9,4.8c-5.2,0.7-10.6,1-15.9,0.7c-4.3-0.2-8.9-0.8-12.6-2.6c-19.3-9.4-32-24.4-37.8-45.2
				c-0.2-0.6-0.3-1.2-0.3-1.8C168.8,162.9,169,162,169.2,159.8z"/>
			<path fill="#B2B2B2" d="M316.7,219.7c-12.6-1.1-25.2-2.2-37.8-2.5c-27.2-0.6-54.3-0.5-81.5-1.1c-9-0.2-18.1-1.2-27-2.6
				c-11.1-1.7-15.7-7.6-17.5-18.8c-2.5-16-6-31.9-8.7-47.9c-3-17.4-5.8-34.8-8.6-52.2c-0.2-1.5,0-3.1,0-5c10.2-0.4,20.1-1,30.1-1.1
				c23.6-0.2,47.2-0.4,70.8,0c21.8,0.4,43.7,1.6,65.5,2.6c6,0.3,8.4,2.4,9.5,8.3c5.5,29,10.3,58.1,11.3,87.6
				c0.3,8.4,1.3,16.8,2,25.2C325.3,218.2,322.6,220.2,316.7,219.7z M237.6,144.7c0.1,4.8,1.8,9.1,7.4,11.5c0.7-2.1,1.8-3.9,2-5.7
				c1.5-14.3,0.8-28.6-2-42.7c-0.4-2.2-2-4.2-3.1-6.3c-0.7,0-1.4,0.1-2.1,0.1c-0.8,2.6-2.3,5.1-2.3,7.6
				C237.3,121,237.3,132.8,237.6,144.7z M284.2,153.4c-0.6,2-1.6,4-1.8,6c-0.5,4.3-0.7,8.7-1,13.1c-1,15.3-9.9,30.5-29,33.6
				c-5.1,0.8-10.2,1.7-15.2,2.4c-25.4,3.5-44.2-5.8-56.6-28.3c-2.8-5-5.2-10.3-7.9-15.4c-0.8-1.5-2-2.8-3.5-5
				c-0.2,2.2-0.4,3.1-0.4,4c0,0.6,0.1,1.2,0.3,1.8c5.8,20.7,18.6,35.8,37.8,45.2c3.8,1.8,8.4,2.4,12.6,2.6c5.3,0.3,10.6,0,15.9-0.7
				c9.4-1.2,19.5-1.2,27.9-4.8c22.7-9.8,26.9-36.6,22.3-54.1C285.2,153.7,284.7,153.5,284.2,153.4z M196.3,148.8
				c0.2,2.5,2.3,4.9,3.5,7.3c1-0.2,1.9-0.5,2.9-0.7c0.1-17.1,0.6-34.1-1.9-51.9c-5,2.9-6.8,5.8-6.5,10.3
				C195.1,125.5,195.4,137.2,196.3,148.8z"/>
			<path fill="#898989" d="M338.9,185.3c1.6,11.5,0.3,23.5,0.3,35.3c-0.4,0-0.8,0.1-1.1,0.1c-1.3-9.9-2.7-19.7-3.9-29.6
				c-4.2-33.3-8.3-66.6-12.4-99.9c0-0.3-0.1-0.5-0.1-0.8L324,90C329.2,121.8,334.6,153.5,338.9,185.3z"/>
			<path fill="#898989" d="M211.4,280.9c5.8,0.1,11.6,1.2,17.9,2c-5.7,15.7-6.6,14.1-22.1,10.2c-4.8-1.2-5.8-4.7-2.4-8.4
				C206.5,282.8,209.2,280.8,211.4,280.9z"/>
			<path d="M114.2,56.4c-6.7-1.6-36.7-36.7-37.3-44.1C84.7,15.9,114.7,51.5,114.2,56.4z"/>
			<path fill="#898989" d="M319.4,81.3c1.7,0.5,3.7,3.2,4,5.1c0.2,1.2,0.4,2.4,0.6,3.6l-2.4,0.4c-0.7-3.8-3-5.3-6.8-6
				c-22-3.9-44.3-5.7-66.6-5.7c-2.4,0-4.8,0-7.2,0c-2,0-4,0-6,0c-30.7,0.1-61.5,0.5-92.2,0.7c-1.6,0-3.2,0-4.9,0
				c0-0.5-0.1-1-0.1-1.4c5.4-1,10.8-2.3,16.2-2.8c40.4-3.2,80.8-2.8,121.2-0.5c7.5,0.4,15,0.3,22.4,1.4
				C305,77.2,312.3,79.2,319.4,81.3z"/>
			<path fill="#898989" d="M127.3,258.4c-2.6,8.7-4.7,10.1-12.6,9.3c-7.4-0.8-14.8-1.4-22.2-2.1c1.2-7.8,4.7-11.4,11.8-10.8
				C112,255.3,119.6,257.1,127.3,258.4z"/>
			<path d="M305.8,88.6c0.2,0,0.4,0,0.5,0.1c5.5,0.6,7.3,3.4,8.4,9.1c2.7,14.7,5.7,29.3,7.9,44.1c1.4,8.9,1.5,18,2.4,27
				c1.3,12.8,2.8,25.7,4.2,38.5c0.4,3.4,1,6.8,1.2,10.2c0.3,3.9-0.9,7-5.5,7c-14.8-0.1-29.6-0.1-44.3-0.5c-7.8-0.2-15.5-1-23.3-1.4
				c-16.3-0.7-32.7-1.3-49-2.1c-15.1-0.7-30.2-1.4-45.2-2.7c-7.8-0.7-12.7-5.8-14.1-13.5c-2.5-14.2-4.9-28.4-7.2-42.6
				c-1.1-6.5-2.1-13-3.2-19.5c-2.5-15.8-4.8-31.7-7.2-47.5c-0.8-5.3,0.7-7.8,6.2-8c22.3-1,44.5-1.8,66.8-2.7c0,0.3,0,0.7,0,1
				c15.9,0,31.9-0.5,47.8,0.1C270.1,85.8,287.9,87.2,305.8,88.6z M153,194.7c1.8,11.2,6.3,17.1,17.5,18.8c8.9,1.4,18,2.4,27,2.6
				c27.2,0.6,54.3,0.5,81.5,1.1c12.6,0.3,25.2,1.4,37.8,2.5c5.9,0.5,8.6-1.5,8.1-7.4c-0.7-8.4-1.7-16.8-2-25.2
				c-1.1-29.6-5.9-58.6-11.3-87.6c-1.1-6-3.5-8-9.5-8.3c-21.8-0.9-43.7-2.2-65.5-2.6c-23.6-0.4-47.2-0.2-70.8,0
				c-10,0.1-19.9,0.7-30.1,1.1c0,2-0.2,3.5,0,5c2.8,17.4,5.6,34.8,8.6,52.2C147,162.8,150.5,178.7,153,194.7z"/>
			<path fill="#898989" d="M284,246.5c3.9,1.7,4.3,5.4,1,8.1c-3,2.5-6.2,4.1-10.2,1.9c-2-1.1-4.3-1.9-6.5-2.7
				c-2.9-1.1-4.5-2.8-3.5-6c1-3.2,2.7-5.6,6.8-5.5C275.8,243.7,280.1,244.7,284,246.5z"/>
			<path fill="#898989" d="M77.4,277.3c3.5-8.5,13.3-10.9,22.7-5.7C98.2,279.3,90.4,281.3,77.4,277.3z"/>
			<path d="M239.2,337.4c-3.8-4-0.5-6,1.3-8.2c2-2.4,4-4.9,7.8-3.1c2.4,1.1,2.8,2.4,0.7,4C245.9,332.6,242.6,334.9,239.2,337.4z"/>
			<path d="M198.4,112.5c-1.3,9.8-0.7,19.6,1.2,29.5c0-9.8,0-19.7,0-29.5C199.2,112.5,198.8,112.5,198.4,112.5z M200.8,103.5
				c2.5,17.8,2,34.8,1.9,51.9c-1,0.2-1.9,0.5-2.9,0.7c-1.2-2.4-3.3-4.8-3.5-7.3c-0.9-11.6-1.2-23.3-1.9-35
				C194,109.4,195.8,106.5,200.8,103.5z"/>
			<path fill="#898989" d="M258,260.2c3.3-2,18.1,0.8,21.2,3.6c-2,3.6-4.9,5.3-9.1,4.6c-3.7-0.6-7.4-0.8-11.1-1.5
				c-1.3-0.2-3.4-1.6-3.3-2.2C255.9,263.1,256.7,261,258,260.2z"/>
			<path fill="#898989" d="M179.6,233.5c0.2,3.6,0.1,7.3-4,8.7c-1.4,0.5-3.5-0.3-5-1.1c-0.4-0.2-0.1-3.2,0.8-4c2.1-2,4.6-3.5,7-5.1
				C178.8,232.5,179.2,233,179.6,233.5z"/>
			<path fill="#898989" d="M222.5,239.4c1.1,2.3-0.3,5.8-0.6,8.8c-0.6,0.3-1.2,0.6-1.8,0.8c-2.9-1.9-6-3.6-8.6-5.9
				c-0.4-0.3,1.7-5,3.1-5.3C217.2,237.4,221.7,237.8,222.5,239.4z"/>
			<path fill="#898989" d="M153,245.2c-0.7,7.6-3.1,10-9.6,9.9c-6.4-0.1-12.7-0.7-19.1-1.1c-3.2-0.2-4-2.1-3-4.9
				c1.3-3.6,4-6,7.7-5.9C137,243.5,145,244.5,153,245.2z"/>
			<path fill="#898989" d="M175.2,294c6.3,1,12.6,2.1,18.8,3.3c2.2,0.4,5.1,1,4.1,4.3c-0.9,3.1-1,8-5.5,7.4
				c-10.2-1.4-20.4-3.8-30.9-5.8C164.3,295.6,168.6,292.9,175.2,294z"/>
		</g>
		<g>
		</g>
	</g>
</g>
</svg>
