<?xml version="1.0" encoding="utf-8"?>
<!-- Generator: Adobe Illustrator 18.1.0, SVG Export Plug-In . SVG Version: 6.00 Build 0)  -->
<svg version="1.1" xmlns="http://www.w3.org/2000/svg" xmlns:xlink="http://www.w3.org/1999/xlink" x="0px" y="0px"
	 viewBox="0 0 360 360" enable-background="new 0 0 360 360" xml:space="preserve">
<g id="Layer_2">
</g>
<g id="Layer_1">
	<path opacity="0.8" fill="#BCB29B" d="M107.4,254.3c-0.7-10-7.2-17.7-15.6-22.2c-0.4-2.2-2.1-4.4-3.8-5.4
		c-3.2-1.9-8.2-2.1-12.1-2.3c-0.6,0-1.2-0.1-1.8-0.1c-1.8-0.1-3.6,0-5.3,0.1c-0.5-0.4-1.1-0.6-1.9-0.5c-3.3,0.2-6.2,1-9.2,2.4
		c0,0,0,0,0,0c-4.5,1.2-8.5,4-11.1,8.1c-0.1,0.1-0.1,0.2-0.2,0.3c-0.1,0-0.1,0.1-0.1,0.1c0.3-1.2,0.4-2.5,0.4-3.7
		c0.2-0.3,0.3-0.7,0.4-1.2c0.4-2.9,0.7-5.8,1.1-8.7c6.4-9.2,14.6-16.9,24.2-22.7c9.5-5.7,22.7-9.2,23.7-22.2
		c0.1-1.7-1.6-3.3-3.2-3.2c-3.2,0.1-5.7,1.5-8.2,3.5c-1.8,1.5-3.6,2.9-5.5,4.4c-0.5,0-1,0.2-1.5,0.5c-8.7,5.6-17.7,10.8-26.1,16.9
		c-6.7,4.9-10.8,12.5-10.5,20.7c-0.1,0.4-0.2,0.7-0.3,1.1c-1.1,1.8-2,3.6-2.6,5.5c-0.3,0.5-0.5,1-0.6,1.7c0,0.1,0,0.2,0,0.3
		c-0.9,3.4-1.2,7-0.8,10.8c0,0,0,0.1,0,0.1l0,0c0,0.3,0.1,0.6,0.1,0.9c0.2,1.3,1,2,2,2.2c-1.9,2.3-3.6,4.8-5,7.5
		c-0.6,1.2-0.3,2.6,0.5,3.6c-0.3,0.4-0.5,0.8-0.8,1.2c-4.7,6.9-6.3,14.8-6.7,22.9c0,0.2-0.1,0.5-0.1,0.7c-0.7,0.5-1.3,1.1-1.8,1.9
		c-2.7,4.1-1.2,8.3,0.5,12.5c0,1,0,2,0.1,2.9c-0.3,6.1,0.1,12.3,1.4,18.4c0.2,1,1.2,2.1,2.2,2.2c1.9,0.3,3.8,0.6,5.8,0.9
		c2.9,0.4,5.7-3,3.1-5.4c-0.8-0.7-1.4-1.4-2-2.2c-0.1-0.2-0.1-0.3-0.2-0.5c-1-2-1.7-4.1-2.2-6.3c0.6-0.5,1-1.3,0.8-2.4
		c-0.3-2.3-0.9-4.4-1.7-6.4c0-0.7,0-1.4,0-2.1c0.3-0.5,0.5-1,0.5-1.7c0-0.7,0-1.4-0.1-2.1c0.8-0.5,1.3-1.4,1.3-2.6
		c0-1.4-0.2-3.1-0.8-4.6c0.6-3.4,1.3-6.8,2-10.2c0.1-0.3,0.1-0.6,0-0.9c1.1,0.3,2.3,0.2,3.2-0.6c0.2,1.2,0.5,2.4,1,3.6
		c0.4,1,1.1,2.1,2.2,2.2c1.3,0.2,2.6,0.5,3.9,0.8c1.9,1.7,4,3.3,6.2,4.6c-0.6,1.3-0.4,3,1.2,4c4.7,3,10.1,4.3,15.6,3.7
		c0.6-0.1,1.2-0.3,1.6-0.6c3.4,1.7,6.9,2.8,11,2.3c5.9-0.7,9.8-5.7,13.2-10.3c4.2-2.4,7.8-5.9,10.6-10.1c0.8-1.2,0.7-2.3,0.1-3.2
		C106.9,261.9,107.7,258.3,107.4,254.3z M97.3,258.6c-0.7,4.8-3,9.2-5.7,13.2c-2,1.5-4.2,2.8-6.5,3.8c0,0-0.1,0-0.1,0
		c-0.8-0.5-1.7-0.8-2.6-0.4c-3,1.2-6.2,1.8-9.5,1.2c-0.7-0.1-1.4-0.1-2,0.2c-0.7-0.4-1.5-0.5-2.3-0.2l-1.1,0.4
		c-0.3,0.1-0.6,0.2-0.8,0.4c-2.1-1.4-4.2-2.9-6.4-4c-3.6-1.8-7.3-3.1-11.2-4.1c-1.6-1.5-3-3.2-4.2-5.1c0.1-7.5,4.8-14.8,9-20.9
		c6.2-8.9,15.9-7.9,25.4-6.2c2.1,0.4,4.2,1,6.2,1c0.2,0.8,0.7,1.5,1.4,1.9c0.3,0.2,0.7,0.4,1,0.6c0.6,0.3,1.3,0.5,1.9,0.4
		c0.9,0.9,1.7,1.8,2.4,2.7C96,247.6,98.1,253,97.3,258.6z"/>
	<path opacity="0.8" fill="#BCB29B" d="M115.8,150.5c-0.1-0.8-0.3-1.6-0.5-2.3c-0.2-1.4-0.6-2.7-1-4.1c-1.2-3.7-5.9-2.6-6.3,0.9
		c0,0,0,0.1,0,0.1c-0.4,0.3-0.7,0.7-0.9,1.1c-1.4,2.3-1.7,5.4-2.9,7.9c-1,2.3-2.3,4.4-3.8,6.5c-2.5,0.8-4.6,2.5-6.1,4.7
		c-2.3,3.5,3.3,6.7,5.5,3.2c0.4-0.6,0.8-1,1.3-1.3c0.1,0,0.1,0,0.2,0c3.8,1.6,7.8,0.4,11-2.4C116.4,161.5,116.6,155.2,115.8,150.5z"
		/>
	<path opacity="0.8" fill="#BAB3A4" d="M108.7,134.3c0.4-3-2.8-4.8-4.8-3.7c-0.4-1.2-0.8-2.4-1.2-3.7c-1-3.4-6.7-2.8-6.3,0.9
		c0.3,2.4,0.4,4.8,0.4,7.2c-0.1,0.3-0.3,0.5-0.4,0.9c-0.9,3.3-2.6,6.2-5.1,8.4c-0.1-1.2-1.1-2.2-2.2-2.6c0.2-4.4,1.6-9.1,1.8-13.2
		c0.3-5.9-2.5-10.9-8.9-10.2c-1.5,0.2-2.8,0.4-3.9,0.9c-1.6-0.4-3,0-4.9,0.2c-1.6,0.1-3.4,1.4-3.2,3.2c0.2,1.5,0.6,2.5,1.4,3.4
		c-0.2,0.5-0.3,0.9-0.5,1.4c-1.5,4.9-2.4,12.4-6.2,16.5c-0.2-2.3-0.1-4.7,0.2-7c0.1-0.5,0-1-0.2-1.4c0-0.6-0.1-1.2-0.4-1.7
		c-0.4-1-1.4-1.8-2.8-1.8c-1.1,0-1.9,0.5-2.4,1.2c0,0-0.1,0.1-0.1,0.1c-0.3,0.2-0.6,0.5-0.8,0.9c-0.4,0.7-0.6,1.6-0.3,2.5
		c0.1,0.3,0.2,0.5,0.3,0.7c-0.5,1.8-0.9,3.9-1.3,6.1c-0.1,0-0.1,0.1-0.2,0.1c-3.3,2.8-3.1,7.3-1.4,11c1.8,3.8,3.9,7.9,7.4,10.4
		c0.4,0.3,0.8,0.5,1.2,0.7c-1.7,2.1,0,6.1,3.3,5.2c4.2-1.2,8.5,0.2,12.8,0c0.3,0.9,1.3,1.8,2.2,2c4.7,1,7.9-1.4,10.7-5
		c0.7-0.9,1.4-1.9,2.1-2.9c0.8,0.1,1.8-0.1,2.5-1c2.8-3,6.6-8.9,8.1-14.6c1-0.8,1.9-1.9,2.5-3.3
		C109.9,141.9,108.2,138.2,108.7,134.3z M78.9,163.1c0-0.1-5.6-1.3-6.1-1.4c-1.6-0.4-3.3-0.7-4.8-1.4c0.7-0.8,1-2,0.8-3.1
		c-0.2-1.2-0.1-2.3,0-3.3c1.8-1.5,3.3-3.1,6.3-3c3.5,0.1,4.7,5.9,5.3,9.8C79.6,161.1,79,161.9,78.9,163.1z"/>
	<path opacity="0.8" fill="#B3B3B3" d="M97.6,118.8c-0.2-4.1-6.6-4.1-6.4,0c0.2,5-0.2,10.7-1.3,15.6c-0.9,4,5.3,5.7,6.2,1.7
		c0.6-2.8,0.6-5.6,1-8.4C97.6,124.8,97.8,121.9,97.6,118.8z"/>
	<path opacity="0.8" fill="#B3B3B3" d="M65.3,118.4c-0.3,2.7-0.5,5.4-0.8,8.1c-0.3,2.8-1.2,5.3-1.6,8c-0.6,4,5.6,5.8,6.2,1.7
		c0.4-2.5,1.3-4.8,1.6-7.4c0.1-0.6,0.1-1.2,0.2-1.9c0.1-0.3,0.2-0.6,0.2-1c0.2-2.5,0.4-5.1,0.6-7.6C72,114.3,65.7,114.4,65.3,118.4z
		"/>
	<path opacity="0.8" fill="#B3B3B3" d="M77.3,156.5c-0.1-0.2-0.2-0.4-0.3-0.5c-0.3-0.4-0.6-0.7-1-0.9c-0.6-0.4-1.6-0.6-2.3-0.4
		c-0.4,0.1-0.9,0.2-1.2,0.4c-0.5,0.3-1,0.7-1.3,1.3l-0.3,0.8c-0.2,0.6-0.2,1.1,0,1.7c0,0,0,0,0,0c0,0.3,0.1,0.6,0.1,0.9
		c0.3,1.1,1.2,2,2.2,2.2c0.6,0.2,1.1,0.2,1.7,0c0.5-0.2,1-0.4,1.4-0.8C77.8,160.2,78.2,158.2,77.3,156.5z"/>
	<path opacity="0.8" fill="#B3B3B3" d="M67.3,82.8c0-0.2-0.1-0.3-0.1-0.5c-0.1-1.1-0.2-2.2-0.4-3.3c-0.1-1.4-0.1-2.8-0.2-4.2
		c-0.3-2.9-1-5.7-1.9-8.5c-1.9-6-4.5-11.9-6.7-17.9c-0.8-2-2.8-2.9-4.7-1.9c-1.1,0.6-1.9,1.3-2.5,2.1c-1.3,0.4-2.5,1.7-2.4,3.1
		c0.1,1.5,0.3,3,0.5,4.4c0.1,2.2,0.4,4.4,0.7,6.2c1.1,6.9,3.9,13.5,6.9,19.8c0.2,0.9,0.6,1.7,1.2,2.5c0.6,0.8,1.3,1.3,2,1.4
		c0.2,0.6,0.3,1.2,0.5,1.8c0.7,2,2.5,2.6,4,2.1c1.2-0.1,2.3-0.8,2.7-2.3c0.2-1,0.4-1.9,0.4-2.9C67.5,84.2,67.5,83.6,67.3,82.8z"/>
	<path opacity="0.8" fill="#B3B3B3" d="M159.7,31c-5.4-1-11.3,1.3-16.5,2.6c-1.1,0.3-2,1.2-2.2,2.2c-0.1,0.2-0.1,0.5-0.2,0.7
		c-0.1,0.3-0.1,0.6-0.1,0.9c-1,1.9-0.1,4.8,2.7,4.9c2.8,0.1,5.5,0.2,8.2,0.9c2.6,0.7,4.9,2.2,7.7,2.5c4.4,0.5,9.4-1.8,9.3-6.8
		C168.4,34.6,163.6,31.7,159.7,31z"/>
	<path opacity="0.8" fill="#B3B3B3" d="M324.6,158.2c-3.2-1.3-6.8-1.9-10.3-2.6c-0.1-0.6-0.3-1.3-0.8-1.9c-5-5.6-12.7-7.3-18.7-11.6
		c-3.4-2.4-7.4-2.6-10.9-4.6c-2.5-1.4-4.6-3-7-4.3c-1-4.8-0.1-9.6,1-14.4c1.4-6.1,2.9-12.2,4.3-18.3c0.5-2.3-1.5-4.7-3.9-3.9
		c-4.8,1.5-8.7,4.6-12.6,7.7c-4.2,3.4-8.1,7.2-11.5,11.5c-6.5,8.3-10.5,18.8-9.3,29.5c0.3,2.3,0.8,4.7,1.7,6.9
		c0,1.1,0.5,2.1,1.3,2.8c0.8,1.3,1.7,2.6,2.9,3.7c0.3,0.3,0.6,0.6,1,0.9c-0.2,0.4-0.3,0.9-0.4,1.4c-1.1,9.4-6.4,18-10.5,26.3
		c-3,6.1-5.9,12.2-8.7,18.4c-0.3,0.2-0.6,0.5-0.8,0.8c-4.9,7.4-9.8,14.8-14,22.6c-1.4,2.7-2.6,5.4-3.8,8.2c-1.1-0.1-2.2,0.3-3,1.4
		c-5.7,7.9-11.3,15.9-16.1,24.4c-2.7,4.8-4.9,9.8-7.2,14.7c-2.1,2.9-4.1,5.9-5.9,9c-2.3,1.2-4.2,4.2-5.6,5.9c-2.2,2.8-4.1,5.8-5.5,9
		c-1.6-0.6-3.6-0.1-4.2,2c-1,3.7-2.5,7.6-2.9,11.5c-0.3,2.8,0.2,5.3,1.1,7.8c0,0.4,0,0.7,0,1.1c1,5.1,2.6,12.1,7.5,14.9
		c1.2,0.7,2.7,1.1,4.2,1.2c4.1,1.6,8.2,2,12.1,1.4c0.7,0.5,1.5,0.7,2.6,0.6c4.7-0.8,8.7-3.2,12.1-6.4c1.1-0.9,2.2-1.8,3.2-2.7
		c3.1-2.4,5.8-5.3,8.1-8.6c0.1-0.1,0.2-0.3,0.2-0.4c1.4-0.5,2.6-1.7,3.5-3c2.1-3.2,3.4-7.5,4.8-11c1.5-3.9,2.8-7.9,4-11.8
		c1.7-5.6,3.3-11.4,4.8-17.1c4.9-9.8,9.3-19.7,13.5-29.9c3.3-8.1,6.5-16.1,9.7-24.2c0.5-1.3,1.1-2.7,1.7-4c0.4-0.1,0.7-0.3,1-0.6
		c3.2-2.9,5-6.7,6.7-10.6l7-15.6c0.3-0.8,0.4-1.5,0.2-2.2c1.1-1.9,2.3-3.7,3.4-5.6c1.3-2.2,2.5-4.4,4.2-6.4c1.9-2.3,4.8-3.6,7.3-4.9
		c2-1.1,4-2.8,4.8-4.7c0.1-0.1,0.3-0.1,0.4-0.2c0.7,1.7,2.9,2.9,4.6,1.7c0.1-0.1,0.2-0.1,0.3-0.2c0.4,0.2,0.9,0.4,1.5,0.4
		c10.2,0.3,19.2-4.8,27.7-9.9C327.9,162.5,327,159.3,324.6,158.2z M200.1,313.3c-0.7,6.3-2.8,12.2-5.9,17.7c-1.1,0.6-2.3,1-3.5,1.3
		c-0.3-0.5-0.7-1-1.2-1.2c-2.4-1.1-4.8-1.4-7.5-1.8c-3.6-0.5-5-3.3-6.8-6.1c-0.9-1.4-1.8-2.8-2.4-4.3c0.2-2.8,0.8-5.8,1.4-8.5
		c0-0.2,0.1-0.4,0.1-0.6c1.6-2,3.1-4,4.5-6c1.8-0.4,3.4-1.4,5.1-2.4c0.3-0.2,0.7-0.4,1-0.5c3.6,0.2,7.4,2,10,3.6
		c2.4,1.6,4.4,3.8,5.9,6.2c0.1,0.2,0.2,0.4,0.3,0.5C200.6,311.7,200.2,312.4,200.1,313.3z M237.1,241c-4.2,9.7-7.1,19.8-9.8,30
		c-4.4,7.2-9.4,14.3-12.9,21.9c-2.3,4.9-3.7,10.4-4.8,15.8c-0.3,0.1-0.5,0.3-0.8,0.4c-1.5-5.4-4.7-10.1-9.7-13.1
		c-3.3-2-7.4-2.7-11.2-2.4c-1.1,0.1-2.2,0.3-3.3,0.6c0.1-0.1,0.1-0.2,0.2-0.3c0.7-0.2,1.3-0.6,1.8-1.3c1.3-1.9,2.5-3.8,3.7-5.8
		c0.8-0.1,1.6-0.6,2.2-1.5c3.4-5.7,6.2-11.9,9.3-17.8c0.1-0.1,0.3-0.3,0.4-0.4c2.3-3,4.3-6.1,6.2-9.3c0.9,0.1,1.8-0.1,2.5-1
		c11.5-13.8,18.7-30.5,26.6-46.4c0.1-0.2,0.2-0.5,0.3-0.7c6-8.5,11.6-17.3,16.7-26.4c3.1-5.5,5.9-11.1,8.7-16.7
		c0.2-0.4,0.4-0.9,0.6-1.4c0.5,0.2,0.9,0.4,1.3,0.5c3.3,1.4,6.7,2.9,10,4.3c-2.1,2.8-3.8,6-5.3,9l-9.9,19.2
		c-0.7,0.2-1.4,0.6-1.9,1.5C250.8,213.3,243.2,226.8,237.1,241z M297.2,152.9c-0.2,3.8-1.1,7.4-2.6,10.8c-0.5,0-1,0.1-1.5,0.4
		c-0.5,0.3-1.1,0.6-1.6,0.8c-0.4-0.6-1-1.1-1.9-1.3c-3.3-0.7-6.5-1.4-9.6-2.9c-3.2-1.5-5.5-4-9-4.8c-1.3-0.3-2.8-0.3-4.2-0.4
		c-1.8-0.1-3.2-1-4.7-1.9c-1.3-0.8-2.5-1.6-3.9-2.2c-0.2-0.1-0.4-0.1-0.6-0.2c-0.3-0.9-0.9-1.7-1.8-2.1c0.1-1.1,0.3-2.1,0.4-3
		c1.8-3.5,3.5-6.9,5.3-10.4c2.7,1.2,5.5,2.2,8.4,3.2c0.6,0.2,1.2,0.2,1.7,0.1c0.4,0.7,1.1,1.2,1.9,1.5c0.7,0.2,1.4,0.4,2.1,0.6
		c0.7,0.2,1.4,0.1,2-0.1c1,0.7,2,1.4,3,2c3.2,1.9,7,2.1,10.1,4c2.4,1.5,4.6,2.9,7,4.2C297.5,151.8,297.3,152.3,297.2,152.9z"/>
	<path opacity="0.8" fill="#727272" d="M260.7,173.2c-2.4,4.9-4.8,9.7-7.2,14.6c-0.2,0.4-0.5,0.8-0.7,1.2c-1.1-0.2-2.3,0.2-3.1,1.5
		c-4.8,7.6-9.4,15.4-13.8,23.3c-4,7.2-9.1,14.9-11.1,23.1c-0.5,0.9-1,1.8-1.6,2.6c-0.9,1.2-1.7,2.4-2.5,3.7
		c-2.2,3.4-4.2,6.9-6.2,10.4c-3.1,2.2-5.3,6.3-7.3,9.3c-3.7,5.4-6.9,11.1-10.1,16.8c-1.9,3.4-8.1,11.7-4.4,15.5
		c1.7,1.7,4.5,1.1,6.6,1.2c3.3,0.1,5.8,3.1,7.8,5.3c1.6,1.8,4.8,0.9,5.4-1.4c1.1-4.4,2.4-8.7,3.7-13c2.7-2.8,4.4-7,5.9-10
		c1.8-3.7,3.3-7.5,4.5-11.5c0.7-0.3,1.2-1,1.5-1.9c5.9-19.2,13.3-37.9,22.1-55.9c0.6-0.3,1-0.9,1.3-1.6c2.9-6.8,6.4-13.3,10.6-19.5
		c0.7-1,0.7-2.1,0.2-3c1.2-2.5,2.5-5,3.7-7.5C268.1,172.8,262.6,169.5,260.7,173.2z"/>
	<path opacity="0.8" fill="#727272" d="M295.8,150.1c-4.6-2.1-9.2-4.6-14.1-5.9c-0.2,0-0.4-0.1-0.6-0.1c-0.1-0.1-0.2-0.3-0.3-0.4
		c-2.9-2.9-6.3-4.9-10.3-5.9c-1.8-0.5-3.2-1-4.9-1.7c-1.8-0.7-3.8-0.2-5.1,1.2c-1.3,1.3-1.8,3.1-2.4,4.8c-0.7,1.8-1.6,3.9-1.1,5.8
		c1,3.6,7.3,4.9,10.3,5.8c0.3,0.1,0.5,0.1,0.8,0.1c0.6,0.3,1.1,0.6,1.7,0.8c1,1.7,3,2.5,5.1,2.6c1.9,1.1,4,2.3,6.1,2.6
		c2.7,1.9,5.7,3.4,9,3.8c2.3,0.3,4.6,0.2,5.9-2c1.4-2.3,1.4-6,1.6-8.6C297.5,151.9,296.7,150.5,295.8,150.1z"/>
	<path opacity="0.8" fill="#727272" d="M332.8,168.9c-1.9-0.9-4.8-2.9-7-2.6c-0.4,0.1-0.8,0.1-1.1,0.2c-0.4-0.1-0.9,0-1.5,0.2
		c-1.8,0.7-3.7,1.3-5.6,2c-0.3,0-0.7,0-1.1,0.1c-0.6,0.1-1.1,0.4-1.5,0.8c-0.2,0.1-0.4,0.1-0.6,0.2c-3.9,1.2-2.3,7.3,1.7,6.2
		c0,0,0,0,0,0c0.8,0.4,1.7,0.7,2.6,0.8c5,0.6,10.9,0.8,14.7-2.8C334.9,172.6,334.7,169.7,332.8,168.9z"/>
	<path opacity="0.8" fill="#727272" d="M322.6,117.5c-0.1-3.6-5.3-4.4-6.3-0.9c-0.6,2.3-2.2,4-3.5,5.9c-1.4,1.9-2.2,4.1-3.1,6.2
		c-1.7,4.2-3,9.7-8.3,10.5c-3.1,0.4-2.8,4-0.8,5.6c-0.2,1.2,0.2,2.5,1.5,3.1c4.2,1.9,8.4,4.2,12.7,5.7c4.3,1.6,5.8-1.9,6.3-5.5
		C322.5,138,323,127.7,322.6,117.5z"/>
	<path opacity="0.8" fill="#727272" d="M177,24.2c-4.9-5.7-13.7-5.8-20.6-6.3c-7.7-0.5-14.9,0.7-21.7,4.3c-1.7,0.9-3.3,1.7-5.3,1.9
		c-2.2,0.2-4.5-0.9-6.6-1.3c-4-0.9-8,0.1-11.7,1.5c-3.8,1.4-7.6,3-11.4,4.5c-3.4,1.4-8.2,2.4-10.9,5.1c-2.5,2.5-3.3,6.5-6.2,8.5
		c-2.1,1.5-4.6,2.3-7,3.4c-1.8-3.8-4-7.2-8.2-8.9c-3.9-1.6-9.6-1.8-11.6,2.6c-2.2,4.7,3.3,10.4,5.3,14.3c5,9.5,7.8,20.1,9.2,30.7
		c-0.4,0.5-0.9,0.9-1.3,1.3c-3.1,2.7,1.4,7.2,4.5,4.6c1.6,0.2,3.3-0.9,3.6-3.1c0.1-0.4,0.1-0.8,0.1-1.1c2.6-3.7,4.1-8,4.7-12.5
		c0.4-0.2,0.7-0.5,1-0.9c1.5-2,2.3-4.1,2.7-6.2c1.3-0.7,2.7-1.2,4.1-1.6c3.3-1,6.2-0.3,9.3,1c6.1,2.5,12.3-0.1,17.9-2.7
		c5.9-2.7,11.8-6.2,17.1-9.9c2.2-1.5,2.5-3.8,2.1-6.3c-0.1-0.7-0.3-1.5-0.6-2.2c0.7-1.2,0.3-2.7-0.6-3.7c0-0.5,0.1-1.1,0.1-1.6
		c0.3,0.2,0.6,0.3,0.9,0.5c0.3,0.3,0.6,0.5,1,0.7c3.6,1.7,7.5,0.7,11.3,1.3c4.4,0.7,8.7,1.9,13.1,2.8c0.6,0.1,1.1,0.1,1.5,0
		c0.9,0,1.9-0.3,2.4-0.9c1.7-1.9,2.9-3.9,3.8-6.3c0.5-1.3-0.3-3-1.5-3.6c-1.7-1-3.5-1.8-5.3-2.4c1.1,0,2.1,0.2,3.1,0.5
		c3.4,1,4.7,5.7,8.7,5.7C181.4,37.8,180.2,27.9,177,24.2z"/>
	<path opacity="0.8" fill="#D9E021" d="M112.2,76.9c-3.7,5-8.1,10.6-8.9,16.9c0,0.1,0,0.2,0,0.2c-0.1,0-0.1,0.1-0.2,0.1
		c-2.8,1.9-1.1,6,1.5,6.1c0.4,2.4,3.5,4.3,5.3,1.9c1.5-1.9,3.7-3.9,3.7-6.4c0-1.6-0.9-2.5-2.1-3.1c0-0.1,0.1-0.1,0.1-0.2
		c1.3-2.9,2.6-5.9,3.7-8.9c0,0,0,0,0,0c0.8-1.2,1.7-2.3,2.5-3.4C120.2,76.8,114.6,73.6,112.2,76.9z"/>
	<path opacity="0.8" fill="#D9E021" d="M165,96c-4.2,0.4-7,2.8-10.2,5.4c-1.1,0.9-2.1,1.8-3.1,2.8l-0.6,0.4c-2.9,1.9-6.4,3.9-7,7.7
		c-0.1,0.5-0.1,1,0.1,1.5c-0.9,0.5-1.9,1.1-2.7,1.7c-0.8,0.5-1.5,1-2.2,1.7c-3.1,2.8,1.4,7.1,4.5,4.5c0.2-0.2,0.5-0.3,0.7-0.5
		c2.8-1.8,7.3-1.4,9.2-4.4c0.5-0.1,1.1-0.3,1.6-0.4c3.6-0.7,2.6-5.8-0.6-6.2c0.4-0.4,0.9-0.9,1.3-1.3c0.5-0.3,1-0.6,1.4-0.8
		c3.1-2,6.2-4.1,9.2-6.1C169,100.3,168.4,95.7,165,96z"/>
	<path opacity="0.8" fill="#D9E021" d="M49.3,116.3c-0.8-0.9-1.2-1.7-1.3-2.7c0.2-1,0.1-2-0.5-2.9c-1.3-2.1-3.9-1.9-5.2-0.3
		c-0.6-1.3-1.2-2.6-1.7-4c-1.4-3.1-2.6-6.3-3.9-9.4c-1.4-3.4-5.9-2.8-6.3,0.9c-0.1,0.5-0.1,1-0.2,1.5c-0.2,1.5,0.6,2.5,1.7,2.9
		c0.9,2.1,1.7,4.2,2.6,6.3c0.8,1.9,1.6,3.7,2.5,5.6c0.6,1.4,1.1,3.2,2.2,4.3c1.2,1.2,2.8,1.3,4.2,0.7c0.4,0.6,0.8,1.1,1.3,1.7
		C47.6,123.9,52.1,119.3,49.3,116.3z"/>
	<path opacity="0.8" fill="#754C24" d="M114.4,19.1c0-1.6-1-3.2-3.1-3.2c-6.3,0-11.2,3-16.1,6.2c-2,1-3.9,2.1-5.8,3.4
		c-1.2,0.6-2.4,1.2-3.7,1.6c-3.9,1.4-2.2,7.6,1.7,6.2c0.4-0.1,0.8-0.3,1.2-0.5c3.6,0.6,7.6-2.1,10.8-3.5c4.5-2,8.9-3.8,13.7-4.8
		C116.1,24,116.1,20.7,114.4,19.1z"/>
	<path opacity="0.8" fill="#996D33" d="M214.7,229c-0.3-1.4-0.9-2.8-1.7-4.1c-2.2-3.7-4.8-7.3-7.4-10.8c-1.7-3.6-3.5-7.2-5.1-10.7
		c-4.8-10.4-9.1-21.1-15.3-30.7c-1-3-2.3-6-3.6-9c-3.4-7.8-7.8-15.2-12.2-22.6c-0.2-0.3-0.3-0.5-0.5-0.7c-2.9-6.5-6.2-12.8-9.8-18.8
		c-1.6-2.7-3.3-4.1-6.6-3.9c-3,0.1-5.8,1.4-8.1,3.2c-0.8,0.6-1.5,1.3-2.3,2.2c-1.4,0.4-2.9,0.9-4,1.7c-0.4,0.3-0.8,0.6-1.1,0.9
		c-0.4-1.6-2.3-2.6-3.9-2.3c-0.2-0.2-0.5-0.3-0.8-0.4c2.8-2.6,5.7-5.1,8.9-7.1c2.3-1.5,1.8-4.4-0.2-5.5c0,0,0,0,0,0
		c1.2,0.1,2.5-0.3,3.2-1.5l0.5-0.9c0.1-0.2,0.2-0.5,0.3-0.8c1.7-0.8,3.3-1.5,5-2.2c1.5-0.7,2.1-3.1,1.2-4.4
		c-4.2-6.2-8.1-12.6-11.6-19.2c-3.4-6.5-7.3-13.6-8-21c-0.2-2.2-2.6-4.2-4.8-2.8c-0.6,0.4-1.2,0.8-1.7,1.1
		c-4.8-0.7-8.7,2.8-12.6,5.2c-2.9,1.8-10,4.7-7.3,9.3c0.6,1,1.2,1.6,1.9,1.9c0.9,0.6,2.1,0.8,3.3,0.1c0,0,0,0,0.1,0
		c0.9-0.3,1.8-0.7,2.7-1.2c0.5,0.5,1.2,0.7,2.1,0.6c1.8-0.2,3.4-0.6,4.9-1.3c0,0.3,0,0.6-0.1,0.8c-0.1,1.8,0.3,4.1-1,5.6
		c-1,1.1-2.1,2.1-2.9,3.4c-0.4,0.7-0.6,1.9-0.8,2.9c-1.2,1-2.1,2.3-2.5,3.8c-0.8,2.8,2.3,4.9,4.7,3.6c0.2-0.1,0.3-0.2,0.4-0.3
		c-0.1,0.2-0.2,0.3-0.4,0.5c-0.3,0.4-0.4,0.8-0.5,1.2l-2.5,3.3c-0.6,0.9-0.6,2.4,0,3.2c0.9,1.3,2.1,2.1,3.5,2.2
		c1.3,4.6,3.7,9.2,4.5,13.4c0.3,1.4,1.4,2.2,2.6,2.3c-0.1,0.8-0.3,1.5-0.4,2.3c-0.3,2.1,1.2,4,3,4.1c0,0.3,0.1,0.6,0.2,0.9
		c0.4,1.1,1.2,3.2,2.4,5.5c0.4,4.8,1.7,9.4,4,13.7c0.5,0.9,1.1,1.4,1.9,1.5c2.2,7.3,4.6,14.6,7.1,21.8c1,4.1,2.3,8.1,4.2,11.6
		c0.5,0.9,1.2,1.3,2,1.5c2.6,7,5.5,13.9,8.5,20.7c0.4,0.9,1.1,1.4,1.9,1.6c0.7,2.2,1.7,4.4,2.5,6.6c1.9,4.9,3.7,9.8,5.3,14.8
		c1.7,5,3.1,10,4.5,15.1c1.3,4.9,2,10.2,3.9,15c3.4,8.4,15.1,5.4,21,1.5c3.6-2.4,5.1-6.5,7.4-10c3.1-4.8,7.1-9.1,10.7-13.5
		C217,232.3,216.2,230,214.7,229z"/>
	<g id="XMLID_1_">
		<g>
			<path d="M61.2,86.8c0.6,0.6,1.3,0.8,2,0.7c1.1-0.1,0.8-1.1,0.9-1.8c0.4-1.9,0.4-3.9,0.2-6.3c0.1-1.3,0.2-3.1-0.2-4.9
				c-1.2-6.6-3.8-12.8-5.9-19.1C57.4,53,55.7,51,53.9,49c-1.3-1.4-2.2-1.2-2.8,0.4c-1.6,4.2-2.9,8.4-1.4,13c0.8,2.6,1.2,5.2,1.9,7.9
				C53.1,76.7,56.3,82.3,61.2,86.8z M174.3,337.5c9.6,5.8,20.3,4.1,28.3-2.5c7.3-6,11.2-14.4,14.8-22.7c4.6-10.7,8.5-21.6,12.4-32.6
				c4.7-13.1,9.8-26.1,16.3-38.5c3.7-7.1,7.1-14.4,10.2-21.8c1.8-4.3,4.3-8.1,6.1-12.4c2.9-6.9,6.7-13.5,9-20.7
				c0.7-2.2,2-4.1,3.9-5.6c2.2-1.8,4.5-3.4,6.9-4.6c3.7-1.7,7.3-3.7,11.6-3.7c5-0.1,9.9-0.4,14.8-2c5.3-1.7,9.9-4.7,14.6-7.4
				c1.7-1,1-2-0.3-2.7c-2.2-1.1-4.4-2-6.6-3c-6.1-2.5-12.1-5.2-18-8.2c-4.7-2.4-9.4-5.1-14.4-7c-4.9-1.8-9.7-3.8-14.2-6.5
				c-1-0.6-2.7-1.1-1.8-2.5c0.8-1.3,2.3-0.8,3.5,0c1,0.6,1.6,1.9,3,1.8c0.4-1.7-0.9-3.3-0.8-4.7c0.2-2.8-0.6-5.6-2.1-7.2
				c-1.8-1.9-1-3.1-0.3-4.5c2.2-4.7,4.5-9.4,6.8-14.1c0.5-1.1,1.2-2.1,1-3.7c-1.8,0.6-3.4,1.1-4.9,1.7c-5.1,2.2-10.6,4.2-14.6,7.8
				c-4.5,4-8.6,8.8-10.2,15.2c-2.8,10.7-3.5,21.2,1.2,31.6c3.4,7.5,1.8,14.7-2.7,21.2c-2.7,3.8-5,7.8-7.3,11.8
				c-4.1,7.4-8,14.9-12.2,22.2c-3.6,6.3-9.3,11.3-10.7,19c-0.5,2.9-3.3,5.7-5.1,8.5c-2.6,4.1-5.7,7.9-8.2,12.1
				c-5.7,9.5-12.7,18.2-18.7,27.5c-2.9,4.5-6.6,8.3-9.5,12.8c-3.1,4.9-5.5,10.1-9,14.8c-0.7,0.9-1,2-1.4,3
				c-1.5,3.6-1.4,7.4-1.7,11.3c-0.5,6.4,1.3,11.4,7,14.7C172.2,336.4,173.3,336.9,174.3,337.5z M158.5,43.2c2.8,1.7,4.8,0.7,6.5-2.3
				c0.4-0.8,0.7-1.6,0.1-2.3c-2.3-3.3-8.8-7.1-13.1-5c-2.8,1.4-5.9,2.2-9.1,2.6c-0.9,0.1-1.8,0.5-2.3,1.4c0.5,0.7,1.2,0.8,1.9,0.9
				C148.1,39.5,153.6,40.3,158.5,43.2z M138.6,121.5c5-1.4,9.7-3.7,14.3-6c1.5-0.7,1.2-1.7-0.2-2.7c-2.1-1.5-2-2.9,0.1-4.3
				c3.6-2.4,7.1-4.7,10.7-7.1c0.9-0.6,2.2-1.1,1.4-2.5c-0.8-1.4-2.4-1.9-3.6-1.1c-2.4,1.8-5.3,3-7.2,5.1c-2.6,2.9-6,4.3-9,6.3
				c-0.8,0.5-2.4,0.3-2.2,1.7c0.1,1.1,1.4,1.4,2.4,1.5c0.7,0.1,1.6,0.1,1.7,1.1c0.1,0.8-0.6,1-1.1,1.4c-2.6,2-5.3,4-8,6.1
				C138.3,121.3,138.5,121.5,138.6,121.5z M111.7,21.6c0.7-3.5-1.7-2.7-3.7-2.7c-1.6-0.2-3.2,0.3-4.9,0.9
				c-5.9,2.1-11.1,5.6-16.7,8.3c-0.6,0.3-1.1,0.8-1.5,1.2c-0.6,0.6-1.7,1.3-0.8,2.3c0.8,0.8,1.4,2,3.3,1.3c7.7-2.9,14.5-8,22.7-9.6
				C110.9,23,111.4,22.6,111.7,21.6z M137.9,124.6c-2.6,0.9-5.2,3.1-7.7,2.7c-4-0.7-2.6,1-1.9,2.8c0.7,1.7,1.5,3.4,2.2,5.1
				c1.8,4.1,4.3,7.8,5.7,12.1c6.6,20.8,14.9,41,25.1,60.4c6.9,13.1,10.6,27.4,13.7,41.8c1.1,5.3,3.1,8.4,9.4,8.1
				c2-0.2,4.1-0.3,6.1-0.7c3.4-0.8,6.5-1.8,8.8-5.2c3.4-5.2,6.4-10.7,10.2-15.7c2.6-3.5,2.2-7,0.5-10.4c-2.5-5.2-5.8-10-8.1-15.3
				c-3.4-8-7.7-15.5-12-22.9c-4.2-7.2-7.4-14.9-11.4-22.2c-3.1-5.5-5.7-11.3-8.5-16.9c-4.8-9.5-9.4-19-14-28.6
				c-0.8-1.8-1.7-1.9-3.4-1.2C147.6,120.8,142.9,123,137.9,124.6z M122.2,27.7c-3.3-2.6-6.9-3.2-11.2-1.6c-6.9,2.5-13.3,6-20.4,8.1
				c-1.4,0.4-2.8,1.3-3.3,3.4c-1.2,5.6-5.7,7.7-10.7,8.8c-1.3,0.3-2.5-0.3-3.6-1.2c-3.1-2.6-6.3-5-9.5-7.5c-0.8-0.6-1.6-0.9-2.6-0.4
				c-2,1-4,1.9-5.9,3.2c-1.1,0.8-1.2,1.4-0.5,2.7c3.4,5.7,6.5,11.5,9.3,17.4c3.9,8.1,5.8,17,5.2,26.2c-0.1,1-0.7,1.9-0.1,3.1
				c1.6-0.7,1.9-2.8,3.6-3.3c2.8-0.8,3.7-2.8,3.7-5.5c0-2.3-0.2-4.6-0.8-6.9c-2-8.8-4.6-17.4-8.1-25.8c-0.6-1.3-1.2-2.8-0.5-5
				c3.9,5.5,4.9,11.6,7.1,17.1c2.2,5.6,3.8,11.3,5,17.2c0.9-1.2,0.9-2.4,1-3.6c0.7-9.5,7.8-14.5,17-11.5c4,1.3,7.2,1.8,10.5-0.9
				c0.1-0.1,0.3-0.1,0.5-0.2c8-3.4,15.8-7.1,23.3-11.3c1.3-0.7,1.9-1.6,1.5-3.2c-0.4-1.8-0.7-3.7-1-5.5c-0.4-2.2,0.4-3.6,2.4-4.8
				c3-1.7,6.1-3.2,9.1-4.7c9.8-5,18.8-3.5,27.6,2.5c0.8,0.6,1.8,2.2,2.9,0.3c1-1.7,3.7-3,1.4-5.4c-1.5-1.6-3.1-3.2-5-4.4
				c-8.6-5.5-17.7-7.4-27.7-5c-5.8,1.4-11.2,3.8-15.7,7.4C124.7,29.1,124.1,29.2,122.2,27.7z M114.2,77.2c-2.5-0.6-5.2,1.1-5.4,3.6
				c-0.2,2.4-1.1,4.5-2.7,6.3c-2.3,2.6-2.5,6.2-4,9.1c-0.5,1.1-0.1,1.6,1.3,1.5c4.1-0.5,4.1-0.4,2.7,3.4c-0.1,0.2,0,0.5,0.1,1.4
				c2.1-2.6,3.9-4.8,5.8-7.1c-3.5-1.3-3.7-1.6-2.4-4.7c1.6-3.9,3.3-7.7,5-11.5C114.8,78.5,115.8,77.6,114.2,77.2z M107.4,74
				c3.3-2,6.6,0.6,9.8-0.4c1.4-0.4,2.4,0.5,3.1,1.4c0.7,0.9-0.3,1.7-0.8,2.4c-2.6,3.7-5,7.6-7,11.7c-0.7,1.5-1.1,2.5,1.3,2.6
				c3.7,0.2,4.4,1.9,2.1,4.9c-0.9,1.2-0.8,2.1-0.5,3.3c0.8,2.8,2.5,5.1,3.8,7.6c2.8,5.1,5.4,10.4,6.6,16.2c0.4,2,1.4,1.7,2.7,0.8
				c3.5-2.5,7-4.9,10.1-7.9c2.5-2.4,2.6-2.3-0.1-4c-0.5-0.3-1.3-0.4-1.2-1.3c0.1-0.8,0.7-1.4,1.4-1.6c3.2-0.6,5.2-3.1,8-4.5
				c1-0.5,1.2-1.1,0.7-2.3c-2-4.7-3.4-9.7-5.9-14.1c-5.7-10.3-11.6-20.4-15.2-31.6c-6.2,2.9-11.9,6.6-18.2,9.2
				c-4.2,1.7-4.2,1.7-2.2,5.8C106.4,72.8,106.7,74.4,107.4,74z M321.1,175.7c2.6-0.2,5.2-0.2,7.8-0.5c1.8-0.2,2.6-1.2,2.5-3
				c0-0.6-0.3-1.2-1-1c-3.3,1.1-6.7,1.6-9.5,3.8C321,175.2,321,175.5,321.1,175.7z M328.6,169c-2.6-1-4.7-2.7-6.6-1.8
				c-3.8,1.8-7.9,3.3-11.4,6.1c1.7,1,3.5,1.9,5.2,1.3C320,173,324,171.1,328.6,169z M319.4,139c0.6-7.9,0.6-15.8-1.5-24.1
				c-2.8,6.6-6.6,12.1-7.9,18.7c-1,5.3-4.6,7.7-9.2,9.2c-1,0.3-2,0.4-2.7,1.4c5.4,3.5,11.1,6.3,17.1,8.8c1.4,0.6,1.6-0.1,1.8-1.1
				C317.8,147.6,319.2,143.3,319.4,139z M332.3,176.3c-6.7,2.1-13.5,2.6-20.2,0c-3.9-1.5-7.8-0.2-11.6,0.1
				c-5.2,0.5-10.6-0.1-15.6,2.4c-4.7,2.4-8.7,5.7-10.9,10.4c-11.3,24.8-22.8,49.5-33.6,74.5c-8.2,19.2-15.1,39-23.5,58.2
				c-2.6,5.9-6.2,11.3-10,16.5c-2.7,3.8-7.1,5.6-11.5,6.3c-6,1-12.2,1.5-18.3-0.3c-4.3-1.3-7.2-4.5-10.8-6.8
				c-6.8-4.5-7.2-11.4-6.9-18.3c0.2-6.5,3.3-12.4,6.4-18c6-10.9,13.2-21.2,20.2-31.5c1.7-2.5,1.6-2.7-1.4-3.1
				c-1.4-0.2-2.8-0.1-4.2-0.1c-6.5,0.3-10.9-3.8-11.1-10.2c-0.4-9.4-3.6-18.2-6.5-27c-10.5-31.3-23.7-61.6-35.8-92.3
				c-4.9-12.4-10.4-24.6-13.9-37.8c-4.1,3.4-7.2,7.5-10.8,10.9c-0.5,0.5-0.9,1-1.3,1.4c-0.7,0.7-1.5,1.3-2.5,0.6
				c-0.9-0.6-0.7-1.7-0.3-2.6c1-2.1,2.1-4.2,3.2-6.2c0.7-1.3,0.4-2.2-1.1-2.2c-2,0.1-2.1-1.1-1.9-2.5c0.4-3.6,1.7-7,3.4-10
				c3.2-5.5,3.2-10.6,0.2-16.1c-1.3-2.3-1.7-5-5.2-4.2c-0.6,0.1-1.3-0.1-1.9-0.4c-4.2-2.1-7.4,0.4-10.8,2.3c-0.6,0.3-0.9,0.9-1,1.6
				c-0.7,4.2-1.5,8.4-1.5,12.6c0,1.7-0.8,2.6-2.3,3.4c-4.5,2.6-9.4,4.3-14.1,6.6c-3.4,1.6-5.9,0.8-7.8-2.4
				c-4.8-7.9-10.3-15.5-12.6-24.8c-1.5-5.9-3.3-11.8-2.9-18.1c0.2-4.6,1.8-8.2,6.1-10.4c1.6-0.8,3.2-1.7,4.4-3
				c2.7-2.8,6.2-2.6,9.6-2.9c1.3-0.1,2.4,0.8,3.5,1.6c2.5,1.9,5,4,7.5,5.8c4,2.9,8.6,1.7,10.6-2.6c0.6-1.2,0.6-2-0.4-3.2
				c-3.6-4-3-6.9,1.1-10.2c7.2-5.8,15.9-7.5,24.3-10c4.1-1.2,7.4,1.3,8.2,5.7c0.2,1.2,0.6,1.8,2,1.8c1.9-0.1,3.5,0.5,5.3,1.3
				c1.1,0.5,2.6,0.4,3.8-0.4c6.1-4.3,13.1-5.8,20.4-6.4c9.8-0.8,18.9,0.6,27,6.6c2.3,1.7,3.8,4.1,5.3,6.4c0.6,0.9,0.1,1.5-0.3,2.2
				c-1.6,2.2-3.1,4.4-4.7,6.6c-1.6,2.2-4,2.2-5.4-0.2c-0.4-0.7-0.8-1.3-1.6-1.6c-0.1,0.2-0.3,0.4-0.3,0.5c1.2,3.8-1.7,5.7-3.9,7.8
				c-1.2,1.1-1.7,3.2-3.3,3.6c-1.7,0.3-2-2-3.4-2.8c-2.8-1.5-5.7-2.7-9-2.6c-3.7,0.1-7.4-0.9-11,0.6c-1.3,0.6-2.8,1-2.2,2.9
				c0.9,2.7-0.6,4.5-2.2,6.2c-3.4,3.6-3.4,3.6-1.3,8.1c6.2,13,12.4,26,19.1,38.8c0.9,1.8,1.6,2.3,3.3,0.8c2.1-1.8,4.5-3.3,6.7-5
				c0.5-0.4,0.9-1,1.7-0.6c2.5,1.4,5.1,2.7,7.4,4.4c1.8,1.3,1.4,2.8-0.7,3.6c-4.4,1.7-7.2,5.5-10.9,8.1c-0.2,0.1-0.4,0.7-0.3,0.7
				c2.2,1.8,0.5,3.9,0.7,5.9c0.2,2.1,1.8,4,2.7,6c12.4,25.4,25.5,50.5,38.5,75.6c4.3,8.2,9.1,16.2,15.1,23.4c2.3,2.8,2.3,2.8,4-0.3
				c7.6-13.4,15.2-26.9,22.8-40.3c1.2-2.1,2.3-4.2,3.6-6.3c3.5-5.8,3.8-11.7,1.4-17.9c-2-5.2-3.5-10.6-4.5-16.1
				c-0.8-4.2,0.4-8.2,1-12.2c2.1-14.6,10.7-24.3,24-30c2.1-0.9,4.3-1.7,6.4-2.7c4.3-2,8.7-2.8,13.6-1.4c-1.1,2.7-2.3,5.5-3.4,8.3
				c-1.7,4-3.2,8.1-5.1,12c-1.9,3.7-2.2,7.3-1.1,11.3c0.6,2.1,1.1,4.4,1.1,6.6c0,3.3,1.8,4.3,4.6,5.4c5.3,2,9.7,1.3,14.7-1.3
				c4.8-2.4,8.1-5.3,10.2-10.2c2.5-5.7,5.6-11.1,8.4-16.6c0.8-1.6,1.4-2.2,2.7-0.2c5.6,8.1,5.8,17.3,5.2,26.6
				c-0.3,5.2-1.9,10.1-3.8,14.8c-0.7,1.8-0.5,2.7,1.2,3.5c1.3,0.6,2.5,1.3,3.7,2c4.7,2.7,4.8,3.9,0.4,7.5c4.3,1.4,7.9,3.5,10.6,6.9
				c1,1.2,1.1,1.9-0.3,2.8C335.3,175.6,333.8,175.9,332.3,176.3z"/>
			<path d="M286.7,162.8c1.7,0.7,3.4,0.5,4.5-1.1c1.2-1.8,2.1-3.7,3.1-5.6c0.4-0.8,0.4-1.7-0.1-2.4c-0.7-0.8-1.6-0.3-2.2,0.2
				c-2.1,1.5-4.8,1.4-7.1,2.9c-1.4,0.9-3.4,1.5-5.7,2.6C282,160.7,284.4,161.9,286.7,162.8z M269.1,154.9c2,1.2,4.7,3.3,6.4,2.7
				c4.9-1.5,9.9-3.2,13.9-6.8c-2.8-0.7-5.2-5.3-8.5-0.8c-0.1,0.1-0.4,0.1-0.5,0c-4.2-0.7-6.9,2.9-10.6,3.6
				C269.4,153.7,268.2,154.3,269.1,154.9z M256.9,147.9c2,2.8,6.1,4.7,9.2,3.1c2.6-1.4,5.5-2.3,8.3-3.1c1.8-0.5,3.9-0.1,5.6-2
				c-2.4-1.3-4.6-3.2-7-3.1C267.3,143.3,262.3,146,256.9,147.9z M262,133.3c1.4,0.2,2.6,0.9,3.7,1.8c5.3,4.1,11.2,7.1,17.4,9.2
				c5.1,1.7,9.1,5.3,14,7.2c1.3,0.5,1.6,2.2,0.9,3.1c-2.2,3-2.9,6.8-5.3,9.8c-1.6,2.1-3.2,2.9-5.9,1.7c-5.8-2.5-11.8-4.6-17.1-8.1
				c-3-2-6.6-2.7-9.9-4.1c-1.6-0.7-2.6-2.2-4.3-3c-3.7-1.6-4.1-2.6-1.5-5.6c2.3-2.7,3.2-5.8,4.4-8.9
				C259.2,134.8,260.1,133.5,262,133.3z M258.5,144.2c2.6-0.3,8.6-2.3,10.4-3.5c-6.4-4.2-6.4-4.2-10,2.5
				C258.8,143.5,258.6,143.8,258.5,144.2z"/>
			<path d="M191.6,290.8c3.7,0,6.8,1.5,9.8,3.2c3.1,1.7,4.6,4.9,7,7.4c2.5-4.9,4.3-9.8,6.7-14.4c5.3-10,8.5-20.9,13-31.2
				c0.2-0.5,0.3-1.1,0.3-1.6c0-2.9,1.2-5.4,2.8-7.8c0.9-1.3,1.7-2.6,2.2-4.2c1.9-6.8,4.9-13.2,7.9-19.6
				c7.5-16.1,15.9-31.8,22.3-48.3c-1.4-0.1-1.4-0.1-2.3,0.9c-3.5,3.8-6.1,8.3-8.6,12.7c-8.8,15.4-17.2,31.1-26.6,46.2
				c-6.2,9.9-12.3,19.8-18.4,29.7c-3.3,5.3-6.1,10.9-9.8,15.9C195.5,283,193.4,286.6,191.6,290.8z M203,302.4
				c-2.7-4.2-10.3-7.1-16.9-5c-1.4,0.5-2.7,1-2.9-1c-0.1-1.4-3.6-3.3,0.7-4.5c2.7-0.7,3.3-3.9,4.4-6.2c4.1-8,9.3-15.2,14.3-22.7
				c11.9-18,24.7-35.4,34.3-54.9c6.1-12.4,13.1-24.5,20.5-36.2c1.1-1.7,1.9-3.6,2.9-5.4c0.6-1,1.3-2.1,2.6-1.1
				c2.4,2,5.7,1.4,8.4,2.8c1.8,0.9,2.1,0.8,2.1,2.7c-0.2,1.3-0.3,2.6-1.1,3.9c-9.6,15-16.4,31.5-24.6,47.2
				c-5.5,10.6-10.5,21.3-15.1,32.3c-5.5,13-11.1,26-16.3,39.1c-2.3,5.8-3.6,11.6-4.9,17.6c-0.1,0.7-0.6,1.3-1,2
				c-0.3,0.5-0.5,1-1.2,1c-0.7,0-0.8-0.7-1-1.2C206.5,309.5,205.1,305.7,203,302.4z"/>
			<path d="M185.3,332.8c-7.4-0.3-14.7-6.6-15.3-13.9c-0.9-11.1,8.7-19.3,19.2-17.9c2.8,0.4,5.9,0.4,8.3,2.6
				c5.9,5.5,7.1,10.1,4.2,17.5C198.9,328.6,192.6,333.1,185.3,332.8z M183.4,322.8c4.7,3.2,10.6,1.3,12.4-4
				c1.3-3.9-0.4-9.5-3.8-11.6c-2.1-1.3-3.8-3.8-6.8-3.1c-5,0.3-8.2,2.7-8,6.3C177.4,315.4,178.9,319.8,183.4,322.8z"/>
			<path fill="#010101" d="M74.6,157.7c0.2-0.8,0.1-1.8-1.2-1.5c-1.4,0.3-2.8,0.5-2.6,2.2c-0.1,1.5,0.4,2.6,1.8,2.4
				C74.2,160.6,74.3,159,74.6,157.7z M76.7,163.3c-1.6,1.9-3.5,3.4-6.3,2.4c-3.1-1.1-4.3-2.9-4.2-6.3c0-2.4,1.1-4.5,2.1-6.6
				c1.1-2.2,3-3.7,5.5-3.6c2.5,0.1,3.8,2.2,4.4,4.1C79,156.7,79.2,160.4,76.7,163.3z"/>
			<path d="M90.5,135.7c1.3-5.9,2.4-11.9,2.6-17.9C90.8,123.6,89.9,129.5,90.5,135.7z M64.4,137.5c3.4-6.6,2.2-13.9,3-20.9
				C63.2,123.1,63.9,130.3,64.4,137.5z M87.3,243.8c-7.1-5.1-15.4-5.9-23.7-5.4c-6.7,0.4-10.8,5.4-15.3,9.8c-4.1,4-3.9,8.3-2.2,13
				c3.6,10.2,10.8,12.7,22,14.4c2.1-0.1,4.3-0.4,6.5-0.6c5.9-0.7,11.4-2.5,15.3-7.5c1.4-1.9,2.5-3.9,2.3-6.4c-0.1-1.5,0-3,0.4-4.4
				C93.9,251.1,91.6,246.9,87.3,243.8z M36.1,241c2.5-3.5,5.8-6.8,7.2-10.7c2.2-6.5,4.8-12.7,9-18.1c4.5-5.7,9.5-11,16.3-14.1
				c9.2-4.1,16.6-10.5,22.9-18.2c0.9-1.1,1.5-2.5,2.3-3.8c0.4-0.7,0.5-1.4-0.5-1.8c-1.3-0.6-6.5,0.4-7.3,1.6
				c-3.2,4.3-7.9,6.7-12.2,9.5c-8.3,5.4-17.8,9.1-24.3,17.1c-2.7,3.3-5.9,6.5-7.9,10C37.1,221.2,35.8,230.8,36.1,241z M65.9,142
				c-0.6,1.3-1.2,3-2.8,2.6c-1.7-0.4-2.6-1.9-2.5-3.9c0.1-2.6,0-5.2,0-8.4c-5.4,6-8.1,16.1-4.3,23.2c4.8,9,11.9,15.3,23,14.9
				c3.3-0.1,6.9,0.3,9.7-1.9c6.5-4.9,11.5-11.1,14.9-18.6c2-4.3,1.5-8.9,1.5-13.4c0-0.3-0.3-0.6-0.5-1c-1.1-2.7-2.9-4.9-5-7
				c-0.8-0.8-1.5-1.8-2.8-1.4c-1.2,0.4-1.1,1.6-1.2,2.6c-0.7,4.1-1.5,8.2-3.2,12.1c-1.3,2.9-3.6,2.5-5.3,2.1c-2.5-0.6,0.3-2.1,0-3.3
				c0-0.2,0-0.4,0-0.6c0-5,0.5-10.1,1.1-15.1c0.1-1.2-0.1-2.1-1-2.9c-4.1-3.7-8.5-3.1-13.3-1.8c-3.1,0.9-4.5,2.6-4.7,5.9
				C69.2,131.7,68.2,137,65.9,142z M111.3,143.4c-0.3-0.5-1.1-1.2-1.3-0.2c-0.2,1-1.1,1.5-1.2,2.5c-0.3,4.2-2.5,7.8-4.1,11.4
				c-1.4,3.1-2.6,6.6-5.9,8.5c-0.6,0.3-1,1-0.7,1.6c0.3,0.7,1.1,0.6,1.7,0.5c4.6-0.3,8.5-1.6,10.6-6.3c1.3-2.8,2.5-5.7,3.2-8.6
				C114.4,149.6,112.8,146.4,111.3,143.4z M79.7,277.8c-6.8,1-13.6,0.2-20.5-1.1c-9.3-1.8-13.4-8.4-17.6-15.4c-1.9,3-1.5,8.1,0.5,11
				c3.8,5.4,8.8,8.5,15.4,9.6c3.4,0.6,6.7,2.1,10.2,2.8c8.1,1.6,15.5,0,22.3-4.3c4.4-2.8,8.8-5.6,11.7-10.1
				c5.9-9.1,3.3-17.7-1.4-26.3c-3.8-7-9.8-11.6-16.3-15.8c-4.3-2.8-9.3-2.8-14.2-3.5c-7.2-1.1-13.1,2-18.8,5.5
				c-2.3,1.4-4.2,3.4-4.5,6.4c-0.1,0.9-0.2,2.6-2,1.3c-0.7-0.5-1,0.2-1.3,0.5c-5.8,5.4-9.9,12.1-12.9,19.4c-4.9,11.7-6.7,24-6,36.6
				c0.3,5.7,2.2,11.1,2.8,16.8c0.1,1,1.4,2.4-0.3,2.8c-1.4,0.4-2.2-1.1-2.4-2.2c-0.9-3.8-1.7-7.6-2.3-11.5
				c-1.7-9.9,0.1-19.6,1.8-29.4c1.3-7.9,3.8-15.3,7.8-22.2c0.7-1.2,1-2.5,1-4c0.1-9.4,1.3-18.6,3.7-27.6c1.1-4.2,3.3-7.9,6-11.3
				c4.7-5.9,9.7-11.5,16.7-15.1c7-3.6,13.6-7.7,19.9-12.4c1.3-1,2.4-2,3.1-3.6c-2.4-1.2-4.8-2-7.4-2.4c-4.8-0.6-9.3-2.3-13.5-4.3
				c-5.7-2.7-8-8.3-8.9-13.8c-1.5-8.6,0.5-17,5.4-24.5c0.3-0.5,0.5-1,0.9-1.4c3.4-3,4.3-7,4.7-11.3c0.2-1.8,0.7-3.6,1.6-5.3
				c0.7-1.4,1.8-1.8,3.2-1.9c1.6-0.1,1.3,1.3,1.7,2.2c0.7,1.6,1.8,3,1.6,4.9c-0.1,1.1,0.7,0.7,1.3,0.5c1.4-0.5,2.9-0.8,4.3-1.2
				c3.8-1.1,7.6-1.3,11.2,0.5c1.6,0.7,2.2,0.3,2.6-1.1c0.4-1.3,0.9-2.6,1.4-3.9c0.4-0.9,1-2.1,2.2-1.5c1,0.5,2.3,1.1,2,2.6
				c-0.1,0.6-0.2,1.3-0.2,1.9c-0.3,3.6,0.7,6.5,4,8.5c2.1,1.2,3.9,2.8,5.9,4.2c7.5,5.1,10.7,13.1,13.8,21c0.9,2.2,0.7,4.8-0.1,7.1
				c-2.7,8.8-7.4,15.8-16.9,18.2c-1.4,0.4-2.3,1-3,2.5c-3,6.2-6.8,11.8-13,15.2c-9.1,5-17.7,10.5-26.1,16.6
				c-6.6,4.8-10.5,10.8-12.6,18.4c-0.2,0.6-0.3,1.2-0.7,2.6c3.5-1.8,6.6-3.1,9.3-4.9c5.1-3.3,10.5-4,16.3-2.9
				c5.3,1,10.9,0.9,15.9,3.8c6.6,3.8,10.7,9.7,14.6,15.8c4.2,6.6,6.8,13.6,6.2,21.6c-0.4,5.1-2.2,9.4-5.9,13.2
				c-5.6,5.6-12,9.7-19.6,11.8c-7.5,2.1-15.1,1.8-22.6-0.1c-2.5-0.6-5.1-0.9-7.6-1.5c-5.9-1.5-10.7-4.6-13.9-10
				c-0.3-0.4-0.4-1.1-1.5-1.2c-2.2,14.4-5,28.7,3.6,42.4c-6-0.5-6.3-0.6-7.7-5.5c-2.2-8-2.6-16.3-2.8-24.6c-0.2-7,1.8-13.6,2.8-20.4
				c1.3-9.1,6.5-15.7,11-23c2.6-4.2,6.4-6.7,10.1-8.2c4-1.6,8.6-3.5,13.5-1.7c3.4,1.2,7.2,1.1,10.7,2.1
				c15.5,4.3,23.6,22.6,11.8,36.3C88.2,276,83.9,277.2,79.7,277.8z"/>
			<path d="M47.1,112.6c1.4,5.4,2.7,10.8,4.2,16.1c0.3,1.1,0.7,2.3-0.3,2.7c-1.2,0.6-1.5-1-2.1-1.7c-1.8-2.6-3.6-5.2-5.3-7.8
				c-0.8-1.3-1.5-1.5-2.9-0.7c-4.8,2.5-4.8,2.4-7-2.5c-2.6-6-5.1-12-7.8-17.9c-0.7-1.6-0.6-2.7,0.8-3.8c2.1-1.7,4-3.6,5.7-5.7
				c1.4-1.7,2.9-1.3,3.5,0.9c1.6,5.5,3.1,11.1,4.7,16.6C45.7,107.4,45.7,107.4,47.1,112.6z M45.5,112.7c-0.5-2.3-1.7-2.8-3.3-1.1
				c-2.4,2.7-2.7,0.7-3.2-1.1c-1.3-4.5-3-8.8-4.9-13c-0.3-0.6-0.5-2-1.7-0.9c-1.3,1.3-2.6,2.4-1.3,4.7c2.7,5,5.2,10,7.1,15.4
				c0.6,1.7,2,1.6,2.9,0.7c2.2-2.4,3-0.5,4.1,1.1c0.4,0.6,0.6,1.6,2,2.1C46.6,117.8,46,115.2,45.5,112.7z"/>
		</g>
		<g>
		</g>
	</g>
</g>
</svg>
