<?xml version="1.0" encoding="utf-8"?>
<!-- Generator: Adobe Illustrator 18.1.0, SVG Export Plug-In . SVG Version: 6.00 Build 0)  -->
<svg version="1.1" xmlns="http://www.w3.org/2000/svg" xmlns:xlink="http://www.w3.org/1999/xlink" x="0px" y="0px"
	 viewBox="0 0 360 360" enable-background="new 0 0 360 360" xml:space="preserve">
<g id="Layer_3">
</g>
<g id="Layer_2">
</g>
<g id="Layer_1">
</g>
<g id="Layer_5">
</g>
<g id="Layer_4">
</g>
<g id="Layer_6">
	<g>
		<path fill="#A74933" d="M351.5,200.5c0.1,0.3,0.2,0.8,0.2,0.9c0,0.5-0.1,0.9-0.3,1.3c-0.4,0.9-1,1.7-1.7,2.3
			c-0.2,0.1-0.3,0.2-0.5,0.2c-0.6,0-1.1-0.7-0.5-1.2c0.5-0.4,1-0.9,1.3-1.5c0.2-0.5,0.2-0.8,0.2-1.1c-0.4,0-0.8-0.3-1.1-0.8
			c-0.5-1.1,0.7-2.2,1.7-2.2c0.5,0,0.9,0.3,0.9,1c0,0.1,0,0.2,0,0.2C351.8,199.7,351.7,200.1,351.5,200.5z"/>
		<path fill="#A74933" d="M350,192.1c0.3,0.3,0.5,0.7,0.4,1.1c-0.1,0.7-0.5,1.5-1.3,1.6c-0.1,0-0.2,0-0.3,0c-0.6,0-1.2-0.3-1.4-0.9
			c-0.4-1.2,0.6-2.4,1.8-2.4c0.1,0,0.2,0,0.4,0C349.8,191.7,349.9,191.9,350,192.1z"/>
		<path fill="#EE9933" d="M345.3,200.6c0.5,0.5,0,1.2-0.5,1.2c-0.2,0-0.3-0.1-0.5-0.2c-1.3-1.1-2.5-2.3-3.7-3.4l-1.7,2.5
			c-0.2,0.2-0.4,0.3-0.6,0.3c-0.5,0-1-0.5-0.6-1.1c0.6-0.9,1.3-1.9,1.9-2.8c-1.1-1.1-2.1-2.2-3.1-3.4c-0.5-0.5,0-1.3,0.5-1.3
			c0.2,0,0.3,0.1,0.5,0.2c1,1.1,1.9,2.1,2.9,3.2c0.4-0.6,0.7-1.1,1.1-1.7c0.2-0.2,0.4-0.3,0.6-0.3c0.5,0,1,0.5,0.7,1.1
			c-0.4,0.7-0.9,1.3-1.3,2C342.7,198.2,344,199.5,345.3,200.6z"/>
		<path fill="#EE9933" d="M336.9,196.4c0.4,0.9,0,2.2-0.7,2.9c-0.4,0.4-0.9,0.7-1.5,1c-0.2,0.1-0.4,0.2-0.7,0.3c0.1,0.4,0,0.7-0.4,1
			c0.1,0.5,0.2,1,0.3,1.5c0.2,0.2,0.3,0.4,0.2,0.7c0,0.1,0,0.3-0.1,0.4c-0.1,0.4-0.4,0.5-0.7,0.5c-0.3,0-0.7-0.2-0.7-0.5
			c-0.2-0.9-0.4-1.8-0.6-2.7c-0.3-0.2-0.4-0.6-0.3-1.1l0-0.1c-0.3-1.5-0.7-3-1-4.5c-0.1-0.5,0.3-0.8,0.7-0.9
			c0.5-0.3,1.1-0.4,1.8-0.4C334.8,194.5,336.3,195.2,336.9,196.4z M335.2,198.3c1.2-1.4-0.4-2.3-1.9-2.3c-0.3,0-0.6,0-0.9,0.1
			c0.2,1.1,0.5,2.1,0.7,3.2C333.9,199,334.7,198.8,335.2,198.3z"/>
		<path fill="#A74933" d="M333.6,122.6c0.2,0.3,0.3,0.8,0.3,1.1c-0.1,0.8-0.5,1.4-1.2,1.8c-0.1,0.1-0.2,0.1-0.4,0.1
			c-0.6,0-1.1-1-0.4-1.3c1.4-0.8-0.7-1.7-0.3-2.7c0.1-0.3,0.4-0.5,0.7-0.5c0.4,0,0.9,0.3,0.7,0.9c0-0.1,0.1-0.1,0.1-0.1
			c0.1,0,0.1,0.2,0.2,0.3C333.3,122.3,333.5,122.4,333.6,122.6z"/>
		<path fill="#A74933" d="M333,116.6c0.1,0.2,0.2,0.6,0,0.8c0.1,0.2,0,0.5-0.1,0.7c-0.2,0.4-0.6,0.6-1,0.6c-0.2,0-0.5-0.1-0.7-0.2
			c-0.6-0.4-0.7-1.2-0.4-1.9c0.3-0.6,0.8-0.9,1.4-1c0,0,0,0,0.1,0c0.4,0,0.7,0.4,0.7,0.7C333,116.4,333,116.5,333,116.6L333,116.6z"
			/>
		<path fill="#A74933" d="M331.9,135.2c0.6,0.5,1.3,1.4,1,2.3c-0.4,0.9-1.1,1.3-2,1.7c-0.1,0-0.1,0-0.2,0c-0.3,0-0.6-0.3-0.7-0.5
			c-0.1-0.4,0.1-0.7,0.5-0.9c0.3-0.1,1-0.4,1-0.8c0-0.3-0.4-0.6-0.6-0.8c-0.5-0.5,0-1.2,0.5-1.2C331.6,135,331.8,135,331.9,135.2z"
			/>
		<path fill="#A74933" d="M332.5,131.6c0.1,0.2,0.1,0.4,0,0.6c-0.2,0.4-0.5,0.6-0.9,0.7c-0.1,0-0.3,0.1-0.4,0.1c-0.1,0-0.2,0-0.2,0
			c-0.3-0.1-0.5-0.3-0.6-0.6c-0.3-0.8,0.3-1.5,1-2c0.1-0.1,0.2-0.1,0.4-0.1s0.3,0,0.4,0.1c0.3,0.2,0.5,0.5,0.5,0.9
			C332.6,131.4,332.6,131.5,332.5,131.6z"/>
		<path fill="#6F338A" d="M323.3,191.3c3.5,0,6.9,1.7,6,5.5c-0.5,2.6-2.9,4.7-5.7,4.7c0,0,0,0,0,0c-1.9,0-6.6-0.6-6.3-3.3
			c0.1-0.5,0.4-0.7,0.8-0.7c0.4,0,0.7,0.2,0.6,0.7c-0.1,1.1,1.8,1.8,3.9,1.8c2.6,0,5.5-1.1,5.3-4c-0.2-2.4-2.5-3.4-4.8-3.4
			c-1.5,0-3.1,0.5-4.1,1.3c-0.2,0.1-0.4,0.2-0.5,0.2c-0.3,0-0.6-0.2-0.7-0.5c-0.3-1-0.5-2.1-0.8-3.1c-0.1-0.4,0.1-0.7,0.5-0.9
			c2.4-1,4.9-1.5,7.5-1.5c0.3,0,0.6,0,0.9,0c0.9,0,0.9,1.4,0,1.4c0,0,0,0,0,0c-0.3,0-0.6,0-0.8,0c-2.3,0-4.4,0.4-6.6,1.2
			c0.1,0.5,0.3,1,0.4,1.6C320.2,191.7,321.7,191.3,323.3,191.3z"/>
		<path fill="#6F338A" d="M327.5,124.5c0.8,0,1.1,1.2,0.2,1.4c-0.6,0.1-1.3,0.3-2.1,0.3c-1.1,0-2.1-0.3-2.3-1.7
			c-0.2-1.6,0.3-4.6,2.2-5c0.2,0,0.4-0.1,0.5-0.1c1.5,0,2.4,1.5,1.1,2.7c-0.5,0.5-1.5,1-2.3,1c0,0,0,0,0,0l0,0.1
			c0,0.6-0.2,1.5,0.7,1.5c0,0,0,0,0.1,0c0.6,0,1.2-0.2,1.7-0.3C327.4,124.5,327.5,124.5,327.5,124.5z M325.9,121.5
			c0.4-0.3,0.3-0.5,0.1-0.5c-0.1,0-0.3,0.1-0.4,0.2c-0.2,0.2-0.3,0.5-0.4,0.7c0,0.1,0,0.1,0,0.2
			C325.2,121.5,325.5,121.8,325.9,121.5z"/>
		<path fill="#6F338A" d="M327.5,132c0.8,0,0.9,1.3,0.1,1.4l-0.3,0.1c-0.1,0-0.1,0-0.1,0c-0.1,0-0.1,0-0.2,0
			c-0.8,0.1-1.5,0.1-2.3,0.2c0.2,1.2,0.4,2.3,0.7,3.5c0.1,0.5-0.3,0.9-0.8,0.9c-0.3,0-0.5-0.2-0.6-0.5c-0.3-1.2-0.5-2.5-0.7-3.7
			c-0.4,0.1-0.9,0.1-1.4,0.1c-0.3,0-0.6,0-0.8-0.1c-0.4-0.2-0.7-0.6-0.4-1.1l0-0.1c0.2-0.2,0.4-0.4,0.6-0.4c0.1,0,0.2,0,0.4,0.1l0,0
			l0,0c0.1,0,0.1,0,0.2,0c0.4,0,0.8-0.1,1.1-0.1c-0.1-0.9-0.3-1.9-0.4-2.8c-0.1-0.5,0.3-0.7,0.6-0.7s0.7,0.2,0.8,0.7
			c0.1,0.9,0.2,1.8,0.4,2.7l0.1,0C325.6,132.1,326.6,132.1,327.5,132C327.5,132,327.5,132,327.5,132z"/>
		<path fill="#6F338A" d="M322.5,126.3c0.1,0.2,0.1,0.4,0,0.7c0,0.1-0.1,0.2-0.1,0.2c-0.1,0.3-0.3,0.4-0.6,0.4
			c-0.4,0-0.8-0.3-0.8-0.7c0-1.1,0-2.2-0.2-3.3c0-0.1-0.2-1.1-0.5-1.1c-0.1,0-0.2,0.1-0.3,0.2c-0.4,0.7-0.5,1.1-0.5,1.9
			c0,0.4-0.4,0.7-0.8,0.7c-0.3,0-0.6-0.2-0.6-0.5c-0.1-0.5-0.2-1-0.3-1.5c0-0.1-0.4-1.5-0.9-1.5c-0.2,0-0.3,0.1-0.5,0.5
			c-0.4,0.9-0.5,1.9-0.6,2.9c-0.1,0.4-0.3,0.5-0.6,0.5c-0.4,0-0.8-0.3-0.8-0.7c-0.1-1.6-0.2-3.2-0.4-4.8c0-0.5,0.3-0.7,0.7-0.7
			c0.4,0,0.7,0.2,0.8,0.7c0,0.3,0,0.6,0.1,0.8c0.3-0.4,0.8-0.7,1.4-0.7c0,0,0.1,0,0.1,0c1,0,1.5,0.7,1.9,1.5c0.4-0.6,0.9-1,1.5-1
			c0.2,0,0.3,0,0.5,0.1C322.6,121.4,322.5,124.6,322.5,126.3z"/>
		<path fill="#6F338A" d="M320.8,136.7c0.1,0.5-0.3,0.9-0.7,0.9c-0.3,0-0.6-0.2-0.6-0.5c-0.1-0.6-0.3-1.2-0.4-1.8
			c-0.1-0.4-0.1-1-0.4-1.3c-0.1-0.1-0.2-0.1-0.2-0.1c-0.6,0-1.1,2.1-1.2,2.4c-0.1,0.3-0.5,0.5-0.8,0.5c-0.3,0-0.5-0.2-0.6-0.5
			c-0.3-1-0.6-1.9-1-2.8c-0.2-0.5,0.2-0.9,0.7-0.9c0.3,0,0.6,0.1,0.7,0.5c0.1,0.3,0.2,0.6,0.3,0.8c0.4-0.8,0.9-1.5,1.7-1.5
			c0.1,0,0.3,0,0.4,0.1C320.3,132.9,320.4,135.3,320.8,136.7z"/>
		<path fill="#6F338A" d="M314.3,133.4c0.8,0.8,1.1,2.6,0.2,3.4c-0.5,0.4-1.2,0.7-1.9,0.7c-0.5,0-0.9-0.1-1.3-0.3
			c-1.1-0.7-1-2-0.4-3c0.6-1.1,1.7-1.9,2.9-2.1c0.1,0,0.1,0,0.1,0C314.6,132,314.9,133.1,314.3,133.4z M313.2,135.9
			c0.6-0.3,0.3-1.3-0.1-1.7c-0.1-0.1-0.2-0.2-0.2-0.4c-0.1,0.1-0.3,0.2-0.4,0.4c-0.2,0.2-0.9,1.2-0.7,1.5c0.1,0.2,0.4,0.2,0.8,0.2
			C312.8,136,313.1,136,313.2,135.9z"/>
		<path fill="#6F338A" d="M314,201.2c0.3,0.2,0.3,0.6,0.2,0.9l0,0.1c-0.1,0.2-0.4,0.4-0.6,0.4c-0.3,0-0.5-0.1-0.7-0.4
			c-0.9-1.2-0.9-4.1-1.1-5.6c-0.4-2.3-0.8-4.7-1.1-7c-0.1-0.5,0.4-0.9,0.8-0.9c0.3,0,0.5,0.2,0.6,0.5c0.3,2.1,0.6,4.1,1,6.2
			c0.2,1.2,0.4,2.3,0.6,3.5C313.8,199.4,313.8,200.5,314,201.2z"/>
		<path fill="#6F338A" d="M312.5,119.7c0.9,1.1,1.4,2.8,1.1,4.2c-0.2,0.9-1.2,1.5-2.1,1.5c-0.2,0-0.4,0-0.6-0.1
			c-0.8-0.3-1.3-1-1.5-1.7c0.1,0.4,0,0.8-0.3,1.2c-0.8,1-1.9,1.9-3.1,1.9c-0.7,0-1.4-0.3-1.9-1c-0.4-0.5,0.1-1,0.6-1
			c0.2,0,0.4,0.1,0.6,0.3c0.2,0.3,0.5,0.4,0.7,0.4c0.7,0,1.5-0.7,1.7-1.2c0.4-0.9-1.4-1-1.7-1.2c-0.8-0.3-1.4-0.6-1.8-1.4
			c-0.9-1.6,1.2-2.9,2.5-3c0,0,0.1,0,0.1,0c0.8,0,0.8,1.3-0.1,1.4c-0.2,0-2.2,0.7-0.9,1.3c0.5,0.2,0.9,0.3,1.4,0.4
			c0.5,0.1,1.1,0.3,1.4,0.7c0.3,0.3,0.5,0.7,0.6,1.1c-0.3-1.5,0.5-3.3,2-3.9c0.1-0.2,0.4-0.3,0.6-0.3
			C312.1,119.4,312.3,119.5,312.5,119.7z M311.4,124c1.4-0.1,0.8-1.8,0.3-2.9l0,0c-0.5,0.3-0.9,0.8-1,1.4
			C310.6,123,310.7,124,311.4,124C311.4,124,311.4,124,311.4,124z"/>
		<path fill="#A74933" d="M312.5,170.5c0.6,0.2,1.1,0.9,1,1.6c-0.1,0.8-0.8,1.3-1.6,1.3c-0.4,0-0.7-0.1-1-0.5
			c-0.7-0.9-0.3-2.1,0.6-2.7c0.1-0.1,0.2-0.1,0.3-0.1C312.1,170.1,312.4,170.3,312.5,170.5z"/>
		<path fill="#A74933" d="M313.3,177.4c0.9,1.8,2.1,4.9-0.3,6.1c-0.1,0.1-0.2,0.1-0.3,0.1c-0.7,0-1.1-1-0.4-1.3
			c1-0.5,0.8-1.7,0.4-2.7c-0.2,0.2-0.5,0.3-0.8,0.3c-0.2,0-0.5-0.1-0.8-0.3c-1.2-0.7,0-2.4,0.8-2.9c0.1-0.1,0.2-0.1,0.4-0.1
			c0.2,0,0.4,0.1,0.5,0.2l0.2,0.2c0.1,0.1,0.1,0.2,0.2,0.3L313.3,177.4z"/>
		<path fill="#6F338A" d="M310.1,133.2c0.8,0,0.8,1.4-0.1,1.4c-0.7,0.1-1.5,0.2-2.2,0.4c0.2,0.6,0.4,1.2,0.6,1.7
			c0.2,0.5-0.2,0.9-0.7,0.9c-0.3,0-0.6-0.1-0.7-0.5c-0.2-0.6-0.5-1.2-0.7-1.8c-0.5-0.1-0.6-0.8-0.3-1.2c-0.1-0.3-0.1-0.6-0.2-0.9
			c-0.2-0.8-0.6-2.2-0.3-3c0.5-1.5,2.7-2,4-2.3c0.1,0,0.1,0,0.2,0c0.8,0,1,1.2,0.2,1.4c-0.8,0.2-1.6,0.4-2.3,0.8
			c-0.9,0.5-0.6,1.2-0.5,2.1c0.1,0.4,0.2,0.9,0.3,1.3C308.3,133.4,309.2,133.3,310.1,133.2C310.1,133.2,310.1,133.2,310.1,133.2z"/>
		<path fill="#EE9933" d="M305.1,181.7c0.5,0.5,0,1.3-0.5,1.3c-0.2,0-0.3-0.1-0.5-0.2c-0.9-1-1.8-1.9-2.7-2.8c-0.8,1-1.6,2-2.4,2.9
			c-0.1,0.2-0.3,0.2-0.5,0.2c-0.5,0-1-0.7-0.5-1.3c0.8-1,1.6-2,2.4-2.9c-1.1-1.1-2.3-2.2-3.5-3.3c-0.5-0.5,0-1.2,0.5-1.2
			c0.2,0,0.3,0.1,0.5,0.2c1.2,1,2.3,2.1,3.4,3.2c0.7-0.9,1.5-1.8,2.2-2.7c0.1-0.2,0.3-0.2,0.5-0.2c0.5,0,1,0.7,0.5,1.3
			c-0.7,0.9-1.5,1.8-2.2,2.7C303.3,179.7,304.2,180.7,305.1,181.7z"/>
		<path fill="#6F338A" d="M304.2,133.8c0.8,0,1.1,1.3,0.3,1.4c-0.6,0.1-1.1,0.2-1.7,0.2c0.1,0.4,0.1,0.7,0.2,1
			c0.1,0.5-0.3,0.9-0.8,0.9c-0.3,0-0.5-0.2-0.6-0.5c-0.1-0.4-0.2-0.9-0.3-1.3c-0.5,0-1.1,0.1-1.6,0.1c0,0,0,0,0,0
			c-0.9,0-0.9-1.4,0-1.4c0.5,0,0.9,0,1.3-0.1c-0.1-0.7-0.3-1.5-0.4-2.2c-0.1-0.5,0.4-0.9,0.8-0.9c0.3,0,0.5,0.2,0.6,0.5
			c0.1,0.8,0.3,1.7,0.5,2.5c0.5-0.1,1.1-0.1,1.6-0.2C304.1,133.8,304.2,133.8,304.2,133.8z"/>
		<path fill="#6F338A" d="M302.8,124.1c0.7,0,1,1.2,0.2,1.4c-0.5,0.1-1.1,0.2-1.6,0.2c-1.2,0-2.3-0.5-2.6-1.9
			c-0.1-0.3-0.1-0.6-0.1-0.9c-0.2-0.1-0.3-0.4-0.3-0.7c0-0.3,0.2-0.5,0.4-0.6c0.2-1,0.7-2,1.7-2.4c0.2-0.1,0.4-0.1,0.6-0.1
			c0.5,0,0.9,0.2,1.2,0.7c0.4,0.6-0.1,1.6-0.5,2.1c-0.4,0.6-1,1.1-1.7,1.2c0,0.4,0.2,0.7,0.4,1c0.2,0.2,0.5,0.3,0.8,0.3
			c0.4,0,0.9-0.1,1.3-0.3C302.6,124.1,302.7,124.1,302.8,124.1z"/>
		<path fill="#E1DD33" d="M302.3,194.7c0,0.1,0,0.2-0.1,0.3c0,0.1,0,0.1,0,0.2c-0.2,0.5-0.4,1-1,1c0,0,0,0,0,0
			c-0.5,0-0.8-0.2-1.1-0.6c-0.3-0.4,0.1-1,0.4-1.3c0.3-0.2,0.6-0.4,1-0.4c0,0,0.1,0,0.1,0C302,194,302.3,194.2,302.3,194.7z"/>
		<path fill="#E1DD33" d="M302,198.7c0.4,0.4,0.4,1,0,1.3c-0.1,0.2-0.2,0.3-0.4,0.4c-0.2,0.1-0.3,0.1-0.5,0.1
			c-0.3,0-0.5-0.1-0.7-0.4c-0.2-0.3-0.2-0.7,0-1c0.2-0.3,0.5-0.5,0.8-0.6c0.1,0,0.1,0,0.2,0C301.6,198.5,301.8,198.6,302,198.7z"/>
		<path fill="#6F338A" d="M298.4,134.5c0.5,0.4,0.7,1.3,0.3,1.9c-0.6,0.8-1.8,1.6-2.9,1.6c-0.4,0-0.7-0.1-1-0.3
			c-0.6-0.5-0.1-1.2,0.6-1.2c0.2,0,0.3,0,0.5,0.2c0-0.1,1.1-0.6,1.2-0.7c0.6-0.3,0.5-0.4-0.1-0.4c-0.7-0.1-1.8,0-2.2-0.7
			c-0.9-1.5,1.8-2.5,2.8-2.6c0,0,0.1,0,0.1,0c0.8,0,0.8,1.4-0.1,1.4c-0.3,0-0.6,0.1-0.8,0.2c0,0-0.1,0.1-0.2,0.1
			c0.3,0,0.6,0,0.9,0.1C297.7,134.2,298.1,134.2,298.4,134.5z"/>
		<path fill="#E1DD33" d="M298.8,199.4c0.1,0.5-0.3,0.9-0.8,0.9c-0.3,0-0.6-0.2-0.6-0.5c-0.2-0.8-0.3-1.6-0.5-2.4
			c-0.1,0-0.2,0-0.4,0c-0.5,0-0.9,0.3-1.1,0.8c-0.2,0.4-0.3,0.8-0.4,1.2c-0.1,0.4-0.4,0.5-0.7,0.5c-0.3,0-0.6-0.2-0.7-0.5
			c-0.1-0.4-0.3-0.8-0.5-1.2c-0.1-0.3-0.3-0.5-0.5-0.5c-0.2,0-0.6,0.2-0.9,0.7l-0.1,1.4c0,0.5-0.4,0.7-0.7,0.7
			c-0.3,0-0.6-0.2-0.7-0.5c-0.3-0.7-0.6-1.5-0.9-2.2c-0.2-0.5,0.2-0.9,0.7-0.9c0.2,0,0.4,0.1,0.6,0.2c0.2-0.8,0.6-1.4,1.4-1.4
			c0,0,0.1,0,0.1,0c1.1,0.1,1.8,0.7,2.2,1.6c0.5-0.9,1.2-1.7,2.2-1.7c0,0,0.1,0,0.1,0C298.5,195.8,298.4,197.9,298.8,199.4z"/>
		<path fill="#6F338A" d="M297.4,119.4c0.2,1.2,0.9,5.9-1.4,5.9c0,0,0,0-0.1,0c-1.2,0-1.9-0.8-2.3-1.8c-0.4,0.8-0.9,1.4-1.8,1.5
			c0,0,0,0,0,0c-0.2,0-0.5-0.2-0.6-0.4c-0.9-1.8-0.7-3.7-0.6-5.7c0-0.5,0.4-0.7,0.7-0.7c0.4,0,0.7,0.2,0.7,0.7
			c-0.1,1.4-0.2,2.9,0.2,4.3c0.4-0.7,0.7-2.3,0.7-2.6c0.1-0.3,0.4-0.5,0.7-0.5c0.3,0,0.6,0.2,0.7,0.5c0.2,0.9,0.3,2.8,1.2,3.2
			c0,0,0.1,0,0.1,0c0.7,0,0.4-3.6,0.3-4c-0.1-0.5,0.4-0.9,0.8-0.9C297.1,118.9,297.4,119,297.4,119.4z"/>
		<path fill="#EE9933" d="M297.1,179.5c0.6,3-2.9,3.6-5.3,3.9c0.1,0.7,0.2,1.4,0.4,2.2c0.1,0.1,0.1,0.2,0.1,0.4c0,0.2,0,0.3,0,0.5
			c0,0.5-0.4,0.7-0.7,0.7c-0.3,0-0.6-0.2-0.7-0.5c-0.7-3.2-1-6.5-0.8-9.8c0-0.5,0.4-0.7,0.8-0.7c0.1,0,0.2,0,0.3,0
			c0.5-0.1,1.2-0.2,1.8-0.2c0.8,0,1.5,0.2,2.2,0.6C296,177.2,296.9,178.3,297.1,179.5z M294,181.4c1-0.3,2.1-0.6,1.5-1.9
			c-0.6-1.5-1.7-2-3-2c-0.3,0-0.7,0-1.1,0.1c-0.1,1.5,0,2.9,0.1,4.4C292.4,181.8,293.2,181.6,294,181.4z"/>
		<path fill="#6F338A" d="M293.7,136c0.7,0,0.9,1.1,0.1,1.3c-0.5,0.2-1.1,0.3-1.7,0.3c-0.9,0-1.8-0.3-2.2-1.2
			c-0.1-0.3-0.2-0.4-0.2-1.1h0c-0.9,0-0.9-1.2,0-1.2c0,0,0,0,0,0c0.1,0,0.3,0.2,0.4,0.2c0,0,0,0,0,0c0.2-0.4,0.5-0.7,0.8-1
			c0.4-0.3,0.8-0.6,1.3-0.6c0.1,0,0.2,0,0.4,0c0.6,0.1,0.8,0.9,0.7,1.4c-0.2,0.8-1.1,1.2-2.1,1.4c-0.1,0.4,0.1,0.7,0.6,0.7
			c0,0,0,0,0.1,0c0.6,0,1.1-0.1,1.6-0.3C293.6,136,293.6,136,293.7,136z"/>
		<path fill="#6F338A" d="M291.5,125.9c0.3,0.6-0.2,1.1-0.7,1.1c-0.2,0-0.4-0.1-0.6-0.4c-0.6-1.1-1.1-2.2-1.6-3.3
			c-0.7,0-1.4,0-2.1,0.1c-0.1,0.9-0.2,1.8-0.7,2.4c-0.1,0.1-0.3,0.2-0.5,0.2c-0.3,0-0.7-0.2-0.7-0.5l0,0c-0.1-0.3,0-0.6,0.2-0.7
			c0.1-0.3,0.2-1.1,0.2-1.6c-0.1-0.3-0.1-0.7,0.1-0.9c0.1-0.4,0.2-0.8,0.2-1.1c0.2-1.2,0.5-2.4,0.8-3.6c0.1-0.4,0.3-0.5,0.6-0.5
			c0.1,0,0.2,0,0.2,0c0.1,0,0.2,0,0.3,0c0.3,0,0.6,0.2,0.7,0.5c0.5,1.5,1,3.1,1.6,4.5c0.2,0.1,0.3,0.4,0.3,0.7
			C290.5,123.7,291,124.8,291.5,125.9z M288.1,121.8c-0.3-0.7-0.6-1.5-0.8-2.2c-0.2,0.7-0.3,1.5-0.5,2.3
			C287.3,121.8,287.7,121.8,288.1,121.8z"/>
		<path fill="#E1DD33" d="M288.2,196.5c1,1.1,1.5,2.7,0.5,4c-0.5,0.7-1.4,1.1-2.2,1.1c-0.6,0-1.2-0.2-1.6-0.7
			c-1.1-1.2-0.5-3.5,0.3-4.6c0.5-0.7,1.3-1.4,2.1-1.4c0.4,0,0.8,0.2,1.1,0.8C288.6,195.9,288.5,196.3,288.2,196.5z M286.5,200.1
			c1.8-0.2,1.4-2,0.4-2.9c-0.1-0.1-0.2-0.3-0.2-0.4c-0.3,0.5-0.7,1.3-0.8,1.4C285.9,198.6,285.6,200.1,286.5,200.1
			C286.4,200.1,286.5,200.1,286.5,200.1z"/>
		<path fill="#6F338A" d="M285.5,133.2c1.6,0.2,3.4,0.8,3.1,2.7c-0.3,1.5-2.4,1.8-4.1,1.8c-0.7,0-1.4-0.1-1.8-0.1
			c-0.9-0.1-0.6-1.4,0.3-1.4c0,0,0,0,0,0c-0.5-1.9-0.8-3.9-0.9-5.8c0,0,0,0-0.1,0c-0.3,0-0.6,0-0.9,0c0,0,0,0-0.1,0
			c-0.9,0-0.8-1.4,0.1-1.4c0.4,0,1-0.1,1.5-0.1c1.5,0,3.4,0.2,4.1,1.4C287.2,131.3,286.4,132.3,285.5,133.2z M286.7,135.8
			c1.1-0.6-1-1.1-1.1-1.1c-0.5-0.1-1.1-0.2-1.6-0.2c0.1,0.6,0.2,1.1,0.4,1.7l0,0.1c0,0,0,0,0,0C285.3,136.3,286.1,136.1,286.7,135.8
			z M283.7,132.9c0.8-0.7,2.2-2,0.8-2.3c-0.4-0.1-0.7-0.1-1.1-0.2C283.5,131.2,283.6,132.1,283.7,132.9z"/>
		<path fill="#6F338A" d="M283.7,170.5c2.6,2.6,4.6,6.9,2.6,10.5c-1.2,2.2-3.2,3.5-5.5,3.5c-1,0-2-0.3-3-0.8
			c-5.2-3.1-2.4-13.8,3-13.8c0.6,0,1.3,0.1,2,0.4c0.1,0,0.2-0.1,0.3-0.1C283.4,170.3,283.6,170.4,283.7,170.5z M280.8,183.1
			c2.8-0.2,4.9-2.6,4.8-5.5c-0.1-2.1-0.9-3.8-2.2-5.4c-1.5,3.2-2.2,6.6-2.8,10c0,0.1,0,0.3,0,0.4c0,0.1-0.1,0.3-0.1,0.4
			c0.1,0,0.2,0,0.3,0C280.7,183.1,280.8,183.1,280.8,183.1z M282.1,171.6c-0.4-0.2-0.8-0.2-1.1-0.2c-2.4,0-4.1,3.1-4.4,5.3
			c-0.3,2.1,0.3,5.1,2.4,6.1C279.7,178.9,280.5,175.1,282.1,171.6z"/>
		<path fill="#E1DD33" d="M283.6,197.1c0.9,0,0.9,1.4,0,1.4c0,0-0.1,0-0.1,0c-0.2,0-0.4,0-0.6,0c-0.2,0-0.4,0-0.6,0c0,0-0.1,0-0.1,0
			c0.1,0.6,0.3,1.2,0.4,1.8c0.2,0.1,0.3,0.4,0.2,0.8c0,0.1-0.1,0.2-0.1,0.3c-0.1,0.4-0.5,0.6-0.8,0.6c-0.3,0-0.5-0.1-0.6-0.5
			c-0.2-0.9-0.4-1.8-0.6-2.6c-0.1,0-0.1,0-0.2,0c-0.1,0-0.3,0-0.5,0c-0.7,0-1.5-0.2-2.2-0.3c0.1,0.5,0.1,0.9,0.2,1.4
			c0.1,0.5-0.4,0.9-0.8,0.9c-0.3,0-0.5-0.2-0.6-0.5c-0.1-0.6-0.2-1.2-0.2-1.8c-0.7,0-1.4,0-2.1,0c-0.9,0-0.9-1.4,0-1.4h0
			c0.7,0,1.3,0,2,0c-0.1-0.9-0.1-1.7,0-2.6c0-0.5,0.4-0.7,0.7-0.7c0.4,0,0.7,0.2,0.7,0.7c0,0.9,0,1.8,0,2.7c0.3,0,0.5,0,0.8,0
			c0.1,0,0.2-0.1,0.3-0.1c0.5,0,1,0,1.6,0c-0.2-1-0.4-2.1-0.5-3.1c-0.1-0.5,0.4-0.9,0.8-0.9c0.3,0,0.5,0.2,0.6,0.5
			c0.2,1.2,0.4,2.3,0.6,3.5C282.5,197.1,283,197.1,283.6,197.1z"/>
		<path fill="#EE9933" d="M283.3,119.3c0.4,0.5-0.1,1.1-0.7,1.1c-0.2,0-0.3-0.1-0.5-0.2c0,0,0,0,0,0c-0.1,0-0.3-0.1-0.6-0.2
			c0,0.8,0,1.7,0,2.5c0.3,0.1,0.6,0.3,0.8,0.5c0.2,0.2,0.3,0.6,0.1,0.9l0,0c-0.2,0.2-0.4,0.3-0.6,0.3c-0.1,0-0.1,0-0.2,0l0,0.1
			c0,0.5-0.3,0.7-0.7,0.7c-0.4,0-0.7-0.2-0.8-0.7c0-0.2,0-0.4-0.1-0.7c-0.3-0.1-0.6-0.1-0.8-0.1c-0.6-0.1-1.1-0.3-1.7-0.4
			c-0.1,0-0.2-0.1-0.3-0.1c0,0.3,0,0.6,0.1,0.9c0,0.5-0.3,0.7-0.7,0.7s-0.7-0.2-0.8-0.7c0-0.4-0.1-0.8-0.1-1.2
			c-0.5-0.1-1-0.2-1.6-0.3c-0.9-0.2-0.6-1.4,0.2-1.4c0.1,0,0.1,0,0.2,0c0.4,0.1,0.8,0.2,1.1,0.2c0-0.7,0-1.4,0.1-2.2
			c-0.5-0.1-0.9-0.1-1.4-0.2c-0.9-0.1-0.6-1.4,0.3-1.4c0,0,0.1,0,0.1,0c0.4,0.1,0.8,0.1,1.1,0.2c0-0.3,0-0.6,0.1-0.9
			c0-0.4,0.4-0.7,0.8-0.7c0.2,0,0.4,0.1,0.5,0.4c0,0.1,0.1,0.2,0.1,0.2c0.1,0.3,0.1,0.5-0.1,0.7c0,0.2,0,0.3,0,0.5
			c0.9,0.1,1.8,0.3,2.7,0.4c0-0.6,0.1-1.1,0.1-1.7c0-0.5,0.4-0.7,0.8-0.7s0.7,0.2,0.7,0.7c-0.1,0.6-0.1,1.3-0.1,1.9
			C282.3,118.6,283,118.7,283.3,119.3z M280.2,122.2c0-0.8,0-1.6,0-2.4c-0.5-0.1-1-0.2-1.5-0.2c-0.4-0.1-0.8-0.1-1.2-0.2
			c0,0.8-0.1,1.5,0,2.3c0.6,0.1,1.3,0.3,1.9,0.4C279.5,122.1,279.8,122.1,280.2,122.2z"/>
		<path fill="#6F338A" d="M280.8,136c0.5,0,0.7,0.4,0.7,0.7c0,0.4-0.2,0.7-0.7,0.7c-1.6,0-4,0-4-2.2c0-0.1,0-0.2,0-0.3
			c-0.7-0.3-0.5-1.4,0.3-1.4c0,0,0.1,0,0.1,0c0.4-0.8,1-1.4,1.9-1.4c0.2,0,0.4,0,0.5,0.1c0.4,0.1,0.6,0.5,0.5,0.9
			c-0.3,1-1,1.6-1.9,1.9c0,0.3,0,0.6,0.2,0.7c0.3,0.3,0.8,0.3,1.3,0.3c0.2,0,0.4,0,0.6,0C280.5,136,280.6,136,280.8,136
			C280.8,136,280.8,136,280.8,136z"/>
		<path fill="#6F338A" d="M276.7,136.6c0.2,0.3,0.1,0.7-0.1,0.9l-0.1,0.1c-0.1,0.1-0.3,0.2-0.5,0.2c-0.1,0-0.2,0-0.3-0.1
			c-0.7-0.5-0.8-1.6-1.2-2.4c-0.1-0.2-0.3-0.5-0.4-0.7c-0.1,0.2-0.2,0.4-0.3,0.6c-0.3,0.6-0.5,1.2-0.7,1.8c-0.1,0.3-0.4,0.5-0.7,0.5
			c-0.3,0-0.6-0.2-0.7-0.5c-0.4-2-0.7-4.1-0.9-6.2c-0.1-0.5,0.3-0.7,0.6-0.7c0.4,0,0.8,0.2,0.8,0.7c0.1,1.1,0.3,2.2,0.4,3.3
			c0.4-0.6,0.8-1.1,1.4-1.1c0.1,0,0.2,0,0.3,0.1c0.6,0.2,0.9,0.6,1.2,1.1c0.2,0.4,0.4,0.8,0.6,1.3c0,0.1,0.2,0.5,0.2,0.7
			C276.4,136.2,276.5,136.3,276.7,136.6L276.7,136.6z"/>
		<path fill="#E1DD33" d="M273.1,197.5c0.7,0.9,1.3,2.2,0.6,3.2c-0.5,0.7-1.3,1.2-2.2,1.2c-0.4,0-0.7-0.1-1.1-0.3
			c-2.6-1.6-0.3-5.5,2.3-5.5c0.2,0,0.4,0,0.5,0.1C274.1,196.2,273.9,197.4,273.1,197.5z M271.6,200.3c0.5,0,1.1-0.3,0.9-0.8
			c-0.2-0.6-0.5-1.1-0.8-1.6c-0.8,0.7-1.4,2-0.5,2.4C271.3,200.3,271.5,200.3,271.6,200.3z"/>
		<path fill="#6F338A" d="M271.9,127.7c0.8,0,1.1,1.2,0.2,1.4c-0.9,0.2-1.9,0.3-2.8,0.5c0.1,2.5,0.4,5,0.9,7.5
			c0.1,0.5-0.4,0.9-0.8,0.9c-0.3,0-0.5-0.2-0.6-0.5c-0.5-2.5-0.8-5.1-0.9-7.7c-0.7,0.1-1.4,0.1-2.1,0.1c0,0,0,0,0,0
			c-0.9,0-0.9-1.4,0-1.4c2-0.1,4-0.3,5.9-0.7C271.8,127.7,271.9,127.7,271.9,127.7z"/>
		<path fill="#6F338A" d="M271.8,183.5c0.1,0.5-0.3,0.9-0.8,0.9c-0.3,0-0.5-0.2-0.6-0.5c-0.9-4.2-0.8-8.4-0.7-12.7
			c0-0.5,0.4-0.7,0.7-0.7c0.4,0,0.7,0.2,0.7,0.7C271.1,175.3,270.9,179.4,271.8,183.5z"/>
		<path fill="#E1DD33" d="M271.5,117.9c0.7,0,0.7,1.4,0,1.4C270.1,119.3,270.1,117.9,271.5,117.9z"/>
		<path fill="#E1DD33" d="M271.4,121c0.4,0,0.7,0.2,0.7,0.7c0,0.5-0.4,0.7-0.7,0.7c-0.4,0-0.7-0.2-0.7-0.7
			C270.7,121.2,271.1,121,271.4,121z"/>
		<path fill="#E1DD33" d="M268.2,119.7c0.8,0,1.1,1.3,0.3,1.4c-1.2,0.2-2.7,0.4-2.5,2c0.1,0.6-0.3,0.9-0.7,0.9
			c-0.3,0-0.5-0.2-0.7-0.5c-0.2-0.4-0.4-0.9-0.5-1.3c-0.1-0.3-0.2-0.8-0.4-1.1c-0.6-0.3-0.6-1.4,0.2-1.4c0,0,0,0,0.1,0
			c0.5,0,0.8,0.3,1,0.8c0.1,0.2,0.1,0.4,0.2,0.5c0.6-0.7,1.7-1.1,2.9-1.3C268.1,119.7,268.1,119.7,268.2,119.7z"/>
		<path fill="#E1DD33" d="M266.3,196.2c1.1,0,2.1,0.8,2.1,1.9c0,1.5-1.9,2.4-3,2.9c-0.4,0.2-0.8,0.3-1.2,0.3c-0.7,0-1.2-0.3-1.6-1
			c-0.1-0.1-0.2-0.3-0.2-0.5c-0.2-2.1-0.4-4.1-0.5-6.2c0-0.5,0.3-0.7,0.7-0.7c0.4,0,0.7,0.2,0.8,0.7c0.1,1.3,0.2,2.6,0.3,3.9
			l0.1-0.2c0.6-0.6,1.2-1,2.1-1.2C266,196.2,266.1,196.2,266.3,196.2z M266.5,198.7c0.6-0.4,0.3-0.7-0.7-1c-0.5,0.2-0.8,0.5-1.1,0.9
			c-0.3,0.5-0.4,0.9-0.6,1.3c0,0,0.1,0,0.2,0C264.9,199.9,266.3,198.9,266.5,198.7z"/>
		<path fill="#E1DD33" d="M262.5,131.9c0.3,0.2,0.5,0.7,0.3,1c-0.1,0.2-0.4,0.4-0.6,0.4c-0.1,0-0.2,0-0.4-0.1l-0.2-0.1
			c-0.3-0.2-0.5-0.7-0.3-1c0.1-0.2,0.4-0.4,0.6-0.4c0.1,0,0.2,0,0.4,0.1L262.5,131.9z"/>
		<path fill="#E1DD33" d="M262.3,121.1c0.7,0.7,0.9,1.8,0.3,2.7c-0.3,0.5-0.9,0.8-1.5,0.8c-0.4,0-0.9-0.2-1.1-0.5
			c-0.7-0.9-0.7-2,0-2.9c0.3-0.4,0.7-0.8,1.2-1c0.1,0,0.2,0,0.2,0c0.4,0,0.7,0.4,0.8,0.7C262.3,120.8,262.3,121,262.3,121.1z
			 M261.2,123.1c0.2,0,0.3-0.3,0.3-0.5c0-0.3-0.2-0.5-0.4-0.6c-0.1,0.1-0.1,0.2-0.2,0.3c-0.1,0.2-0.1,0.7,0.1,0.8
			C261.1,123.1,261.1,123.1,261.2,123.1z"/>
		<path fill="#E1DD33" d="M261.4,182.6c0.4,0.3,0.5,0.9,0.2,1.3c-0.2,0.3-0.5,0.5-0.9,0.5c-0.2,0-0.4,0-0.5-0.1
			c-0.5-0.2-0.7-0.7-0.6-1.2c0.1-0.5,0.5-0.8,1-0.9c0,0,0,0,0.1,0C261,182.1,261.2,182.3,261.4,182.6L261.4,182.6z"/>
		<path fill="#E1DD33" d="M261.4,177.7c0.1,0.2,0.2,0.4,0.1,0.6c-0.1,0.6-0.6,0.9-1.2,0.9c-0.1,0-0.2,0-0.3,0
			c-0.6-0.1-1-0.9-0.8-1.5c0.2-0.5,0.7-0.9,1.2-0.9c0.1,0,0.2,0,0.3,0C261.2,177,261.4,177.4,261.4,177.7z"/>
		<path fill="#E1DD33" d="M261.3,126.9c0.7,0,0.7,1.4,0,1.4C259.8,128.3,259.8,126.9,261.3,126.9z"/>
		<path fill="#E1DD33" d="M259.6,196.8c0.8,0,0.8,1.3-0.1,1.4c-0.5,0.1-1,0.1-1.6,0.1c-0.4,0-0.8,0-1.2-0.1
			c-0.9-0.1-0.9-1.4-0.1-1.4c0,0,0.1,0,0.1,0c0.4,0,0.8,0.1,1.2,0.1C258.4,196.9,259,196.9,259.6,196.8
			C259.5,196.8,259.6,196.8,259.6,196.8z"/>
		<path fill="#E1DD33" d="M258.4,129.9c0.6,2.4,1.6,4.9,0.8,7.3c-0.4,1.3-1.6,2.1-2.9,2.1c-0.3,0-0.6,0-0.8-0.1
			c-0.8-0.2-0.6-1.4,0.2-1.4c0.1,0,0.1,0,0.2,0c0.3,0.1,0.5,0.1,0.7,0.1c1.7,0,1.6-2.2,1.3-4.3c-0.3,0.4-0.6,0.7-1.1,0.7h0
			c-1.7,0-1.9-2.1-1.8-3.5c0-0.5,0.4-0.7,0.8-0.7c0.4,0,0.7,0.2,0.7,0.7c0,0.4,0.1,1.6,0.3,1.6c0.1,0,0.1-0.1,0.2-0.5
			c0.1-0.7,0.2-1.2,0.2-1.9c0-0.4,0.4-0.7,0.8-0.7C258,129.3,258.3,129.5,258.4,129.9z"/>
		<path fill="#E1DD33" d="M258.7,123c0.4,0.3,0.5,1.1-0.2,1.3l-0.1,0c-0.1,0-0.1,0-0.2,0c-0.2,0-0.4-0.1-0.5-0.2
			c-0.6-0.7-0.7-1.9-0.9-2.7c-0.4-1.3-0.7-2.5-1.1-3.7c-0.2-0.5,0.3-0.9,0.7-0.9c0.3,0,0.6,0.2,0.7,0.5c0.3,1.1,0.6,2.2,0.9,3.3
			c0.1,0.5,0.3,0.9,0.4,1.4C258.6,122.2,258.6,122.7,258.7,123z"/>
		<path fill="#E1DD33" d="M256.4,180.1c-0.3,2.7,2.3,7.4-0.3,9.7c-0.7,0.6-2.4,1.6-3.8,1.6c-0.7,0-1.4-0.3-1.6-1.1
			c-0.2-0.5,0.3-0.9,0.7-0.9c0.3,0,0.6,0.1,0.7,0.5c0.1,0.2,0.2,0.2,0.3,0.2c0.9,0,3.1-1.9,3.2-2.6c0.1-0.9,0.1-1.7-0.1-2.6
			c-0.1-0.6-0.3-1.2-0.4-1.7c-0.3,0.4-0.7,0.8-1.1,1.1c-0.2,0.2-0.6,0.3-0.9,0.3c-0.5,0-1.1-0.2-1.4-0.7c-1.3-2.1,0.8-4.6,3-4.6
			c0.2,0,0.4,0,0.6,0.1h0c0.1,0,0.2,0,0.2,0C256.1,179.4,256.4,179.7,256.4,180.1z M254.7,181.2c0-0.1,0.1-0.2,0.1-0.4
			c-0.1,0-0.2,0-0.3,0c-0.6,0-0.8,0.3-0.9,0.6c0,0.3,0.2,0.6,0.4,0.6C254.3,182,254.5,181.8,254.7,181.2z"/>
		<path fill="#E1DD33" d="M255.6,200.8c0.2,0.4,0.1,0.8-0.3,1c-0.2,0.1-0.4,0.2-0.5,0.2c-0.9,0-1-2.1-1.2-2.6
			c-0.1-0.5-0.3-1-0.4-1.4c-0.1-0.3-0.3-0.5-0.5-0.5c-0.3,0-0.7,0.3-0.8,0.7c-0.4,0.8-0.5,1.7-0.4,2.6c0,0.4-0.4,0.7-0.7,0.7
			c-0.3,0-0.6-0.2-0.7-0.5c-0.3-1.5-0.6-3.1-0.9-4.6c-0.1-0.5,0.4-0.9,0.8-0.9c0.3,0,0.5,0.2,0.6,0.5c0.1,0.4,0.2,0.8,0.2,1.2
			c0.5-0.7,1.1-1.2,2-1.3c0.1,0,0.1,0,0.2,0c1.8,0,2,3.1,2.4,4.7C255.5,200.5,255.5,200.6,255.6,200.8L255.6,200.8z"/>
		<path fill="#E1DD33" d="M254.4,120.5c0.6,0.7,1.1,1.6,1,2.6c-0.1,0.8-0.6,1.5-1.4,1.5c-0.1,0-0.3,0-0.4-0.1c-2-0.6-1.9-3.2-0.1-4
			c0.1-0.2,0.3-0.3,0.5-0.3C254.1,120.3,254.3,120.3,254.4,120.5z M254,123.1c0-0.1,0-0.2,0-0.3c0-0.2,0-0.3-0.1-0.5
			c0-0.1-0.1-0.2-0.2-0.4c-0.1,0.1-0.2,0.3-0.3,0.5C253.5,122.8,253.7,123.1,254,123.1L254,123.1z"/>
		<path fill="#E1DD33" d="M254.1,134.2c0.3,0.5,0.2,0.7,0,1.2c-0.1,0.2-0.4,0.3-0.6,0.4c0,0-0.1,0-0.1,0c-0.5,0-0.8-0.2-1-0.6
			c-0.1-0.1-0.2-0.3-0.2-0.5c-0.1-0.4-0.1-0.8-0.2-1.2l-0.8-5.1c-0.1-0.5,0.4-0.9,0.8-0.9c0.3,0,0.5,0.2,0.6,0.5
			c0.1,0.5,0.7,4.4,0.8,5.8C253.8,133.9,254,134,254.1,134.2z"/>
		<path fill="#E1DD33" d="M251.5,123.4c0.6,0,1,0.9,0.3,1.4c-0.5,0.3-1,0.5-1.5,0.5c-0.5,0-1-0.2-1.4-0.5c-1-0.8-1.1-1.9-1-3.1
			c0.1-1,0.5-2.5,1.4-3c0.2-0.1,0.4-0.2,0.5-0.2c0.6,0,1.1,0.6,1.2,1.3c0.1,0.5-0.3,0.9-0.8,0.9c-0.2,0-0.5-0.1-0.6-0.4
			c-0.4,0.6-0.5,1.7-0.5,2.1c0,0.8,0.4,1.4,1,1.4c0.2,0,0.5-0.1,0.8-0.3C251.3,123.4,251.4,123.4,251.5,123.4z"/>
		<path fill="#E1DD33" d="M250.4,134.6c0.3,0.2,0.4,0.5,0.2,0.9l0,0c-0.1,0.2-0.4,0.4-0.6,0.4c-0.1,0-0.1,0-0.2,0
			c-0.7-0.2-0.8-0.9-0.9-1.5c-0.2-0.8-0.4-1.6-0.5-2.4c-0.1-0.5,0.4-0.9,0.8-0.9c0.3,0,0.5,0.2,0.6,0.5c0.1,0.6,0.2,1.1,0.3,1.7
			c0.1,0.3,0.2,0.7,0.3,1C250.3,134.3,250.4,134.4,250.4,134.6z"/>
		<path fill="#E1DD33" d="M250.6,183.7c0.1,0.5-0.3,0.7-0.6,0.7c-0.4,0-0.7-0.2-0.8-0.7c-0.1-0.6-0.3-3.1-1.2-3.1
			c-0.2,0-0.3,0.1-0.6,0.3c-0.9,0.9-1,2.1-1.2,3.2c-0.1,0.4-0.3,0.5-0.6,0.5c-0.4,0-0.8-0.3-0.8-0.7c-0.1-1.3-0.3-2.5-0.8-3.8
			c-0.2-0.5,0.2-0.9,0.7-0.9c0.3,0,0.6,0.1,0.7,0.5c0.1,0.3,0.2,0.6,0.3,1c0.5-0.9,1.2-1.6,2.2-1.6c0.1,0,0.1,0,0.2,0
			C250.3,179.2,250.4,182.1,250.6,183.7z"/>
		<path fill="#E1DD33" d="M249.2,200.3c0,0.3,0,0.6-0.1,0.9c-0.1,0.4-0.3,0.5-0.6,0.5c-0.4,0-0.8-0.3-0.8-0.7
			c-0.1-0.8-0.2-1.5-0.2-2.3c-0.1-0.5,0-1.1-0.2-1.6c-0.2-0.2-0.3-0.5-0.1-0.8l0-0.1c0.1-0.2,0.4-0.4,0.6-0.4h0h0.1
			c0.4,0,0.6,0.2,0.7,0.5c0.3,0.7,0.2,1.6,0.3,2.3c0,0.4,0.1,0.8,0.1,1.2C249.1,200,249.2,200.2,249.2,200.3z"/>
		<path fill="#E1DD33" d="M248.1,128.2c0.7,0,0.7,1.4,0,1.4C247.4,129.6,247.4,128.2,248.1,128.2z"/>
		<path fill="#E1DD33" d="M248,193.2c0.3,0.3,0.3,0.7,0,1c-0.1,0.1-0.3,0.2-0.5,0.2s-0.4-0.1-0.5-0.2l-0.1-0.1c-0.3-0.3-0.3-0.7,0-1
			c0.1-0.1,0.3-0.2,0.5-0.2C247.6,192.9,247.8,193,248,193.2L248,193.2z"/>
		<path fill="#E1DD33" d="M247.9,134.5c0.1,0.5-0.3,0.9-0.7,0.9c-0.3,0-0.6-0.2-0.7-0.5c-0.2-0.7-0.4-1.4-0.7-2.1
			c-0.1,0.1-0.2,0.2-0.3,0.3c-0.2,0.3-0.3,0.5-0.5,0.8c-0.1,0.2-0.4,0.4-0.6,0.4c-0.2,0-0.5-0.1-0.7-0.4c-0.3-0.5-0.4-1.2-0.7-1.6
			c-0.1-0.1-0.1-0.1-0.2-0.1c-0.4,0-1,2-1,2.1c-0.1,0.4-0.3,0.5-0.6,0.5c-0.2,0-0.3-0.1-0.5-0.2c0.2,0.3,0.2,0.7-0.3,0.9
			c-0.4,0.2-0.8,0.3-1.2,0.3c-0.8,0-1.5-0.4-2-1.1c-0.1,0.3-0.2,0.5-0.4,0.7c-0.2,0.2-0.5,0.3-0.8,0.3c-0.4,0-0.8-0.2-1.1-0.6
			c-0.2-0.2-0.4-0.5-0.4-0.8c0,0.2-0.2,0.4-0.5,0.5c-0.4,0.1-0.9,0.2-1.4,0.2c0.1,0.2,0.2,0.5,0.3,0.7c0.3,0.6-0.2,1.1-0.7,1.1
			c-0.2,0-0.4-0.1-0.5-0.4c-0.2-0.4-0.4-0.8-0.5-1.2c-0.5,0.1-0.9,0.1-1.4,0.2c0,0-0.1,0-0.1,0c-0.8,0-0.8-1.4,0.1-1.4
			c0.3,0,0.6-0.1,0.9-0.1c-0.3-1-0.5-2-0.4-3c0.1-1,0.7-1.4,1.4-1.4c0.4,0,0.8,0.1,1.2,0.3c0.7,0.4,0.3,1.4-0.4,1.4
			c-0.1,0-0.2,0-0.4-0.1c-0.1,0-0.1-0.1-0.2-0.1c-0.6,0,0,2.3,0.1,2.5l0,0.1c0.5-0.1,1-0.2,1.5-0.3c0.1,0,0.1,0,0.2,0
			c0.3,0,0.5,0.2,0.6,0.4c-0.1-1.2,0.6-2.4,1.7-2.9c0.1-0.1,0.2-0.1,0.3-0.1c0.6,0,1,0.7,0.6,1.2c0.2,0,0.3,0.1,0.4,0.3
			c0.3,0.7,0.9,2,1.8,2c0.2,0,0.3,0,0.5-0.1c0.1-0.1,0.2-0.1,0.3-0.1c0.2,0,0.3,0.1,0.4,0.1l-0.1-0.1c-0.3-0.9-0.6-1.8-1-2.7
			c-0.2-0.5,0.2-0.9,0.7-0.9c0.3,0,0.6,0.1,0.7,0.5c0.1,0.2,0.1,0.4,0.2,0.6c0.4-0.7,0.9-1.3,1.7-1.3c0.9,0,1.3,0.7,1.6,1.4
			c0.4-0.5,0.8-1,1.3-1c0.1,0,0.3,0,0.4,0.1C247.2,131.6,247.6,133.4,247.9,134.5z M236,133.8c0.1-0.3,0.1-0.6,0.1-0.9
			c-0.2,0.3-0.4,0.7-0.2,1.2c-0.1,0.2-0.1,0.4-0.1,0.4c0,0,0-0.2,0.1-0.3C235.9,134.1,236,133.9,236,133.8z"/>
		<path fill="#E1DD33" d="M246.2,121c0.4,0,0.7,0.4,0.7,0.7c0,0.4-0.3,0.7-0.7,0.7c-0.6,0.1-1.1,0.1-1.7,0.1c-0.3,0-0.6,0-0.9,0
			c-0.9-0.1-0.9-1.4-0.1-1.4c0,0,0,0,0.1,0c0.3,0,0.6,0,0.9,0C245,121.1,245.5,121.1,246.2,121C246.1,121,246.1,121,246.2,121z"/>
		<path fill="#E1DD33" d="M245.2,197.2c0,2.9,1.9,6.3-0.5,8.7c-0.5,0.5-1.1,0.8-1.8,0.8c-1.1,0-2.1-0.8-2.2-2.1
			c0-0.5,0.3-0.7,0.7-0.7c0.4,0,0.7,0.2,0.8,0.7c0.1,0,0.3,0,0.4,0c1.5,0,2.1-0.6,1.9-1.9c-0.1-0.4-0.1-0.8-0.1-1.2
			c-0.1-0.5-0.2-0.9-0.3-1.4c0-0.1,0-0.2-0.1-0.4c-0.6,0.7-1.4,1.3-2.1,1.3c-0.5,0-1.1-0.3-1.5-1c-0.6-0.9,0.2-2.4,0.8-3
			c0.9-0.8,1.9-1.3,3.2-1.3c0,0,0.1,0,0.1,0c0.6,0,0.8,0.7,0.6,1.1C245.2,197,245.2,197.1,245.2,197.2z M243.8,197.3
			c-0.3,0.1-0.6,0.1-0.9,0.3c-0.9,0.4-0.9,0.8,0,1.5C243.4,198.5,243.6,198,243.8,197.3z"/>
		<path fill="#E1DD33" d="M243,183.3c0.2,0.2,0.1,0.7-0.1,0.9l-0.1,0.1c-0.2,0.1-0.3,0.2-0.5,0.2c-0.2,0-0.4-0.1-0.5-0.2
			c-0.5-0.5-0.4-1.3-0.4-1.9c-0.1-0.8-0.1-1.6-0.2-2.5c0-0.5,0.3-0.7,0.7-0.7c0.4,0,0.7,0.2,0.8,0.7c0.1,0.6,0.1,1.2,0.2,1.8
			l0.1,0.9c0,0,0.1,0.4,0.1,0.6L243,183.3L243,183.3z"/>
		<path fill="#E1DD33" d="M241.9,176c1,0,1,1.4,0,1.4C240.9,177.4,240.9,176,241.9,176z"/>
		<path fill="#E1DD33" d="M241,195.7c0.8,0,0.8,1.4-0.1,1.4c-0.8,0.1-2.2,0.3-2.6,1.1c-0.3,0.7-0.2,1.5-0.1,2.3
			c0.1,0.5-0.3,0.7-0.6,0.7c-0.1,0-0.1,0-0.2,0c0,0.1-0.1,0.3-0.3,0.4c-0.3,0.2-0.6,0.4-1,0.4c-0.9,0-1.7-0.9-2.2-1.9
			c-0.4,0.8-0.8,1.6-1.5,2.1c-0.2,0.1-0.4,0.2-0.6,0.2c-0.8,0-1.4-0.9-1.5-1.6c-0.2-1.3,0.1-2.5,0.9-3.5c0.5-0.5,1.1-1.1,1.7-1.1
			c0.3,0,0.5,0.1,0.8,0.3c0.3,0.2,0.3,0.5,0.2,0.7c0.4,0,0.8,0.3,0.8,0.7c0,0.4,0.7,2.5,1.4,2.5c0.1,0,0.2,0,0.3-0.1
			c0.1-0.1,0.1-0.1,0.2-0.1c-0.3-1-0.5-2.1-0.4-3.2c0-0.5,0.4-0.7,0.8-0.7c0.3,0,0.6,0.2,0.7,0.5C238.5,196.1,239.7,195.8,241,195.7
			C240.9,195.7,240.9,195.7,241,195.7z M232.7,199.1c0.2-0.5,0.4-0.9,0.6-1.4c0,0-0.1,0-0.1,0c-0.2,0-0.3-0.1-0.5-0.2
			c0.1,0.1-0.9,1.4-1,1.6c-0.1,0.5-0.3,1.2,0.1,1.7C231.9,200.8,232.7,199.2,232.7,199.1z"/>
		<path fill="#E1DD33" d="M241,118.1c0.6,1.6,2.4,7.2-0.7,7.2c-0.2,0-0.4,0-0.6-0.1c-2.2-0.4-1.2-4.5,0.7-4.5
			c-0.2-0.7-0.5-1.5-0.8-2.2c-0.2-0.5,0.2-0.9,0.7-0.9C240.5,117.6,240.8,117.8,241,118.1z M240.7,122.9c0-0.2,0-0.5,0-0.7
			c-0.1,0-0.1,0-0.2-0.1c-0.3,0.2-0.4,0.4-0.5,0.7c-0.1,0.5-0.1,0.7,0,0.7C240.1,123.6,240.3,123.4,240.7,122.9z"/>
		<path fill="#E1DD33" d="M239.8,180.7c0.2,0.9,0.3,1.8,0.1,2.7c-0.3,1-1.5,1.6-2.6,1.6c-0.3,0-0.7-0.1-0.9-0.2
			c-3-1.6,0.1-4.3,1.9-4.6c0-0.1-0.1-0.2-0.1-0.3c-0.3-1.1-0.9-2.5-0.9-3.6c0-0.3,0.2-0.6,0.5-0.7l0.1,0c0.1,0,0.1,0,0.2,0
			c0.2,0,0.4,0.1,0.5,0.2l0,0c0.2,0.2,0.2,0.5,0.1,0.7c0.1,0.6,0.4,1.3,0.5,1.9C239.4,179.2,239.6,180,239.8,180.7z M238.6,182.4
			c0-0.2,0-0.4-0.1-0.6c-0.1,0-0.1,0-0.2-0.1c-0.5,0.1-0.9,0.3-1.3,0.7c0.3,0.8,0.5,1.1,0.8,1.1S238.3,183.1,238.6,182.4z"/>
		<path fill="#E1DD33" d="M238.4,124.1c0.1,0.5-0.4,0.9-0.8,0.9c-0.3,0-0.5-0.2-0.6-0.5c-0.1-0.9-0.4-1.9-0.9-2.6
			c-0.1-0.1-0.2-0.2-0.3-0.2c-0.3,0-0.6,0.9-0.6,1.1c0,0.5,0,0.9,0,1.4c0,0.5-0.4,0.7-0.8,0.7c-0.3,0-0.6-0.2-0.7-0.5
			c-0.2-1.3-0.4-2.6-0.6-3.9c-0.1-0.5,0.4-0.9,0.8-0.9c0.3,0,0.5,0.2,0.6,0.5c0,0.2,0,0.3,0.1,0.4c0.3-0.2,0.6-0.4,1.1-0.4
			c0,0,0,0,0.1,0C237.6,120.3,238.2,122.7,238.4,124.1z"/>
		<path fill="#33B53B" d="M235,171.5c0.7,0,1.1,1,0.4,1.3c-0.8,0.4-2,0.8-3.1,0.8c-0.8,0-1.5-0.2-2.1-0.7c-1-1-0.7-2.2-0.1-3.3
			c-0.6-0.1-1.1-0.2-1.7-0.3c-0.4-0.1-0.7-0.7-0.4-1.1c0.6-0.7,1.2-1.4,1.8-2.1c-0.9-1-1.9-2.1-1.1-3.6c0.6-1.1,1.6-1.7,2.7-1.7
			c0.4,0,0.9,0.1,1.3,0.3c0.8,0.3,0.5,1.4-0.1,1.4c-0.1,0-0.2,0-0.3-0.1c-0.2-0.1-0.4-0.1-0.5-0.1c-1.2,0-1.3,2.4-0.5,3.3
			c0.3,0.3,0.3,0.7,0,1c-0.5,0.5-0.9,0.9-1.4,1.4c0.5,0.1,1,0.2,1.6,0.3c0.4,0.1,0.7,0.7,0.4,1.1c-0.3,0.4-1.8,2.4-0.1,2.6
			c0.2,0,0.5,0.1,0.7,0.1c0.8,0,1.5-0.2,2.2-0.5C234.8,171.5,234.9,171.5,235,171.5z"/>
		<path fill="#E1DD33" d="M234.1,176.9c0.8,3,1.8,7.8-2.6,7.9c0,0,0,0,0,0c-1.6,0-1.8-1.7-1.2-2.8c0.6-1.1,1.8-1.9,3-1.9
			c0,0,0,0,0,0c-0.2-1.1-0.4-2.3-0.7-3.4c-0.2-0.5,0.3-0.9,0.7-0.9c0.2,0,0.4,0.1,0.5,0.2l0.2,0.2
			C234.2,176.4,234.2,176.7,234.1,176.9z M232,183.3c0.9-0.3,1.4-0.8,1.4-1.7c-0.6,0-1.2,0.2-1.5,0.7
			C231.5,182.5,231.5,182.9,232,183.3z"/>
		<path fill="#E1DD33" d="M233,120.8c0.1,0.9,0.1,2-0.2,2.9c-0.2,0.6-0.8,1-1.4,1c-0.2,0-0.3,0-0.5-0.1c-0.8-0.3-1.3-0.8-1.6-1.5
			c-0.3-0.8-0.1-1.6-0.1-2.4c0-0.5,0.4-0.7,0.7-0.7c0.4,0,0.7,0.2,0.7,0.7c0,0.8-0.4,2,0.6,2.5c0.1,0,0.2,0.1,0.2,0.1
			c0.1,0,0.1-0.1,0.1-0.2c0-0.2,0.1-0.5,0.1-0.7c0-0.5,0-1,0-1.4c0-0.5,0.3-0.7,0.7-0.7C232.6,120.1,233,120.3,233,120.8z"/>
		<path fill="#E1DD33" d="M229.3,183.5c0.9,0.1,0.9,1.4,0,1.4c0,0,0,0,0,0c-1.4-0.1-2.4-0.8-2.9-1.9c-0.5,0.9-1.1,1.6-2,1.9
			c-0.3,0.1-0.7,0.2-1,0.2c-0.7,0-1.3-0.3-1.6-1.1c-0.4-1,1-2.9,1.7-3.5c0.6-0.6,1.3-1,2-1c0.4,0,0.8,0.1,1.2,0.3
			c0.3,0.2,0.4,0.5,0.3,0.8c0.2,0.1,0.3,0.3,0.3,0.5C227.4,182.3,228,183.5,229.3,183.5z M225.8,181.1c-0.1,0-0.2-0.1-0.4-0.1
			c-1,0-1.9,1.7-2.2,2.4c0.2,0.1,0.4,0.1,0.5,0.1c0.3,0,0.6-0.2,0.8-0.5c0.1-0.2,0.3-0.4,0.4-0.5
			C225.3,182.1,225.6,181.6,225.8,181.1z"/>
		<path fill="#33B53B" d="M228.8,213.7c0.6,0.1,0.7,1.1,0.2,1.3c-1.1,0.5-2.2,1-3.2,1.5c1,1.1,1.3,2.6,0.7,4.1
			c-0.7,1.7-2.4,2.3-4.1,2.3c-0.3,0-0.7,0-1-0.1c-0.9-0.1-0.6-1.4,0.2-1.4c0,0,0.1,0,0.1,0c0.2,0,0.3,0,0.5,0c2.5,0,4.6-3.1,1.7-4.5
			c-0.5-0.2-0.5-1,0-1.3c0.8-0.3,1.5-0.7,2.3-1c-0.8-0.2-1.7-0.4-2.5-0.6c-0.4-0.1-0.7-0.7-0.4-1.1c0.3-0.4,0.5-0.7,0.8-1.1
			c-0.2-2-0.9-3-2.1-3c-0.2,0-0.4,0-0.6,0.1c-0.3,0-0.6,0.1-0.8,0.1c0,0-0.1,0-0.1,0c-0.8,0-0.8-1.3,0.1-1.4
			c0.6-0.1,1.1-0.1,1.6-0.1c1.5,0,2.8,0.4,3.8,1.8c0.9,1.3,0,2.5-0.8,3.5C226.3,213.3,227.5,213.5,228.8,213.7z"/>
		<path fill="#E1DD33" d="M228.2,122.1c0.2,0.5,0.4,1.2,0,1.7c-0.4,0.6-1.1,0.9-1.9,0.9c-0.4,0-0.8-0.1-1.1-0.3
			c-1.3-0.7-1.2-2.3-0.4-3.3c-0.1,0-0.1,0-0.2,0.1c-0.5,0.1-1.2,0.2-1.6,0.6c-0.2,0.2-0.3,0.4-0.4,0.7c0.1,0.3,0.2,0.6,0.3,0.9
			c0.1,0.5-0.3,0.9-0.7,0.9c-0.2,0-0.3-0.1-0.5-0.2c-0.3-0.4-0.5-0.8-0.6-1.3c-0.2-0.5-0.5-1-0.8-1.4c-0.4-0.5,0.1-1,0.6-1
			c0.2,0,0.4,0.1,0.6,0.3c0.1,0.1,0.2,0.2,0.2,0.3c0.6-0.7,1.5-1,2.4-1.1c0,0,0.1,0,0.1,0c0.5,0,0.9,0.6,0.8,1
			c0.4-0.4,0.9-0.6,1.4-0.6c0.2,0,0.5,0.1,0.7,0.2c0.5,0.2,0.5,0.7,0.2,1C227.8,121.6,228.1,121.8,228.2,122.1z M226.5,123.3
			c0.3,0,0.6-0.1,0.5-0.3c-0.1-0.4-0.5-0.6-0.9-0.8c-0.1,0-0.1-0.1-0.2-0.1c-0.3,0.5-0.5,1.1,0.1,1.2
			C226.2,123.3,226.3,123.3,226.5,123.3z"/>
		<path fill="#E1DD33" d="M228,202.7c0.2,0.2,0.3,0.5,0.1,0.8c-0.1,0.1-0.1,0.2-0.2,0.3c-0.1,0.3-0.3,0.4-0.5,0.4
			c-0.4,0-0.8-0.3-0.8-0.7c-0.1-1.5-0.3-3-0.6-4.5c-0.1-0.5-0.3-0.7-0.5-0.7c-0.7,0-1.7,1.8-2,2.4c-0.1,0.2-0.4,0.4-0.6,0.4
			c-0.3,0-0.6-0.2-0.7-0.5c-0.2-0.8-0.3-1.6-0.6-2.4c-0.2-0.5-0.4-0.7-0.6-0.7c-0.3,0-0.6,0.4-0.8,1c-0.3,0.6-0.4,1.3-0.5,2
			c0,0.7,0,1.4,0,2.1c0,0.5-0.4,0.7-0.7,0.7c-0.4,0-0.7-0.2-0.7-0.7c-0.1-0.7-0.1-1.3,0-2c0-1.4-0.2-2.8-0.4-4.2
			c-0.1-0.5,0.4-0.9,0.8-0.9c0.3,0,0.5,0.2,0.6,0.5c0,0.3,0.1,0.7,0.1,1c0.3-0.4,0.6-0.7,1.1-1c0.3-0.2,0.5-0.3,0.8-0.3
			c1,0,1.6,1.5,2,2.7c0.6-0.9,1.5-1.8,2.4-1.8c0.2,0,0.4,0.1,0.7,0.2c1,0.5,1,1.5,1.2,2.6C227.7,200.4,227.9,201.5,228,202.7z"/>
		<path fill="#E1DD33" d="M226.2,133c0.9,0,0.9,1.4,0,1.4c0,0,0,0,0,0c-0.9,0-1.8,0-2.8-0.1c-0.9,0-0.9-1.4,0-1.4c0,0,0,0,0,0
			C224.4,132.9,225.3,133,226.2,133z"/>
		<path fill="#E1DD33" d="M218.6,179.7c1.6,0,3.1,0.8,3.1,2.7c0,1.1-0.3,2-1.3,2.5c-0.7,0.4-1.7,0.5-2.6,0.7
			c0.1,0.7,0.1,1.5,0.2,2.2c0,0.5-0.3,0.7-0.7,0.7s-0.7-0.2-0.7-0.7c0-0.1,0.1-0.2,0.1-0.3v0c0-0.7-0.2-1.4-0.2-2
			c-0.3-0.3-0.5-0.7-0.2-1c-0.1-1.3-0.3-2.5-0.5-3.7c-0.1-0.5,0.4-0.9,0.8-0.9c0.2,0,0.3,0.1,0.4,0.2
			C217.5,179.7,218,179.7,218.6,179.7z M220.2,182.6c0-1.1-0.7-1.5-1.5-1.5c-0.4,0-0.8,0.1-1.3,0.2l-0.1,0c0.1,0.9,0.2,1.8,0.3,2.7
			C218.8,183.9,220.2,183.7,220.2,182.6z"/>
		<path fill="#F139F6" d="M220.4,166.5c0.5,0,1,0.5,0.7,1.1c-0.6,1.2-1.3,2.5-1.9,3.7c-0.4,0.8-0.7,1.6-1.5,2.1
			c-0.1,0.1-0.2,0.1-0.4,0.1c-0.3,0-0.5-0.1-0.6-0.4c-1.2-2.1-2.5-4.2-3.7-6.3c-0.3-0.6,0.2-1.1,0.7-1.1c0.2,0,0.4,0.1,0.6,0.3
			c1.1,1.8,2.2,3.7,3.2,5.5c0.4-0.6,0.7-1.5,1-2c0.5-0.9,1-1.9,1.4-2.8C220,166.7,220.2,166.5,220.4,166.5z"/>
		<path fill="#E1DD33" d="M220.1,122.3c-0.1,2.3,1.7,5.2-0.8,6.8c-0.1,0.1-0.2,0.1-0.4,0.1s-0.3,0-0.4-0.1c-0.5-0.3-0.8-0.7-1.1-1.1
			c-0.4-0.5,0.1-1.1,0.6-1.1c0.2,0,0.4,0.1,0.6,0.3c0.1,0.1,0.2,0.2,0.3,0.3c0.6-0.7,0.4-1.9,0.1-3c-0.2,0.1-0.4,0.3-0.7,0.3
			c-0.1,0-0.3,0.1-0.4,0.1c-0.7,0-1.4-0.4-1.5-1l0-0.2c-0.1,0.3-0.3,0.5-0.6,0.5c-0.1,0-0.2,0-0.4-0.1c-0.6-0.4-1.2-0.8-1.9-1.1
			c0.1,0.1,0.1,0.2,0.2,0.3c0.4,0.5,0,1.3-0.6,1.3c-0.2,0-0.3-0.1-0.5-0.2c-0.5-0.6-0.7-1.4-0.9-2.2l-0.8-2.8
			c-0.2-0.5,0.3-0.9,0.7-0.9c0.3,0,0.6,0.2,0.7,0.5c0.2,0.7,0.4,1.5,0.7,2.2c0.5-0.7,1.1-1.2,1.8-1.7c0.1-0.1,0.3-0.1,0.4-0.1
			c0.6,0,1,0.9,0.3,1.4c-0.5,0.3-0.9,0.7-1.3,1.2c0.7,0.3,1.3,0.7,1.9,1.1c0.1,0.1,0.2,0.2,0.3,0.4c0.2-1.2,1-2.6,2-2.6
			c0.3,0,0.7,0.1,1,0.4c0.2,0.2,0.3,0.5,0.2,0.7C220,121.8,220.2,122,220.1,122.3z M218.9,122.3v-0.1h-0.2l0-0.1l-0.2-0.1
			c-0.6,0.3-0.6,0.8-0.3,1.3C218.6,123,218.9,122.7,218.9,122.3z"/>
		<path fill="#E1DD33" d="M219.8,133.6c0.9,0,0.9,1.4,0,1.4c-0.4,0-0.8,0-1.2,0c0.1,0.3,0.2,0.5,0.3,0.8c0.2,0.6-0.2,1.1-0.7,1.1
			c-0.2,0-0.4-0.1-0.5-0.4l-0.1-0.1l0-0.1c-0.2-0.4-0.4-0.9-0.5-1.3c-0.5,0-1.1,0-1.6,0.1c0,0,0,0,0,0c-0.9,0-0.9-1.4,0-1.4
			c0.4,0,0.8,0,1.2-0.1c-0.2-1-0.4-2-0.2-2.9c0.1-0.4,0.3-0.5,0.6-0.5c0.4,0,0.9,0.4,0.8,0.9c-0.1,0.8,0,1.6,0.3,2.5
			C218.7,133.6,219.2,133.6,219.8,133.6L219.8,133.6z"/>
		<path fill="#33B53B" d="M214.3,113.4c0.7,0,1.1,1,0.4,1.3c-0.6,0.3-1.2,0.4-1.9,0.4c-0.7,0-1.3-0.2-1.8-0.7
			c-0.5-0.5-0.7-0.9-0.8-1.5c-0.1-0.6,0.6-1.6-0.5-1.8c-0.6-0.1-0.7-1-0.2-1.3c0.5-0.3,1.1-0.6,1.6-0.9c-0.3-0.3-0.6-0.6-0.8-1.1
			c-0.1-0.5-0.1-1.2,0.2-1.7c0.6-1.2,1.6-1.8,2.9-1.9c0,0,0.1,0,0.1,0c0.8,0,0.8,1.3-0.1,1.4c-1.6,0.2-1.8,1.4-1.1,2.5
			c0.2,0.3,0.3,0.4,0.4,0.8c0.1,0.3,0,0.6-0.3,0.8c-0.3,0.2-0.6,0.4-1,0.6c0.2,0.2,0.3,0.3,0.4,0.6c0.1,0.5,0.2,0.7,0,1.2
			c-0.4,1.1,0.4,1.5,1.2,1.5c0.3,0,0.7-0.1,1-0.2C214.1,113.4,214.2,113.4,214.3,113.4z"/>
		<path fill="#E1DD33" d="M214.8,135.9c0.2,0.5-0.3,0.9-0.7,0.9c-0.3,0-0.6-0.2-0.7-0.5c-0.1-0.5-0.2-1.7-0.7-2
			c-0.1-0.1-0.3-0.2-0.4-0.2c-0.7,0-1.1,1.3-1.2,1.7c0,0.4-0.4,0.7-0.7,0.7c-0.3,0-0.6-0.2-0.7-0.5c-0.3-0.8-0.7-1.4-1.2-2
			c-0.5-0.5,0-1.2,0.5-1.2c0.2,0,0.3,0.1,0.5,0.2c0.3,0.3,0.5,0.7,0.8,1c0.5-0.7,1.2-1.2,2.1-1.2c0,0,0.1,0,0.1,0
			C214.1,132.7,214.5,134.8,214.8,135.9z"/>
		<path fill="#F139F6" d="M212.6,171.9c0.3,0.6-0.2,1.1-0.7,1.1c-0.2,0-0.4-0.1-0.6-0.4c-0.8-1.6-1.4-3.3-1.9-5
			c-0.1-0.5,0.3-0.9,0.7-0.9c0.3,0,0.6,0.2,0.7,0.5C211.3,168.8,211.9,170.4,212.6,171.9z"/>
		<path fill="#E1DD33" d="M211.1,123.1c0.7,0,1.1,1,0.4,1.3c-0.4,0.2-0.8,0.3-1.2,0.3c-0.9,0-1.8-0.5-2.2-1.3
			c-0.6-1.2-0.1-2.7,1.1-3.3c0.1-0.1,0.2-0.1,0.4-0.1c0.6,0,1.1,1,0.4,1.3c-1,0.6-0.5,2,0.4,2c0.2,0,0.3,0,0.5-0.1
			C210.9,123.1,211,123.1,211.1,123.1z"/>
		<path fill="#F139F6" d="M208.1,168.8c0.9,2.9-1.5,4.8-4.1,5.6c-0.1,0-0.2,0-0.2,0c-0.5,0-0.8-0.5-0.6-1l0,0
			c-0.6-1-0.6-2.7-0.9-3.9c-0.2-0.8-0.4-1.5-0.6-2.3c0-0.2-0.1-0.4-0.1-0.6c0-0.1,0-0.2,0-0.3c-0.3-0.3-0.2-1.1,0.4-1.3l0.1,0
			c0.4-0.1,0.7-0.1,1.1-0.1C205.4,165,207.4,166.7,208.1,168.8z M204.4,172.7c1.6-0.7,3.2-1.9,2.1-3.8c-0.7-1.3-1.8-2.5-3.4-2.5
			c-0.1,0-0.1,0-0.1,0c0,0.3,0,0.7,0.1,0.9c0.3,1,0.5,1.9,0.7,2.9c0.1,0.6,0.1,1.6,0.4,2.3l0,0l0,0L204.4,172.7z"/>
		<path fill="#E1DD33" d="M207.4,134.3c0.5,0.6,1.1,1.2,0.7,2.1c-0.3,0.7-0.9,1-1.6,1c-0.4,0-0.7-0.1-1-0.3
			c-1.1-0.7-1.2-1.7-0.7-2.8c0.3-0.7,1-1.4,1.8-1.4c0.2,0,0.4,0,0.6,0.1C207.7,133.3,207.8,134,207.4,134.3z M206.5,135.9
			c0.3,0,0.2-0.2,0-0.4c-0.2-0.2-0.3-0.4-0.5-0.6l0,0.1c-0.2,0.4-0.3,0.8,0.3,0.9C206.4,135.9,206.5,135.9,206.5,135.9z"/>
		<path fill="#E1DD33" d="M207.1,123.4c0.8,0,1.1,1.3,0.3,1.4c-0.2,0-0.3,0-0.4,0c-0.7,0-1.3-0.3-1.8-0.7c-0.2,0.3-0.4,0.5-0.8,0.6
			c-0.1,0-0.2,0-0.3,0c-0.7,0-1.2-0.6-1.3-1.3c-0.1-0.9,0.9-2.9,1.9-2.9c0.3,0,0.5,0.1,0.8,0.4c0.3,0.3,0.2,0.7,0,0.9l0.1,0.1
			c0.1,0.6,0.5,1.5,1.3,1.5c0.1,0,0.1,0,0.2,0C207.1,123.4,207.1,123.4,207.1,123.4z"/>
		<path fill="#33B53B" d="M206.8,144.2c0.6,0.1,0.7,1,0.2,1.3c-0.3,0.1-0.6,0.3-0.9,0.4c0.8,1.1,1.2,2.3,0.6,3.7
			c-0.4,0.9-1.3,1.2-2.3,1.2c-0.5,0-1-0.1-1.3-0.2c-0.8-0.2-0.6-1.4,0.2-1.4c0.1,0,0.1,0,0.2,0c0.2,0.1,0.6,0.2,1,0.2
			c0.6,0,1.2-0.2,1.1-1c-0.1-0.9-0.6-1.5-1.1-2.1c-0.2-0.3-0.3-0.8,0-1.1c-0.3-0.2-0.5-0.4-0.6-0.8c-0.1-0.4,0-0.8,0.2-1.1
			c0.6-1.6-0.9-1.7-2-1.8c-0.9-0.1-0.9-1.4-0.1-1.4c0,0,0.1,0,0.1,0c1.2,0.1,3.1,0,3.8,1.2c0.3,0.5,0,1.3-0.2,1.8
			C205.2,144,205.9,144,206.8,144.2z"/>
		<path fill="#F139F6" d="M205.6,110.8c0.2,2.1,1.7,3.8,0.9,5.9c-0.3,0.9-1.2,1.5-2,1.5c-0.4,0-0.8-0.1-1.1-0.4
			c-0.6-0.5-0.2-1.4,0.3-1.4c0.1,0,0.3,0,0.4,0.1c0.2,0.2,0.4,0.2,0.5,0.2c0.8,0,0.6-2.2,0.6-2.4c-0.1-0.4-0.3-0.8-0.4-1.2l0-0.1
			c-0.4,0.4-0.8,0.7-1.4,0.7c0,0-0.1,0-0.1,0c-1.6,0-1.6-1.6-1.7-2.8c0-0.5,0.3-0.7,0.7-0.7s0.7,0.2,0.7,0.7c0,0.2,0,0.5,0,0.7
			c0.3,0.1,0.5,0.1,0.8,0.2c0.2-0.3,0.4-0.7,0.4-1.1c0-0.5,0.4-0.7,0.7-0.7S205.6,110.4,205.6,110.8z"/>
		<path fill="#E1DD33" d="M203.1,134.3c0.9,0,0.8,1.4-0.1,1.4c-0.4,0-0.8,0.1-1.2,0.1c0.1,0.5,0.3,1.1,0.5,1.6
			c0.2,0.5-0.3,0.9-0.7,0.9c-0.3,0-0.6-0.2-0.7-0.5c-0.2-0.6-0.4-1.3-0.7-2c-0.5,0-1,0-1.5-0.1c-0.9-0.1-0.9-1.4-0.1-1.4
			c0,0,0.1,0,0.1,0c0.4,0,0.7,0.1,1.1,0.1c-0.4-1.5-0.6-3-0.2-4.2c0.3-0.9,1-1.3,1.8-1.3c0.6,0,1.1,0.2,1.5,0.7
			c0.5,0.5,0,1.3-0.5,1.3c-0.2,0-0.3-0.1-0.5-0.2c-1,0.2-1.3,0.7-0.9,1.6c0,0.2,0.1,0.4,0.1,0.6c0.1,0.6,0.2,1.1,0.4,1.7
			C201.9,134.4,202.5,134.3,203.1,134.3C203,134.3,203,134.3,203.1,134.3z"/>
		<path fill="#E1DD33" d="M201.3,121.6c0.7,0.4,1.2,1,0.9,1.9c-0.4,1.2-1.8,1.4-3,1.4c-0.2,0-0.3,0-0.5,0c-0.7,0-0.9-0.8-0.5-1.2
			c-0.3-1.2-0.5-2.4-0.7-3.7c-0.3-0.4-0.1-1.1,0.6-1.2c0.6-0.1,1.4-0.3,2.1-0.3c0.7,0,1.3,0.2,1.7,0.8
			C202.3,120.1,201.9,120.9,201.3,121.6z M200.5,120.3c0.1-0.3,0.1-0.3-0.1-0.3c-0.1,0-0.2,0-0.4,0.1c-0.4,0-0.7,0.1-1.1,0.1
			c0.1,0.6,0.1,1.3,0.3,1.9c0.1,0.5,0.2,1,0.3,1.4c0.2,0,0.4,0,0.6-0.1c0.9-0.2,0.5-0.7-0.2-0.8c-0.4,0-0.6-0.3-0.7-0.6
			c-0.1-0.3,0-0.5,0.3-0.7C200,121,200.3,120.7,200.5,120.3z"/>
		<path fill="#C18EA3" d="M199.6,182.5c0.7,0,1.4,0.5,1.3,1.4c-1.2,12.5-0.8,25-0.5,37.5l-1.2,0c0-0.5-0.3-1.1-0.5-1.7
			c-0.1-0.2-0.2-0.5-0.3-0.7c-0.1-0.2-0.2-0.5-0.3-0.7c-0.1-0.2-0.2-0.5-0.3-0.7c-0.1-0.2-0.2-0.5-0.3-0.7
			c-0.3-11.1-0.5-22.1,0.6-33.2C198.1,183,198.9,182.5,199.6,182.5z"/>
		<path fill="#F139F6" d="M200.7,111.5c0.1,0.5,0.2,1.1,0.1,1.6c-0.1,0.9-1,1.6-1.9,1.6c-0.2,0-0.5-0.1-0.7-0.2
			c-1.8-0.9-0.5-3.5,0.9-4.1c-0.1-0.5-0.1-1.1-0.3-1.6c-0.2-0.1-0.4-0.3-0.3-0.6l0-0.1c0-0.3,0.2-0.6,0.5-0.7l0.1,0
			c0.1,0,0.1,0,0.2,0c0.3,0,0.5,0.1,0.6,0.4c0.4,0.8,0.5,1.9,0.6,2.7c0,0.1,0.1,0.3,0.1,0.4l0,0
			C200.7,111.2,200.7,111.4,200.7,111.5z M199.4,112.8c0-0.3-0.1-0.6-0.1-0.9c-0.2,0.2-0.3,0.5-0.4,0.8c-0.1,0.2-0.1,0.4,0,0.4
			C198.9,113.1,199.1,113,199.4,112.8z"/>
		<path fill="#C18EA3" d="M200.4,221.5c0.2,6.5,0.3,12.9,0.1,19.4c0,0.9-0.8,1.4-1.5,1.4c-0.7,0-1.4-0.5-1.4-1.4
			c0.1-6,0.1-12.1-0.1-18.1c0.1,0,0.2,0,0.3,0.1c0.3,0,0.5,0,0.7-0.1c0,0,0.1,0,0.1-0.1c0.4-0.4,0.6-0.8,0.6-1.1L200.4,221.5z"/>
		<path fill="#F139F6" d="M195,110.8c1,0.5,1.8,1.4,1.8,2.6c0,1.3-1,2-2.1,2c-0.2,0-0.3,0-0.5,0c-1.7-0.2-2.2-1.7-1.6-3.1
			c0.3-0.6,0.5-1.3,1.1-1.6c0.1-0.1,0.3-0.1,0.5-0.1C194.5,110.4,194.8,110.5,195,110.8z M195.2,113.9c0.4-0.2,0.2-0.9,0-1.2
			c-0.2-0.3-0.4-0.5-0.7-0.6l-0.2,0l0,0.1c-0.1,0.1-0.1,0.3-0.2,0.4c-0.1,0.2-0.4,0.7-0.3,1c0.1,0.3,0.6,0.4,1,0.4
			C194.9,113.9,195.1,113.9,195.2,113.9z"/>
		<path fill="#F139F6" d="M190.2,110.3c0.9,0.7,1.4,1.9,1.4,3c0,2.1-2.2,2.3-3.8,2.4c0,0,0,0,0,0c-0.3,0-0.5-0.2-0.6-0.4
			c-0.1-0.1-0.1-0.3-0.1-0.5c-0.4-1-0.3-2.4-0.4-3.4c-0.1-1.8-0.2-3.5-0.1-5.3c0-0.4,0.3-0.7,0.7-0.7c0.1,0,0.1,0,0.2,0
			c0.1,0,0.2,0,0.4,0.1c0.3,0.2,1.2,0.1,1.5,0.2c0.3,0.1,0.6,0.3,0.8,0.5c0.5,0.7,0.9,1.3,1,2.2
			C191.1,109.2,190.8,109.9,190.2,110.3z M189.4,114.2c1.9-0.7,0.1-3-1-3c0,0-0.1,0-0.1,0c0,0-0.1,0-0.1,0c-0.1,0-0.2,0-0.2,0
			c0,1,0,2.2,0.3,3c0.1,0,0.1,0.1,0.2,0.2c0,0,0,0,0,0C188.9,114.3,189.2,114.2,189.4,114.2z M189.4,109.2c0.5-1,0.1-1.8-1.3-2.3
			l-0.1,0c0,1,0,2,0,2.9l0.1-0.1C188.6,109.6,189,109.4,189.4,109.2z"/>
		<path fill="#6A6969" d="M190.5,200.3c0,0.2,0.1,0.5,0.1,0.7c-1.1-1.1-2-1-3,0.1c-0.9,1-2.3,0.3-2.8-0.1c-0.6-0.4-1.1-0.8-1.7-1.3
			c0,0,0.1-0.1,0.1-0.1c0.2-0.2,0.5-0.3,0.7-0.3c0.2,0,0.5,0.1,0.7,0.1c0.2,0.1,0.5,0.1,0.7,0.1c0,0,0,0,0,0c0.3,0,0.6-0.1,0.9-0.1
			c0.2,0,0.4,0,0.6,0.1c0.1,0,0.2,0,0.2,0c0.3,0,0.7-0.2,0.9-0.4c0.6-0.4,1.2-0.5,1.9-0.6c0.1,0,0.2-0.1,0.3-0.1
			c0,0.1,0.1,0.3,0.1,0.4c0,0.1,0,0.2,0.1,0.3c0,0.2,0.1,0.3,0.1,0.5C190.4,199.9,190.4,200.1,190.5,200.3z"/>
		<path fill="#A79574" d="M190.1,198.4c0,0,0,0.1,0,0.1c-0.1,0.1-0.2,0.1-0.3,0.1c-0.7,0.1-1.3,0.2-1.9,0.6
			c-0.2,0.2-0.6,0.4-0.9,0.4c-0.1,0-0.2,0-0.2,0c-0.2-0.1-0.4-0.1-0.6-0.1c-0.3,0-0.5,0.1-0.9,0.1c0,0,0,0,0,0
			c-0.2,0-0.4-0.1-0.7-0.1c-0.2-0.1-0.5-0.1-0.7-0.1c-0.3,0-0.5,0.1-0.7,0.3c0,0.1-0.1,0.1-0.1,0.1c0,0-0.1,0-0.1-0.1
			c0.4-0.3,0.9-0.5,1.4-0.5c0.3,0,0.6,0.1,0.9,0.2l0.2-0.1c0.3-0.1,0.7-0.1,1-0.1c0,0,0.1,0,0.1,0c0.3,0,0.6,0.1,0.9,0.2
			c0.2-0.2,0.4-0.5,0.7-0.6c0.5-0.3,1-0.4,1.6-0.4C189.9,198.4,190,198.4,190.1,198.4z"/>
		<path fill="#C5B492" d="M190.1,198.3c0,0.1,0,0.1,0.1,0.2c-0.1,0-0.2,0-0.3,0c-0.5,0-1.1,0.2-1.6,0.4c-0.3,0.2-0.5,0.4-0.7,0.6
			c-0.3-0.1-0.6-0.2-0.9-0.2c0,0,0,0-0.1,0c-0.3,0-0.7,0-1,0.1l-0.2,0.1c-0.3-0.2-0.6-0.2-0.9-0.2c-0.5,0-1,0.2-1.4,0.5
			c-0.4-0.3-0.7-0.5-1-0.9c-0.1-0.1-0.2-0.2-0.3-0.3c-0.3-0.3-0.6-0.7-0.8-1.1c-0.1-0.1-0.2-0.3-0.2-0.4c-0.2-0.3-0.4-0.6-0.5-0.9
			c0-0.1-0.1-0.1-0.1-0.2c0-0.1,0-0.1,0-0.2c0-0.8-0.5-1.2-1-1.3c-0.1-0.1-0.2-0.3-0.3-0.4c0,0,0-0.1-0.1-0.1
			c-0.2-0.2-0.4-0.5-0.6-0.7c0,0,0-0.1-0.1-0.1c-0.1-0.2-0.3-0.3-0.5-0.5c-0.1-0.1-0.2-0.2-0.3-0.3c-0.4-0.4-0.8-0.8-1.2-1.1
			c-0.4-0.3-0.6-0.7-0.7-1.1c-0.7-2.7-0.2-5.4-0.1-8.2c1.2,2.1,3.3,3.5,4.3,5.7c0.2,0.5,0.7,0.7,1.2,0.6c0.6-0.2,0.8-0.7,0.8-1.3
			c0-2,0-3.9-0.3-5.9c0-0.2-0.1-0.5-0.1-0.7c0,0,0-0.1,0-0.1c0,0,0,0,0,0c0,0,0,0,0-0.1c0,0,0,0,0,0c0,0,0,0,0.1-0.1c0,0,0,0,0,0
			c0.1,0,0.2-0.1,0.2-0.1c0.3,0,0.6,0.3,0.8,0.5c1.2,1,2.4,2.1,3.6,3.1c1.2,1.1,1.5,2.5,1.8,4.1C188.3,191.3,189,194.8,190.1,198.3z
			"/>
		<path fill="#EAD3BD" d="M188.2,165.7c0.3,0.9,0.1,1.7-0.7,2.3c-0.7,0.6-1.3,0.2-2-0.1c-0.3-0.1-0.6-0.2-0.7-0.4
			c-2.5-2.4-5.9-3.9-7.9-6.8c-0.5-0.7-0.6-1.4-0.5-2.2c0.3-2.2-0.2-4.4-1.1-6.4c-0.7-1.6-2.3-2.2-3.9-2.8c-0.8-0.3-1.3-0.6-1.6-1.4
			c-0.3-1-1.3-1.4-2-2.1c-2.1-1.9-1.4-4.4-1.2-6.8c0.1-1,0.5-1.9,0.8-2.8c0.1-0.5,0.4-1-0.1-1.3c-0.4-0.3-0.9-0.5-1.5-0.3
			c-0.9,0.3-1.6,0.8-2.4,2c-4.9-8.8-9.3-17.6-13.8-26.5c1.4-0.1,2.4,0.4,3.2,1c6,4.3,11.4,9.2,15.8,15.1c1.6,2.2,3.3,4.3,4.8,6.6
			c5.6,8.3,9.6,17.4,12.8,26.9C187,161.8,187.6,163.8,188.2,165.7z"/>
		<path fill="#C18EA3" d="M182.7,114.8c0.1,5,0.1,10,0,14.9c0,3.4,0.3,7.3-0.4,10.7c0-0.1,0-0.1-0.1-0.1c-0.2-0.3-0.3-0.7-0.5-1
			c0,0,0-0.1,0-0.1c-0.4-0.8-0.7-1.5-1.1-2.2c-0.1-0.2-0.3-0.5-0.4-0.7c-0.1-0.2-0.2-0.3-0.3-0.5c0.1-2.7-0.1-5.4-0.1-7.8
			c0-4.4,0-8.7-0.1-13.1c0-0.9,0.7-1.4,1.4-1.4C182,113.5,182.7,113.9,182.7,114.8z"/>
		<path fill="#FADD35" d="M184.1,180.2c-0.9-0.8-1.8-1.5-2.7-2.3c-0.4-0.3-0.9-0.7-1.5-0.4c-0.6,0.3-0.6,0.9-0.5,1.5
			c0.2,1.7,0.4,3.4,0.2,5.2c-0.8-1.1-1.8-2.1-2.5-3.3c-0.6-1-1.7-1.5-1.9-2.7c0-0.1-0.1-0.2-0.2-0.3c-0.1,0-0.1-0.1-0.2-0.1
			c-0.1,0-0.3,0-0.4,0c-0.1,0-0.1,0-0.2,0.1c-0.5,0.2-0.8,0.5-0.8,1.1c0,1.6,0.1,3.1,0.1,4.7c0,0.2,0,0.5-0.3,0.8
			c-0.9-2-1.9-4-2.6-6c-0.4-1.2-0.3-2.7,0.5-3.6c2.1-2.4,2.8-5.4,4-8.1c0.2-0.5,0.5-1.1,0.7-1.8
			C179.3,169.9,181.8,174.9,184.1,180.2z"/>
		<path fill="#B99D80" d="M180,195.8c0,0.1,0,0.1,0,0.2c-0.1-0.1-0.1-0.2-0.2-0.3c-0.1-0.1-0.1-0.2-0.2-0.3
			c-0.1-0.2-0.3-0.4-0.5-0.7c0,0,0,0,0,0c-0.1-0.1-0.1-0.2-0.2-0.3C179.5,194.6,180,195.1,180,195.8z"/>
		<path fill="#C18EA3" d="M177.1,197.1c0.9,1.1,1.9,2.3,2.8,3.4c-0.2,8.1-1,16.1-2.4,24.1c-0.1,0.7-0.6,1-1.2,1
			c-0.8,0-1.8-0.7-1.6-1.8C176.3,214.9,177.1,206,177.1,197.1z"/>
		<path fill="#E8C5A9" d="M173.3,155.5c1.1,4.3,0.6,8.5-1.7,12.7c-0.6-2-1.1-3.7-1.7-5.5c-0.4-1.2-0.9-2.4-1.4-3.5
			c-1.4-3.3-3.8-5.4-7.5-6c0.3-0.2,0.6-0.3,0.8-0.4c0,0,0,0,0,0c0,0,0.1,0,0.1-0.1c0.2-0.1,0.5-0.2,0.7-0.3c0.3-0.1,0.6-0.2,0.9-0.3
			c1.5-0.5,3-0.8,4.5-0.8c0.3,0,0.6,0,0.8,0c0.3,0,0.6,0.1,0.8,0.1C171.9,151.7,172.9,153.8,173.3,155.5z"/>
		<path fill="#E6CAAF" d="M95.3,260.2c-1.5-0.3-3.2-0.9-4.8-1.4c-3.1-1-6.2-2-9.2-3.1c-6.3-2.3-12.5-5.1-18.6-8.1
			c-1.7-0.9-3.4-1.8-5-2.7c-0.7-0.4-1.5-0.8-2.2-1.3c-3.4-2-6.6-4.1-9.8-6.4c-2.6-1.9-5.2-3.9-7.6-6.1c-0.5-0.5-2.2-1.7-3.7-3.1
			c-0.5-0.4-0.9-0.9-1.3-1.3c0.1-0.5,0.3-1,0.4-1.6c0.3-1.2,0.7-2.4,1-3.7c0.1-0.3,0.2-0.5,0.2-0.7c1.5-5.7,3-11.6,5.7-16.6
			c0.2-0.4,0.3-0.7,0.2-1.1c1.1-3.3,3.3-6.3,5.1-9.2c2.1-3.5,4.3-7.1,6.4-10.6l0.1-0.1c0.4-0.1,0.7-0.4,1-0.9c0.5-1.1,1.5-1.9,2.1-3
			c0.8-1.4,1.5-2.8,2.4-4.2c2-3.3,4.3-6.4,6.4-9.6c0.1-0.2,0.2-0.4,0.3-0.6c2-2.5,4-5,6.1-7.4c3.6-4.2,6.9-8.8,10.4-13.1
			c2.1-2.6,4.3-5,7.2-7.1c-0.3,2.7-1.6,4.7-2.9,6.8c-1.3,2.1-3.3,3.6-4.5,5.8c-0.3,0.6-1.2,1.2-0.6,2c0.7,0.8,1.6,0.5,2.5,0.3
			c0.8-0.2,1.5-0.7,2.1-1.2c1-1,1.7-2.1,2.4-3.3c2.9-5.2,6.4-9.9,10.3-14.4c1.8-2.1,3.8-3.6,5.9-4.5c0.3-0.1,0.5-0.2,0.8-0.3
			c0,0,0,0,0,0c0.3-0.1,0.5-0.2,0.8-0.3c2.7-0.9,5.6-1,8.8-0.5c0.2,0,0.4,0.1,0.7,0.1c0.3,0.1,0.7,0.2,1,0.2
			c0.4,0.1,0.9,0.1,1.4,0.1c1.5-0.2,2-0.7,1.2-1.9c-1.2-1.7-0.1-2,1-2.6c1.1-0.6,2.2-1.3,3.3-1.9c2.8-1.5,5.4-3.4,8.3-4.5
			c0.4-0.1,0.7-0.4,1.1-0.7c0.1-0.1,0.2-0.2,0.4-0.3c0.7-0.5,1.4-1,2.2-0.4c1.1,0.7,1.6,2.3,2.3,3.5c2.4,4.2,4.9,8.3,7.1,12.5
			c0.1,0.2,0.2,0.4,0.3,0.6c1.7,3.4,1,3.4-1.5,5.4c-3.7,2.9-7.8,5.2-12.2,7c-0.2,0.1-0.5,0.2-0.7,0.3c-0.5,0.2-1,0.3-1.5,0.5
			c-1.4,0.4-2.8,0.6-4.2,0.5c-1.5,0-2.7-0.3-2.8-2.3c-0.1-1.5-0.7-2.9-1.4-4.2c-0.5-0.9-1-1.7-1.9-2.2c-0.1-0.1-0.2-0.1-0.4-0.2
			c-0.1-0.1-0.2-0.1-0.4-0.1c-0.1,0-0.2,0-0.2,0.1c0,0-0.1,0-0.1,0c-0.4,0.2-0.3,0.6-0.3,1c0.1,0.9,0.4,1.8,0.7,2.7
			c0.7,2.3,1.4,4.6,2.1,6.9c0.1,0.3,0.2,0.5,0,0.7c-0.3,0.2-0.5,0.1-0.7-0.1c-0.4-0.4-0.8-0.8-1.1-1.2c-1.7-1.8-3.1-3.8-4.9-5.5
			c-0.4-0.3-0.6-0.7-1.2-0.8c-0.6-0.1-1.4-0.4-1.8,0.1c-0.5,0.6-0.1,1.2,0.2,1.8c0.5,1,1.5,1.6,2.4,2.2c1.4,0.8,2.5,1.9,3.1,3.3
			c1.7,3.6,3.9,6.8,6.3,9.9c1.4,1.9,2,4,1.6,6.5c-1.5-0.9-2.8-1.9-4.2-2.7c-3.1-1.8-5.6-4.3-7.4-7.5c-1.4-2.6-3.3-5-5.4-7.2
			c-0.7-0.7-1.5-1.3-2.5-1.3c-0.4,0-0.9-0.1-1.1,0.5c-0.2,0.5,0,0.9,0.4,1.1c2,1.4,3.2,3.4,4.8,5.1c0.9,0.9,1.4,1.9,2,3.3
			c-1.6-0.9-2.8-1.7-4.1-2.4c-0.1-0.1-0.2-0.1-0.3-0.1c-0.1-0.1-0.3-0.1-0.4-0.1c-0.1,0-0.2-0.1-0.4-0.1c-0.1,0-0.2,0-0.2,0
			c-0.1,0-0.2,0-0.2,0.1c-0.2,0.1-0.5,0.3-0.7,0.5c-0.7,0.8-0.2,1.5,0.4,2c0.6,0.5,1.3,0.9,2,1.4c4.8,3,9.7,6,13.9,9.8
			c0.3,0.2,0.5,0.5,0.8,0.7c0.1,0.1,0.2,0.2,0.3,0.3c0.2,0.2,0.4,0.3,0.5,0.5c0.2,0.2,0.3,0.4,0.5,0.6c0.2,0.2,0.3,0.4,0.5,0.6
			c0.3,0.4,0.6,0.8,0.8,1.2c0.1,0.2,0.3,0.5,0.4,0.7c0,0,0,0,0,0.1c0,0-0.1,0-0.1,0c-0.1,0-0.1,0-0.1,0c-0.4,0.1-0.7,0-1.1-0.1
			c-0.2,0-0.4-0.1-0.6-0.1c-2.1-0.3-4.2-0.7-6.3-0.8c-1.8-0.1-3.6,0.3-5.3,0.8c-0.4,0.1-0.8,0.2-1.2,0.4s-0.8,0.2-1.2,0.4
			c-0.4,0.1-0.8,0.4-1.2,0.4c0,0,0,0,0,0c-0.4,0-0.8,0.4-1.2,0.5c-4.3,1.7-7.8,4.5-11.1,7.6c-0.5,0.4-0.9,0.9-1.4,1.3
			c-0.3,0.3-0.6,0.7-0.4,1.1c0,0,0,0.1,0.1,0.1c0,0,0,0.1,0.1,0.1c0,0,0,0.1,0.1,0.1c0,0,0.1,0,0.1,0.1c0,0,0.1,0,0.1,0
			c0.1,0,0.1,0,0.2,0c0.2,0,0.5-0.1,0.8-0.1c0.8-0.1,1.5-0.5,2.2-1c0.6-0.4,1.2-0.8,1.8-1.2c0.6-0.4,1.3-0.8,1.9-1.1
			c0.3-0.2,0.6-0.4,1-0.5c1-0.5,1.9-1.1,2.9-1.6c0.5-0.3,1-0.5,1.5-0.8c0.5-0.2,1-0.5,1.6-0.7c0.3-0.1,0.5-0.2,0.8-0.3c0,0,0,0,0,0
			c0.5-0.2,1.1-0.4,1.6-0.6c0.6-0.2,1.2-0.4,1.8-0.6c1.9-0.5,3.9-0.8,5.9-0.8h0c0,0,0,0,0.1,0c0.7,0,1.4,0,2.1,0h0c0,0,0.1,0,0.1,0
			c0.2,0,0.4,0,0.6,0c0.2,0,0.4,0,0.6,0c0,0,0,0.1,0,0.1c0.1,0,0.2,0,0.3-0.1c0.9,0,1.7,0.1,2.6,0.1c0.2,0,0.4,0,0.7,0
			c0.6,0,1.3,0,1.9,0.1c0.5,0,1.1,0,1.6-0.1c0.5-0.1,0.9-0.2,1.4-0.3h0c0.4-0.1,0.9-0.3,1.3-0.5h0c0.4-0.2,0.9-0.4,1.3-0.7
			c2.3-1.4,4.1-3.3,5.9-5.1c4.6-4.7,9.8-8.5,16.3-10.1c4.3-1.1,6.5-1,8.5,0.7c0.1,0.1,0.3,0.2,0.4,0.3c0.1,0.1,0.2,0.2,0.4,0.4
			c0.2,0.3,0.5,0.6,0.8,0.9c0.4,0.5,0.8,1,1.2,1.6c3.2,4.7,3.5,9.8,3.3,15.2c-0.2,4-8.2,12.8-12.2,13.4c-1,0.2-2,0.2-2.9-0.2
			c-0.5-0.2-1.2-0.5-1.5,0.1c-0.4,0.6,0.3,1,0.8,1.4c0.1,0.1,0.2,0.2,0.4,0.3c0.8,0.5,1,0.8,0,1.4c-1.7,0.9-3.2,2.1-4.5,3.5
			c-1.6,1.5-3.2,3.1-4.8,4.6c-0.3-0.4,0.1-0.7,0.1-1.1c0.6-2.4,1.3-4.8,1.9-7.3c0.2-0.8,0.5-1.9-0.4-2.3c-0.7-0.3-1.1,0-1.5,0.5
			c-0.1,0.1-0.1,0.2-0.2,0.2c-0.2,0.2-0.3,0.4-0.4,0.6c-0.8,1.4-1.2,3-1.6,4.6c-1.2,4.8-2.5,9.6-5.2,13.7
			c-6.1,9.4-14.7,15.3-25.6,18c-2.7,0.7-5.5,0.9-8.3,1.2c-0.8,0.1-1.4,0.4-1.6,1.1c-0.2,0.7-0.1,1.4,0.4,2c0.6,0.6,1.4,0.7,2.1,0.6
			c1.6-0.1,3.2-0.2,5-0.3c-1.7,3.2-3.1,6.3-4.3,9.5c-0.1,0.1-0.1,0.3-0.2,0.4c0,0.1-0.1,0.2-0.1,0.2c-0.1,0.1-0.2,0.3-0.2,0.4h0
			c0,0,0,0,0,0c0,0,0,0,0,0c0,0.1,0,0.2,0,0.3c-0.1,0.2-0.2,0.4-0.3,0.7c-1.5,3.8-2.8,7.6-3.9,11.6c-0.1,0-0.1,0.1-0.2,0.1
			c-0.5,0.5-0.9,1.3-0.9,2.1c0,0.2,0,0.4,0.1,0.6c0,0.2,0.1,0.4,0.2,0.6c0,0.2-0.1,0.4-0.1,0.6c0,0-0.1,0-0.1,0.1c0,0-0.1,0-0.1,0
			c-0.1,0-0.1,0-0.2,0c-0.1,0-0.1,0-0.2,0c0,0-0.1,0-0.1,0c-0.1,0-0.2,0-0.3,0c-0.2,0-0.4,0-0.7,0c-0.2,0-0.3,0-0.4,0
			c-0.1,0-0.3,0-0.4,0C95.5,260.2,95.3,260.2,95.3,260.2z"/>
		<path fill="#FADD35" d="M166.4,148.5c0.4,0.5,0,0.7-0.4,0.8c-3.1,0.6-6.1,1.5-8.8,3.3c-0.3,0.2-0.5,0.2-0.7,0.1
			c0,0-0.1-0.1-0.1-0.1c-0.1-0.2-0.2-0.5-0.3-0.7c-3.2-6-6.3-12.1-9.5-18.1c-0.4-0.7-0.7-1.4-1.1-2.1c-4-7.7-8-15.5-12-23.2
			c-5.9-11.3-11.8-22.7-17.7-34c-0.5-0.9-0.5-1.6-0.1-2.4c0.4-0.9,0.9-1.7,1-2.7c0.2-1.6,1.2-2.1,2.6-2.1c1.9,0,3.3,0.9,4.4,2.3
			c2.3,2.8,4.2,5.7,5.8,8.9c2.4,5,5.1,9.9,7.6,14.8c3.3,6.4,7,12.6,10.4,18.9c3.2,6.1,6.1,12.4,9.2,18.6c1.7,3.4,3.7,6.8,5.5,10.2
			C163.7,143.4,164.5,146.2,166.4,148.5z M128.5,81c0.4-0.1,0.8-0.2,0.7-0.7c0-0.6-0.5-0.7-1-0.6c-0.4,0-0.8,0.1-1.1,0.2
			c-1.1,0.4-1.7,0.2-1.3-1.1c-0.1-1.6-0.3-3-1.1-4.3c-0.9-1.4-2.8-1.9-4.1-1.1c-1.7,1.1-0.6,2.2,0,3.3c0.2,0.4,0.3,1.1,1,0.8
			c0.6-0.3,0.3-0.8,0-1.3c-0.5-0.7,0.2-1.1,0.6-1.4c0.6-0.5,1.1-0.1,1.3,0.4c0.3,0.6,0.5,1.2,0.7,1.8c0.3,1.5,0.3,2.9-0.2,4.3
			c-0.1,0.4-0.2,0.8,0.2,1.1c0.2,0.2,0.6,0.2,0.8,0C125.8,81.3,127.2,81.2,128.5,81z"/>
		<path fill="#E8C5A9" d="M164.3,189.2c-0.2,0.8-0.5,1.5-0.8,2.1c-0.1,0.3-0.3,0.6-0.5,0.8c-0.6,0.9-1.3,1.4-2.2,1.7
			c-0.2,0.1-0.4,0.1-0.6,0.1c-0.5,0.1-1.1,0-1.8-0.1c-0.1,0-0.1,0-0.2,0C159.5,191.3,162.3,191,164.3,189.2z"/>
		<path fill="#E6BD9E" d="M153.1,150.6c0.7,1.4,0.7,1.8-1,2.2c-2.8,0.6-5.4,1.7-7.7,3.4c-0.2-3.1,1.5-5.7,4.5-7.1
			c1.3-0.6,2-0.9,2.5-0.8c0.1,0,0.2,0,0.2,0.1c0.1,0,0.1,0.1,0.2,0.1C152.2,148.7,152.5,149.4,153.1,150.6z"/>
		<path fill="#E6BD9E" d="M147.9,141.2c0.6,1.1,1.7,2.6,1.1,3.4c-0.7,0.8-2.4,0.9-3.7,1.2c-0.6,0.1-0.9-0.1-1.2-0.5
			c-0.1-0.1-0.1-0.2-0.2-0.2c-0.2-0.2-0.3-0.5-0.5-0.8c-0.5-0.9,0.3-1.1,0.7-1.5c0.6-0.6,1.4-1.1,2-1.7c0,0,0.1-0.1,0.1-0.1
			c0.1-0.1,0.2-0.2,0.2-0.2c0.1-0.1,0.2-0.1,0.2-0.1c0.3-0.1,0.5-0.1,0.7,0.1c0,0,0.1,0.1,0.1,0.1h0c0,0,0.1,0.1,0.1,0.1
			C147.8,140.9,147.8,141,147.9,141.2z"/>
		<path fill="#E6BD9E" d="M140,154.1c0.7-0.1,1.2-0.1,1,0.9c-0.4,1.4-0.4,2.9-0.5,4.3c0,0.5-0.4,0.7-0.8,0.9
			c-2.4,1.2-4.3,2.9-6.1,4.9c-1.1,1.2-2.5,2-3.6,3.1c-0.6,0.6-1,0.6-1.2,0.3c0-0.1-0.1-0.1-0.1-0.2c0-0.1-0.1-0.2-0.1-0.3
			c0-0.1-0.1-0.3-0.1-0.4c-0.6-3.4,0.1-6.4,2.4-9C133.4,156,136.4,154.5,140,154.1z"/>
		<path fill="#E6BD9E" d="M140.4,146.8c0.9,1.2,0.7,2.6,0.5,4c-2.4-0.6-4.6,0.1-6.8,0.9c-0.8,0.3-1.6,0.9-2.1-0.3
			c-0.5-1.3-0.1-2.3,1.1-2.6c2.1-0.5,4.1-1.3,5.9-2.4c0.4-0.3,0.7-0.3,0.9-0.2c0.1,0,0.1,0.1,0.2,0.1c0,0,0.1,0.1,0.1,0.1
			c0.1,0.1,0.1,0.2,0.2,0.2C140.3,146.7,140.3,146.8,140.4,146.8z"/>
		<path fill="#E6CAAF" d="M130.2,173.6C130.2,173.6,130.2,173.7,130.2,173.6L130.2,173.6c-0.4,0.2-0.9,0.4-1.3,0.5h0
			c-0.4,0.1-0.9,0.2-1.4,0.3c-0.5,0.1-1.1,0.1-1.6,0.1c-0.6,0-1.3,0-1.9-0.1c-0.2,0-0.4,0-0.7,0c-0.4,0-0.8,0-1.2,0
			c0.4,0,0.8,0,1.2,0c0.2,0,0.4,0,0.7,0c0.6,0,1.3,0,1.9,0c0.5,0,1.1-0.1,1.6-0.1c0.5-0.1,0.9-0.4,1.4-0.4h0
			C129.3,174.1,129.7,173.8,130.2,173.6z"/>
		<path fill="#E4AD89" d="M130,152.9c0.5,0.3,0.3,0.7,0.1,1.1c-1.2,1.7-2.7,3.2-3.7,5.1c-0.2,0.3-0.4,0.4-0.6,0.4
			c-0.5,0-0.6-0.4-0.7-0.6c-0.1-0.4-0.3-0.8-0.4-1.1c-0.1-0.3-0.3-0.7-0.5-1c-0.1-0.2-0.2-0.3-0.3-0.5c-0.1-0.2-0.2-0.3-0.3-0.5
			c-0.1-0.2-0.2-0.4-0.4-0.6c0-0.6-0.1-1.3-0.1-1.9c0.1-0.1,0.1-0.1,0.2-0.1c1.5-1.2,3.1-2.2,4.9-2.9c0.4-0.1,0.6-0.2,0.8-0.1
			c0,0,0,0,0.1,0.1c0.1,0.1,0.1,0.3,0.1,0.7C129,151.6,129.2,152.4,130,152.9z"/>
		<path fill="#040404" d="M129.3,80.3c0,0.5-0.3,0.6-0.7,0.7c-1.3,0.2-2.7,0.3-3.7,1.5c-0.2,0.2-0.5,0.2-0.8,0
			c-0.3-0.3-0.3-0.7-0.2-1.1c0.5-1.4,0.5-2.9,0.2-4.3c-0.1-0.6-0.4-1.3-0.7-1.8c-0.3-0.5-0.7-0.9-1.3-0.4c-0.4,0.3-1.1,0.6-0.6,1.4
			c0.3,0.4,0.6,0.9,0,1.3c-0.7,0.4-0.8-0.4-1-0.8c-0.6-1.1-1.7-2.2,0-3.3c1.3-0.9,3.2-0.4,4.1,1.1c0.8,1.3,1,2.7,1.1,4.3
			c-0.4,1.2,0.2,1.4,1.3,1.1c0.4-0.1,0.7-0.2,1.1-0.2C128.8,79.6,129.2,79.8,129.3,80.3z"/>
		<path fill="#E6BD9E" d="M121.3,115.9c1.7-1.1,3.7-1.2,5.8-0.9c-5.1,3.2-9.6,7.3-15.5,8.9C114.5,120.8,117.7,118.1,121.3,115.9z"/>
		<path fill="#E6CAAF" d="M123.3,174.5c-0.9,0-1.7-0.1-2.6-0.1c0.5,0,0.9,0,1.4,0C122.5,174.5,122.9,174.5,123.3,174.5z"/>
		<path fill="#DFA57B" d="M123,153.3c0,0.6,0.1,1.3,0.1,1.9c-0.1-0.1-0.2-0.3-0.2-0.4c-0.1-0.2-0.2-0.3-0.2-0.5
			c-0.1-0.2-0.1-0.3,0-0.5c0-0.1,0-0.1,0.1-0.2C122.8,153.5,122.9,153.4,123,153.3z"/>
		<path fill="#999999" d="M121.2,59.8c0.2,1.8,1.5,3.2,2.1,5.1c-2.1-0.7-4-0.9-5.5-0.6c-0.2,0-0.4,0.1-0.7,0.2
			c-0.2,0.1-0.4,0.1-0.6,0.2c0,0,0,0,0,0c-0.4,0.2-0.8,0.4-1.1,0.7h0c-0.2,0.2-0.4,0.4-0.6,0.6c-0.1,0.1-0.2,0.2-0.3,0.3
			c-0.2,0.2-0.4,0.5-0.5,0.7c-0.2,0.3-0.3,0.6-0.4,0.9c-0.9-1.4-1.9-2.6-2.5-4c-0.5-1,0.3-1.8,1.2-2.2c1.1-0.5,2.3-0.7,3.4-1.1
			c0.4-0.1,0.9-0.3,0.8-0.9c-0.1-0.5-0.4-0.6-0.8-0.6c-0.1,0-0.2,0-0.3,0c-1.6,0.2-3.2,0.6-4.7,1.4c-0.1,0-0.1,0.1-0.2,0.1
			c-0.1,0.1-0.3,0.1-0.4,0.1c-0.7,0.1-0.9-0.5-1.2-1.1c-0.3-0.8-0.7-1.6,0.6-1.9c1.2-0.3,2.3-0.6,3.5-0.9c0.6-0.2,1.1-0.4,1-1.2
			c0-0.2-0.1-0.3-0.1-0.4c0-0.1-0.1-0.1-0.1-0.1c-0.3-0.3-0.7-0.3-1.1-0.2c-1.4,0.1-2.7,0.7-4.1,1c1.8-2.2,4-3.6,6.8-4.2
			c0.4-0.1,0.6,0,0.8,0.2c0,0,0.1,0.1,0.1,0.1c0,0,0.1,0.1,0.1,0.1c0,0,0,0.1,0.1,0.1c0.1,0.1,0.2,0.2,0.2,0.4
			c0,0.1,0.1,0.1,0.1,0.2c0,0,0,0.1,0.1,0.1c0.4,0.7,0,1-0.5,1.3c-0.5,0.3-1,0.7-0.6,1.3c0.4,0.6,0.9,0.1,1.3-0.1
			c0.8-0.4,1.5-0.5,2.4-0.1c1.4,0.7,1.5,1.8,0.2,2.9c-0.5,0.4-1.3,0.7-0.9,1.5c0.4,0.7,1.2,0.2,1.8,0c0.1,0,0.1,0,0.2-0.1
			c0.1,0,0.1-0.1,0.2-0.1c0.2,0,0.4,0,0.5,0.1C121.1,59.5,121.2,59.6,121.2,59.8z"/>
		<path fill="#E6CAAF" d="M120.5,174.3c0,0,0,0.1,0,0.1c-0.2,0-0.4,0-0.6,0c-0.2,0-0.4,0-0.6,0c0,0-0.1,0-0.1,0h0
			c-0.7,0-1.4,0-2.1,0c0,0,0,0-0.1,0h0c-0.1,0-0.1,0-0.2,0c-2,0-3.9,0.3-5.7,0.8c-0.6,0.2-1.2,0.4-1.8,0.6c-0.5,0.2-1.1,0.4-1.6,0.6
			c0,0,0,0,0,0c-0.3,0.1-0.5,0.2-0.8,0.3c-0.5,0.2-1,0.5-1.6,0.7c-0.5,0.2-1,0.5-1.5,0.8c-1,0.5-2,1-2.9,1.6c1-0.5,1.9-1.1,2.9-1.6
			c0.5-0.3,1-0.5,1.5-0.8c0.5-0.2,1-0.5,1.6-0.7c0.3-0.1,0.5-0.2,0.8-0.3c0.5-0.2,1.1-0.5,1.6-0.6c2.5-0.9,5-1.5,7.7-1.4
			c0.7,0,1.5-0.1,2.2-0.1c0,0,0.1,0,0.1,0C119.7,174.1,120.1,174.2,120.5,174.3z"/>
		<path fill="#E6CAAF" d="M120.5,174.4L120.5,174.4c-0.2,0-0.4,0-0.6,0C120.1,174.4,120.3,174.4,120.5,174.4z"/>
		<path fill="#E6CAAF" d="M119.2,174.4c-0.7,0-1.4,0-2.1,0C117.8,174.3,118.5,174.3,119.2,174.4z"/>
		<path fill="#E6CAAF" d="M117,174.3c-2.1,0-4,0.3-5.9,0.8c1.8-0.5,3.8-0.8,5.7-0.8C116.9,174.3,117,174.3,117,174.3z"/>
		<path fill="#C18EA3" d="M110.6,44.7c1.5,1.3,2.2,3.2,3.2,5c-2.4,0.7-4.4,1.6-6.4,2.6c-0.9,0.5-1.2,0.2-1.4-0.6
			c-0.3-1.3-0.8-2.6-1-3.9c-0.3-1.4,0-2.7,1.4-3.5C107.8,43.5,109.3,43.6,110.6,44.7z"/>
		<path fill="#E6CAAF" d="M107.7,176.3c0.5-0.2,1.1-0.4,1.6-0.6C108.8,175.9,108.2,176.1,107.7,176.3z"/>
		<path fill="#E6CAAF" d="M105.4,177.3c0.5-0.2,1-0.5,1.6-0.7C106.4,176.8,105.9,177.1,105.4,177.3z"/>
		<path fill="#E6CAAF" d="M103.7,243.1c0-0.1,0.1-0.1,0.1-0.2C103.8,243,103.7,243.1,103.7,243.1z"/>
		<path fill="#B7A08A" d="M103.6,243.5c-0.1,0.1-0.1,0.2-0.2,0.4c0-0.1,0-0.2,0-0.3c0,0,0,0,0,0c0,0,0,0,0,0H103.6z"/>
		<path fill="#E6CAAF" d="M103.4,243.5C103.4,243.5,103.4,243.5,103.4,243.5C103.4,243.5,103.4,243.5,103.4,243.5L103.4,243.5z"/>
		<path fill="#E6CAAF" d="M98,181.3c0.6-0.4,1.3-0.8,1.9-1.1C99.3,180.6,98.6,180.9,98,181.3z"/>
		<path fill="#0A0503" d="M90.9,275.4c0.4,0.9,0.6,2,0.4,3.1c-0.2,1.4-0.8,2.4-1.7,3c-0.8,0.8-2,1.3-3.6,1.1
			c-1.5-0.1-2.7-0.7-3.5-1.6c-1.4-1.1-2-2.9-1.3-5c0.9-2.7,2.7-5.3,5.8-4.8c0.3,0.1,0.5,0.3,0.5,0.5
			C89.3,272.4,90.4,273.8,90.9,275.4z M89.2,279.9c0.7-1,0.8-2.5,0.4-3.8c-0.4-1.1-1.3-2-2.5-2.3c-2.5-0.6-3.7,1.3-4.1,3.5
			c-0.2,1.3,0.2,2.3,1,3c0.6,0.4,1.4,0.6,2.3,0.6C87.4,281,88.5,280.7,89.2,279.9z"/>
		<path fill="#7CC194" d="M89.7,276.1c0.4,1.3,0.2,2.8-0.4,3.8c-0.7,0.7-1.8,1.1-3,1c-0.8,0-1.6-0.2-2.3-0.6c-0.8-0.7-1.2-1.8-1-3
			c0.4-2.2,1.6-4.1,4.1-3.5C88.4,274.1,89.2,275,89.7,276.1z M88.5,276.2c0.4-0.3-0.2-0.8-0.5-0.5c-0.5,0.4-0.8,1-1.2,1.5
			c-0.3-0.4-0.7-0.9-1-1.4c-0.2-0.4-0.9,0-0.6,0.4c0.3,0.5,0.7,1.1,1.1,1.6c-0.2,0.2-0.3,0.4-0.5,0.6c-0.2,0.3-0.6,0.4-0.8,0.7
			c-0.3,0.3,0.2,0.8,0.5,0.5l0.1-0.1l0,0c0.2-0.2,0.4-0.3,0.6-0.5c0.2-0.2,0.4-0.4,0.6-0.6c0.2,0.2,0.4,0.5,0.7,0.7l0.1,0.1l0.1,0
			c0.4,0.3,0.8-0.2,0.5-0.5c-0.3-0.3-0.6-0.6-0.8-0.9C87.6,277.2,88,276.6,88.5,276.2z"/>
		<path fill="#0A0503" d="M88,275.7c0.4-0.3,0.9,0.2,0.5,0.5c-0.5,0.4-0.9,1-1.3,1.5c0.3,0.3,0.5,0.6,0.8,0.9
			c0.3,0.3-0.2,0.8-0.5,0.5l-0.1,0l-0.1-0.1c-0.2-0.2-0.4-0.5-0.7-0.7c-0.2,0.2-0.4,0.5-0.6,0.6c-0.2,0.2-0.4,0.3-0.6,0.5l0,0
			l-0.1,0.1c-0.3,0.3-0.8-0.2-0.5-0.5c0.2-0.3,0.6-0.4,0.8-0.7c0.2-0.2,0.3-0.4,0.5-0.6c-0.4-0.5-0.8-1-1.1-1.6
			c-0.2-0.4,0.4-0.8,0.6-0.4c0.3,0.5,0.6,0.9,1,1.4C87.1,276.7,87.5,276.1,88,275.7z"/>
		<path fill="#7CC194" d="M97.2,265.9c-0.2,0-0.3,0-0.5,0c-3.5,0-6.9-1.5-10.1-2.5c-8.4-2.8-16.6-6-24.5-10
			c-5.2-2.6-10.2-5.4-15-8.6c-0.6-0.4-1.3-0.9-1.9-1.3c-1.9-1.3-3.8-2.7-5.6-4.1c-1.5-1.2-3.1-2.4-4.5-3.7c-1.2-1-2.4-2.1-3.6-3.2
			c-0.5-0.4-1-0.9-1.4-1.4c-0.4-0.4-0.8-0.8-1.2-1.2c-1.9,4.6-3.4,9.4-4.5,14.3c-1.5,6.3-2.3,12.8-2.4,19.3c0,0.5-0.1,1.2-0.1,1.9
			c0,0.4,0,0.8,0,1.2c0,0.9,0.1,1.8,0.4,2.3c0.1,0.1,0.1,0.2,0.2,0.3c0.7,0.9,1.7,1.7,2.6,2.4c2.3,1.8,4.8,3.4,7.3,4.8
			c5.2,2.8,10.6,5,16.2,6.7c6,1.9,12.1,3.4,18.2,4.9c6.1,1.5,12.4,2.9,18.7,2.9c0.4,0,0.8,0,1.2,0c1.9-0.1,3.8-0.2,5.6-0.5
			c0.5-0.1,1.1-0.2,1.7-0.3c0.3-0.1,0.6-0.2,0.8-0.3c0.2-0.1,0.4-0.2,0.5-0.4c0.4-0.5,0.5-1.2,0.6-2c0.1-0.8,0.1-1.6,0.1-2.3
			c0.1-1.6,0.3-3.1,0.4-4.7c0.4-4.9,0.9-9.8,1.3-14.7C97.7,265.8,97.4,265.9,97.2,265.9z M91.4,278.5c-0.2,1.4-0.8,2.4-1.7,3
			c-0.8,0.8-2,1.3-3.6,1.1c-1.5-0.1-2.7-0.7-3.5-1.6c-1.4-1.1-2-2.9-1.3-5c0.9-2.7,2.7-5.3,5.8-4.8c0.3,0.1,0.5,0.3,0.5,0.5
			c1.7,0.6,2.8,2,3.3,3.7C91.4,276.3,91.5,277.4,91.4,278.5z"/>
		<path fill="#7CC194" d="M98,304.5c-0.8-2.5-1.4-5-1.8-7.6c-0.1-0.5-0.2-1.1-0.3-1.6c-0.4,0.2-0.9,0.3-1.3,0.4
			c-2.5,0.7-5.2,0.8-7.7,0.8c-0.2,0-0.3,0-0.5,0c-7.4,0-14.7-1.5-21.8-3.3c-6.6-1.7-13.2-3.3-19.7-5.5c-6.2-2.1-12.4-4.6-17.9-8.1
			c-1.8-1.2-3.9-2.5-5.7-4c-0.4-0.3-0.7-0.6-1.1-0.9c-0.2,0.1-0.4,0.1-0.6,0.2c-0.2,0.4-0.4,0.7-0.6,1.1c-1.6,3.2-2.3,6.8-2.9,10.4
			c-0.6,3.8-1.1,7.6-1.6,11.4c0.2,0.3,0.3,0.7,0.3,1.1c0,0.3-0.1,0.6-0.1,0.9c-0.2,0.7-0.3,1.4-0.3,2c0,1,0.3,1.9,0.8,2.7
			c0.2,0.4,0.6,0.8,0.9,1.1c0.1,0.1,0.3,0.3,0.4,0.4c0.2,0.2,0.3,0.3,0.5,0.4c0.9,0.7,2.1,1.3,3.3,1.9c3.4,1.4,7.4,2.1,9.9,2.6
			c7.5,1.6,15.1,2,22.8,2c0.4,0,0.8,0,1.2,0c8.1,0,16.3-0.2,24.4-1c7.2-0.7,13.9-2.6,19.8-6.7C98.1,305,98,304.8,98,304.5z"/>
		<path d="M198.7,219.8c-0.1-0.2-0.2-0.5-0.3-0.7c-0.1-0.2-0.2-0.5-0.3-0.7c-0.1-0.2-0.2-0.5-0.3-0.7c-0.1-0.2-0.2-0.5-0.3-0.7
			c-0.1-0.2-0.2-0.5-0.2-0.7c-1.7-6.9-3.7-13.7-4.9-20.8c-0.6-3.9-1.8-7.7-1.3-11.7c0.1-0.7-0.4-1.3-0.8-1.9
			c-1.8-2.7-3.6-5.5-5.5-8.4c1.4,0.4,2.4,0.8,3.5,1c3.1,0.6,5.1-1,5.4-4.1c0.2-1.8-0.1-3.5-1-5.1c-1.4-2.6-2.4-5.3-3.3-8.1
			c-1.8-5.5-4.5-10.5-6.7-15.8c-0.1-0.3-0.3-0.6-0.4-1c0-0.1,0-0.1-0.1-0.1c-0.2-0.3-0.3-0.7-0.5-1c0,0,0-0.1,0-0.1
			c-0.4-0.8-0.7-1.5-1.1-2.2c-0.1-0.2-0.3-0.5-0.4-0.7c-0.1-0.2-0.2-0.3-0.3-0.5c-1.3-2.3-2.7-4.6-4.2-6.8c-1.5-2.2-3.5-3.8-5.1-5.8
			c-5.4-6.7-11.3-12.7-19.1-16.8c-0.8-0.4-1.5-0.9-2.5-0.6c-1.2,0.4-1.8,0-2.4-1.2c-8.3-16.3-17.2-32.4-25.2-48.9
			c-0.7-1.5-2.1-2.3-3.2-3.4c-1.4-1.4-2.7-3-3.6-4.9c-0.8-1.7-2-3.2-3.1-4.8c-0.9-1.3-2-1.7-3.5-1.1c-1.7,0.7-3.3,1.5-4.9,2.3
			c-1,0.5-1.2,1.2-1,2.2c0.5,2.5,1.2,5,2.1,7.4c0.7,1.7,1.4,3.6,1.4,5.2c0,2.5,1,4.3,2,6.2c3.8,7,7.7,13.9,11.6,20.9
			c4.2,7.6,8.4,15.3,12.6,22.9c0.1,0.2,0.2,0.4,0.4,0.6c0.2,0.4,0.3,0.8,0.3,1.3c-0.6,0-1.2,0-1.8,0c-3.3,0.1-6.5,0.6-9.5,2.2
			c-4.3,2.3-8.5,4.7-12.7,7.1c-1.8,1-3.5,2.1-4.6,3.9c-0.2,0.3-0.4,0.4-0.8,0.6c-4.6,1.4-8.1,4.4-11,8.1c-0.8,1-1.8,1.6-3,1.9
			c-3.8,0.8-6.5,3.2-8.6,6.4c-1.7,2.5-3.4,4.9-5.8,6.9c-2.6,2.2-4.9,4.7-6.9,7.4c-0.8,1.1-1.6,2.2-2.6,3.2c-2,2.1-3.8,4.5-5.3,7
			c0,0,0,0,0,0c-1.7,2.5-3.4,5-5.1,7.6c-0.9,1.4-1.8,2.9-2.6,4.3c-0.6,1.1-1.5,1.9-2.1,2.9c-0.2,0.3-0.5,0.7-0.7,1
			c-0.2,0.1-0.4,0.3-0.6,0.6l-1.3,2.1c-1.8,2.7-3.5,5.5-5.1,8.4l-0.6,1c-2,3.2-4.3,6.5-5.3,10.2l0,0.1c-2.4,4.7-3.9,10.1-5.3,15.3
			c-0.2,0.6-0.3,1.3-0.5,1.9c-0.1,0.1-0.1,0.2-0.1,0.3c0,0-0.1,0-0.1-0.1c-0.5-0.3-1.1-0.5-1.6-0.5c-0.8,0-1.7,0.4-2.3,1.3
			c-0.1,0.1-0.1,0.2-0.1,0.2c-0.2,0.2-0.5,0.5-0.6,0.9c-6.1,13.2-9.5,27.4-9.7,42c0,0.3,0,0.7,0,1c0,1.3,0.1,2.6,0.3,3.8
			c-3.3,4.2-4.9,9.1-5.9,14.2c-1.1,6.2-1.8,12.4-2.6,18.6c0,0.1,0,0.3,0,0.4c0,0.7,0.3,1.4,0.7,1.9c0.4,1.6,1.1,3.2,2.2,4.4
			c3,3.4,7.7,4.8,11.7,6.1c8.9,2.9,18.5,3.8,27.8,3.9c1.3,0,2.6,0,3.9,0c8.3,0,16.7-0.5,24.9-1.2c9.1-0.8,17.3-3.9,24.4-9.6
			c0.7-0.5,1-1.2,1-1.8c0-0.9-0.5-1.6-1.2-2.2c-1.4-4.2-2.3-8.4-2.7-12.8l0,0c0-0.1,0-0.3-0.1-0.4c0.3-0.7,0.5-1.4,0.6-2.3
			c1-7.6,1.4-15.3,2.1-22.9l0.5-5.6c0-0.1,0.6-0.2,0.6-0.3c0-0.4,0.3-0.8,0.3-1.2v0v0.4l0,0v-0.4l-0.2,0c-0.1-0.6-0.8-1.1-0.8-1.6v0
			c0-0.2-0.6-0.4-0.7-0.6c1.8-6.7,4.3-13.2,7.6-19.3c2.8-4.1,6.2-7.1,11-9.1c7.6-3.1,14-8.1,18.2-15.4c2-3.5,4.1-6.7,6.7-9.7
			c1.8-2.1,3.8-3.7,6.3-4.7c1.7-0.7,3.5-1.4,5.3-1.6c4.3-0.4,7.1-2.7,8.4-6.8c0.7-2.2,1.5-4.4,2.3-6.8c1.3,1.8,2.1,3.7,2.9,5.6
			c0.7,1.7,1.1,3.6,2.3,5c1,1.2,1.9,2.4,2.9,3.5c0.9,1.1,1.9,2.3,2.8,3.4c2.8,3.4,5.6,6.8,8.5,10.2c1.6,2,3.3,3.9,4.7,6.1
			c0.9,1.5,1.6,3.1,2.5,4.5c0.4,0.6,1.3,1.2,2,1.4c0.1,0,0.2,0,0.3,0.1c0.1,0,0.2,0,0.2,0c0,0,0,0,0,0c0,0,0.1,0,0.1,0
			c0.1,0,0.2,0,0.2-0.1c0,0,0.1,0,0.1-0.1c0.4-0.4,0.6-0.8,0.6-1.1C199.2,220.9,198.9,220.4,198.7,219.8z M152.8,111.3
			c6,4.3,11.4,9.2,15.8,15.1c1.6,2.2,3.3,4.3,4.8,6.6c5.6,8.3,9.6,17.4,12.8,26.9c0.7,2,1.3,3.9,1.9,5.9c0.3,0.9,0.1,1.7-0.7,2.3
			c-0.7,0.6-1.3,0.2-2-0.1c-0.3-0.1-0.6-0.2-0.7-0.4c-2.5-2.4-5.9-3.9-7.9-6.8c-0.5-0.7-0.6-1.4-0.5-2.2c0.3-2.2-0.2-4.4-1.1-6.4
			c-0.7-1.6-2.3-2.2-3.9-2.8c-0.8-0.3-1.3-0.6-1.6-1.4c-0.3-1-1.3-1.4-2-2.1c-2.1-1.9-1.4-4.4-1.2-6.8c0.1-1,0.5-1.9,0.8-2.8
			c0.1-0.5,0.4-1-0.1-1.3c-0.4-0.3-0.9-0.5-1.5-0.3c-0.9,0.3-1.6,0.8-2.4,2c-4.9-8.8-9.3-17.6-13.8-26.5
			C151.1,110.2,152,110.7,152.8,111.3z M107.4,52.4c-0.9,0.5-1.2,0.2-1.4-0.6c-0.3-1.3-0.8-2.6-1-3.9c-0.3-1.4,0-2.7,1.4-3.5
			c1.4-0.8,3-0.7,4.2,0.4c1.5,1.3,2.2,3.2,3.2,5C111.4,50.4,109.4,51.3,107.4,52.4z M115.4,65c-0.2,1-0.4,0.5-0.6,0.7
			c-0.1,0.1-0.2,0.3-0.3,0.4c-0.2,0.2-0.4,0.5-0.5,0.8c-0.2,0.3-0.3,0.6-0.4,0.9c-0.9-1.4-1.9-2.6-2.5-4c-0.5-1,0.3-1.8,1.2-2.2
			c1.1-0.5,2.3-0.7,3.4-1.1c0.4-0.1,0.9-0.3,0.8-0.9c-0.1-0.5-0.4-0.6-0.8-0.6c-0.1,0-0.2,0-0.3,0c-1.6,0.2-3.2,0.6-4.7,1.4
			c-0.1,0-0.1,0.1-0.2,0.1c-0.1,0.1-0.3,0.1-0.4,0.1c-0.7,0.1-0.9-0.5-1.2-1.1c-0.3-0.8-0.7-1.6,0.6-1.9c1.2-0.3,2.3-0.6,3.5-0.9
			c0.6-0.2,1.1-0.4,1-1.2c0-0.2-0.1-0.3-0.1-0.4c0-0.1-0.1-0.1-0.1-0.1c-0.3-0.3-0.7-0.3-1.1-0.2c-1.4,0.1-2.7,0.7-4.1,1
			c1.8-2.2,4-3.6,6.8-4.2c0.4-0.1,0.6,0,0.8,0.2c0,0,0.1,0,0.1,0.1c0,0,0.1,0.1,0.1,0.1c0,0,0,0.1,0.1,0.1c0.1,0.1,0.2,0.2,0.2,0.4
			c0,0.1,0.1,0.1,0.1,0.2c0,0,0,0.1,0.1,0.1c0.4,0.7,0,1-0.5,1.3c-0.5,0.3-1,0.7-0.6,1.3c0.4,0.6,0.9,0.1,1.3-0.1
			c0.8-0.4,1.5-0.5,2.4-0.1c1.4,0.7,1.5,1.8,0.2,2.9c-0.5,0.4-1.3,0.7-0.9,1.5c0.4,0.7,1.2,0.2,1.8,0c0.1,0,0.1,0,0.2-0.1
			c0.1,0,0.1-0.1,0.2-0.1c0.1,0,0.2,0,0.3,0c0,0,0,0,0,0c0.1,0,0.1,0,0.2,0.1c0.1,0.1,0.1,0.2,0.1,0.4c0.2,1.8,1.5,3.2,2.1,5.1
			c-2.1-0.7-4-0.9-5.5-0.6c-0.2,0-0.4,0.1-0.7,0.2c-0.2,0.1-0.4,0.1-0.6,0.2c0,0,0-0.2,0-0.2C116.1,64.7,115.7,65,115.4,65L115.4,65
			z M115.9,74.5c-0.5-0.9-0.5-1.6-0.1-2.4c0.4-0.9,0.9-1.7,1-2.7c0.2-1.6,1.2-2.1,2.6-2.1c1.9,0,3.3,0.9,4.4,2.3
			c2.3,2.8,4.2,5.7,5.8,8.9c2.4,5,5.1,9.9,7.6,14.8c3.3,6.4,7,12.6,10.4,18.9c3.2,6.1,6.1,12.4,9.2,18.6c1.7,3.4,3.7,6.8,5.5,10.2
			c1.4,2.5,2.2,5.3,4.1,7.6c0.4,0.5,0,0.7-0.4,0.8c-3.1,0.6-6.1,1.5-8.8,3.3c-0.3,0.2-0.5,0.2-0.7,0.1c0,0-0.1-0.1-0.1-0.1
			c-0.1-0.2-0.2-0.5-0.3-0.7c-3.2-6-6.3-12.1-9.5-18.1c-0.4-0.7-0.7-1.4-1.1-2.1c-4-7.7-8-15.5-12-23.2
			C127.7,97.1,121.8,85.8,115.9,74.5z M148.8,149c1.3-0.6,2-0.9,2.5-0.8c0.1,0,0.2,0,0.2,0.1c0.1,0,0.1,0.1,0.2,0.1
			c0.4,0.3,0.7,1,1.3,2.2c0.7,1.4,0.7,1.8-1,2.2c-2.8,0.6-5.4,1.7-7.7,3.4C144.1,153.1,145.9,150.4,148.8,149z M144.1,145.2
			c-0.1-0.1-0.1-0.2-0.2-0.2c-0.2-0.2-0.3-0.5-0.5-0.8c-0.5-0.9,0.3-1.1,0.7-1.5c0.6-0.6,1.4-1.1,2-1.7c0,0,0.1-0.1,0.1-0.1
			c0.1-0.1,0.2-0.2,0.2-0.2c0.1-0.1,0.2-0.1,0.2-0.1c0.3-0.1,0.5-0.4,0.7-0.2c0,0,0.1-0.2,0.1-0.2h0c0,0,0.1,0.4,0.1,0.5
			c0.1,0.1,0.1,0.4,0.2,0.5c0.6,1.1,1.7,2.7,1.1,3.4c-0.7,0.8-2.4,1-3.7,1.2C144.8,145.8,144.4,145.6,144.1,145.2z M121.3,115.9
			c1.7-1.1,3.7-1.2,5.8-0.9c-5.1,3.2-9.6,7.3-15.5,8.9C114.5,120.8,117.7,118.1,121.3,115.9z M16.4,306.1c-0.1-0.1-0.3-0.3-0.4-0.4
			c-0.4-0.4-0.7-0.7-0.9-1.1c-0.5-0.8-0.8-1.7-0.8-2.7c0-0.6,0.1-1.3,0.3-2c0.1-0.3,0.1-0.6,0.1-0.9c0-0.4-0.1-0.8-0.3-1.1
			c0.5-3.8,1-7.6,1.6-11.4c0.5-3.5,1.3-7.2,2.9-10.4c0.2-0.4,0.4-0.8,0.6-1.1c0.2,0,0.4-0.1,0.6-0.2c0.3,0.3,0.7,0.6,1.1,0.9
			c1.8,1.5,3.9,2.8,5.7,4c5.6,3.5,11.7,6,17.9,8.1c6.4,2.2,13.1,3.8,19.7,5.5c7.1,1.8,14.4,3.3,21.8,3.3c0.2,0,0.3,0,0.5,0
			c2.5,0,5.3-0.1,7.7-0.8c0.4-0.1,0.9-0.2,1.3-0.4c0.1,0.5,0.2,1.1,0.3,1.6c0.4,2.6,1,5.1,1.8,7.6c0.1,0.3,0.2,0.6,0.3,0.8
			c-5.8,4.1-12.6,6-19.8,6.6c-8.1,0.7-16.2,1-24.4,1c-0.4,0-0.8,0-1.2,0c-7.7,0-15.3-0.4-22.8-2c-2.5-0.6-6.6-1.3-9.9-2.7
			c-1.2-0.5-2.4-1.1-3.3-1.8C16.7,306.3,16.5,306.2,16.4,306.1z M96.3,285.2c-0.1,0.7-0.1,1.5-0.1,2.3c-0.1,0.8-0.3,1.5-0.6,2
			c-0.1,0.2-0.3,0.3-0.5,0.4c-0.2,0.1-0.5,0.2-0.8,0.3c-0.6,0.1-1.3,0.2-1.7,0.3c-1.8,0.4-3.7,0.5-5.6,0.5c-0.4,0-0.8,0-1.2,0
			c-6.3,0-12.6-1.4-18.7-2.9c-6.1-1.5-12.2-3.1-18.2-4.9c-5.6-1.8-11.1-3.9-16.2-6.7c-2.6-1.4-5-3-7.3-4.8c-0.9-0.7-1.9-1.5-2.6-2.4
			c-0.1-0.1-0.1-0.2-0.2-0.3c-0.3-0.5-0.4-1.3-0.4-2.3c0-0.4,0-0.8,0-1.2c0-0.7,0.1-1.4,0.1-1.9c0.1-6.5,0.9-13,2.4-19.3
			c1.1-4.9,2.6-9.6,4.5-14.3c0.4,0.4,0.8,0.8,1.2,1.2c0.5,0.5,0.9,0.9,1.4,1.4c1.2,1.1,2.4,2.2,3.6,3.2c1.5,1.3,3,2.5,4.5,3.7
			c1.8,1.4,3.7,2.8,5.6,4.1c0.6,0.4,1.3,0.9,1.9,1.3c4.8,3.2,9.8,6,15,8.6c7.9,3.9,16.1,7.2,24.5,10c3.1,1,6.6,2.5,10.1,2.5
			c0.2,0,0.3,0,0.5,0c0.3,0,0.6,0,0.8-0.1c-0.4,4.9-0.9,9.8-1.3,14.7C96.5,282.1,96.4,283.7,96.3,285.2z M163.6,191.3
			c-0.1,0.3-0.3,0.6-0.5,0.8c-0.6,0.9-1.3,1.4-2.2,1.7c-0.2,0.1-0.4,0.1-0.6,0.1c-0.3,0-0.5,0-0.8,0c0,0-0.1,0-0.1,0
			c-0.3,0-0.6,0-0.9-0.1c-0.1,0-0.1,0-0.2,0c1.1-2.6,3.9-2.9,6-4.6C164.1,190,163.9,190.7,163.6,191.3z M168.3,176.8
			c-0.2,4-8.2,12.8-12.2,13.4c-1,0.2-2,0.2-2.9-0.2c-0.5-0.2-1.2-0.5-1.5,0.1c-0.4,0.6,0.3,1,0.8,1.4c0.1,0.1,0.2,0.2,0.4,0.3
			c0.8,0.5,1,0.8,0,1.4c-1.7,0.9-3.2,2.1-4.5,3.5c-1.6,1.5-3.2,3.1-4.8,4.6c-0.3-0.4,0.1-0.7,0.1-1.1c0.6-2.4,1.3-4.8,1.9-7.3
			c0.2-0.8,0.5-1.9-0.4-2.3c-0.7-0.3-1.1,0-1.5,0.5c-0.1,0.1-0.1,0.2-0.2,0.2c-0.2,0.2-0.3,0.4-0.4,0.6c-0.8,1.4-1.2,3-1.6,4.6
			c-1.2,4.8-2.5,9.6-5.2,13.7c-6.1,9.4-14.7,15.3-25.6,18c-2.7,0.7-5.5,0.9-8.3,1.2c-0.8,0.1-1.4,0.4-1.6,1.1
			c-0.2,0.7-0.1,1.4,0.4,2c0.6,0.6,1.4,0.7,2.1,0.6c1.6-0.1,3.2-0.2,5-0.3c-1.7,3.2-3.1,6.3-4.3,9.5c-0.1,0.1-0.1,0.3-0.2,0.4
			c0,0.1-0.1,0.4-0.1,0.5c-0.1,0.1-0.2,0.6-0.2,0.6h0.1c-0.1,0-0.1,0-0.2,0.1c-0.1,0.2-0.2,0.3-0.3,0.5c-1.5,3.8-2.8,7.6-3.9,11.5
			c-0.1,0-0.1,0.1-0.2,0.1c-0.5,0.5-0.9,1.2-0.9,2.1c0,0.2,0,0.4,0.1,0.6c0,0.2,0.1,0.4,0.2,0.6c0,0.2-0.1,0.4-0.1,0.6
			c0,0-0.1,0-0.1,0.1c0,0-0.1,0-0.1,0c-0.1,0-0.1,0-0.2,0c-0.1,0-0.1,0-0.2,0c0,0-0.1,0-0.1,0c-0.1,0-0.2,0-0.3,0
			c-0.2,0-0.4,0-0.7,0c-0.2,0-0.3,0-0.4,0c-0.2,0-0.4,0-0.6,0c-0.3,0-0.6-0.1-0.6-0.1v0c-1-0.3-3-0.9-4.6-1.4c-3.1-1-6.1-2-9.1-3.1
			c-6.3-2.3-12.5-5.1-18.5-8.1c-1.7-0.9-3.3-1.8-5-2.7c-0.7-0.4-1.5-0.8-2.2-1.3c-3.4-2-6.6-4.1-9.8-6.4c-2.6-1.9-5.2-3.9-7.6-6.1
			c-0.5-0.5-2.2-1.7-3.7-3.1c-0.5-0.4-0.9-0.9-1.3-1.3c0.1-0.5,0.3-1,0.4-1.6c0.3-1.2,0.7-2.4,1-3.7c0.1-0.3,0.2-0.5,0.2-0.7
			c1.5-5.7,3-11.6,5.7-16.6c0.2-0.4,0.3-0.7,0.2-1.1c1.1-3.3,3.3-6.3,5.1-9.2c2.1-3.5,4.3-7.1,6.4-10.6l0.1-0.1
			c0.4-0.1,0.7-0.4,1-0.9c0.5-1.1,1.5-1.9,2.1-3c0.8-1.4,1.5-2.8,2.4-4.2c2-3.3,4.3-6.4,6.4-9.6c0.1-0.2,0.2-0.4,0.3-0.6
			c2-2.5,4-5,6.1-7.4c3.6-4.2,6.9-8.8,10.4-13.1c2.1-2.6,4.3-5,7.2-7.1c-0.3,2.7-1.6,4.7-2.9,6.8c-1.3,2.1-3.3,3.6-4.5,5.8
			c-0.3,0.6-1.2,1.2-0.6,2c0.7,0.8,1.6,0.5,2.5,0.3c0.8-0.2,1.5-0.7,2.1-1.2c1-1,1.7-2.1,2.4-3.3c2.9-5.2,6.4-9.9,10.3-14.4
			c1.8-2.1,3.8-3.6,5.9-4.5c0.3-0.1,0.5-0.2,0.8-0.3c0,0,0,0,0,0c0.3-0.1,0.5-0.2,0.8-0.3c2.7-0.9,5.6-1,8.8-0.5
			c0.2,0,0.4,0.1,0.7,0.1c0.3,0.1,0.7,0.2,1,0.2c0.4,0.1,0.9,0.1,1.4,0.1c1.5-0.2,2-0.7,1.2-1.9c-1.2-1.7-0.1-2,1-2.6
			c1.1-0.6,2.2-1.3,3.3-1.9c2.8-1.5,5.4-3.4,8.3-4.5c0.4-0.1,0.7-0.4,1.1-0.7c0.1-0.1,0.2-0.2,0.4-0.3c0.7-0.5,1.4-1,2.2-0.4
			c1.1,0.7,1.6,2.3,2.3,3.5c2.4,4.2,4.9,8.3,7.1,12.5c0.1,0.2,0.2,0.4,0.3,0.6c1.7,3.4,1,3.4-1.5,5.4c-3.7,2.9-7.8,5.2-12.2,7
			c-0.2,0.1-0.5,0.2-0.7,0.3c-0.5,0.2-1,0.3-1.5,0.5c-1.4,0.4-2.8,0.6-4.2,0.5c-1.5,0-2.7-0.3-2.8-2.3c-0.1-1.5-0.7-2.9-1.4-4.2
			c-0.5-0.9-1-1.7-1.9-2.2c-0.1-0.1-0.2-0.1-0.4-0.2c-0.1-0.1-0.2-0.1-0.4-0.1c-0.1,0-0.2,0-0.2,0.1c0,0-0.1,0-0.1,0
			c-0.4,0.2-0.3,0.6-0.3,1c0.1,0.9,0.4,1.8,0.7,2.7c0.7,2.3,1.4,4.6,2.1,6.9c0.1,0.3,0.2,0.5,0,0.7c-0.3,0.2-0.5,0.1-0.7-0.1
			c-0.4-0.4-0.8-0.8-1.1-1.2c-1.7-1.8-3.1-3.8-4.9-5.5c-0.4-0.3-0.6-0.7-1.2-0.8c-0.6-0.1-1.4-0.4-1.8,0.1c-0.5,0.6-0.1,1.2,0.2,1.8
			c0.5,1,1.5,1.6,2.4,2.2c1.4,0.8,2.5,1.9,3.1,3.3c1.7,3.6,3.9,6.8,6.3,9.9c1.4,1.9,2,4,1.6,6.5c-1.5-0.9-2.8-1.9-4.2-2.7
			c-3.1-1.8-5.6-4.3-7.4-7.5c-1.4-2.6-3.3-5-5.4-7.2c-0.7-0.7-1.5-1.3-2.5-1.3c-0.4,0-0.9-0.1-1.1,0.5c-0.2,0.5,0,0.9,0.4,1.1
			c2,1.4,3.2,3.4,4.8,5.1c0.9,0.9,1.4,1.9,2,3.3c-1.6-0.9-2.8-1.7-4.1-2.4c-0.1-0.1-0.2-0.1-0.3-0.1c-0.1-0.1-0.3-0.1-0.4-0.1
			c-0.2-0.1-0.4-0.1-0.6,0c-0.1,0-0.2,0-0.2,0.1c-0.2,0.1-0.5,0.3-0.7,0.5c-0.7,0.8-0.2,1.5,0.4,2c0.6,0.5,1.3,0.9,2,1.4
			c4.8,3,9.7,6,13.9,9.8c0.3,0.2,0.5,0.5,0.8,0.7c0.1,0.1,0.2,0.2,0.3,0.3c0.2,0.2,0.4,0.3,0.5,0.5c0.2,0.2,0.3,0.4,0.5,0.6
			c0.2,0.2,0.3,0.4,0.5,0.6c0.3,0.4,0.6,0.8,0.8,1.2c0.1,0.2,0.3,0.5,0.4,0.7c0,0,0,0,0,0.1c0,0,0,0,0,0c0,0-0.1,0-0.1,0
			c-0.1,0-0.1,0-0.1,0c-0.4,0.1-0.7,0-1.1-0.1c-0.2,0-0.4-0.1-0.6-0.1c-2.1-0.3-4.2-0.7-6.3-0.8c-1.8-0.1-3.6,0.3-5.3,0.8
			c-0.4,0.1-0.8,0.2-1.2,0.4c-0.4,0.1-0.8,0.4-1.2,0.6c-0.4,0.1-0.8,0.6-1.2,0.6c0,0,0,0,0,0c-0.4,0-0.8,0.2-1.2,0.3
			c-4.3,1.7-7.8,4.4-11.1,7.4c-0.5,0.4-0.9,0.9-1.4,1.3c-0.3,0.3-0.6,0.7-0.4,1.1c0,0,0,0.1,0.1,0.1c0,0,0,0.1,0.1,0.1
			c0,0,0,0,0.1,0.1c0,0,0.1,0,0.1,0.1c0,0,0.1,0,0.1,0c0.1,0,0.1,0,0.2,0c0.2,0,0.5-0.1,0.8-0.1c0.8-0.1,1.5-0.5,2.2-1
			c0.6-0.4,1.2-0.8,1.8-1.2c0.6-0.4,1.3-0.8,1.9-1.1c0.3-0.2,0.6-0.4,1-0.5c1-0.5,1.9-1.1,2.9-1.6c0.5-0.3,1-0.5,1.5-0.8
			c0.5-0.2,1-0.5,1.6-0.7c0.3-0.1,0.5-0.2,0.8-0.3c0.5-0.2,1.1-0.5,1.6-0.6c2.5-0.9,5-1.5,7.7-1.5c0.7,0,1.5-0.1,2.2-0.1
			c0,0,0.1,0,0.1,0c0.4,0,0.5,0.2,0.9,0.2c0,0-0.3,0.1-0.3,0.2V174c0,0,0.5,0,0.5,0c0.1,0,0.2,0.2,0.2,0.2c0.5,0,0.9,0.1,1.4,0.1
			c0.4,0,0.8,0.1,1.2,0.1c0.2,0,0.4,0,0.7,0c0.6,0,1.3,0,1.9,0.1c0.5,0,1.1-0.1,1.6-0.2c0.5-0.1,0.9-0.4,1.4-0.4h0
			c0.4,0,0.9-0.2,1.3-0.4c0,0,0,0.1,0,0.1c0.4-0.2,0.9-0.4,1.3-0.7c2.3-1.4,4.1-3.3,5.9-5.1c4.6-4.7,9.8-8.5,16.3-10.1
			c4.3-1.1,6.5-1,8.5,0.7c0.1,0.1,0.3,0.2,0.4,0.3c0.1,0.1,0.2,0.2,0.4,0.4c0.2,0.3,0.5,0.6,0.8,0.9c0.4,0.5,0.8,1,1.2,1.6
			C168.1,166.3,168.5,171.4,168.3,176.8z M128.8,150.1C128.9,150.1,128.9,150.1,128.8,150.1c0.2,0.2,0.2,0.4,0.2,0.7
			c0,0.8,0.1,1.6,0.9,2.1c0.5,0.3,0.3,0.7,0.1,1.1c-1.2,1.7-2.7,3.2-3.7,5.1c-0.2,0.3-0.4,0.4-0.6,0.4c-0.5,0-0.6-0.4-0.7-0.6
			c-0.1-0.4-0.3-0.8-0.4-1.1c-0.1-0.3-0.3-0.7-0.5-1c-0.1-0.2-0.2-0.3-0.3-0.5c-0.1-0.2-0.2-0.3-0.3-0.5c-0.1-0.2-0.2-0.4-0.4-0.6
			c-0.1-0.1-0.2-0.3-0.2-0.4c-0.1-0.2-0.2-0.3-0.2-0.5c-0.1-0.2-0.1-0.3,0-0.5c0-0.1,0-0.1,0.1-0.2c0.1-0.1,0.2-0.2,0.3-0.4
			c0.1-0.1,0.1-0.1,0.2-0.1c1.5-1.2,3.1-2.2,4.9-2.9C128.4,150.1,128.7,150,128.8,150.1z M131,158.6c2.4-2.6,5.5-4.1,9-4.5
			c0.7-0.1,1.2-0.1,1,0.9c-0.4,1.4-0.4,2.9-0.5,4.3c0,0.5-0.4,0.7-0.8,0.9c-2.4,1.2-4.3,2.9-6.1,4.9c-1.1,1.2-2.5,2-3.6,3.1
			c-0.6,0.6-1,0.6-1.2,0.3c0-0.1-0.1-0.1-0.1-0.2c0-0.1-0.1-0.2-0.1-0.3c0-0.1-0.1-0.3-0.1-0.4C127.9,164.2,128.6,161.2,131,158.6z
			 M133,148.8c2.1-0.5,4.1-1.3,5.9-2.4c0.4-0.3,0.7-0.3,0.9-0.2c0.1,0,0.1,0.1,0.2,0.1c0,0,0.1,0.1,0.1,0.1c0.1,0.1,0.1,0.2,0.2,0.2
			c0,0,0.1,0.1,0.1,0.1c0.9,1.2,0.7,2.6,0.5,4c-2.4-0.6-4.6,0.1-6.8,0.9c-0.8,0.3-1.6,0.9-2.1-0.3
			C131.4,150.1,131.8,149.1,133,148.8z M168.6,159.3c-1.4-3.3-3.8-5.4-7.5-5.9c0.3-0.2,0.6-0.4,0.8-0.4c0,0,0,0,0,0
			c0,0,0.1-0.1,0.1-0.1c0.2-0.1,0.5-0.3,0.7-0.4c0.3-0.1,0.6-0.3,0.9-0.4c1.5-0.5,3-0.9,4.5-0.9c0.3,0,0.6,0,0.8,0
			c0.3,0,0.6,0,0.8,0.1c2.1,0.3,3.1,2.4,3.5,4.2c1.1,4.3,0.6,8.5-1.7,12.7c-0.6-2-1.1-3.7-1.7-5.5
			C169.5,161.6,169,160.4,168.6,159.3z M174.5,177.9c-0.1,0-0.1,0-0.2,0.1c-0.5,0.2-0.8,0.5-0.8,1.1c0,1.6,0.1,3.1,0.1,4.7
			c0,0.2,0,0.5-0.3,0.8c-0.9-2-1.9-4-2.6-6c-0.4-1.2-0.3-2.7,0.5-3.6c2.1-2.4,2.8-5.4,4-8.1c0.2-0.5,0.5-1.1,0.7-1.8
			c3.4,4.8,5.9,9.9,8.2,15.1c-0.9-0.8-1.8-1.5-2.7-2.3c-0.4-0.3-0.9-0.7-1.5-0.4c-0.6,0.3-0.6,0.9-0.5,1.5c0.2,1.7,0.4,3.4,0.2,5.2
			c-0.8-1.1-1.8-2.1-2.5-3.3c-0.6-1-1.7-1.5-1.9-2.7c0-0.1-0.1-0.2-0.2-0.3c-0.1,0-0.1-0.1-0.2-0.1
			C174.7,177.9,174.6,177.9,174.5,177.9z M187.6,201.1c-0.9,1-2.3,0.3-2.8-0.1c-0.6-0.4-1.1-0.8-1.7-1.3c0,0-0.1,0-0.1-0.1
			c-0.4-0.3-0.7-0.5-1-0.9c-0.1-0.1-0.2-0.2-0.3-0.3c-0.3-0.3-0.6-0.7-0.8-1.1c-0.1-0.1-0.2-0.3-0.2-0.4c-0.2-0.3-0.4-0.6-0.5-0.9
			c0-0.1-0.1-0.1-0.1-0.2c-0.1-0.1-0.1-0.2-0.2-0.3c-0.1-0.1-0.1-0.2-0.2-0.3c-0.1-0.2-0.3-0.4-0.5-0.7c0,0,0,0,0,0
			c-0.2-0.2-0.4-0.5-0.5-0.7c0,0,0-0.1-0.1-0.1c-0.2-0.2-0.4-0.5-0.6-0.7c0,0,0-0.1-0.1-0.1c-0.1-0.2-0.3-0.3-0.5-0.5
			c-0.1-0.1-0.2-0.2-0.3-0.3c-0.4-0.4-0.8-0.8-1.2-1.1c-0.4-0.3-0.6-0.7-0.7-1.1c-0.7-2.7-0.2-5.4-0.1-8.2c1.2,2.1,3.3,3.5,4.3,5.7
			c0.2,0.5,0.7,0.7,1.2,0.6c0.6-0.2,0.8-0.7,0.8-1.3c0-2,0-3.9-0.3-5.9c0-0.2-0.1-0.5-0.1-0.7c0,0,0-0.1,0-0.1c0,0,0,0,0,0
			c0,0,0,0,0-0.1c0,0,0,0,0,0c0,0,0,0,0.1-0.1c0,0,0,0,0,0c0,0,0,0,0.1,0c0.1,0,0.1-0.1,0.2-0.1c0.3,0,0.6,0.3,0.8,0.5
			c1.2,1,2.4,2.1,3.6,3.1c1.2,1.1,1.5,2.5,1.8,4.1c0.6,3.6,1.2,7.1,2.4,10.5c0,0.1,0,0.1,0.1,0.2c0,0,0,0.1,0,0.1
			c0,0.1,0.1,0.3,0.1,0.4c0,0.1,0,0.2,0.1,0.3c0,0.2,0.1,0.3,0.1,0.5c0,0.2,0.1,0.4,0.1,0.5c0,0.2,0.1,0.5,0.1,0.7
			C189.4,199.9,188.6,200,187.6,201.1z"/>
	</g>
</g>
</svg>
