<?xml version="1.0" encoding="utf-8"?>
<!-- Generator: Adobe Illustrator 18.1.0, SVG Export Plug-In . SVG Version: 6.00 Build 0)  -->
<svg version="1.1" xmlns="http://www.w3.org/2000/svg" xmlns:xlink="http://www.w3.org/1999/xlink" x="0px" y="0px"
	 viewBox="0 0 360 360" enable-background="new 0 0 360 360" xml:space="preserve">
<g id="Layer_1">
</g>
<g id="Layer_3">
</g>
<g id="Layer_2">
	<g>
		<path fill="#525252" d="M271.3,321.3L271.3,321.3c0.2,0.2,0.3,0.3,0.5,0.3c0,0,0,0,0,0c0,0,0,0,0,0c0.1,0,0.2,0,0.3-0.1
			c0,0,0,0,0,0l0,0l0,0l0,0l0,0l0.2-0.1C271.9,321.4,271.6,321.3,271.3,321.3"/>
		<polyline fill="#FDFDFD" points="271.3,321.1 271.1,321.2 271.3,321.3 271.3,321.3 271.3,321.1 		"/>
		<path fill="#525252" d="M270.8,321.2C270.8,321.2,270.8,321.2,270.8,321.2c-1.5,0-2.8,0.4-4.1,1c0,0,0,0,0,0c0,0,0,0,0,0
			c0,0,0,0,0,0c0,0,0,0,0,0c0,0-0.1,0-0.1,0c0,0,0,0,0,0c0.4,0.2,0.6,0.4,0.6,1c0,0,0,0.1,0,0.1c1.8-0.4,3.4-0.9,4.9-1.9l0,0
			c0,0,0,0,0,0c-0.1,0.1-0.2,0.1-0.3,0.1c0,0,0,0,0,0l0,0c0,0,0,0,0,0c-0.2,0-0.4-0.1-0.5-0.3v0l-0.1,0h0l0,0c0,0,0,0,0,0
			C271,321.2,270.9,321.2,270.8,321.2C270.8,321.2,270.8,321.2,270.8,321.2"/>
		<path fill="#FEFEFE" d="M268.8,320.7C268.8,320.7,268.8,320.7,268.8,320.7c-1,0-2,0.4-2.8,1.4c0,0,0,0,0,0c0,0,0,0,0,0
			c0.2,0,0.4,0.1,0.5,0.2l0,0l0,0c0,0,0,0,0,0c0,0,0.1,0,0.1,0c0,0,0,0,0,0c0,0,0,0,0,0c0,0,0,0,0,0c0,0,0,0,0,0
			c1.3-0.5,2.6-1,4.1-1c0,0,0,0,0,0l0,0c0,0,0,0,0,0c0.1,0,0.2,0,0.3,0c0,0,0,0,0,0c0,0,0,0,0,0
			C270.3,320.9,269.5,320.7,268.8,320.7C268.8,320.7,268.8,320.7,268.8,320.7L268.8,320.7"/>
		<path fill="#FEFEFE" d="M266,322.1L266,322.1c-0.1,0.2-0.3,0.4-0.4,0.6l0,0c0.3-0.1,0.6-0.3,0.9-0.4
			C266.4,322.2,266.2,322.1,266,322.1L266,322.1L266,322.1"/>
		<path fill="#525252" d="M266.5,322.3L266.5,322.3c-0.3,0.1-0.6,0.3-0.9,0.4c0.5,0.2,1,0.5,1.5,0.7l0,0l0,0c0,0,0-0.1,0-0.1
			C267.2,322.7,266.9,322.4,266.5,322.3L266.5,322.3L266.5,322.3"/>
		<path fill="#B75143" d="M260.7,110.6C260.7,110.6,260.7,110.6,260.7,110.6c-0.2,0-0.5,0.1-0.8,0.2c0,0,0,0,0,0c0,0,0,0,0,0
			c-6.2,2.3-12.7,3.1-19.2,4.3c-21.6,4-43.4,5.5-65.2,7.5c-2.3,0.2-3,0.9-3,3c-0.2,9.3-0.5,18.6-0.9,27.9c0,0,0,0.1,0,0.1
			c-0.1,1.8,0.5,2.4,1.9,2.4c0,0,0,0,0,0c0,0,0,0,0,0c0.2,0,0.4,0,0.7,0c0,0,0,0,0.1,0c5.4-0.6,10.8-1,16.2-1.5l0,0
			c0.5-0.2,0.9-0.2,1.4-0.2l0,0l0,0c7.8-1.2,15.5-2.5,23.3-3.6c14.5-2,29.1-4,43.7-5.9l0,0l0,0l0,0l0,0l0,0l0,0l0,0l0,0
			c3,0,3.7-1.6,3.7-4.1c0-0.2,0-0.4,0-0.6c-0.3-7.9-1-15.8-1-23.7c0-1.5,0-3,0.1-4.5l0,0c0,0,0,0,0-0.1
			C261.5,111,261.3,110.6,260.7,110.6C260.7,110.6,260.7,110.6,260.7,110.6"/>
		<path fill="#393939" d="M258.7,144.9L258.7,144.9c-0.7,0.2-1.3,0.4-2,0.6c0.7,0.1,1.5,0.3,2.2,0.3l0,0l0,0c0.5-0.1,1-0.2,1.5-0.2
			l0,0C259.8,145.3,259.2,145.1,258.7,144.9L258.7,144.9"/>
		<path fill="#393939" d="M256.1,145.5C256.1,145.5,256.1,145.5,256.1,145.5c-0.2,0-0.4,0-0.6,0c0,0,0,0,0,0c0,0,0,0,0,0
			c-11.3,1.8-22.6,3.5-34,5.3c6.2-0.9,12.3-1.8,18.5-2.7c5.5-0.8,11.2-1,16.6-2.6c0,0,0,0,0,0c0,0,0,0,0,0c0,0,0,0-0.1,0
			C256.4,145.5,256.3,145.5,256.1,145.5C256.2,145.5,256.1,145.5,256.1,145.5"/>
		<path fill="#3C3C3C" d="M205.4,32.7c-0.1,0-0.2,0-0.3,0c-22.7,0-56.3,1.2-59.7,2.7c0,0,0,0,0,0c0,0,0,0-0.1,0l0,0c0,0,0,0,0,0
			c0,0,0,0,0,0c27.2-0.6,53.6-1.1,80.6-1.7c0,0,0,0,0,0C225,33,216.5,32.7,205.4,32.7L205.4,32.7"/>
		<path fill="#FFFFFF" d="M260.3,145.5L260.3,145.5L260.3,145.5L260.3,145.5L260.3,145.5c-0.4,0.2-0.9,0.2-1.3,0.2c0,0,0,0,0,0l0,0
			c0,0,0,0,0,0c0,0-0.1,0-0.1,0c0,0,0,0,0,0l0,0l0,0l0,0l0,0c-8.9,1.5-17.8,3-26.7,4.4c-12.6,2-25.1,3.9-37.7,5.8c0,0,0,0,0,0
			c0,0,0,0,0,0c0,0,0,0,0,0c0,0,0,0-0.1,0c0,0,0,0,0,0c-0.4,0.1-0.8,0.1-1.2,0.1c0,0,0,0,0,0l0,0c0,0,0,0,0,0c-0.1,0-0.1,0-0.2,0
			c-0.1,0-0.1,0-0.2,0l0,0l0,0c0,0,0,0-0.1,0c-0.1,0-0.2,0-0.2,0c0,0,0,0-0.1,0l0,0c-0.1,0-0.3,0-0.4,0l0,0c-5.6,1-11.1,2-16.7,2.8
			c-2.4,0.3-3.5,1.2-3.6,3.7c-0.3,13-0.9,25.9-1,38.9c-0.1,25.2,0,50.3-0.9,75.4c0,0,0,0.1,0,0.1c0,0,0,0,0,0c0,0,0,0,0,0
			c-0.1,3.1,0,4.1,1.6,4.1c0,0,0,0,0,0c0,0,0,0,0,0c0.6,0,1.4-0.1,2.5-0.3c0,0,0,0,0,0c0,0,0.1,0,0.1,0c0,0,0,0,0,0c0,0,0,0,0,0
			c0,0,0,0,0,0c0,0,0.1,0,0.1,0l0,0c29.3-5.3,58.6-10.6,87.9-15.9c4-0.7,4.8-1.5,4.8-4.9c0-0.3,0-0.7,0-1.1
			c-0.6-19.3-1.4-38.7-1.8-58c-0.4-17.8-2.4-35.5-3.6-53.3C261.5,146.7,261.8,145.6,260.3,145.5"/>
		<path fill="#444444" d="M183.2,92.9C183.2,92.9,183.2,92.9,183.2,92.9c-1.9,0-3.5,0.7-5.2,1.2c0,0,0,0,0,0c0,0,0,0-0.1,0
			c0,0,0,0,0,0c0,0,0,0-0.1,0l0,0c0,0-0.1,0-0.1,0c0,0,0,0,0,0c0,0,0,0,0,0c0,0-0.1,0-0.1,0c0,0,0,0-0.1,0c-0.1,0-0.1,0-0.2,0
			c0,0-0.1,0-0.1,0c0,0-0.1,0-0.1,0l0,0l0,0c0,0,0,0,0,0c0,0,0,0.1,0,0.1c0.2,0.4,0.5,0.5,0.8,0.5c0,0,0,0,0,0c0,0,0,0,0,0
			c0.1,0,0.1,0,0.2,0c0.1,0,0.2,0,0.3,0c0.1,0,0.2,0,0.3,0c0,0,0,0,0,0l0,0c0,0,0.1,0,0.1,0c0,0,0,0,0,0c0,0,0,0,0,0
			c0.2,0,0.4,0,0.5,0.2l0,0c1.5-0.3,3.7,0.5,4-2.2l0,0C183.3,92.9,183.2,92.9,183.2,92.9L183.2,92.9"/>
		<path fill="#989898" d="M177.1,94.4L177.1,94.4C177.1,94.4,177.1,94.4,177.1,94.4c0.1,0.9,0.4,1.1,0.8,1.1c0,0,0,0,0,0
			c0,0,0,0,0,0c0.1,0,0.3,0,0.5-0.1c0,0,0,0,0,0c0,0,0,0,0,0c0.3-0.1,0.6-0.2,0.8-0.2c0,0,0,0,0,0c0,0,0,0,0,0l0,0
			c-0.2-0.1-0.3-0.1-0.5-0.2c0,0,0,0,0,0c0,0,0,0,0,0c0,0-0.1,0-0.1,0c0,0,0,0,0,0c-0.1,0-0.2,0-0.3,0c-0.1,0-0.2,0-0.3,0l0,0
			c-0.1,0-0.1,0-0.2,0c0,0,0,0,0,0c0,0,0,0,0,0C177.6,95,177.4,94.9,177.1,94.4C177.2,94.5,177.1,94.4,177.1,94.4
			C177.1,94.4,177.1,94.4,177.1,94.4"/>
		<path fill="#989898" d="M177.1,94.4c-0.4,0-0.7,0.3-0.7,0.5c0,0.1,0,0.2,0.2,0.3c0.4,0.4,0.8,0.5,1.2,0.5c0,0,0,0,0,0c0,0,0,0,0,0
			c0.5,0,1-0.2,1.5-0.5c0,0,0,0,0,0c0,0,0,0,0,0c0,0,0,0,0,0c0,0,0,0,0,0c0,0,0,0,0,0c0,0,0,0,0,0l0,0c0,0,0,0,0,0c0,0,0,0,0,0
			c-0.3,0-0.5,0.1-0.8,0.2c0,0,0,0,0,0c0,0,0,0,0,0c-0.2,0-0.3,0.1-0.5,0.1c0,0,0,0,0,0l0,0c0,0,0,0,0,0
			C177.5,95.5,177.2,95.2,177.1,94.4C177.1,94.4,177.1,94.4,177.1,94.4L177.1,94.4L177.1,94.4L177.1,94.4"/>
		<path fill="#B75143" d="M265.4,267.1c0,0-0.1,0-0.1,0c-0.7,0-1.7,0.1-2.9,0.3c0,0,0,0,0,0c0,0,0,0-0.1,0c-0.4,0.1-0.8,0.1-1.2,0.2
			l0,0c-0.4,0.1-0.8,0.1-1.2,0.2c0,0,0,0,0,0c-0.2,0-0.4,0.1-0.6,0.1l0,0c-12.9,2-25.8,4.5-38.7,6.6c-16.3,2.7-32.3,6.4-48.6,9.3
			c-2.3,0.4-3.4,1.3-3.4,3.7c0,0.1,0,0.3,0,0.5c0.1,1.9,0.1,3.8,0.1,5.7c0,2.8-0.1,5.6-0.1,8.4c-0.3,0-0.5,0-0.8,0
			c0,2.8,0.1,5.6,0.1,8.4c0,1.9,0,3.9-0.2,5.8c0,0,0,0,0,0.1c-0.1,2.1,0.4,3.1,1.7,3.1c0,0,0,0,0,0c0,0,0,0,0,0
			c0.4,0,0.9-0.1,1.5-0.2c0,0,0,0,0,0c0,0,0,0,0,0c0,0,0.1,0,0.1,0c0.8-0.2,1.6-0.3,2.4-0.4c17.3-2.7,34.7-5.3,52-8.1
			c14.3-2.3,28.5-5.1,42.5-9.2c1.4-0.4,2.8-0.7,2.8-2.5c0-0.2,0-0.4,0-0.6c-1-8-1.7-16-2.6-23.9c0,0,0-0.1,0-0.1
			C267.4,268.8,268.1,267.1,265.4,267.1C265.4,267.1,265.4,267.1,265.4,267.1"/>
		<path fill="#B75143" d="M93.6,254.3C93.6,254.3,93.6,254.3,93.6,254.3c-0.7,0-1.2,0.4-1.4,1.9c0,0,0,0.1,0,0.1l0,0
			c-1,9.6-2,19.2-3,28.8c0,0.3,0,0.5,0,0.7c0,1.7,0.8,2.8,2.7,3.6c22.6,9.8,45.2,19.6,67.9,29.4c0,0,0,0,0.1,0c0,0,0.1,0,0.1,0
			c1.1,0.5,1.9,0.7,2.5,0.7c0,0,0,0,0,0c0,0,0,0,0,0c1.3,0,1.7-1.1,1.9-3.7c0,0,0,0,0,0c0,0,0,0,0-0.1l0,0c0.7-9,1.3-18.1,2-27
			c0.1-0.5,0.1-0.9,0.1-1.3c0-1.9-1-3.1-3.1-4c-16.9-7-33.8-14.2-50.7-21.4c-5.6-2.4-11.2-5-16.8-7.3l0,0c0,0,0,0,0,0c0,0,0,0,0,0
			c0,0,0,0,0,0c0,0,0,0,0,0c0,0,0,0,0,0c0,0,0,0,0,0C95,254.7,94.2,254.3,93.6,254.3C93.6,254.3,93.6,254.3,93.6,254.3"/>
		<path fill="#F5F5F5" d="M140.2,18.4L140.2,18.4c-0.2,0.6-0.3,1.2-0.3,1.9c0,0.7,0.1,1.5,0.2,2.4c0,0.1,0,0.1,0,0.2l0,0
			C140.2,21.4,140.2,19.9,140.2,18.4"/>
		<path fill="#FFFFFF" d="M140.2,18.4c-0.3,0-0.6,0-0.9,0c-1,2.6-1.3,5.3-1.3,8.1c0,2.3,0.2,4.7,0.2,7c0,0.7,0.3,1.3,1.1,1.3
			c0,0,0,0,0,0c0,0,0,0,0,0c0.1,0,0.1,0,0.2,0c0,0,0,0,0,0c0.6-0.1,0.7-0.4,0.7-0.8c0-0.2,0-0.3,0-0.5c0,0,0,0,0,0c0-3.5,0-7,0-10.5
			c0-0.1,0-0.1,0-0.2c-0.2-0.9-0.2-1.7-0.2-2.4C140,19.6,140,18.9,140.2,18.4"/>
		<path fill="#515151" d="M131.5,46.4l-0.1,0.1l0,0c0,0,0,0,0,0c0,0,0,0,0.1,0c0,0,0,0,0,0c0,0,0,0,0,0c0,0,0.1,0,0.1,0c0,0,0,0,0,0
			l0,0L131.5,46.4"/>
		<path fill="#515151" d="M131.1,46.2c0,0.2,0.1,0.3,0.3,0.3l0,0l0,0l0,0l0,0l0.1-0.1C131.4,46.3,131.2,46.2,131.1,46.2"/>
		<path fill="#515151" d="M131.6,46.4C131.6,46.4,131.6,46.4,131.6,46.4c-0.1,0-0.1,0-0.1,0c0,0,0,0,0,0l0,0c0,0,0,0,0,0
			c0,0,0,0-0.1,0c0,0,0,0,0,0l0,0l0,0l0,0l0,0c-1,1.5-2.1,2.9-3.2,4.3c0,0.2,0,0.3,0.1,0.5l0,0l0,0l0,0l0,0
			C129.8,50,131.2,48.6,131.6,46.4"/>
		<path fill="#515151" d="M131.1,46.2c-1.3,1.1-2.6,2.3-3,4c0,0.2,0.1,0.4,0.1,0.6l0,0l0,0l0,0c1.1-1.4,2.2-2.8,3.2-4.3l0,0
			C131.3,46.5,131.2,46.4,131.1,46.2L131.1,46.2"/>
		<path fill="#494949" d="M128.2,50.8L128.2,50.8L128.2,50.8L128,51c0.1,0.1,0.1,0.2,0.3,0.3C128.2,51.1,128.2,50.9,128.2,50.8
			L128.2,50.8L128.2,50.8"/>
		<path fill="#494949" d="M128.1,50.2c-0.1,0.2-0.2,0.3-0.2,0.5c0,0.1,0,0.2,0.1,0.3l0,0l0,0l0,0l0,0l0.1-0.2l0.1-0.1
			C128.1,50.6,128.1,50.4,128.1,50.2L128.1,50.2"/>
		<path fill="#494949" d="M128,51L128,51c-0.4,0.5-0.6,1.1-0.9,1.7c0.1,0.2,0.2,0.4,0.3,0.5l0,0c0.5-0.5,0.9-1,0.9-1.6
			c0-0.1,0-0.2,0-0.3l0,0l0,0C128.1,51.2,128,51.1,128,51L128,51L128,51"/>
		<path fill="#494949" d="M128.1,50.2c-0.8,0.5-1.1,1.3-1.4,2.1l0,0c0.2,0,0.4,0.2,0.5,0.3l0,0l0,0c0.3-0.5,0.5-1.2,0.9-1.7l0,0
			c-0.1-0.1-0.1-0.2-0.1-0.3C127.9,50.5,128,50.4,128.1,50.2"/>
		<path fill="#494949" d="M126.6,52.3c0.1,0.2,0.3,0.3,0.4,0.5l0,0l0,0l0,0l0.1-0.1C127,52.5,126.9,52.4,126.6,52.3"/>
		<path fill="#494949" d="M127.1,52.7L127.1,52.7l-0.1,0.1c0.1,0.1,0.2,0.3,0.4,0.4l0,0C127.3,53,127.2,52.8,127.1,52.7L127.1,52.7
			L127.1,52.7"/>
		<path fill="#555555" d="M127,52.8L127,52.8l-0.1,0.1c-0.7,0.7-1.1,1.6-1.7,2.4c0.1,0.1,0.2,0.2,0.2,0.3c0,0.1,0,0.3-0.1,0.4
			c0.7-1,1.4-1.9,2-2.9C127.3,53.1,127.1,52.9,127,52.8L127,52.8"/>
		<path fill="#555555" d="M126.6,52.3c-0.9,0.9-1.6,1.8-2.1,3l0,0c0,0,0,0,0,0c0,0,0,0,0,0c0,0,0,0,0,0c0.1,0,0.3-0.1,0.4-0.1
			c0,0,0,0,0,0l0,0l0,0c0,0,0,0,0,0c0.1,0,0.2,0,0.3,0.1c0,0,0,0,0,0c0,0,0,0,0,0l0,0l0,0l0,0l0,0c0.6-0.8,1-1.7,1.7-2.4l0.1-0.1
			C126.9,52.6,126.8,52.5,126.6,52.3L126.6,52.3L126.6,52.3"/>
		<path fill="#555555" d="M125.3,55.3L125.3,55.3c-0.1,0.1-0.2,0.3-0.3,0.4c0.1,0.1,0.2,0.2,0.4,0.4l0,0l0,0
			c0.1-0.2,0.1-0.3,0.1-0.4C125.4,55.5,125.4,55.4,125.3,55.3L125.3,55.3L125.3,55.3"/>
		<path fill="#555555" d="M125,55.3C125,55.3,125,55.3,125,55.3c-0.1,0-0.2,0-0.4,0.1c0,0,0,0,0,0c0,0,0,0,0,0c0,0,0,0,0,0
			c0.1,0.1,0.3,0.3,0.4,0.4l0,0l0,0l0,0l0,0c0.1-0.1,0.2-0.3,0.3-0.4l0,0c0,0,0,0,0,0c0,0,0,0,0,0C125.2,55.3,125.1,55.3,125,55.3
			C125,55.3,125,55.3,125,55.3L125,55.3"/>
		<path fill="#555555" d="M125,55.7L125,55.7c0,0.1-0.1,0.1-0.1,0.2c-0.7,1.2-1.7,2.2-2.4,3.4c1.7-0.3,2.1-1.9,2.9-3.2
			C125.2,56,125.1,55.9,125,55.7L125,55.7L125,55.7"/>
		<path fill="#555555" d="M124.6,55.3c-1,1.2-2.3,2.1-2.1,4l0,0l0,0c0.7-1.2,1.7-2.1,2.4-3.4c0-0.1,0.1-0.1,0.1-0.2l0,0
			C124.8,55.6,124.7,55.5,124.6,55.3L124.6,55.3L124.6,55.3"/>
		<path fill="#525252" d="M121.8,60.1c-1.1,1.5-2.2,3.1-3.1,4.8l-0.1,0.2c0.1,0.1,0.2,0.2,0.4,0.4l0,0c1.1-1.6,2.9-2.9,2.9-5.2
			C121.8,60.1,121.8,60.1,121.8,60.1"/>
		<path fill="#525252" d="M121.8,60.1c-2.2,0.7-2.5,3-3.6,4.5l0,0c0.1,0.1,0.3,0.3,0.4,0.4l0,0l0,0l0,0l0.1-0.2
			C119.7,63.2,120.7,61.6,121.8,60.1"/>
		<path fill="#5A5A5A" d="M118.6,65L118.6,65l-0.1,0.1c0.1,0.1,0.3,0.2,0.5,0.2l0,0C118.8,65.2,118.7,65.1,118.6,65L118.6,65
			L118.6,65"/>
		<path fill="#5A5A5A" d="M118.2,64.6c0,0.2,0.1,0.4,0.3,0.6l0,0l0,0l0,0l0,0l0.1-0.1C118.5,64.8,118.3,64.7,118.2,64.6"/>
		<path fill="#5A5A5A" d="M118.5,65.1L118.5,65.1c-0.4,0.5-0.7,1.1-1,1.6c0.1,0.1,0.1,0.1,0.1,0.3c0,0.1,0,0.2-0.1,0.4
			c0.8-0.5,1.2-1.1,1.5-2C118.8,65.3,118.6,65.2,118.5,65.1L118.5,65.1L118.5,65.1"/>
		<path fill="#5A5A5A" d="M118.2,64.6c-0.7,0.6-1.2,1.2-1.4,2.1l0,0c0.2-0.1,0.3-0.1,0.4-0.1s0.2,0,0.3,0.1l0,0l0,0l0,0l0,0
			c0.4-0.5,0.6-1.1,1-1.6l0,0C118.3,65,118.2,64.8,118.2,64.6L118.2,64.6L118.2,64.6"/>
		<path fill="#5A5A5A" d="M117.5,66.7L117.5,66.7c-0.1,0.1-0.2,0.3-0.3,0.4c0.1,0.1,0.2,0.2,0.3,0.3l0,0l0,0c0-0.2,0.1-0.3,0.1-0.4
			C117.6,66.8,117.5,66.7,117.5,66.7L117.5,66.7L117.5,66.7"/>
		<path fill="#5A5A5A" d="M117.2,66.6c-0.1,0-0.3,0-0.4,0.1c0.1,0.1,0.3,0.3,0.4,0.4l0,0l0,0l0,0c0.1-0.1,0.2-0.3,0.3-0.4l0,0
			C117.4,66.6,117.3,66.6,117.2,66.6"/>
		<path fill="#454545" d="M117.2,67.1L117.2,67.1L117.2,67.1c-0.5,0.7-1,1.3-1.4,2c0.1,0.2,0.2,0.4,0.3,0.5l0,0
			c0.5-0.7,0.9-1.5,1.4-2.2C117.4,67.3,117.3,67.2,117.2,67.1L117.2,67.1L117.2,67.1"/>
		<path fill="#454545" d="M116.8,66.7c-0.5,0.7-1,1.4-1.4,2l0,0l0,0l0,0c0.2,0,0.3,0.2,0.4,0.3l0,0l0,0l0,0c0.5-0.7,1-1.3,1.4-1.9
			l0,0C117.1,66.9,116.9,66.8,116.8,66.7L116.8,66.7L116.8,66.7"/>
		<path fill="#454545" d="M115.8,69L115.8,69L115.8,69c0.1,0.2,0.2,0.4,0.3,0.5l0,0C116,69.4,115.9,69.2,115.8,69L115.8,69L115.8,69
			"/>
		<path fill="#575757" d="M115.7,69.1l-0.1,0.1c-0.8,0.8-1.3,1.9-2,2.8c0.1,0.1,0.3,0.3,0.4,0.4l0,0c0.7-1,1.4-2,2-2.9
			C115.9,69.4,115.8,69.2,115.7,69.1L115.7,69.1"/>
		<path fill="#575757" d="M115.3,68.7c-1,0.8-1.6,1.8-2.1,2.9l0,0c0.1,0.1,0.2,0.3,0.4,0.4l0,0l0,0l0,0c0.7-0.9,1.2-2,2-2.8l0.1-0.1
			C115.6,69,115.5,68.9,115.3,68.7L115.3,68.7L115.3,68.7"/>
		<path fill="#454545" d="M115.3,68.7L115.3,68.7c0.1,0.1,0.2,0.3,0.4,0.4l0.1-0.1C115.7,68.9,115.5,68.8,115.3,68.7"/>
		<path fill="#494949" d="M113.6,72.1L113.6,72.1l-0.1,0.1l0,0c0.1,0.1,0.3,0.2,0.5,0.3l0,0C113.9,72.3,113.8,72.2,113.6,72.1
			L113.6,72.1L113.6,72.1"/>
		<path fill="#494949" d="M113.3,71.7c0,0.2,0.1,0.4,0.3,0.5l0,0l0,0l0,0l0,0l0,0l0.1-0.1C113.5,71.9,113.4,71.8,113.3,71.7"/>
		<path fill="#494949" d="M113.5,72.2L113.5,72.2c-0.2,0.3-0.4,0.7-0.6,1c0.1,0.2,0.2,0.4,0.3,0.5l0,0c0.3-0.4,0.5-0.9,0.8-1.3
			C113.8,72.4,113.6,72.3,113.5,72.2L113.5,72.2L113.5,72.2"/>
		<path fill="#494949" d="M113.3,71.7c-0.3,0.4-0.5,0.8-0.8,1.2l0,0l0,0l0,0c0.2,0,0.4,0.2,0.4,0.3l0,0l0,0l0,0
			c0.2-0.3,0.4-0.7,0.6-1l0,0C113.4,72.1,113.3,71.9,113.3,71.7L113.3,71.7L113.3,71.7"/>
		<path fill="#494949" d="M112.9,73.2L112.9,73.2l-0.1,0.1c0.1,0.1,0.2,0.3,0.4,0.4l0,0C113.1,73.6,113,73.4,112.9,73.2L112.9,73.2
			L112.9,73.2"/>
		<path fill="#4D4D4D" d="M112.8,73.4c-0.1,0.1-0.2,0.3-0.3,0.4c-0.5,0.7-1,1.4-1.5,2.1c0.1,0.1,0.2,0.2,0.2,0.4
			c0,0.1,0,0.3-0.1,0.5c0.7-1,1.3-2,2-2.9C113.1,73.6,113,73.5,112.8,73.4L112.8,73.4"/>
		<path fill="#4D4D4D" d="M112.5,72.9c-0.9,0.8-1.6,1.8-2.1,3l0,0c0,0,0,0,0,0c0,0,0,0,0,0c0.1,0,0.3,0,0.4,0c0,0,0,0,0,0l0,0l0,0
			c0,0,0,0,0,0c0.1,0,0.2,0,0.2,0c0,0,0,0,0,0l0,0l0,0l0,0l0,0l0,0c0.5-0.7,0.9-1.5,1.5-2.1c0.1-0.1,0.2-0.3,0.3-0.4
			C112.7,73.2,112.6,73,112.5,72.9L112.5,72.9L112.5,72.9"/>
		<path fill="#494949" d="M112.5,72.9L112.5,72.9c0.1,0.1,0.2,0.3,0.4,0.5l0.1-0.1C112.8,73.1,112.7,73,112.5,72.9"/>
		<path fill="#FFFFFF" d="M183.2,92.9L183.2,92.9L183.2,92.9c0,0,0.1,0,0.1,0l0,0l0,0c-0.3,2.8-2.5,2-4,2.2l0,0l0,0l0,0c0,0,0,0,0,0
			c0,0,0,0,0,0c0,0,0,0,0,0c0,0,0,0,0,0c0,0,0,0,0,0c0,0,0,0,0,0c-0.5,0.3-1,0.5-1.5,0.5c0,0,0,0,0,0l0,0c0,0,0,0,0,0
			c-0.4,0-0.8-0.1-1.2-0.5c-0.1-0.1-0.2-0.2-0.2-0.3c0-0.3,0.3-0.5,0.7-0.5l0,0c0,0,0.1,0,0.1,0c0,0,0.1,0,0.1,0c0.1,0,0.1,0,0.2,0
			c0,0,0,0,0.1,0c0,0,0.1,0,0.1,0c0,0,0,0,0,0c0,0,0,0,0,0c0,0,0.1,0,0.1,0l0,0c0,0,0,0,0.1,0c0,0,0,0,0,0c0,0,0,0,0.1,0
			c0,0,0,0,0,0C179.6,93.6,181.2,92.9,183.2,92.9C183.2,92.9,183.2,92.9,183.2,92.9 M205.4,32.7L205.4,32.7L205.4,32.7
			c11.1,0,19.6,0.3,20.5,1c0,0,0,0,0,0l0,0c-27,0.6-53.3,1.1-80.6,1.7c0,0,0,0,0,0c0,0,0,0,0,0l0,0c0,0,0,0,0.1,0c0,0,0,0,0,0
			c3.4-1.4,37-2.6,59.7-2.7C205.2,32.7,205.3,32.7,205.4,32.7 M191.1,11.8C191.1,11.8,191.1,11.8,191.1,11.8
			c-14.7,0-29.3,0.5-43.9,3c-0.1,0-0.2,0-0.3,0.1c-4.5,0.8-5.9,1.4-5.9,4.4c0,0.8,0.1,1.8,0.3,2.9c0.3,2.2,0.5,4.5,0.5,6.7
			c0,1.9-0.2,3.8-0.5,5.6c0,0.2-0.1,0.4-0.1,0.6c0,1.1,0.6,2,1.1,3c8.3,18.6,18.6,36.2,28.4,54c0.2,0.4,0.5,0.8,0.7,1.2
			c0.2,0.5,0.7,1,0.7,1.5c0,0.3-0.2,0.6-0.6,0.9l0,0c0,0,0,0,0,0c0,0,0,0,0,0c-0.3,0.2-0.5,0.2-0.7,0.2c0,0,0,0,0,0l0,0c0,0,0,0,0,0
			c-0.7,0-1-0.8-1.3-1.4c0,0,0,0,0,0c0,0,0,0,0,0c-2.4-4.2-4.7-8.4-7-12.6c-7.3-13.5-14.6-27.1-22-40.6c0,0,0,0,0,0c0,0,0,0,0,0
			c-0.9-1.6-1.4-2.4-2.1-2.4c0,0,0,0,0,0l0,0c0,0,0,0,0,0c-0.6,0-1.2,0.7-2.3,1.9c0,0-0.1,0.1-0.1,0.2c-1.4,1.8-2.2,4.1-4.2,5.4l0,0
			l0,0c-0.4,2.1-1.8,3.5-3.4,4.8l0,0c0,0.1,0,0.2,0,0.3c0,0.7-0.4,1.2-0.9,1.6l0,0l0,0c-0.7,1-1.4,1.9-2,2.9l0,0l0,0l0,0
			c-0.7,1.3-1.1,2.8-2.9,3.2l0,0l0,0l0,0c-0.2,0.3-0.4,0.5-0.6,0.8c0,0,0,0.1,0,0.1c0,2.2-1.8,3.5-2.9,5.2l0,0l0,0
			c-0.2,0.9-0.7,1.5-1.5,2l0,0l0,0l0,0c-0.5,0.7-1,1.5-1.4,2.2l0,0l0,0c-0.7,1-1.4,2-2,2.9l0,0l0,0c-0.3,0.4-0.5,0.9-0.8,1.3l0,0
			l0,0c-0.7,1-1.3,2-2,2.9l0,0c-2.1,3.4-4.1,6.8-6.3,10.4c9.4,1.8,18.7,3.5,28,5.3l0,0l0,0l0,0c0,0,0,0-0.1,0c-2,0.3-4,0.4-6,0.4
			c0,0,0,0,0,0l0,0l0,0c0,0,0,0,0,0c-5.1,0-10.2-0.7-15.2-1.4c-0.1,0-0.2,0-0.2,0c0,0,0,0-0.1,0c0,0-0.1,0-0.1,0c0,0-0.1,0-0.1,0
			c0,0-0.1,0-0.1,0c0,0-0.1,0-0.1,0c0,0,0,0-0.1,0c0,0-0.1,0-0.1,0l0,0c-0.2,0-0.5-0.1-0.7-0.2c0,0,0,0,0,0c0,0,0,0-0.1,0
			c0,0,0,0,0,0c0,0,0,0,0,0c0,0,0,0,0,0c-1.7-0.4-3.1-0.5-4.2-0.5c0,0,0,0,0,0c0,0,0,0,0,0c-4.5,0-4.7,3-4.6,8.6c0,0,0,0,0,0
			c0,0.9,0.1,1.6,0.6,2.1l0,0l0,0c0.3,0.3,0.7,0.5,1.3,0.7c22.2,6.2,44.2,12.7,66.5,18.5c0,0,0.1,0,0.1,0c0,0,0,0,0,0c0,0,0,0,0,0
			c0,0,0,0,0.1,0c0.1,0,0.3,0,0.7-0.1c0,0,0,0,0.1,0c0,0,0,0,0,0c0-6.7,0-13.4,0-20.2l0,0c1.9,2.9,1.6,5.9,1.8,8.9
			c0.2,3.3,0.4,6.6,0.5,9.9l0,0c0.1,1.6,0.4,2.4,2,2.4c0,0,0,0,0,0l0,0c0,0,0,0,0,0c0.2,0,0.4,0,0.6,0c0,0,0,0,0,0c0,0,0,0,0,0
			c0,0,0,0,0,0l0,0c12.1-1.2,24.3-1.8,36.3-3.4c15.3-2.1,30.6-4.1,45.6-7.8c1.7-0.4,2.7-1.2,2.7-2.9c0-0.2,0-0.3,0-0.5
			c-0.5-5.8-0.9-11.5-1.3-17.3c-0.1-2.2-0.7-3.2-2.7-3.2c0,0,0,0,0,0l0,0c0,0,0,0,0,0c-0.3,0-0.7,0-1.1,0.1c0,0,0,0,0,0c0,0,0,0,0,0
			l0,0c-21.3,2.7-42.7,5.2-64,7.6c0,0-0.1,0-0.1,0c0,0,0,0,0,0c0,0,0,0,0,0c0,0,0,0,0,0c-0.1,0-0.1,0-0.2,0c0,0,0,0,0,0c0,0,0,0,0,0
			c0,0,0,0,0,0c0,0,0,0,0,0c0,0,0,0-0.1,0c-0.2,0-0.4,0.1-0.5,0.1c-1,0.2-2.1,0.4-3.2,0.5c0,0,0,0,0,0l0,0c0,0,0,0,0,0
			c-0.8,0-1.7-0.1-2.5-0.5l0,0c0.8-1.5,2.1-1.5,3.3-1.7c19.5-2.4,39.1-4.7,58.6-7.1c2.9-0.4,5.8-1,8.7-1.2c1.6-0.1,2.1-0.7,2.1-1.5
			c0-0.5-0.2-1-0.4-1.6c-0.6-1.4-1.6-2.6-2.4-3.9c-8.9-14-17.8-28.1-26.7-42.1c-0.3-0.5-0.9-0.8-0.9-1.4c0-0.2,0.1-0.4,0.2-0.7
			c1.7-2.5,2.2-5.1,2.2-7.8c0-3.5-0.8-7-0.8-10.4c0-0.1,0-0.2,0-0.3c0,0,0,0,0,0c0-1.5-1.1-2.3-2.9-2.3h0l0,0c0,0,0,0,0,0h0
			c0,0,0,0,0,0c0,0,0,0,0,0c0,0,0,0,0,0c0,0,0,0,0,0c0,0,0,0,0,0c-0.3,0-0.6,0-1,0c-2.4,0-4.8,0-7.3,0c0,0,0,0,0,0l0,0c0,0,0,0,0,0
			c-3.4,0-6.9,0-10.3-0.1c-0.6,0-1.3,0-1.9,0c-0.1,0-0.2,0-0.3,0c-0.1,0-0.2,0-0.3,0l0,0l0,0c-0.2,0-0.4,0-0.6,0c0,0-0.1,0-0.1,0
			c-0.1,0-0.2,0-0.2,0C199.1,11.9,195.1,11.8,191.1,11.8C191.1,11.8,191.1,11.8,191.1,11.8L191.1,11.8"/>
		<path fill="#4D4D4D" d="M111.1,75.9L111.1,75.9c-0.1,0.1-0.2,0.3-0.3,0.4c0.1,0.1,0.3,0.3,0.4,0.4l0,0l0,0
			c0.1-0.2,0.1-0.3,0.1-0.5C111.3,76.1,111.2,76,111.1,75.9L111.1,75.9L111.1,75.9"/>
		<path fill="#4D4D4D" d="M110.8,75.9C110.8,75.9,110.8,75.9,110.8,75.9c-0.1,0-0.2,0-0.4,0c0,0,0,0,0,0c0,0,0,0,0,0
			c0.1,0.1,0.3,0.3,0.4,0.4l0,0l0,0l0,0l0,0c0.1-0.1,0.2-0.3,0.3-0.4l0,0l0,0c0,0,0,0,0,0C111,75.9,110.9,75.9,110.8,75.9
			C110.8,75.9,110.8,75.9,110.8,75.9L110.8,75.9"/>
		<path fill="#B75143" d="M102.6,103.5C102.6,103.5,102.6,103.5,102.6,103.5c-0.9,0-1.6,0.5-1.7,2.3c-0.4,9.1-0.7,18.1-1.1,27.2
			c0,0.1,0,0.2,0,0.2c0,1.6,0.8,1.9,2.2,2.3c20.9,6.1,41.7,12.2,62.6,18.4c0.8,0.2,1.5,0.4,2.1,0.4c0,0,0,0,0,0c0,0,0,0,0,0
			c1.4,0,2.1-0.9,2.2-3.2l0,0c0.1-4.4,0.5-8.7,0.8-13.1h0l0,0c0.2-3.7,0-7.3,0.6-10.9c0.1-0.5,0.1-1,0.1-1.4c0-2.8-1.9-3.8-4.7-4.5
			c-9.2-2.4-18.3-5-27.4-7.6c-11.1-3.1-22.1-6.4-33.2-9.6c0,0,0,0,0,0c0,0-0.1,0-0.1,0c0,0,0,0,0,0c0,0,0,0,0,0c0,0,0,0,0,0
			C104,103.8,103.2,103.5,102.6,103.5C102.6,103.5,102.6,103.5,102.6,103.5"/>
		<polyline fill="#353535" points="96.9,177.3 96.9,177.4 96.9,177.4 96.9,177.3 		"/>
		<path fill="#353535" d="M96.9,177.4L96.9,177.4L96.9,177.4c0,0.2-0.1,0.3-0.1,0.4c0,0.1,0.1,0.1,0.1,0.2l0,0l0,0
			C96.9,177.9,96.9,177.7,96.9,177.4L96.9,177.4"/>
		<path fill="#353535" d="M96.8,177.9L96.8,177.9c-0.2,1-0.2,2-0.2,2.9c0,1.2,0.1,2.4,0.3,3.6l0,0l0,0c0-2.1,0-4.2,0-6.3l0,0
			C96.9,178,96.8,178,96.8,177.9L96.8,177.9L96.8,177.9"/>
		<polyline fill="#FEFEFE" points="95.4,210.5 95.4,210.7 95.5,210.6 95.4,210.5 		"/>
		<path fill="#4C4C4C" d="M95,210.4C95,210.4,95,210.4,95,210.4c-0.2,0-0.5,0.1-0.7,0.2c0,0,0,0-0.1,0c0,0,0,0,0,0
			c0.4,0,0.8,0,1.2,0l0,0l0,0l0,0l0-0.2l0,0c0,0,0,0,0,0c0,0,0,0,0,0c0,0,0,0,0,0C95.3,210.4,95.1,210.4,95,210.4
			C95,210.4,95,210.4,95,210.4L95,210.4"/>
		<path fill="#FEFEFE" d="M98.1,188.6c0,0.2,0,0.4,0,0.6C98,189,98.1,188.8,98.1,188.6 M96.9,178.1c0,2.1,0,4.2,0,6.3
			c0,1.1,0.1,2.2,0.1,3.4c0,0.2-0.1,0.3-0.1,0.5c0,0.1,0.1,0.2,0.1,0.2c0,2.1-0.2,4.1-0.6,6.1c-0.3,5.3-0.7,10.6-1,15.9l0.1,0.1
			c0,0,0,0,0,0c0,0,0,0,0,0l-0.1,0.1c-0.5,8.1-1,16.2-1.5,24.3c-0.1,1.9-0.2,3.8-0.4,5.7l0,0c-0.1,2.8-0.1,5.7-0.2,8.5
			c0,0.1,0,0.2,0,0.3c0,1.3,0.6,2,1.9,2.6c22,10.3,44.7,18.9,67,28.5c1.1,0.5,1.9,0.5,2.6,0.5c0,0,0,0,0,0c0,0,0,0,0,0
			c1.4,0,2.3-0.8,2.3-3.2c0,0,0,0,0,0c0,0-0.1-0.1-0.1-0.1c0.3-12.1,0.7-24.3,0.9-36.4c0.4-26.2,0.8-52.4,1.1-78.6
			c0-0.3,0-0.6,0-0.9c0-1.8-0.2-3.7-2.8-4.5c-21-6.9-42.2-12.8-63.4-19.2c0,0,0,0,0,0c0,0,0,0,0,0c0,0,0,0.1,0,0.1
			c-0.7-0.2-1.3-0.2-1.7-0.2c0,0,0,0,0,0c0,0,0,0,0,0c-1.5,0-1.7,1-1.8,3.1c-0.6,12.1-1.1,24.1-2.1,36.2v0.1
			C97,177.6,96.9,177.8,96.9,178.1 M163.8,279.9c1.6,0,2.2-1.4,2.3-4.5C166.1,278.5,165.5,279.9,163.8,279.9z"/>
		<path fill="#4E4E4E" d="M95.4,210.7c-0.4,0-0.8,0-1.2,0l0,0l0,0l0,0c-1.4,7.8-1,15.6-1.4,23.4l0,0c0.5,0.2,0.8,0.5,1,0.9l0,0l0,0
			C94.4,226.9,94.9,218.8,95.4,210.7L95.4,210.7"/>
		<path fill="#4E4E4E" d="M92.8,234.1c0.5,0.7,0.6,1.5,0.6,2.3c0,0.9-0.1,1.7-0.1,2.6c0,0.6,0.1,1.1,0.3,1.6l0,0l0,0
			c0.1-1.9,0.2-3.8,0.4-5.7l0,0C93.6,234.7,93.3,234.4,92.8,234.1"/>
		<path fill="#FEFEFE" d="M272.5,317.6c-0.4-3.9-0.8-7.8-1-11.6c0,0,0,0.1,0,0c-0.1-1.4-0.2-2-1.2-2c0,0,0,0,0,0c0,0,0,0,0,0
			c-0.3,0-0.8,0-1.3,0.1c0,0,0-0.1,0-0.1c-19.1,5.1-38.4,8.4-58,11.1c-13.6,1.8-27,4.1-40.6,6.2c-2.1,0.3-3,1.2-3.2,3.4
			c-0.3,3.4-0.9,6.8-1.4,10.2c0,0,0,0,0,0c0,0,0,0,0,0c0,0,0,0,0,0c0,0,0,0,0,0c0,0,0,0,0,0c0,0,0-0.1,0-0.1c-0.3,2-1.6,3.1-3.3,3.1
			c0,0,0,0,0,0c0,0,0,0.1,0,0.1c-0.1,0-0.3,0-0.4,0c0,0,0,0,0,0c-1.6-0.2-2.1-1-2.1-2.1c0-0.6,0.2-1.4,0.4-2.1
			c0.8-2.6,1.3-5.3,2.2-7.8c0.2-0.6,0.3-1.1,0.3-1.6c0-1.2-0.8-1.8-2.2-2.5c-15.5-6.9-31-13.9-46.5-20.8
			c-8.2-3.7-16.4-7.4-24.9-11.3c-0.7,5-1.1,9.7-1.9,14.3c-0.1,0.5-0.1,1-0.1,1.4c0,1.8,0.9,2.8,3.1,3.8
			c24.9,10.7,49.3,22.5,71.3,38.4c0.1,0.1,0.2,0.1,0.3,0.2c0,0,0,0,0,0c0,0,0,0,0,0c0,0,0,0,0.1,0c0,0,0,0.2,0,0.2
			c0.6,0.3,1.1,0.6,1.7,0.6c0,0,0,0,0,0c0,0,0,0,0,0c0.3,0,0.7-0.2,1.1-0.3c0,0,0-0.1,0-0.1c19.3-3.8,38.2-9.2,57.2-14.4
			c14.5-3.9,29.1-7.8,43.7-11.6c0.1-0.2,0.3-0.4,0.4-0.6c0,0,0,0,0,0c0,0,0,0.1,0,0.1c0.8-0.9,1.7-1.2,2.8-1.2c0,0,0,0,0,0s0,0,0,0
			c0.7,0,1.4-0.1,2.2,0.3c0,0,0-0.3,0-0.3h0l0.1,0c1-0.7,1.2-1.5,1.2-2.5C272.5,318.2,272.5,317.9,272.5,317.6z M164,338.3
			c-0.6,0.3-1.1,0.5-1.7,0.5C162.9,338.8,163.5,338.6,164,338.3z M90.8,292.1c-0.9,0-1.1,0.8-1.4,2.7
			C89.7,292.9,89.9,292.1,90.8,292.1z M169,346.7c-1.2,0.2-2.4,0.3-3.5,0.3C166.6,347,167.8,346.9,169,346.7z M263,322.3
			c0.4-0.1,0.9-0.2,1.3-0.3C263.9,322.1,263.5,322.2,263,322.3z"/>
		<g>
			<path fill="#333333" d="M258.9,145.8c0,0,0.1,0,0.1,0c0,0,0,0,0,0c0,0,0,0,0,0c0.4,0,0.9-0.1,1.3-0.2
				C259.9,145.6,259.4,145.7,258.9,145.8C258.9,145.8,258.9,145.8,258.9,145.8z"/>
			<g>
				<path fill="#333333" d="M274.9,318.5c-1.1-9.6-2.1-19.2-3.2-28.8c-1-8.7-2.9-17.3-3-26c-0.1-21-0.7-42-1.7-63
					c-0.8-17.2-2.3-34.4-3.2-51.6c-0.9-19.1-1.5-38.2-3.1-57.2c-0.5-5.7-1.9-10.7-5.1-15.5c-8.4-12.8-16.3-25.9-24.5-38.8
					c-1.2-1.9-1.8-3.7-1.6-6c0.3-4.9,0.6-9.9,0.7-14.8c0.1-3.9-1.8-6.4-4.8-6.4c-13.1-0.2-26.2-0.5-39.3-0.7c-0.8,0-1.6,0-2.3,0
					c-13.3,0-26.4,1.7-39.5,4c-5.3,0.9-7.6,3.4-7.2,8.7c0.6,8.7-0.4,16.8-6,23.8c0.1,0.1,0.2,0.1,0.4,0.2l0.1,0.1
					c2-1.3,2.8-3.6,4.2-5.4c0-0.1,0.1-0.1,0.1-0.1c1-1.3,1.7-1.9,2.3-1.9c0,0,0,0,0,0c0,0,0,0,0,0c0.6,0,1.2,0.8,2.1,2.4
					c0,0,0,0,0,0c0,0,0,0,0,0c7.3,13.5,14.6,27.1,22,40.6c2.3,4.2,4.6,8.4,7,12.6c0,0,0,0,0,0c0,0,0,0,0,0c0.3,0.6,0.6,1.3,1.3,1.3
					c0,0,0,0,0,0c0,0,0,0,0,0c0.2,0,0.4,0,0.7-0.2c0,0,0,0,0,0c0,0,0,0,0,0c0.5-0.3,0.6-0.6,0.6-0.9c0-0.5-0.4-1-0.7-1.5
					c-0.2-0.4-0.5-0.8-0.7-1.2c-9.8-17.9-20-35.4-28.4-54c-0.4-1-1.1-1.8-1.1-3c0-0.2,0-0.4,0.1-0.6c0.4-1.9,0.5-3.7,0.5-5.6
					c0-2.2-0.2-4.5-0.5-6.7c-0.2-1.2-0.3-2.1-0.3-2.9c0-3,1.3-3.6,5.9-4.4c0.1,0,0.2,0,0.3,0c14.6-2.5,29.2-2.9,43.9-2.9
					c0,0,0,0,0,0c0,0,0,0,0,0c4,0,7.9,0,11.9,0c0.1,0,0.2,0,0.2,0c0,0,0.1,0,0.1,0c0.2,0,0.4,0,0.6,0c0.1,0,0.2,0,0.3,0
					c0.1,0,0.2,0,0.3,0c0.6,0,1.3,0,1.9,0c3.4,0,6.9,0.1,10.3,0.1c0,0,0,0,0,0c0,0,0,0,0,0c2.4,0,4.8,0,7.3,0c0.3,0,0.6,0,1,0
					c0,0,0,0,0,0c0,0,0,0,0,0c0,0,0,0,0,0c0,0,0,0,0,0c0,0,0,0,0,0h0c0,0,0,0,0,0l0.1,0c1.7,0,2.9,0.8,2.9,2.3c0,0,0,0,0,0
					c0,0.1-0.1,0.2-0.1,0.3c0,3.4,0.8,7,0.8,10.4c0,2.7-0.5,5.3-2.2,7.8c-0.2,0.3-0.3,0.5-0.3,0.7c0,0.6,0.5,0.9,0.9,1.4
					c8.9,14,17.8,28.1,26.7,42.1c0.8,1.3,1.8,2.5,2.4,3.9c0.2,0.6,0.4,1.1,0.4,1.6c0,0.8-0.5,1.4-2.1,1.5c-2.9,0.2-5.8,0.8-8.7,1.2
					c-19.5,2.4-39.1,4.7-58.6,7.1c-1.2,0.1-2.5,0-3.3,1.5c0.9,0.4,1.7,0.3,2.5,0.3c0,0,0,0,0,0c0,0,0,0,0,0c1.1,0,2.2-0.1,3.2-0.3
					c0.2,0,0.4,0,0.5,0c0,0,0,0,0.1,0c0,0,0,0,0,0c0,0,0,0.1,0,0.1c0,0,0,0.1,0,0.1c0,0,0,0,0,0c0.1,0,0.1,0,0.2,0c0,0,0,0,0,0
					c0,0,0.4-0.1,0.4-0.1v-0.1c0,0-0.1,0-0.1,0c21.3-2.5,42.6-5,63.9-7.7c0,0-0.1-0.1,0-0.1c0,0,0,0,0,0c0.4,0,0.8,0,1.1,0
					c0,0,0,0,0,0c0,0,0,0,0,0c2,0,2.6,1,2.7,3.2c0.4,5.8,0.8,11.5,1.3,17.3c0,0.2,0,0.3,0,0.5c0,1.8-1,2.5-2.7,2.9
					c-15,3.8-30.3,5.8-45.6,7.8c-12,1.6-24.2,2.2-36.3,3.4c0,0,0,0,0,0c0,0,0,0,0,0c0,0,0-0.1,0-0.1c-0.2,0-0.4-0.1-0.6-0.1
					c0,0,0,0,0,0c0,0,0,0,0,0c-1.6,0-1.9-0.7-2-2.3c-0.1-3.3-0.4-6.6-0.6-9.9c-0.2-3,0-6-2-8.9c0,6.8,0,13.5,0,20.2c0,0,0.1,0,0.1,0
					c0,0,0,0,0,0c-0.4,0-0.5-0.1-0.6-0.1c0,0,0-0.1,0-0.1c0,0,0,0,0,0c0,0,0,0,0,0c0,0-0.1,0.1-0.1,0.1
					c-22.3-5.7-44.3-12.2-66.5-18.4c-0.6-0.2-1.1-0.4-1.3-0.7c-0.5-0.5-0.6-1.1-0.6-2c0,0,0,0,0,0c0-5.6,0.1-9,4.6-9c0,0,0,0,0,0
					c0,0,0,0,0,0c1.1,0,2.5,0.4,4.2,0.7c0,0,0,0.1,0,0.1c0,0,0,0.1,0,0.1c0,0,0,0,0,0c0,0,0,0,0.1,0c0,0,0,0,0,0
					c0.2,0,0.5,0.2,0.7,0.2c0,0,0.1,0,0.1,0c0,0,0,0,0.1,0c0,0,0.1,0,0.1,0c0,0,0.1,0,0.1,0c0,0,0.1,0,0.1,0c0,0,0.1,0,0.1,0
					c0,0,0,0,0.1,0c0.1,0,0.2,0.2,0.2,0.2c5.1,0.7,10.1,1.6,15.2,1.6c0,0,0,0,0,0c0,0,0,0,0,0c2,0,4-0.3,6-0.5c0,0,0-0.1,0.1-0.1
					c-9.3-1.7-18.6-3.5-28-5.3c2.2-3.6,4.2-7,6.3-10.4c-0.1-0.1-0.3-0.3-0.4-0.4c-0.1-0.1-0.3-0.3-0.4-0.4
					c-3.6,5.1-7.1,10.2-10.7,15.4c-1.1,1.6-1.7,3.3-1.7,5.3c-0.3,14.4-0.7,28.8-1,43.2c-0.3,11.8-0.5,23.6-0.8,35.4v0
					c-0.2,0.5-0.3,1.1-0.2,1.6c-0.5,3.5-0.4,7.1-0.3,10.6c-0.1,1.3-0.2,2.6-0.3,3.9c-1,2.7,0,5.4-0.4,8.1c-0.1,3.8-1,7.5-0.7,11.4
					c0,0,0,0,0,0c0,0,0-0.2,0.1-0.2c0.3-0.1,0.5-0.4,0.7-0.4c0,0,0,0,0,0h0c0,0,0,0,0,0c0.1,0,0,0.2,0,0.3c0,0,0,0.1,0,0.1
					c0,0,0.2,0.1,0.2,0.1c0,0,0.1,0,0.1,0c0.3-5.3,0.7-10.6,1-15.9c0.4-2.1,0.6-4.2,0.6-6.3c0-0.2,0-0.3,0-0.5c0-1.1,0-2.2-0.1-3.3
					c-0.2-1.2-0.3-2.4-0.3-3.6c0-1,0.1-2,0.2-2.9c0-0.1,0-0.3,0.1-0.4l0-0.1l0,0c0.7-12.1,1.6-24.1,2.2-36.2
					c0.1-2.1,0.4-3.1,1.8-3.1c0,0,0,0,0,0c0,0,0,0,0,0c0.4,0,1,0,1.7,0.2c0,0,0,0,0,0c0,0,0,0,0,0c0,0,0,0,0,0
					c21.1,6.4,42.4,12.3,63.4,19.2c2.6,0.8,2.8,2.7,2.8,4.5c0,0.3,0,0.6,0,0.9c-0.3,26.2-0.7,52.4-1.1,78.6
					c-0.2,12.2-0.5,24.3-0.8,36.4c0,0,0.1,0.1,0.1,0.1c0,0,0,0,0,0c0,2.4-0.9,3.1-2.3,3.1c0,0,0,0,0,0c0,0,0,0,0,0
					c-0.7,0-1.5-0.1-2.6-0.5c-22.3-9.6-45-18.2-67-28.6c-1.3-0.6-1.9-1.2-1.9-2.6c0-0.1,0-0.2,0-0.3c0.2-2.8,0.2-5.6,0.2-8.5
					c-0.2-0.5-0.3-1.1-0.3-1.6c0-0.9,0.1-1.7,0.1-2.6c0-0.8-0.1-1.6-0.6-2.3c-0.3,3.4-0.5,6.8-0.8,10.2c-2,20.6-3.6,41.1-6.8,61.6
					c-0.4,2.6-0.1,3.9,2.6,5.1c25.3,11.1,49.7,24,73.2,38.5l0.2,0.1c1,0.6,1.9,0.8,2.9,0.8c0.6,0,1.2-0.1,1.8-0.2
					c24.6-5.2,49.3-10.6,73.3-18.2c9.3-3,18.9-5,28-8.6c-0.5-0.2-1-0.5-1.5-0.7c-14.6,3.9-29.2,7.7-43.7,11.6
					c-19,5.1-37.9,10.6-57.2,14.3c0,0,0,0.1,0,0.1c-0.4,0.1-0.8,0.3-1.1,0.3c0,0,0,0,0,0c0,0,0,0,0,0c-0.6,0-1.1-0.3-1.7-0.6
					c0,0,0-0.1,0-0.1c0,0,0-0.1-0.1-0.1c0,0,0,0,0,0c0,0,0,0,0,0c-0.1-0.1-0.2-0.1-0.3-0.2c-22.1-16-46.4-27.8-71.3-38.4
					c-2.2-1-3.1-2-3.1-3.8c0-0.4,0-0.9,0.1-1.4c0.8-4.6,1.3-9.3,1.9-14.3c8.5,3.9,16.7,7.6,24.9,11.3c15.5,7,31,13.9,46.5,20.8
					c1.4,0.6,2.2,1.3,2.2,2.5c0,0.4-0.1,1-0.3,1.6c-1,2.5-1.4,5.2-2.2,7.8c-0.2,0.7-0.4,1.5-0.4,2.1c0,1.1,0.5,1.9,2.1,2.1
					c0,0-0.2,0-0.1,0c0.1,0,0.2-0.1,0.2-0.1V338c0,0,0.3,0,0.3,0c1.8,0,3-1.2,3.3-3.1c0,0,0,0,0,0c0,0,0,0,0,0c0,0,0,0,0,0
					c0,0,0,0,0,0c0,0,0,0,0,0c0,0,0,0,0,0c0.5-3.4,1.1-6.8,1.4-10.2c0.2-2.2,1.1-3,3.2-3.4c13.5-2,27-4.4,40.6-6.2
					c19.5-2.6,38.9-6.1,58-11.1c0,0,0,0.1,0,0.1c0.6-0.1,1-0.1,1.3-0.1c0,0,0,0,0,0c0,0,0,0,0,0c1.1,0,1.1,0.6,1.2,2c0,0,0,0,0,0
					c0.2,3.9,0.6,7.7,1,11.6c0,0.3,0.1,0.6,0.1,0.9c0,1-0.3,1.9-1.2,2.6l0,0.1c0.3,0,0.7,0.1,1,0.1c0.2,0,0.3,0,0.4,0
					C274.5,321.4,275.2,320.5,274.9,318.5z M135.7,40c0.9-1,1.7-1.5,2.5-1.5C137.4,38.5,136.6,39,135.7,40z M139.5,34.7
					C139.5,34.7,139.5,34.7,139.5,34.7c-0.1,0-0.1,0.1-0.2,0.1c0,0,0,0.1,0,0.1c0,0,0,0,0,0c-0.8,0-1.1-0.7-1.1-1.4
					c0-2.3-0.2-4.9-0.2-7.3c0-2.7,0.3-5.3,1.3-8.3c0.2,0,0.5,0,0.7,0c0,2,0,3.4,0,4.9c0,3.5,0,7,0,10.5c0,0,0,0,0,0
					c0,0.1,0.1,0.3,0.1,0.5C140.1,34.3,140.1,34.7,139.5,34.7z M147.1,14c12.9-2.5,25.8-3,38.8-3C173,11,160,11.5,147.1,14z
					 M166.2,289c-0.7,8.9-1.4,17.9-2.1,27c0,0-0.1,0-0.1,0.1c0,0,0,0,0,0c0,2.6-0.4,4-1.7,4c0,0,0,0,0,0c0,0,0,0,0,0
					c-0.6,0-1.4-0.4-2.5-0.9c0,0-0.1-0.1-0.1-0.1c0,0,0-0.1-0.1-0.1c-22.6-9.8-45.2-19.7-67.9-29.5c-1.8-0.8-2.7-1.9-2.7-3.6
					c0-0.2,0-0.5,0-0.7c1-9.6,2-19.2,3-28.8c0,0,0-0.2,0-0.3c0.2-1.4,0.7-2,1.4-2c0,0,0,0,0,0c0,0,0,0,0,0c0.6,0,1.4,0.5,2,0.8
					c0,0,0.2,0.1,0.2,0.1c0,0,0.2,0,0.2,0c0,0,0,0,0,0c0,0-0.2,0-0.1,0c0,0-0.1,0-0.1,0c0,0,0,0,0,0c5.6,2.4,11.1,5,16.8,7.3
					c16.9,7.2,33.8,14.3,50.7,21.4c2.1,0.9,3.1,2,3.1,4C166.4,288.1,166.3,288.5,166.2,289z M176.5,121.9c-0.6,0-1.1,0.1-1.5,0.1
					C175.4,122,175.9,122,176.5,121.9z M192,156c0,0,0.5,0,0.5,0c0.1,0,0.2,0,0.2,0c0,0,0,0,0.1,0c0.1,0,0.1,0,0.2,0
					c0.1,0,0.1,0,0.2,0c0,0,0,0,0,0c0,0,0,0,0,0c0.4,0,0.8,0,1.2,0c0,0,0,0,0,0c0,0,0,0,0.1,0c0,0,0,0,0,0c0,0,0,0,0,0c0,0,0,0,0,0
					c12.6-1.9,25.1-3.8,37.7-5.8c8.9-1.4,17.8-2.9,26.7-4.4c-0.7,0-1.5-0.2-2.2-0.3c-5.4,1.5-11.1,1.8-16.6,2.6
					c-6.2,0.9-12.3,1.8-18.5,2.7c11.3-1.7,22.6-3.4,34-5.3c0,0,0,0,0,0c0,0,0-0.2,0-0.2c0.1,0,0.2-0.1,0.3-0.1
					c-13.6,1.8-27.2,3.7-40.8,5.6c-7.8,1.1-15.5,2.4-23.3,3.6c-0.5,0-0.9,0.1-1.4,0.2c-5.4,0.5-10.8,0.9-16.2,1.5c0,0,0,0-0.1,0
					c-0.2,0-0.5,0-0.7,0c0,0,0,0,0,0c0,0,0,0,0,0c-1.4,0-1.9-0.6-1.9-2.3c0,0,0,0,0-0.1c0.4-9.3,0.6-18.6,0.9-27.9
					c0-2.2,0.7-2.8,3-3c21.8-2,43.6-3.6,65.2-7.5c6.5-1.2,13-2,19.2-4.3c0,0,0,0,0,0c0,0,0,0.2,0,0.2c0.3-0.1,0.6,0,0.8,0
					c0,0,0,0,0,0c0,0,0,0,0,0c0.6,0,0.8,0.2,0.8,1.1c0,0,0-0.1,0-0.1c-0.1,1.5-0.1,3-0.1,4.5c0,7.9,0.7,15.8,1,23.7
					c0,0.2,0,0.4,0,0.6c0,2.5-0.7,4-3.7,4c0.6,0.2,1.1,0.4,1.7,0.6c1.5,0,1.2,1.2,1.2,2.1c1.3,17.8,3.2,35.5,3.6,53.3
					c0.4,19.3,1.2,38.7,1.8,58c0,0.4,0,0.8,0,1.1c0,3.5-0.8,4.2-4.8,4.9c-29.3,5.3-58.6,10.6-87.9,15.9c0,0-0.1,0-0.1,0c0,0,0,0,0,0
					c0,0,0,0,0,0c0,0,0,0,0,0c0,0-0.1,0-0.1,0c0,0,0-0.1,0-0.1c-1.1,0.2-1.9,0.2-2.5,0.2c0,0,0,0,0,0c0,0,0,0,0,0
					c-1.7,0-1.5-0.8-1.5-3.9c0,0,0,0,0,0c0,0,0,0,0,0c0,0,0-0.1,0-0.1c0.8-25.1,0.8-50.3,0.9-75.4c0-13,0.7-25.9,1-38.9
					c0.1-2.5,1.1-3.4,3.6-3.7c5.6-0.8,10.9-1.8,16.5-2.8C191.9,156.1,192,156,192,156L192,156z M169.7,120.7
					c-0.3,0.1-0.6,0.2-0.9,0.2C169.2,120.9,169.5,120.8,169.7,120.7z M105.5,89.5c-2.4,0-4,1.3-4.8,3.6
					C101.4,90.8,103,89.5,105.5,89.5z M168.8,150.9c-0.1,2.3-0.7,3.1-2.2,3.1c0,0,0,0,0,0c0,0,0,0,0,0c-0.6,0-1.3,0-2.1-0.2
					c-20.8-6.2-41.7-12.2-62.6-18.3c-1.3-0.4-2.2-0.7-2.2-2.2c0-0.1,0-0.1,0-0.2c0.4-9.1,0.7-17.9,1.1-27c0.1-1.8,0.7-2.1,1.6-2.1
					c0,0,0,0,0,0c0,0,0,0,0,0c0.6,0,1.4,0,2.4,0.3c0,0,0-0.1,0-0.1c0,0-0.1,0-0.1,0c0,0-0.1,0-0.1,0c0,0,0,0,0.1,0c0,0,0,0,0,0
					c11.1,3.2,22.1,6.4,33.2,9.6c9.1,2.6,18.3,5.1,27.4,7.6c2.8,0.7,4.7,1.7,4.7,4.5c0,0.4,0,0.8-0.1,1.3c-0.6,3.6-0.4,6.9-0.6,10.9
					h0C169.3,142,168.8,146.6,168.8,150.9z M267.9,301.4c-13.9,4.1-28.1,7-42.5,9.2c-17.3,2.8-34.7,5.4-52,8.1
					c-0.8,0.1-1.6,0.2-2.4,0.4c0,0-0.1,0-0.1,0c0,0,0,0,0,0c0,0,0,0.3,0,0.3c-0.6,0.2-1.1,0.5-1.5,0.5c0,0,0,0,0,0c0,0,0,0,0,0
					c-1.4,0-1.8-1.2-1.7-3.3c0,0,0-0.2,0-0.2c0.1-1.9,0.2-4,0.2-6c0-2.8-0.1-5.5-0.1-8.5c0.3,0,0.5,0,0.8,0c0-3,0.1-5.5,0.1-8.3
					c0-1.9,0-3.8-0.1-5.7c0-0.2,0-0.3,0-0.4c0-2.4,1.2-3.3,3.4-3.7c16.2-2.9,32.3-6.7,48.6-9.3c12.9-2.1,25.7-4.7,38.7-6.6
					c0.2,0,0.4-0.1,0.6-0.1c0,0,0,0,0,0c0.4-0.1,0.8-0.1,1.2-0.2l0,0c0.4-0.1,0.9-0.4,1.2-0.4c0,0,0.1-0.2,0.1-0.2c0,0,0,0,0,0
					c1.2,0,2.2-0.1,2.9-0.2c0,0,0.1,0.2,0.1,0.2c0,0,0,0,0,0c2.8,0,2,1.7,2.7,7.2c0,0,0,0.1,0,0.1c0.9,8,1.6,16,2.6,23.9
					c0,0.2,0,0.4,0,0.6C270.7,300.7,269.4,301,267.9,301.4z"/>
				<path fill="#333333" d="M258.7,144.7c-0.7,0.1-1.4,0.2-2,0.3c0,0,0,0.2,0,0.2C257.4,145.1,258,145,258.7,144.7z"/>
				<path fill="#333333" d="M256.6,145C256.6,145,256.6,145,256.6,145C256.6,145,256.6,145,256.6,145c-0.2,0-0.4,0-0.5,0
					c0,0,0,0,0,0c0,0,0,0,0,0c-0.1,0-0.2,0.1-0.3,0.1C256.1,145.1,256.4,145.1,256.6,145C256.6,145,256.6,145,256.6,145z"/>
			</g>
		</g>
		<path fill="#FFFFFF" d="M187.9,136.8c-1.4,0.3-2.7,0.5-4.1,0.4c-1.4,0-1.4,2.1,0,2.1c0.7,0,1.4,0,2.1-0.1c0,0.1,0,0.2,0.1,0.3
			c1.1,2.4-1.1,4.4-3.3,3.3c-1.6-0.8-2.2-2.9-2.4-4.6c-0.3-2.3,1.7-10.5,5.3-6.4c0.9,1,2.4-0.5,1.5-1.5c-2.1-2.4-5.1-1.7-7.1,0.4
			c-2.3,2.6-2.3,7.3-1.2,10.3c0.8,2.3,3.8,5.1,6.4,4.3c2.8-0.9,3.8-3.9,2.8-6.5c0.2,0,0.3-0.1,0.5-0.1
			C189.8,138.5,189.3,136.4,187.9,136.8z"/>
		<path fill="#FFFFFF" d="M197.6,136.9c-1.7-0.6-3.5-0.3-5,0.7c-0.1-0.3-0.1-0.5-0.2-0.8c-0.1-0.3-0.4-0.6-0.8-0.6l-0.1,0
			c-0.4,0-0.7,0.2-0.8,0.6l0,0c-0.1,0.3,0,0.6,0.2,0.7c0.3,1,0.3,2.2,0.6,3.1c0.3,1.1,0.5,2.9,1.1,3.9c0.3,0.4,0.7,0.5,1.1,0.3
			l0.1,0c0.3-0.2,0.4-0.6,0.4-0.9l0-0.1c-0.1-0.2-0.2-0.4-0.3-0.5c-0.4-0.9-0.5-2.2-0.8-3.1c-0.1-0.3-0.1-0.6-0.2-0.9
			c1-1,2.3-1.5,3.6-1.2c0.2,0.3,0.6,0.4,1,0.2c0.1,0,0.1-0.1,0.2-0.1C198.5,138,198.3,137.2,197.6,136.9z"/>
		<path fill="#FFFFFF" d="M210.8,140.1L210.8,140.1c-0.5-0.7-1.2-0.3-1.4,0.3c-0.3,0.3-0.8,0.3-1.1,0.3c-0.6,0-1.1-0.4-1.4-0.9
			c-0.2-0.4-0.4-0.8-0.6-1.2c0-0.7,0-1.4-0.1-2.1c-0.1-0.5-0.6-0.7-1-0.5c-0.1,0-0.1-0.1-0.2-0.1c-3.8-1.1-7.1,5.2-4.7,8
			c1.2,1.5,3.5,0.4,4.4-0.8c0.5-0.6,0.8-1.3,1.1-2.1c0.3,0.3,0.6,0.6,1,0.8c1.1,0.7,3.5,0.5,4.1-0.8
			C211.1,140.7,211.1,140.4,210.8,140.1z M204.2,140.9c-0.3,0.9-1.4,2.9-2.7,2c-0.9-0.7,0-2.7,0.3-3.4c0.5-0.9,1.4-2.1,2.6-2
			c0.1,0.4,0.2,0.9,0.3,1.3C204.6,139.5,204.4,140.2,204.2,140.9z"/>
		<path fill="#FFFFFF" d="M217.9,135c-0.5-2.3-1-4.5-1.1-6.9c0-1-1.6-1-1.6,0c0.1,2,0.3,3.9,0.8,5.9c-3.8-0.1-6.7,5.4-2.6,7.2
			c1.7,0.7,4.2-0.4,4.6-2.3C218.4,137.5,218.3,136.3,217.9,135z M215.8,139.4c-1.9,0.8-2.8,0.1-2.6-2c0.3-1.5,1.9-2.1,3.2-1.8
			C216.8,136.9,217.1,138.4,215.8,139.4z"/>
		<path fill="#FFFFFF" d="M226.5,137.2c-0.9,1.2-2.3,1.6-3.7,1c-0.8-0.4-1.2-1-1.2-1.8c1.5-0.2,2.9-0.5,4.3-1
			c0.7-0.3,1.8-0.6,1.7-1.6c-0.1-0.9-1.3-1.7-2.1-2.2c-1.1-0.7-2.5-0.5-3.5,0.3c-1.9,1.4-3.1,4.8-1.3,6.7c1.9,2,5,2,6.8-0.3
			C228.3,137.5,227.2,136.4,226.5,137.2z M222.7,133.4c0.7-0.8,1.5-0.8,2.4-0.3c0.2,0.1,0.4,0.3,0.6,0.5c-0.1,0-0.1,0.1-0.2,0.1
			c-1.1,0.5-2.3,0.8-3.6,0.9C222.2,134.3,222.4,133.8,222.7,133.4z"/>
		<path fill="#FFFFFF" d="M236.5,134L236.5,134c-0.3-0.4-0.6-0.5-1-0.4l-0.1,0c-0.2,0-0.3,0.1-0.4,0.2c-1.2,0.3-2.4,0.6-3.6,0.6
			c-1-0.1-1,1.5,0,1.6c1.5,0.1,3-0.4,4.5-0.8C236.5,135,236.7,134.4,236.5,134z"/>
		<path fill="#FFFFFF" d="M255.4,135.5c-1.1-2.5-2.2-5-3.2-7.5c0-0.2-0.1-0.4-0.2-0.5c-1.1-2.5-2.1-5-3.2-7.5
			c-0.1-0.3-0.3-0.4-0.6-0.5c-0.4-0.4-1.2-0.4-1.3,0.3c-1.2,6-3.2,11.7-4,17.8c-0.1,1,1.5,1,1.6,0c0.3-2.4,0.8-4.8,1.4-7.1l0.2-0.1
			c1.6-0.4,3.2-0.8,4.8-1.3c1,2.4,2.1,4.8,3.1,7.2C254.4,137.3,255.8,136.4,255.4,135.5z M246.3,128.6c0.5-2.1,1.1-4.3,1.6-6.4
			c0.7,1.8,1.5,3.6,2.3,5.4C249,128,247.7,128.3,246.3,128.6z"/>
		<g>
			<path d="M104.5,156.7c-0.8,3.6-1.5,7.3-1.9,10.9c-0.1,1,1.2,1.3,1.3,0.2c0.2-1.5,0.4-3,0.7-4.4l3.2,0.6c-0.3,1.4-0.6,3.1-0.9,4.7
				c-0.2,1.1,1.1,1.3,1.3,0.2c0.7-3.9,1.5-7.9,2.2-11.8c0.2-1.1-1.1-1.2-1.3-0.1c-0.3,1.9-0.7,3.6-1.1,5.7l-3.2-0.6
				c0.2-1.4,0.7-3.4,1-5C106,155.9,104.8,155.6,104.5,156.7z"/>
			<path d="M116.1,163c0-0.6-0.4-1.3-1.2-1.1c-1.9,0.3-3.6,2.5-4.6,4.5c-0.7,1.4-1.2,4.7,0.9,4.3c0.9-0.2,1.6-0.8,2.2-1.8
				c0.4-0.6,0.7-1.2,1.1-1.8c0,1.9,0.7,3.4,2.6,3.3c0.9,0,0.9-1.7,0-1.6c-2.1,0.1-1.3-3.3-0.8-4.8
				C116.3,163.3,116.2,163.1,116.1,163z M113.4,166c-0.3,0.5-0.6,1.1-0.9,1.6c-0.1,0.2-0.3,0.5-0.4,0.7c-0.9,0.3-1.2,0.1-0.9-0.7
				c0.3-0.9,0.8-1.8,1.4-2.5c0.3-0.4,0.8-0.8,1.2-1.1c0.2-0.1,0.4-0.2,0.6-0.3c0.1,0,0.2-0.1,0.3-0.1c0,0.1,0.1,0.2,0.1,0.2
				C114.3,164.5,113.8,165.3,113.4,166z"/>
			<path d="M116.8,174.8c-0.3,1.1,1,1.3,1.3,0.2c0.1-0.4,0.2-0.8,0.3-1.1l0-0.2c0.3-1,0.5-2.1,0.8-3.1c1.6,0.5,3.7,0.2,4.4-2.1
				c0.9-2.8-1.1-4.4-2.8-5.2c-0.1-0.1-0.3-0.1-0.4,0c-0.2-0.2-0.4-0.2-0.6-0.1l-0.1,0.1c-0.6,0.3-0.6,1.2-0.2,1.5c0,1-1,3.8-1.2,4.5
				C117.7,171.1,117.2,172.9,116.8,174.8z M119.9,167.8c0.2-0.8,0.6-1.8,0.7-2.7c0.8,0.4,1.5,0.9,1.8,2.1c0.2,0.9-0.4,1.6-1,2
				c-0.6,0.3-1.3,0.2-1.8-0.1C119.6,168.6,119.8,168.2,119.9,167.8z"/>
			<path d="M125.3,164.7c-0.4,2.1-0.8,4.3-1.3,6.4l0,0.1c-0.3,1.7-0.6,3.3-1,5c-0.2,1.1,1.1,1.3,1.3,0.2c0.3-1.3,0.5-2.7,0.8-4
				c1.4,0.3,3.1-0.7,3.8-2.6c0.8-2.4-0.6-4.6-2.4-4.7c0-0.1,0-0.1,0-0.2C126.8,163.9,125.5,163.7,125.3,164.7z M127.7,169.5
				c-0.4,1.1-1.4,1.5-2.2,1.3c0.3-1.3,0.5-2.7,0.8-4l0,0C127.3,166.7,128.1,168.2,127.7,169.5z"/>
			<path d="M129.6,178.6c1.4-2.7,2.9-5.4,4.3-8.2c0.6-1.2,2.1-2.9,1.2-4.1c-0.6-0.7-1.5,0.6-1,1.3c0,0-0.7,1.2-1.5,2.8
				c-0.2-1.2-0.5-2.4-0.7-3.6c-0.2-1-0.8-1.7-1.7-1.4c-0.8,0.3-0.5,1.8,0.3,1.5c0,0,0.9,4.6,0.9,5c0,0.1,0.1,0.2,0.1,0.3
				c-1.4,2.5-2.9,5.2-3.1,5.7C128,178.9,129.1,179.5,129.6,178.6z"/>
			<path d="M145.7,178.2c0.8,0,1.2-1.6,0.4-1.6c-2.8-0.1-5.5-0.7-5.4-4.8c0.1-1.9,0.8-3.8,1.9-5.3c1.2-1.7,3.4-1.9,4.3-0.2
				c0.4,0.8,1.6-0.2,1.2-1c-2-3.9-6.5-1-7.8,3c-0.9,2.6-1.1,5.2-0.2,7.4C140.9,178,143.7,178.1,145.7,178.2z"/>
			<path d="M146.5,172.8c-0.5,2.1,0.3,4,1.9,4.6c1.6,0.7,3.4-0.6,4-2.7c0.5-1.7-0.4-2.9-1.5-3.8c0.4-0.4,0.4-1.3-0.2-1.4
				C149,169.2,147,170.6,146.5,172.8z M147.7,173.3c0.1-0.8,0.6-1.5,1.3-1.9c0,0.1,0.1,0.2,0.2,0.2c0.7,0.4,1.4,0.9,1.8,1.8
				c0.7,1.4-0.9,2.6-1.9,2.4C148.1,175.7,147.5,174.5,147.7,173.3z"/>
			<path d="M153.1,178.7c0.1,0,0.1,0,0.2,0.1c0.1,0,0.1,0.1,0.2,0.1c1,0.4,2.1,0.5,3.3,0.2c0.4-0.1,1.2-0.2,1.5-0.6
				c0.4-0.5,0.5-1.5,0.6-2.1c0.2-2.9-1.3-5-3.4-5.4c-0.3-0.5-1.1-0.5-1.2,0.3c-0.4,2-0.7,4.1-1.1,6.1
				C152.8,177.8,152.6,178.5,153.1,178.7z M155.3,172.6c1.3,0.2,2.2,1.5,2.3,3.2c0.1,1.1-0.2,1.5-1.1,1.7c-0.7,0.1-1.4,0.1-2-0.1
				C154.7,175.8,155,174.2,155.3,172.6z"/>
			<path d="M162.3,180.1c0.8,0.3,1.5-1.2,0.7-1.5c-0.5-0.2-0.9-0.4-1.4-0.6c-0.2-0.1-0.4-0.2-0.6-0.2c0-0.2,0.1-0.5,0.1-0.8
				c0.5,0.1,1,0.2,1.5,0.3c0.8,0.2,1.2-1.4,0.4-1.6l-0.8-0.2c-0.1,0-0.3-0.1-0.4-0.1c0,0-0.1,0-0.2-0.1l-0.1-0.1
				c0.1-0.3,0.2-0.6,0.2-0.9c0.3-1.1,0.8-0.8,1.5-0.7c0.8,0.1,1.2-1.5,0.4-1.6c-0.6-0.1-1.6-0.4-2.3,0.1c-0.8,0.7-1,2.5-1.2,3.4
				c-0.2,0.8-0.7,2.3-0.3,3C160.2,179.5,161.4,179.8,162.3,180.1z"/>
			<path d="M102.2,187.6c1.3,0.9,3.5,1.3,5.1,0.4c0.4-0.2,0.6-0.8,0.4-1.3c0-0.1-0.1-0.1-0.1-0.2c-0.3-0.6-0.9-0.3-1.2,0.2
				c-1.8,0.6-4.6-0.3-4-2.9c0.2-1.1,1-2.1,1.6-2.9c0.5-0.7,1.2-0.7,1.9-0.6c0.3,0.1,1.1,0.1,1.4,0.4v0c0,0.3,0.4,0.6,0.6,0.5l0.1,0
				c0.5-0.1,0.8-0.8,0.6-1.3c-0.4-1.2-3-1.6-4-1.2c-1.5,0.6-2.7,2.7-3.3,4.4C100.7,184.9,100.9,186.7,102.2,187.6z"/>
			<path d="M113.3,182.7L113.3,182.7c-0.1-0.1-0.2-0.3-0.3-0.4c-0.1-0.2-0.3-0.2-0.5-0.2c-1.1-0.4-2.3,0.1-3.1,1.4
				c-0.5,0.9-0.8,2-0.8,3c-0.1,1,0.6,1.6,1.2,1.9c1.3,0.9,3.2,0.8,4.3-1c1.1-1.7,0.4-3.5-0.5-4.7L113.3,182.7z M111,187.3
				c-0.3-0.1-0.7-0.3-1-0.5c-0.4-0.4-0.2-1,0-1.6c0.3-1,1-1.7,1.7-1.6c0.1,0.3,0.4,0.4,0.6,0.4c0.4,0.5,0.7,1,0.7,1.8
				C113.2,187.3,111.8,187.5,111,187.3z"/>
			<path d="M119.9,189.3c0,0.1,0,0.3-0.1,0.4c-0.2,1.1,1,1.3,1.3,0.2c0.6-1.9,1.2-4.5,0.1-6c-0.4-0.5-1.4,0.1-1.8,0.4
				c-0.2,0.1-0.4,0.3-0.6,0.5c-0.1-1-0.5-1.6-1.7-1.4c-0.3,0.1-0.5,0.2-0.7,0.4c-0.2-0.5-1-0.5-1.3,0.3c-0.4,1.5-0.6,2.9-0.6,4.4
				c0,0.9,1.2,1,1.3,0c0.1-0.9,0.4-1.8,0.7-2.6c0.1-0.5,0.5-0.6,1-0.3c0,0.4-0.1,0.9-0.1,1.3c-0.1,0.9,0.9,0.8,1.2,0.2
				c0.4-0.7,1.8-2.3,1.8-0.6c0,0.8-0.2,1.7-0.4,2.5C120,189,120,189.2,119.9,189.3z"/>
			<path d="M127.8,186c0.6-2.4-2.3-2.5-3.6-1.8c-1.8,0.9-2.2,4-1.7,5.7c0.6,1.9,2.8,2.9,4.4,1.3c0.7-0.7,0.1-2-0.6-1.3
				c-0.8,0.8-1.6,0.5-2.2-0.1c-0.5-0.5-0.6-1.5-0.4-2.4C124.9,187.9,127.2,188.4,127.8,186z M126.6,185.8c-0.1,0.1-0.3,0.2-0.4,0.3
				c-0.3,0.1-0.5,0.2-0.8,0.2c-0.4,0-0.7-0.2-1-0.3C125,185.3,125.9,185.5,126.6,185.8z"/>
			<path d="M131.7,186.8c0.3,0.9,1.6,0.3,1.3-0.6c-0.7-2.5-3.6-1.1-4.2,1.2c-0.4,1.2,0.7,2,1.4,2.2c0.5,0.2,1.9,0.2,0.8,1.3
				c-0.7,0.7-1.4,0-1.7-0.6c-0.4-0.9-1.6,0.1-1.2,1c0.8,1.7,2.9,2.3,4.1,0.2c0.5-0.8,0.7-2,0.2-2.7c-0.3-0.5-0.7-0.6-1.2-0.7
				c-0.2,0-1.5-0.1-0.8-0.9C130.6,186.7,131.5,186,131.7,186.8z"/>
			<path d="M137.9,191.8c0.3,0,0.7,0,1,0c0,0.6,0,1.2-0.1,1.7c-0.1,1.1,1.3,0.8,1.3-0.2c0-0.5,0.1-1,0.1-1.5c0.6,0,1.2,0,1.8,0
				c0.9,0,0.9-1.7,0-1.6c-0.5,0-1.1,0-1.6,0c0.1-0.6,0.1-1.1,0.2-1.7c0.2-1.2,0.5-3.2,1.9-3.1c0.7,0,1.6,0.7,1.9,1.4
				c0.4,0.9,1.5-0.1,1.2-1c-0.8-1.8-3.1-2.7-4.7-1.3c-1.3,1.1-1.7,3.6-1.9,5.8c-0.4,0-0.7,0-1.1,0
				C137.1,190.2,137.1,191.8,137.9,191.8z"/>
			<path d="M143.4,194.8c0,0.7,0.8,1,1.1,0.4c0.5-0.9,0.1-1.8,0.7-2.7c0.7-1.1,1.9-1,2.8-0.8c0.8,0.2,1.2-1.4,0.4-1.6
				c-1.2-0.3-2.4-0.2-3.6,0.8l-0.1,0.1c0-0.2-0.1-0.4-0.2-0.6c-0.4-0.9-1.6,0.1-1.2,1c0.2,0.4,0,1.1,0,1.6
				C143.4,193.6,143.4,194.2,143.4,194.8z"/>
			<path d="M153.8,194.1c0.1-1.9-0.7-3.8-2.4-3.8c-0.3,0-0.4,0.2-0.5,0.4c-1.2-0.2-2.4,1.1-2.8,2.6c-0.5,2.2,0.7,3.8,2.3,4.1
				C152,197.7,153.7,196,153.8,194.1z M149.4,193.8c0.1-0.9,0.9-1.9,1.6-1.4c0.4,0.3,0.7,0,0.9-0.4c0.5,0.4,0.7,1.3,0.7,2
				c0,1.1-0.9,1.8-1.7,1.8C150.1,195.7,149.2,194.8,149.4,193.8z"/>
			<path d="M157.7,191.7c-0.6,0.2-1.2,0.7-1.7,1.2c0-0.8-1.1-0.8-1.3,0.1c-0.3,1.3-0.5,2.5-0.5,3.8c0,0.9,1.1,0.9,1.3,0
				c0.2-1.3,0.8-2.3,1.7-3.1c1.3-1.1,0.9,0.8,0.9,1.7c0,0.8,0.9,0.9,1.2,0.2c0,0,1.7-3.2,1.8-1.3c0.1,1-0.6,2.7-0.9,3.7
				c-0.4,1,0.8,1.7,1.1,0.7c0.7-1.9,1.9-5.1,0.4-6.5c-0.8-0.7-1.6-0.1-2.3,0.8C159.1,191.9,158.7,191.3,157.7,191.7z"/>
			<path d="M101.1,200c0.3-1.6,1.6-3.2,2.9-3c1.4,0.2,0.5,2.9,0.3,4c-0.2,1.1,1.1,1.3,1.3,0.2c0.5-2.6,1.2-5.1-1.2-5.8
				c-0.7-0.2-1.8-0.2-2.4,0.6c-0.1,0.1-0.2,0.3-0.3,0.4c0.3-1.6,0.6-3.2,0.9-4.9c0.2-1.1-1.1-1.3-1.3-0.2c-0.6,2.8-1.1,5.7-1.4,8.5
				C99.7,200.8,100.9,201.1,101.1,200z"/>
			<path d="M109.4,200.6c0.1,1.1,0.5,1.9,1.5,2.3c0.8,0.3,1.1-1.4,0.4-1.6c-1.1-0.4-0.4-2.5-0.1-3.4c0.1-0.2,0.1-0.3,0-0.5
				c0.1-0.1,0.1-0.3,0.1-0.4c0.1-1.3-1.5-1.4-2.3-1.2c-1.2,0.5-2,1.7-2.4,3.1c-0.3,1.5,0.3,2.6,1.5,2.5
				C108.6,201.3,109,201,109.4,200.6z M108,199.1c0.2-1.1,1.2-2.2,2-1.7c-0.3,0.6-0.6,1.1-1,1.6C108.7,199.3,107.8,200.2,108,199.1z
				"/>
			<path d="M112.5,204.6c0.2-0.8,0.4-1.5,0.6-2.3c1.1,0.1,2.5-0.1,3.1-1.5c-0.3,1.6-0.6,3.1-0.9,4.7c-0.2,1.1,1.1,1.3,1.3,0.2
				c0.2-1,0.4-1.9,0.6-2.9c0.6,0,1.2-0.1,1.9-0.3c0.9-0.3,1.5-1,1.6-2.1c0.2-1.8-1.5-3-2.7-2.7c-0.2,0-0.4,0.2-0.5,0.4
				c-0.3,0-0.7,0.2-0.8,0.7c-0.1,0.3-0.1,0.6-0.2,0.9c0-0.6-0.2-1.1-0.5-1.5c-0.2-0.3-0.5-0.6-0.8-0.6c-0.4,0-0.9,0.1-1.2,0
				c-0.4-0.2-0.8,0.1-1,0.6c-0.2,0.2-0.4,0.6-0.2,1c-0.1,0.3-0.1,0.6-0.2,0.8c-0.1,0.5-0.2,0.9-0.4,1.4c-0.3,1.1-0.6,2.2-0.8,3.3
				C110.9,205.4,112.2,205.6,112.5,204.6z M117.8,199.1L117.8,199.1c0.7-0.1,1.3,0.3,1.5,1.1c0.1,0.7-1,0.8-1.8,0.8
				C117.5,200.4,117.6,199.8,117.8,199.1z M113.9,198.9c0.1,0,0.2,0,0.3,0c0.4,0,0.7,0.3,0.8,0.8c0.1,0.5-0.5,0.9-0.8,1
				c-0.3,0.1-0.5,0.1-0.8,0C113.6,200.1,113.9,199.5,113.9,198.9z"/>
			<path d="M124.2,199c-0.6,0.7-1.2,1.4-1.7,2.1l-0.7-2.7c-0.2-1-1.5-0.3-1.3,0.6l1,3.7c-0.8,1.3-1.4,2.8-1.9,4.3
				c-0.3,1,0.9,1.2,1.3,0.2c0.9-2.8,2.4-5.2,4.3-7.3C125.8,199.3,124.9,198.3,124.2,199z"/>
			<path d="M156.2,209.9c-0.2,1-0.3,2.1-0.5,3.1c-0.2,1.1,1.1,1.3,1.3,0.2c0.2-1,0.3-2.1,0.5-3.1
				C157.6,209.1,156.3,208.9,156.2,209.9z"/>
			<path d="M160.9,209.6c-0.1-0.7-0.7-0.9-1.4-0.7c-0.9,0.3-1.6,2.1-1.7,3.1c-0.2,1.1,0.5,1.7,1.3,1.5c0.5-0.1,0.8-0.5,1.2-1
				c0.3,1,0.9,1.7,1.7,1.8c0.8,0,1.2-1.6,0.4-1.6c-0.8,0-1.1-1.6-1.2-2.4C161.2,210,161.1,209.7,160.9,209.6z"/>
			<path d="M130.1,211.8c0-0.1,0-0.2,0.1-0.4c0.1-0.4-0.1-0.7-0.4-0.8c-0.7-1.8-1.3-3.6-1-5.8c0.3-2.1,2-4,3.1-5.6
				c0.6-0.9-0.3-1.9-0.9-1c-1.4,2-2.8,3.9-3.5,6.4c-0.7,2.7,0.4,5.5,1.3,7.6C129.2,212.8,130,212.5,130.1,211.8z"/>
			<path d="M137.3,202.3c-0.7,2.1-1.1,4.2-0.9,6.3l-0.1-0.1c-0.6-0.4-0.5-1.4-0.5-2.2c0-0.3-0.1-0.5-0.3-0.6c0-0.3,0-0.6-0.3-0.7
				c-1.3-0.6-2.9,0.9-3.1,2.6c-0.3,0.1-0.5,0-0.8-0.1c-0.7-0.3-0.4-1.7-0.2-2.4c0.1-0.8,0.4-1.5,0.7-2.2c0.2-0.3,0.3-0.7,0.6-1
				c0.4-0.1,0.6,0.1,0.6,0.6c-0.2,1.1,1.1,1.3,1.3,0.2c0.2-1.3-0.5-2.9-1.6-2.7c-1.2,0.2-2,2.1-2.4,3.3c-0.5,1.5-1,3.7-0.2,5
				c0.6,0.9,1.6,1,2.5,0.7c0.3,0.4,0.8,0.5,1.3,0.2c0.4-0.2,0.7-0.5,0.9-0.8c0.2,0.6,0.5,1.1,0.9,1.4c0.4,0.3,0.9-0.2,1-0.7
				c0.4,0.5,1.3,0.2,1.2-0.6c-0.2-1.9,0.1-3.9,0.7-5.8C138.8,201.9,137.6,201.3,137.3,202.3z M133.3,207.9c0,0,0.1-0.5,0.2-0.5
				c0.2-0.4,0.5-0.8,0.8-0.8C134,207.1,133.7,207.8,133.3,207.9z"/>
			<path d="M139.6,202.8c-0.3,1.4,0.8,1.7,1.1,0.2C140.9,202.3,139.7,202.1,139.6,202.8z"/>
			<path d="M140.2,209c0.2,0,0.5,0.1,0.7,0.1c0,0.3,0,0.6,0,0.9c0,1.1,1.3,0.8,1.3-0.2c0-0.1,0-0.1,0-0.2c0.4,0.1,0.8,0.5,1.2,0.5h0
				c0,0,0.3,1.1,0.7,1.4c0.7,0.6,1.7,0.3,2.2-0.8c0.4-1,0.2-2.3-0.2-3.1c-0.2-0.4-0.6-0.4-0.9-0.1c-0.5,0.1-0.9,0.4-1.2,0.8
				c-0.1,0-0.1-0.1-0.2-0.1c-0.5-0.1-0.9-0.2-1.4-0.3c0.1-0.5,0.1-0.9,0.2-1.4c0.1-0.8,0.5-3.6,1.3-2.3c0.5,0.8,1.6-0.2,1.2-1
				c-0.5-0.7-1.9-2.3-2.7-0.7c-0.7,1.5-1.1,3.3-1.3,5.1c-0.2,0-0.3-0.1-0.5-0.1c-0.3,0-0.5,0.1-0.6,0.4c0.1-0.5,0.2-1,0.3-1.5
				c0.2-1.1-1.1-1.3-1.3-0.2c-0.2,1.1-0.4,2.1-0.5,3.2c0,0.4,0.3,0.8,0.7,0.7c0.4-0.1,0.6-0.5,0.7-0.9c0-0.1,0-0.2,0-0.3
				C139.8,208.9,140,209,140.2,209z M145,209c0,0.2,0.1,0.3,0.1,0.5c0,0.2,0,0.3-0.1,0.5c0,0-0.1,0-0.1,0
				C144.5,209.7,144.7,209,145,209z"/>
			<path d="M148.1,211c0-0.1,0-0.2,0-0.3c0.1-1,1.2-0.8,1.6-0.5c0.7,0.5,1.4-1.1,0.7-1.5c-0.6-0.4-1.3-0.5-2-0.2
				c0-0.4-0.1-0.7-0.5-0.7c-0.3-0.1-0.8,0.3-0.8,0.7c-0.1,0.7-0.2,1.4-0.3,2.1c0,0.2-0.1,0.3-0.1,0.5C146.7,211.9,148,212,148.1,211
				z"/>
			<path d="M153.2,210.6c0.3-0.2,0.1,0.5,0.1,0.7c0,0.6-0.1,1.1-0.1,1.7c-0.1,1.1,1.2,0.8,1.3-0.2c0.1-1.3,0.7-4-0.9-3.9
				c-0.4,0-0.7,0.2-0.9,0.4c0-0.2,0-0.4,0.1-0.6c0.1-1.1-1.3-0.8-1.3,0.2c-0.1,1.3-0.2,2.6-0.3,3.8c-0.1,0.9,1.1,0.9,1.3,0
				C152.5,212,152.6,211,153.2,210.6z"/>
			<path d="M157.5,206.5l-0.1-0.1c-0.4-0.8-1.6,0.1-1.2,1l0.1,0.1C156.7,208.4,157.9,207.4,157.5,206.5z"/>
			<path d="M162.3,205.9c0.4,2,1.3,3.5,1,5.8c-0.2,2-0.8,3.9-1.9,5.6c-0.6,0.9,0.4,1.9,0.9,1c1.3-2,1.9-4,2.3-6.4
				c0.5-2.8-0.4-4.2-1-6.6C163.4,204.3,162.1,204.9,162.3,205.9z"/>
			<path d="M101.6,215.9c1.9,0.8,5.1,1.2,5.8-1.7c0.3-1.4-0.2-2.8-0.9-3.8c-0.8-1.2-2-1.3-3.2-1.3l-0.1-0.1c-0.1-0.7-1-0.8-1.3,0.1
				c-0.4,1.6-0.8,3.2-1.2,4.8c-0.1,0.1-0.2,0.2-0.2,0.4c0,0.1,0,0.2-0.1,0.3c-0.1,0.2,0,0.4,0,0.6c-0.1,0.3-0.1,0.7-0.2,1
				c-0.3,1.4-1.1,3.6-0.9,5c0.1,0.6,0.5,0.6,0.9,0.4l0.1,0c0.3-0.2,0.4-0.6,0.4-0.9l0-0.1c0-0.1,0-0.1,0-0.2c0-0.6,0.4-1.6,0.5-2.1
				C101.3,217.4,101.4,216.6,101.6,215.9z M102.8,210.7c0.3,0,0.5-0.1,0.8-0.1c0.7,0,1.4,0.4,1.9,1c0.3,0.4,0.5,1,0.6,1.5
				c0.2,1-0.3,1.5-1.1,1.6c-1.1,0.1-2.1-0.1-3-0.5C102.2,213,102.5,211.8,102.8,210.7z"/>
			<path d="M113,217.3c0.8,0.3,1.3-1.3,0.5-1.6c-1.1-0.4-2.7-1-4-0.1c-0.3,0.2-0.5,0.4-0.7,0.6c0.1-0.6,0.2-1.2,0.3-1.8
				c0.1-1.1-1.2-0.9-1.3,0.1c-0.3,1.8-0.5,3.5-0.8,5.3c-0.1,1.1,1.2,0.9,1.3-0.1c0.1-1.2,1-2.3,2-2.8C111,216.5,112.2,217,113,217.3
				z"/>
			<path d="M113,221.6c1,0.9,3,1.1,4.2-0.1c1.5-1.5,1-3.5,0.2-4.9c-0.1-0.1-0.1-0.2-0.2-0.2C115.4,213.8,110.8,219.4,113,221.6z
				 M116.3,217.7c0,0.1,0.1,0.1,0.1,0.1c0.3,0.5,0.5,1.1,0.3,1.9c-0.3,1.2-1.8,0.9-2.4,0.7C112.7,219.9,115.4,216.2,116.3,217.7z"/>
			<path d="M118.8,230.3c3.1-1.6,3.5-7.8,4.2-10.9c0.1-0.3,0-0.5-0.1-0.6c0-0.1-0.1-0.2-0.1-0.2c-1.4-2.1-4,0.1-4.8,2.3
				c-0.4,1.1-0.2,2.5,0.6,2.9c0.6,0.3,1.3,0.4,1.9,0.4c-0.1,0.3-0.1,0.6-0.2,0.9c-0.2,0.9-0.4,1.7-0.8,2.5c-0.4,0.7-0.9,1.2-1.5,1.5
				c-1.2-0.4-1.4-1.1-0.6-2.1c0.5-0.9-0.6-1.7-1.1-0.7C114.9,228.9,116.1,231.7,118.8,230.3z M120,222.3c-0.5-0.1-0.8-0.2-0.7-1
				c0.2-1.2,1.6-2.6,2.4-1.8c-0.2,1-0.4,1.9-0.6,2.9C120.7,222.5,120.3,222.4,120,222.3z"/>
			<path d="M127.9,220.5c0.7,0.4,1.5-1.1,0.8-1.5c-1.1-0.6-2.4-0.5-3.5,0.5c0-0.1,0-0.1,0-0.2c0.1-1.1-1.2-0.9-1.3,0.1
				c-0.2,1.4-0.5,2.9-0.9,4.3c-0.3,1,1,1.4,1.3,0.3C124.7,222.1,126,219.5,127.9,220.5z"/>
			<path d="M136.9,222.4c-0.2-0.6-0.5-1-1.2-1c-0.3,0-0.6,0.1-0.8,0.3c0-0.3,0-0.5,0-0.8c0.1-1-1.3-0.9-1.3,0.1
				c-0.1,1.3-0.1,2.5-0.2,3.8c-0.7,0-1.6-0.1-1.3-1.2c0.2-0.9,0.6-1.8,0.8-2.6c0.2-0.5,0-0.8-0.3-0.9c-0.1-0.2-0.2-0.3-0.4-0.4
				c-1-0.4-2.1,0-3.1,0.8c-0.9,0.7-2.1,2.3-2.3,3.6c-0.2,1.3,0.9,2.3,1.8,2.5c0.9,0.2,1.7-0.1,2.3-1c0.5,0.9,1.6,0.9,2.5,0.9
				c0.3,0,0.5-0.3,0.6-0.5c0.2-0.1,0.4-0.3,0.5-0.6c0.1-0.3,0.2-0.6,0.3-0.9c0.2-0.6,0.8-1.6,0.8-0.3c0,0.8,0.8,1,1.2,0.3
				c0.2-0.4,1.4-1.6,1.4-0.5c0,0.9-0.3,1.9-0.6,2.8c-0.3,1,0.9,1.3,1.3,0.3c0.5-1.4,1.3-4.2,0.1-5
				C138.4,221.4,137.6,221.8,136.9,222.4z M130.7,224c-0.2,0.1-0.5,0.2-0.6,0.6c-0.4,0.9-1.1,0.3-1.5,0c-0.6-0.5-0.2-1.1,0.2-1.7
				c0.7-1.1,1.7-1.8,2.6-1.6C131.1,222.1,130.7,223.1,130.7,224z"/>
			<path d="M146.6,223c-0.7-1.1-1.8-0.4-2.7,0.5c-0.2-0.8-0.6-1.4-1.4-1.1c-0.3,0.1-0.6,0.3-0.9,0.6c0-0.2,0-0.4,0.1-0.5
				c0.1-1.1-1.2-0.9-1.3,0.1c-0.2,1.5-0.3,3-0.5,4.4c-0.1,0.9,1.1,1,1.3,0.1c0.2-0.8,0.4-1.5,0.7-2.2c0.1-0.4,0.4-0.6,0.8-0.6
				c0,0.3,0,0.6-0.1,0.9c-0.1,0.8,0.7,0.9,1.1,0.5c0.5-0.6,1.9-2.1,1.8-0.4c-0.1,1.2-0.5,2.4-0.9,3.5c-0.3,1,0.9,1.3,1.3,0.3
				C146.4,227.4,147.6,224.4,146.6,223z"/>
			<path d="M151.8,225.2c0-1.5-1.5-3.2-2.8-2.6c-1.3,0.6-2.4,2.8-2.1,4.3c0.4,1.9,2.5,2.5,4,2.6c0.8,0.1,1.3-1.5,0.5-1.6
				c-1.1-0.1-2.9-0.4-3.2-1.8c0-0.1,0-0.2,0-0.3C149.2,226.2,151.7,227.9,151.8,225.2z M149.3,224.1c0.2,0,0.7,0.4,1,0.8
				c-0.5-0.2-0.9-0.4-1.3-0.6C149.1,224.2,149.2,224.1,149.3,224.1z"/>
			<path d="M158.3,224.6c-1-0.2-2.2-0.4-3.2,0.3c-0.2,0.1-0.4,0.3-0.5,0.4c0-0.3,0.1-0.6,0.1-1c0.1-1.1-1.2-0.9-1.3,0.1
				c-0.1,1.5-0.3,3-0.4,4.6c-0.1,0.9,1.1,1,1.3,0.1c0.2-1,0.5-2.1,1.2-2.7c0.7-0.6,1.7-0.3,2.4-0.2
				C158.6,226.4,159.1,224.8,158.3,224.6z"/>
			<path d="M161.8,225.7c0.3-0.2,0.5-0.6,0.4-0.9l0-0.1c-0.1-0.5-0.5-0.6-0.9-0.4c-0.4-0.1-0.7-0.1-1.2,0.2
				c-0.6,0.4-1.1,1.1-1.1,1.9c0,0.8,0.5,1.3,1,1.7c0.9,0.6,0.1,1.9-0.8,1.9c-0.3,0-1-0.4-1.3-0.8c0.2-0.8-0.7-1.3-1.2-0.5
				c-0.7,1.3,0.6,2.2,1.3,2.6c1,0.6,2.2,0.3,3.1-0.8c0.8-1.1,1-2.5,0.3-3.4c-0.2-0.2-0.4-0.3-0.6-0.5c-0.2-0.1-0.4-0.3-0.5-0.5
				c0.1-0.1,0.3-0.2,0.4-0.4C161.1,226,161.5,226,161.8,225.7z"/>
			<path d="M190.6,227c-4,3.2-10.1,7.9-13.8,1.9c-2.7-4.3-2.2-11.2-2.1-16.1c0.1-4.9,0.6-9.8,1.2-14.6c0.3-2.8,1-5.6,2.8-7.8
				c2-2.5,6.4-2.8,7.3,0.8c0.5,2,3.6,1.2,3.1-0.8c-1.4-5.8-7.8-6.1-11.9-2.9c-2.7,2.1-3.7,6-4.2,9.2c-0.7,4.4-1,9-1.3,13.4
				c-0.4,7.1-0.8,16.5,3.9,22.4c5.1,6.3,12.8,0.3,17.4-3.3C194.5,228,192.2,225.8,190.6,227z"/>
			<path d="M213.5,190.3c-1.6-2.2-3.8-3.7-6.4-4.3c0.2-0.6,0.1-1.4-0.7-1.8c-8.2-5.1-10.6,17.1-11,21.3c-0.6,7.3-0.7,23.8,9.2,25.3
				c4.7,0.7,8.2-3.5,9.8-7.3c2.3-5.3,2.3-11.5,2.3-17.2C216.8,200.8,216.8,195,213.5,190.3z M204.5,227.6c-6-0.9-5.9-14.2-5.9-18.3
				c0-3.7,0.4-7.4,1.1-11c0.2-0.9,1.4-6.4,2.9-9.4c0.3,0.1,0.6,0.2,1,0.1c9.5-1.9,10,11.2,10.1,17.3C213.7,212,214,229,204.5,227.6z
				"/>
			<path d="M221.2,184.8c-0.4,0.2-0.9,0.9-0.8,1.4c1.7,12.5,2.3,25.1,2,37.7c0,0.2,0,0.4,0.1,0.5c-0.1,0.6-0.2,1.2-0.3,1.9
				c-0.2,1.2,1.1,2.7,2.3,1.8c4.5-3.2,10.3-6.2,13.4-10.9c3.4-5.1,3.9-11.3,3.3-17.3C240.3,190.2,231.7,179.5,221.2,184.8z
				 M233.9,216.9c-2.3,2.6-5.4,4.6-8.3,6.5c0.3-12.2-0.4-24.3-1.9-36.3c3.7-1.3,7.5,0.2,10.3,2.9c3.4,3.3,4.1,8.7,4.2,13.1
				C238.4,208.2,237.4,213.1,233.9,216.9z"/>
			<path d="M259.6,216.5c-1.8,3.4-4.5,5.8-8.1,7.3c-0.6,0.2-1.3,0.4-2,0.6c-2,0.5-1.7,0.7-1.8-1.1c-0.1-2.4-0.3-4.7-0.4-7.1
				c-0.2-3-0.4-6.1-0.6-9.1c2.5-0.8,5-1.6,7.5-2.3c2-0.6,1.1-3.7-0.8-3.1c-2.3,0.7-4.6,1.4-6.9,2.1c-0.3-5-0.6-9.9-1-14.9
				c4.6-2.3,9.2-5,14.1-6.2c2-0.5,1.2-3.6-0.8-3.1c-5.6,1.3-10.7,4.4-15.8,6.9c-0.5,0.2-0.8,0.9-0.8,1.4c0.4,6.6,0.9,13.2,1.3,19.8
				c0.2,3.3,0.4,6.6,0.6,9.9c0.2,2.6-0.1,5.7,0.6,8.2c1,3.6,6.4,1.6,8.6,0.7c3.9-1.6,7-4.7,9-8.3
				C263.4,216.3,260.6,214.7,259.6,216.5z"/>
			<path d="M95.6,300.7c-0.7-0.2-1.5-0.5-2.1-0.8l0,0c0.7-0.7,1.4-1.5,2.3-2.1c0.6-0.4,0-1.3-0.5-0.9c-0.5,0.3-1,0.7-1.4,1.1
				c0.1-0.5,0.3-0.9,0.5-1.4c0.2-0.7-0.8-0.9-1-0.3c-0.2,0.5-0.4,1.1-0.5,1.7c-0.3-0.7-0.6-1.5-0.9-2.2c-0.3-0.6-1.3-0.4-1,0.3
				c0.4,1,0.8,2.1,1.3,3.1c-0.6-0.3-1.1-0.6-1.8-0.8c-0.7-0.2-0.9,0.9-0.3,1c0.6,0.2,1.2,0.4,1.7,0.7c-0.6,0.5-1.3,1.1-2,1.6
				c-0.5,0.4,0,1.3,0.5,0.9c0.5-0.4,1.1-0.8,1.6-1.2c-0.2,0.7-0.4,1.4-0.5,2.1c-0.2,0.7,0.9,1,1,0.3c0.2-0.8,0.4-1.6,0.6-2.4
				c0.3,0.9,0.6,1.9,1.1,2.5c0.2,0.2,0.5,0.2,0.8,0l0,0c0.2-0.2,0.2-0.4,0.1-0.6l0,0c-0.1-0.1-0.1-0.2-0.2-0.2
				c-0.2-0.4-0.3-1-0.4-1.3c0-0.1-0.1-0.2-0.1-0.3c0.3,0.1,0.6,0.2,0.8,0.3c0.1,0.1,0.2,0.2,0.4,0.2c0.1,0,0.1,0,0.2,0
				C96,301.7,96.1,300.8,95.6,300.7z"/>
			<path d="M100.2,301.7c0.7,0,0.7-1,0-1.1c-0.7,0-1.4-0.1-2.1-0.1c-0.2,0-0.4,0.2-0.5,0.4c-0.6,1.7-1.2,3.3-1.9,4.9
				c-0.1,0.3,0,0.6,0.3,0.8c0.9,0.3,1.7,0.8,2.5,1.2c0.1,0.1,0.2,0.2,0.4,0.3c0.1,0,0.1,0,0.2,0c0.6,0,0.7-0.7,0.3-1
				c-0.8-0.5-1.7-0.9-2.6-1.3c0.2-0.4,0.4-0.9,0.5-1.4c0.2,0.1,0.3,0.1,0.5,0.2c0.5,0.2,1,0.4,1.5,0.5c0.7,0.2,1-0.9,0.3-1
				c-0.3-0.1-0.6-0.2-0.9-0.3c-0.2,0-0.3-0.1-0.5-0.2c-0.1,0-0.2-0.1-0.3-0.1c-0.1-0.1-0.1-0.1-0.1-0.1l0-0.1
				c0.2-0.6,0.4-1.2,0.7-1.8C99.1,301.7,99.7,301.7,100.2,301.7z"/>
			<path d="M103.5,306.2c0.4-0.4,0.9-0.8,1.3-1.2c0.2-0.2,0.5-0.3,0.6-0.6c0.1-0.5-0.4-1.1-0.9-0.9c-0.4,0.1-0.6,0.4-0.5,0.8
				c-0.4,0.3-0.7,0.6-0.9,0.9c-0.1-0.6-0.2-1.3-0.2-1.9c0-0.7-1.1-0.7-1.1,0c0.1,0.9,0.2,1.9,0.4,2.8c-0.4,0.4-0.9,0.9-1.3,1.3
				c-0.2,0-0.3,0.1-0.4,0.4l0,0.2c-0.1,0.5,0.5,0.9,0.9,0.5c0.3-0.4,0.7-0.7,1.1-1.1c0.1,0.6,0.3,1.2,0.4,1.9c0.1,0.7,1.2,0.4,1-0.3
				c-0.2-0.8-0.3-1.7-0.5-2.5C103.3,306.4,103.4,306.3,103.5,306.2z"/>
			<path d="M108.1,304.7c-0.1-0.1-0.3-0.2-0.5-0.3c0,0-0.1,0-0.2-0.1c-0.1-0.5-0.9-0.6-1,0c-0.3,1-0.7,2-1,3
				c-0.4,0.1-0.6,0.6-0.3,0.9c-0.3,0.8-0.5,1.7-0.8,2.5c-0.2,0.6,0.6,0.9,1,0.4l0.1-0.2c0.1-0.1,0.1-0.3,0.1-0.4
				c0.2-0.6,0.4-1.2,0.5-1.8c0.4,0.2,0.9,0.3,1.4,0.3c0.6-0.1,1.2-0.5,1.4-1.1c0.2-0.7,0.2-1.7-0.1-2.4
				C108.5,305.2,108.4,304.9,108.1,304.7z M106.4,307.6c0.2-0.8,0.5-1.6,0.8-2.3c0.1,0,0.1,0.1,0.2,0.1c0.4,0.3,0.5,0.9,0.6,1.4
				C108,308.1,107.2,308,106.4,307.6z"/>
			<path d="M110.4,307.2L110.4,307.2c-0.5-0.5-1.3,0.2-0.8,0.7l0.1,0.1C110.1,308.4,110.9,307.6,110.4,307.2z"/>
			<path d="M107.8,310.9L107.8,310.9c0,0.7,1.1,0.7,1.1,0.1v-0.1C108.9,310.2,107.8,310.2,107.8,310.9z"/>
			<path d="M114.2,309.2c-0.5,1.2-1.2,2.3-1.8,3.5c0.2-1.3,0.5-2.7,0.5-4c0-0.3-0.4-0.3-0.5-0.1c-0.6,1.5-1.1,3-1.8,4.4
				c-0.1,0.3,0.3,0.6,0.5,0.3c0.4-0.8,0.7-1.7,1.1-2.5c0,0.3-0.1,0.5-0.1,0.8c-0.1,0.8-0.2,1.5-0.2,2.3c0,0.3,0.4,0.4,0.5,0.1
				c0.9-1.5,1.8-3,2.5-4.7C114.8,309,114.3,308.9,114.2,309.2z"/>
			<path d="M115.8,312.1c-0.4-0.1-0.7-0.3-1.1-0.4l0.1-0.1c0.2-0.5,0.4-1,0.6-1.4c0.2-0.4,1.2,0,1.5,0.1c0.3,0.1,0.5-0.4,0.1-0.5
				c-0.6-0.2-1.1-0.3-1.7-0.4c-0.1,0-0.2,0.1-0.3,0.2c-0.6,1.6-1.4,3.1-2.2,4.5c-0.1,0.2,0,0.3,0.2,0.4c0.7,0.2,1.3,0.5,2,0.7
				c0.3,0.1,0.5-0.4,0.1-0.5c-0.6-0.2-1.1-0.4-1.7-0.6c0.3-0.6,0.7-1.3,1-1.9l0,0c0.4,0.1,0.7,0.3,1.1,0.4
				C116,312.7,116.2,312.2,115.8,312.1z"/>
			<path d="M119.9,312.4c0.3-0.2,0-0.7-0.3-0.5c-0.6,0.5-1.2,1-1.8,1.5c-0.3,0.3-0.6,0.6-0.9,1c-0.1,0.1-0.2,0.3-0.4,0.5
				c0.4-1.3,1.1-2.5,1.5-3.9c0.1-0.3-0.4-0.5-0.5-0.1c-0.5,1.7-1.4,3.2-1.8,4.9c-0.1,0.2,0.2,0.4,0.4,0.3c0.6-0.3,0.9-1,1.4-1.5
				C118.3,313.7,119.1,313,119.9,312.4z"/>
			<path d="M121,316.9c-0.6,0.1-1.1,0.1-1.7,0.1c0.3-0.6,0.7-1.2,0.7-1.8v0c0,0,0.7,0,1.2,0.1c0.3,0.1,0.4-0.4,0.1-0.5
				c-0.4-0.1-0.9-0.1-1.3-0.1c0.2-0.5,0.5-1.1,0.6-1.6c0.5,0.2,1.1,0.4,1.6,0.4c0.3,0,0.3-0.5,0-0.5c-0.6,0-1.2-0.3-1.7-0.4
				c-0.1,0-0.3,0-0.3,0.2c-0.1,0.8-0.5,1.4-0.8,2.1c-0.3,0.8-0.4,1.7-0.8,2.4c-0.1,0.2,0,0.4,0.2,0.4c0.8,0,1.5-0.1,2.3-0.1
				C121.4,317.4,121.4,316.8,121,316.9z"/>
			<path d="M124.1,313.4c-0.4-0.2-0.9,0-1,0.4c-0.6,1.6-1.2,3.1-2.1,4.5c-0.2,0.3,0.3,0.6,0.5,0.3c0.3-0.6,0.6-1.1,0.9-1.7
				c0.3,0.9,0.5,1.8,0.6,2.7c0,0.3,0.6,0.3,0.5,0c-0.1-1-0.3-2-0.7-2.9c0.7-0.1,1.6-0.4,1.8-1.1C125,315.1,124.9,313.9,124.1,313.4z
				 M123.3,316.2c-0.2,0-0.4,0.1-0.6,0.1c0.1-0.1,0.1-0.2,0.2-0.4c0.2-0.5,0.4-1.1,0.6-1.6C124.7,314.5,124.7,315.1,123.3,316.2z"/>
			<path d="M100.2,94.2c0.4-0.8,0.7-1.6,1.1-2.4c0.1-0.1,0.2-0.2,0.2-0.3c0.3-0.6,0.6-1.3,0.9-1.9c0.5-0.8,1.1-1.6,1.8-2.3
				c0.3-0.3,0.3-0.6,0.1-0.9c0.2-0.3,0.4-0.5,0.7-0.8c0.3-0.3,0.3-0.6,0.1-0.9c4.4-7.2,9.9-13.7,15.2-20.3c3.4-4.2,5.4-9.1,8.9-13.3
				c3.3-3.9,5.7-8.5,8.4-12.7c0.5-0.9-0.8-1.7-1.4-0.8c-3.1,4.9-6,9.7-9.7,14.2c-3.5,4.2-5.6,9.2-9,13.4
				c-5.5,6.8-11.2,13.7-15.4,21.4c-0.6,0.9-1,1.8-1.5,2.7c-0.1,0.1-0.2,0.3-0.3,0.4c-0.8,1.3-1.6,2.5-1.7,4
				C98.7,94.6,99.9,94.9,100.2,94.2z"/>
			<path d="M176.3,96c0.8-0.1,1.7-0.2,2.5-0.3l0,0c1.6-0.2,3.3-0.4,4.9-0.7c1.1-0.2,3.8-0.1,4-1.6c0.1-0.5-0.2-1-0.8-1
				c-2.9,0.2-5.7,0.8-8.5,1.7l0,0c-0.1,0-0.2,0-0.4,0c-0.1-0.1-0.2-0.1-0.4-0.1c-0.6,0-1.1,0.1-1.7,0.3
				C175.3,94.8,175.3,96.1,176.3,96z"/>
		</g>
	</g>
</g>
</svg>
