<?xml version="1.0" encoding="utf-8"?>
<!-- Generator: Adobe Illustrator 18.1.0, SVG Export Plug-In . SVG Version: 6.00 Build 0)  -->
<svg version="1.1" id="Layer_1" xmlns="http://www.w3.org/2000/svg" xmlns:xlink="http://www.w3.org/1999/xlink" x="0px" y="0px"
	 viewBox="0 0 720 400" enable-background="new 0 0 720 400" xml:space="preserve">
<g>
	<g id="XMLID_1_">
		<g>
			<path d="M475.7,46.2c8.4,15,9,31.1,7.4,47.9c-3,31-9.9,61.2-16.6,91.5c-1.1,4.9-0.8,11.2,1.5,15.5c14,26,16.6,53.5,12.6,82
				c-3.7,26.7-14.7,50.1-31.9,70.8c-1.6,1.9-3.4,3.7-5.3,5.2c-23.9,18.3-50.5,31-80.8,29.6c-40.8-1.9-76.1-18.2-103.3-49.5
				c-13.2-15.1-17.6-34.2-21.1-53.3c-7.6-40.8,8.1-73.9,34.4-103.3c17.1-19.1,37.2-33.7,62.8-39.1c6.9-1.4,13.9-2,22.3-3.2
				c-9.6-3.2-18.1-5.8-26.5-8.8c-8.1-2.9-10.8-7.2-8.9-15.5c6.3-27.5,16.1-53.4,32.4-76.7c11.2-16,27-23.8,45.6-27.1
				C429.3,7,462,21.6,475.7,46.2z M480.2,84.4c-0.3-0.1-0.6-0.2-0.9-0.3c-0.7-5.9-0.8-11.9-2.1-17.6c-5.8-27.2-21.9-44.7-49.4-50.6
				c-27.1-5.8-50.3,0.7-67.1,23.8c-6.3,8.6-12.3,17.8-16.6,27.5c-6.4,14.6-11.4,29.9-16.6,45.1c-1.4,4.1-1.3,8.8,3.3,11.1
				c7.5,3.9,15,7.8,22.8,10.7c7.1,2.6,12.6-2.1,12.5-9.7c-0.1-5.2-2.4-9.1-7.4-11.3c-3.8-1.7-7.6-3.6-11.2-5.7
				c-4.2-2.5-4-4.7,0.5-6.7c2.5-1.1,5.4-1.7,8.2-2c12.3-1.5,17.2-5.8,19.8-17.8c0.3-1.5,0.7-3,1-4.5c6.3-27.8,41.3-30.7,56.1-16
				c10.5,10.4,11.5,23.2,11.4,36.7c-0.2,20.1-5.1,39-14.9,56.6c-2.3,4.1-2.3,7.8,1.5,11.3c6.3,5.9,12.2,12.2,18.6,18
				c7.6,6.8,9.8,6.1,12.3-3.9c2.5-10.2,4.7-20.5,6.7-30.9C472.7,127,476.4,105.7,480.2,84.4z M478,251.7
				c0.9-14.3-7.7-34.4-22.1-52.6c-19.7-24.9-43.7-43.3-75.1-50.8c-6.5-1.6-13.1-1.4-18.8,2.8c-13.4,9.8-27.8,12-43.4,6.2
				c-5.1-1.9-9.7-0.7-13.6,3.3c-2.4,2.5-5,4.7-7.7,6.8c-40.2,30.7-60.4,70.2-52,121.4c4.9,29.9,19.7,54.1,46.6,69.7
				c6.3,3.6,12.8,6.9,19.3,10.1c44.2,21.4,86.1,17.1,124.3-13.2C465.6,331.6,476.9,298.4,478,251.7z M427.4,150.4
				c10.8-22.2,14.3-45.6,10.5-69.8c-2.2-14.3-12.2-23.3-26.2-24.9c-12.8-1.4-24.2,5.5-29.9,18.3c-2,4.5-4,9.2-5.2,13.9
				c-1.9,7.2-5,12.4-14,12.4c8.7,13.8,11.2,27.1,0.4,41.2c0.9,0,2-0.1,3.1,0c17.4,1.5,34.6,3.7,50.2,12.5
				C421.7,157.1,424.6,156,427.4,150.4z"/>
			<path fill="#B3B3B3" d="M479.3,84.1c0.3,0.1,0.6,0.2,0.9,0.3c-3.8,21.3-7.4,42.6-11.4,63.8c-1.9,10.3-4.2,20.6-6.7,30.9
				c-2.4,10-4.7,10.7-12.3,3.9c-6.4-5.7-12.3-12.1-18.6-18c-3.8-3.5-3.8-7.2-1.5-11.3c9.8-17.6,14.6-36.5,14.9-56.6
				c0.2-13.4-0.9-26.3-11.4-36.7c-14.8-14.7-49.8-11.8-56.1,16c-0.3,1.5-0.7,3-1,4.5c-2.6,12-7.6,16.4-19.8,17.8
				c-2.8,0.3-5.7,0.9-8.2,2c-4.5,2-4.6,4.2-0.5,6.7c3.6,2.2,7.4,4.1,11.2,5.7c5,2.2,7.3,6.1,7.4,11.3c0.1,7.6-5.4,12.3-12.5,9.7
				c-7.9-2.9-15.4-6.8-22.8-10.7c-4.6-2.4-4.7-7-3.3-11.1c5.3-15.1,10.2-30.4,16.6-45.1c4.3-9.7,10.3-18.9,16.6-27.5
				c16.8-23.1,40-29.6,67.1-23.8c27.5,5.9,43.6,23.4,49.4,50.6C478.4,72.3,478.6,78.3,479.3,84.1z"/>
			<path fill="#B3B3B3" d="M455.9,199c14.4,18.2,23,38.3,22.1,52.6c-1.1,46.7-12.4,79.9-42.4,103.6c-38.2,30.2-80.2,34.5-124.3,13.2
				c-6.5-3.2-13.1-6.5-19.3-10.1c-26.9-15.6-41.7-39.8-46.6-69.7c-8.4-51.2,11.8-90.7,52-121.4c2.7-2.1,5.4-4.4,7.7-6.8
				c3.9-4.1,8.5-5.3,13.6-3.3c15.6,5.9,30,3.6,43.4-6.2c5.6-4.1,12.3-4.3,18.8-2.8C412.2,155.8,436.3,174.1,455.9,199z M419.3,342.8
				c24.9-18.6,38.5-43.1,37.7-75.5c0-20.8-4.2-39.2-12.2-53.6c-12.3-22.3-31.1-36-54.7-44.7c-14.4-5.3-28.2-8.7-43.6-4.5
				c-12.9,3.6-26.6,5.2-37.2,14.1c-10.2,8.6-20.1,17.8-29.1,27.6c-18.1,20-25.7,43.8-19.4,70.2c9.6,40.6,34.5,67.4,75.4,78.3
				c4.4,1.2,9,1.9,13.5,2.4c19.7,2.4,38.4-3.1,57.1-7.8C411.2,348.3,415.6,345.6,419.3,342.8z"/>
			<path d="M457,267.3c0.8,32.4-12.8,56.8-37.7,75.5c-3.8,2.8-8.1,5.5-12.6,6.6c-18.7,4.7-37.4,10.2-57.1,7.8
				c-4.5-0.6-9.1-1.2-13.5-2.4c-40.9-10.9-65.8-37.7-75.4-78.3c-6.2-26.4,1.3-50.2,19.4-70.2c9-9.9,18.9-19.1,29.1-27.6
				c10.6-8.9,24.3-10.5,37.2-14.1c15.3-4.3,29.2-0.8,43.6,4.5c23.6,8.7,42.5,22.5,54.7,44.7C452.8,228.1,457,246.4,457,267.3z
				 M435.6,242c0-2.6-1.4-5.1-1.9-7.8c-1-4.4-2.7-7.8-8-8.4c-3.6-0.4-4.5-3.1-2.6-5.9c2.7-4.1,1.3-7.6-0.8-11.2
				c-5.7-9.9-14.1-17-23.6-23.1c-7-4.5-8.4-4.2-13.8,2.3c-2.2,2.7-4.6,5.3-7.7,8.8c-1.3-3.4-2.3-5.4-2.8-7.5
				c-1.2-4.5-1.7-9.1-3.2-13.4c-0.7-2-3.3-5.2-4.6-5c-10.4,1.8-23.4-3.2-29.6,10.4c-2.2-1.3-4.7-3.8-5.9-3.3
				c-5.3,2.3-11.7,2.9-14.4,9.3c-2.6,6.2-2.7,6.1-8.2,2c-0.6-0.4-1.3-0.7-2.2-1.1c-2.9,3-5.7,5.9-8.6,8.7c-8.1,8.1-8.2,8.1-7.1,18.4
				c-10.8,2.7-10.8,2.7-15.5,14.2c-0.5,1.2-0.9,2.6-1.7,3.6c-7.7,10.6-7.1,22.2-4.7,34.2c0.8,3.7,2.5,6.1,6.4,7.3
				c4.2,1.3,4.6,3.9,2.1,7.5c-1.2,1.8-2.6,4.6-2.1,6.4c3.2,11.8,8.6,22.5,17.1,31.5c2.5,2.6,5.1,4.1,9.2,2.8
				c5.5-1.8,7.2-0.4,7.1,5.8c-0.1,8.7,6.3,11,12.4,13.8c5.6,2.6,7.1-2.4,10.2-4.9c3-2.4,6.5-4.1,9.8-6.2c1.2,3.2,2.5,6.5,3.6,9.7
				c0.2,0.5,0.1,1.2,0.4,1.7c1.7,2.5,3.2,6.7,5.2,7c5.4,0.7,11.8,4.9,16.2-2.2c2-3.2,4.4-3.2,7.8-2.1c3.8,1.1,8.5,2.2,12.1,1.1
				c7-2.2,13.6-5.8,20.2-9.2c4.5-2.2,6.8-5.7,5.7-11.2c-0.9-4.3,1.4-6.9,5.9-6.1c3.9,0.6,5.5-1.2,6.7-4.4c0.9-2.5,2.2-4.9,3.4-7.3
				c3-6.4,4.9-12.8,1.2-19.8c-0.7-1.3,0.8-4.7,2.3-6c7.4-6,8.6-16.4,1.9-23c-3.6-3.6-3.1-6.1,0.1-9.7
				C435,247.9,435.6,244.6,435.6,242z"/>
			<path fill="#898989" d="M433.7,234.3c0.6,2.6,2,5.2,1.9,7.8c0,2.6-0.6,5.9-2.3,7.7c-3.2,3.6-3.7,6.1-0.1,9.7
				c6.7,6.7,5.5,17-1.9,23c-1.5,1.2-3,4.7-2.3,6c3.7,7,1.9,13.4-1.2,19.8c-1.2,2.4-2.4,4.8-3.4,7.3c-1.2,3.2-2.8,5-6.7,4.4
				c-4.4-0.7-6.7,1.9-5.9,6.1c1.1,5.5-1.2,9-5.7,11.2c-6.6,3.3-13.2,7-20.2,9.2c-3.6,1.1-8.2,0-12.1-1.1c-3.5-1-5.8-1.1-7.8,2.1
				c-4.4,7.1-10.8,3-16.2,2.2c-2-0.3-3.5-4.5-5.2-7c-0.3-0.4-0.2-1.1-0.4-1.7c-1.2-3.3-2.4-6.5-3.6-9.7c-3.3,2-6.8,3.7-9.8,6.2
				c-3.1,2.5-4.7,7.5-10.2,4.9c-6.1-2.9-12.5-5.1-12.4-13.8c0.1-6.2-1.6-7.5-7.1-5.8c-4.1,1.3-6.7-0.1-9.2-2.8
				c-8.5-9-13.9-19.7-17.1-31.5c-0.5-1.8,0.9-4.6,2.1-6.4c2.5-3.6,2.1-6.2-2.1-7.5c-3.9-1.1-5.6-3.6-6.4-7.3
				c-2.4-12-3-23.6,4.7-34.2c0.8-1,1.2-2.4,1.7-3.6c4.8-11.4,4.8-11.4,15.5-14.2c-1.1-10.2-1.1-10.2,7.1-18.4
				c2.8-2.8,5.6-5.7,8.6-8.7c0.9,0.5,1.6,0.7,2.2,1.1c5.5,4.1,5.6,4.1,8.2-2c2.7-6.4,9.2-7.1,14.4-9.3c1.2-0.5,3.7,2,5.9,3.3
				c6.2-13.6,19.2-8.5,29.6-10.4c1.3-0.2,3.9,2.9,4.6,5c1.5,4.3,2,8.9,3.2,13.4c0.5,2.1,1.5,4.1,2.8,7.5c3.1-3.5,5.5-6.1,7.7-8.8
				c5.4-6.6,6.8-6.9,13.8-2.3c9.5,6.1,17.9,13.1,23.6,23.1c2.1,3.6,3.5,7.1,0.8,11.2c-1.8,2.8-1,5.5,2.6,5.9
				C431,226.4,432.7,229.8,433.7,234.3z M412.4,286c1.8-0.9,3.6-5.7,2.8-7.4c-6.2-13.3-12.9-26.4-19.9-39.3
				c-0.8-1.5-4.9-2.5-6.5-1.7c-1.5,0.8-2.1,4.1-2.3,6.4c-0.1,1.5,1.3,3.1,2.1,4.6c5.1,9.8,10.2,19.6,15.5,29.9
				c-11.4,5.4-22.2,10.4-32.8,15.7c-2.5,1.3-4.3,4-6.4,6.1c0.3,0.7,0.5,1.4,0.8,2.1c3,0.5,6.6,2.4,8.9,1.4
				C387.4,298.3,400,292.3,412.4,286z M394.8,225c2.8-2.7,5.3-5.6,2.1-9.3c-3.2-3.6-6.3-1.1-9.1,1c-2.8,2-5.4,4.3-7.9,6.7
				c-22.4,22.3-44.8,44.7-67.1,67.1c-1.3,1.3-2.8,2.7-3.7,4.4c-1.8,3.1,0.7,7.3,5.9,7.6c1.9-1.7,4.9-3.9,7.5-6.6
				c16.4-16.4,32.7-32.9,49.2-49.2C379.2,239.2,387.1,232.2,394.8,225z M347.6,220.6c3.8-1.2,6.1-3.4,4.6-7.7
				c-1.4-4-4.5-3.4-7.6-2.4c-13.9,4.4-27.8,8.6-41.6,13c-5.9,1.9-7,4.3-5.2,10.5c2.6,9.4,5.3,18.8,8,28.2c1.1,3.9,1.8,7.9,3.5,11.5
				c0.8,1.7,4.2,3.6,5.5,3.1c1.8-0.8,3.1-3.5,3.9-5.7c0.4-1.2-0.6-2.9-1-4.4c-3-11-6.1-22.1-9.2-33.4c2.2-0.8,3.9-1.5,5.7-2
				C325.4,227.8,336.5,224.2,347.6,220.6z"/>
			<path d="M415.1,278.6c0.8,1.8-0.9,6.5-2.8,7.4c-12.4,6.3-25,12.3-37.9,17.7c-2.4,1-5.9-0.9-8.9-1.4c-0.3-0.7-0.5-1.4-0.8-2.1
				c2.1-2.1,3.9-4.8,6.4-6.1c10.6-5.4,21.3-10.3,32.8-15.7c-5.3-10.3-10.4-20.1-15.5-29.9c-0.8-1.5-2.2-3.1-2.1-4.6
				c0.1-2.3,0.8-5.7,2.3-6.4c1.6-0.8,5.7,0.3,6.5,1.7C402.2,252.2,408.9,265.3,415.1,278.6z"/>
			<path d="M396.9,215.7c3.2,3.7,0.7,6.7-2.1,9.3c-7.7,7.2-15.5,14.2-23,21.6c-16.5,16.3-32.8,32.8-49.2,49.2
				c-2.6,2.6-5.6,4.9-7.5,6.6c-5.2-0.3-7.7-4.4-5.9-7.6c0.9-1.6,2.3-3,3.7-4.4c22.3-22.4,44.7-44.8,67.1-67.1
				c2.4-2.4,5.1-4.6,7.9-6.7C390.5,214.6,393.7,212.1,396.9,215.7z"/>
			<path d="M352.2,212.9c1.5,4.3-0.8,6.5-4.6,7.7c-11.1,3.6-22.2,7.1-33.4,10.7c-1.8,0.6-3.6,1.3-5.7,2c3.1,11.3,6.2,22.3,9.2,33.4
				c0.4,1.5,1.4,3.2,1,4.4c-0.8,2.2-2.1,4.9-3.9,5.7c-1.3,0.5-4.7-1.5-5.5-3.1c-1.7-3.5-2.4-7.6-3.5-11.5c-2.7-9.4-5.3-18.8-8-28.2
				c-1.7-6.2-0.6-8.7,5.2-10.5c13.9-4.4,27.8-8.7,41.6-13C347.8,209.6,350.8,208.9,352.2,212.9z"/>
			<path d="M282.2,53.3c10.5,7.2,33.6,43.6,31.9,50.2C303.3,102.9,279.8,66.5,282.2,53.3z M305.4,89.8c-4.9-7.6-9.7-15.2-14.6-22.8
				c-0.6,0.3-1.2,0.7-1.8,1c4.8,7.7,9.6,15.4,14.4,23.1C304.1,90.6,304.7,90.2,305.4,89.8z"/>
			<path d="M309.9,113.3c1.7,0.7,2.8,3.2,4.4,5c-7.4,2.6-25.6-3.6-38.2-11.5l0.7-1.9c7.3,2.8,14.6,5.7,21.9,8.5
				c0.2-0.7,0.5-1.3,0.7-2c-7.5-2.8-15-5.6-22.5-8.4l1.2-3.2C289.1,104.2,299.4,108.9,309.9,113.3z"/>
			<path fill="#6F8087" d="M290.8,66.9c4.9,7.6,9.7,15.2,14.6,22.8c-0.7,0.4-1.4,0.9-2,1.3c-4.8-7.7-9.6-15.4-14.4-23.1
				C289.6,67.6,290.2,67.3,290.8,66.9z"/>
			<path fill="#6F8087" d="M299.4,111.5c-0.2,0.7-0.5,1.3-0.7,2c-7.3-2.8-14.6-5.7-21.9-8.5c-0.2-0.1-0.3-0.1-0.5-0.2
				c0.2-0.6,0.4-1.1,0.6-1.7C284.4,105.9,291.9,108.7,299.4,111.5z"/>
			<path d="M266.8,140.9c14.4-7.3,29.5-6.7,45.3-8.5C306.3,142.9,278.4,147.6,266.8,140.9z"/>
			<path d="M278.1,99.9l-1.2,3.2c-0.2,0.6-0.4,1.1-0.6,1.7c0.2,0.1,0.3,0.1,0.5,0.2l-0.7,1.9c-6.4-4-11.4-8.4-12.9-12.2
				C268.3,96.3,273.3,98.1,278.1,99.9z"/>
		</g>
		<g>
		</g>
	</g>
</g>
</svg>
